<svg width="491" height="336" viewBox="0 0 491 336" fill="none" xmlns="http://www.w3.org/2000/svg">
<rect width="491" height="336" fill="none"/>
<rect x="147" y="189" width="140" height="140" rx="25" transform="rotate(-45 147 189)" fill="#F7F5F5"/>
<g clip-path="url(#clip0_2_4)">
<path d="M233.104 93.8004C233.734 90.8388 235.693 88.2865 238.55 86.7051C241.407 85.1236 244.929 84.6425 248.34 85.3677C251.934 86.1437 255.126 88.0955 257.251 90.8148L259.885 94.3055" stroke="white" stroke-width="1.5" stroke-linecap="round" stroke-linejoin="round"/>
<path d="M261.203 88.1017L259.885 94.3055L252.739 92.7865" stroke="white" stroke-width="1.5" stroke-linecap="round" stroke-linejoin="round"/>
</g>
<path d="M238.427 78V76.858L241.457 73.8878C241.747 73.5952 241.989 73.3352 242.182 73.108C242.375 72.8807 242.52 72.6605 242.616 72.4474C242.713 72.2344 242.761 72.0071 242.761 71.7656C242.761 71.4901 242.699 71.2543 242.574 71.0582C242.449 70.8594 242.277 70.706 242.058 70.598C241.839 70.4901 241.591 70.4361 241.312 70.4361C241.025 70.4361 240.774 70.4957 240.558 70.6151C240.342 70.7315 240.175 70.8977 240.055 71.1136C239.939 71.3295 239.881 71.5866 239.881 71.8849H238.376C238.376 71.331 238.503 70.8494 238.756 70.4403C239.008 70.0312 239.356 69.7145 239.8 69.4901C240.246 69.2656 240.757 69.1534 241.334 69.1534C241.919 69.1534 242.433 69.2628 242.876 69.4815C243.319 69.7003 243.663 70 243.908 70.3807C244.155 70.7614 244.278 71.196 244.278 71.6847C244.278 72.0114 244.216 72.3324 244.091 72.6477C243.966 72.9631 243.746 73.3125 243.43 73.696C243.118 74.0795 242.679 74.544 242.114 75.0895L240.609 76.6193V76.679H244.41V78H238.427ZM247.159 71.4545L248.48 73.8707L249.822 71.4545H251.454L249.481 74.7273L251.489 78H249.865L248.48 75.6435L247.108 78H245.471L247.466 74.7273L245.523 71.4545H247.159Z" fill="white"/>
<path d="M35.0625 42H29.3906V26H35.1094C36.7188 26 38.1042 26.3203 39.2656 26.9609C40.4271 27.5964 41.3203 28.5104 41.9453 29.7031C42.5755 30.8958 42.8906 32.3229 42.8906 33.9844C42.8906 35.651 42.5755 37.0833 41.9453 38.2812C41.3203 39.4792 40.4219 40.3984 39.25 41.0391C38.0833 41.6797 36.6875 42 35.0625 42ZM32.7734 39.1016H34.9219C35.9219 39.1016 36.763 38.9245 37.4453 38.5703C38.1328 38.2109 38.6484 37.6562 38.9922 36.9062C39.3411 36.151 39.5156 35.1771 39.5156 33.9844C39.5156 32.8021 39.3411 31.8359 38.9922 31.0859C38.6484 30.3359 38.1354 29.7839 37.4531 29.4297C36.7708 29.0755 35.9297 28.8984 34.9297 28.8984H32.7734V39.1016ZM53.0293 36.8906V30H56.3574V42H53.1621V39.8203H53.0371C52.7663 40.5234 52.3158 41.0885 51.6855 41.5156C51.0605 41.9427 50.2975 42.1563 49.3965 42.1563C48.5944 42.1563 47.8887 41.974 47.2793 41.6094C46.6699 41.2448 46.1934 40.7266 45.8496 40.0547C45.5111 39.3828 45.3392 38.5781 45.334 37.6406V30H48.6621V37.0469C48.6673 37.7552 48.8574 38.3151 49.2324 38.7266C49.6074 39.138 50.11 39.3437 50.7402 39.3437C51.1413 39.3437 51.5163 39.2526 51.8652 39.0703C52.2142 38.8828 52.4954 38.6068 52.709 38.2422C52.9277 37.8776 53.0345 37.4271 53.0293 36.8906ZM59.0195 42V30H62.2461V32.0937H62.3711C62.5898 31.349 62.957 30.7865 63.4727 30.4063C63.9883 30.0208 64.582 29.8281 65.2539 29.8281C65.4206 29.8281 65.6003 29.8385 65.793 29.8594C65.9857 29.8802 66.1549 29.9089 66.3008 29.9453V32.8984C66.1445 32.8516 65.9284 32.8099 65.6523 32.7734C65.3763 32.737 65.1237 32.7188 64.8945 32.7188C64.4049 32.7188 63.9674 32.8255 63.582 33.0391C63.2018 33.2474 62.8997 33.5391 62.6758 33.9141C62.457 34.2891 62.3477 34.7214 62.3477 35.2109V42H59.0195ZM71.0996 42.2266C70.334 42.2266 69.6517 42.0938 69.0527 41.8281C68.4538 41.5573 67.9798 41.1589 67.6309 40.6328C67.2871 40.1016 67.1152 39.4401 67.1152 38.6484C67.1152 37.9818 67.2376 37.4219 67.4824 36.9687C67.7272 36.5156 68.0605 36.151 68.4824 35.875C68.9043 35.599 69.3835 35.3906 69.9199 35.25C70.4616 35.1094 71.0293 35.0104 71.623 34.9531C72.321 34.8802 72.8835 34.8125 73.3105 34.75C73.7376 34.6823 74.0475 34.5833 74.2402 34.4531C74.4329 34.3229 74.5293 34.1302 74.5293 33.875V33.8281C74.5293 33.3333 74.373 32.9505 74.0605 32.6797C73.7533 32.4089 73.3158 32.2734 72.748 32.2734C72.1491 32.2734 71.6725 32.4062 71.3184 32.6719C70.9642 32.9323 70.7298 33.2604 70.6152 33.6562L67.5371 33.4062C67.6934 32.6771 68.0007 32.0469 68.459 31.5156C68.9173 30.9792 69.5085 30.5677 70.2324 30.2812C70.9616 29.9896 71.8053 29.8438 72.7637 29.8438C73.4303 29.8438 74.0684 29.9219 74.6777 30.0781C75.2923 30.2344 75.8366 30.4766 76.3105 30.8047C76.7897 31.1328 77.1673 31.5547 77.4434 32.0703C77.7194 32.5807 77.8574 33.1927 77.8574 33.9062V42H74.7012V40.3359H74.6074C74.4147 40.7109 74.1569 41.0417 73.834 41.3281C73.5111 41.6094 73.123 41.8307 72.6699 41.9922C72.2168 42.1484 71.6934 42.2266 71.0996 42.2266ZM72.0527 39.9297C72.5423 39.9297 72.9746 39.8333 73.3496 39.6406C73.7246 39.4427 74.0189 39.1771 74.2324 38.8438C74.446 38.5104 74.5527 38.1328 74.5527 37.7109V36.4375C74.4486 36.5052 74.3053 36.5677 74.123 36.625C73.946 36.6771 73.7454 36.7266 73.5215 36.7734C73.2975 36.8151 73.0736 36.8542 72.8496 36.8906C72.6257 36.9219 72.4225 36.9505 72.2402 36.9766C71.8496 37.0339 71.5085 37.125 71.2168 37.25C70.9251 37.375 70.6986 37.5443 70.5371 37.7578C70.3757 37.9661 70.2949 38.2266 70.2949 38.5391C70.2949 38.9922 70.459 39.3385 70.7871 39.5781C71.1204 39.8125 71.5423 39.9297 72.0527 39.9297ZM86.8223 30V32.5H79.5957V30H86.8223ZM81.2363 27.125H84.5645V38.3125C84.5645 38.6198 84.6113 38.8594 84.7051 39.0312C84.7988 39.1979 84.929 39.3151 85.0957 39.3828C85.2676 39.4505 85.4655 39.4844 85.6895 39.4844C85.8457 39.4844 86.002 39.4714 86.1582 39.4453C86.3145 39.4141 86.4342 39.3906 86.5176 39.375L87.041 41.8516C86.8743 41.9036 86.64 41.9635 86.3379 42.0313C86.0358 42.1042 85.6686 42.1484 85.2363 42.1641C84.4342 42.1953 83.7311 42.0885 83.127 41.8437C82.528 41.599 82.0618 41.2187 81.7285 40.7031C81.3952 40.1875 81.2311 39.5365 81.2363 38.75V27.125ZM88.9902 42V30H92.3184V42H88.9902ZM90.6621 28.4531C90.1673 28.4531 89.7428 28.2891 89.3887 27.9609C89.0397 27.6276 88.8652 27.2292 88.8652 26.7656C88.8652 26.3073 89.0397 25.9141 89.3887 25.5859C89.7428 25.2526 90.1673 25.0859 90.6621 25.0859C91.1569 25.0859 91.5788 25.2526 91.9277 25.5859C92.2819 25.9141 92.459 26.3073 92.459 26.7656C92.459 27.2292 92.2819 27.6276 91.9277 27.9609C91.5788 28.2891 91.1569 28.4531 90.6621 28.4531ZM100.406 42.2344C99.1927 42.2344 98.1432 41.9766 97.2578 41.4609C96.3776 40.9401 95.6979 40.2161 95.2187 39.2891C94.7396 38.3568 94.5 37.276 94.5 36.0469C94.5 34.8073 94.7396 33.724 95.2187 32.7969C95.6979 31.8646 96.3776 31.1406 97.2578 30.625C98.1432 30.1042 99.1927 29.8438 100.406 29.8438C101.62 29.8438 102.667 30.1042 103.547 30.625C104.432 31.1406 105.115 31.8646 105.594 32.7969C106.073 33.724 106.313 34.8073 106.313 36.0469C106.313 37.276 106.073 38.3568 105.594 39.2891C105.115 40.2161 104.432 40.9401 103.547 41.4609C102.667 41.9766 101.62 42.2344 100.406 42.2344ZM100.422 39.6562C100.974 39.6562 101.435 39.5 101.805 39.1875C102.174 38.8698 102.453 38.4375 102.641 37.8906C102.833 37.3437 102.93 36.7214 102.93 36.0234C102.93 35.3255 102.833 34.7031 102.641 34.1562C102.453 33.6094 102.174 33.1771 101.805 32.8594C101.435 32.5417 100.974 32.3828 100.422 32.3828C99.8646 32.3828 99.3958 32.5417 99.0156 32.8594C98.6406 33.1771 98.3568 33.6094 98.1641 34.1562C97.9766 34.7031 97.8828 35.3255 97.8828 36.0234C97.8828 36.7214 97.9766 37.3437 98.1641 37.8906C98.3568 38.4375 98.6406 38.8698 99.0156 39.1875C99.3958 39.5 99.8646 39.6562 100.422 39.6562ZM111.805 35.0625V42H108.477V30H111.648V32.1172H111.789C112.055 31.4193 112.5 30.8672 113.125 30.4609C113.75 30.0495 114.508 29.8438 115.398 29.8438C116.232 29.8438 116.958 30.026 117.578 30.3906C118.198 30.7552 118.68 31.276 119.023 31.9531C119.367 32.625 119.539 33.4271 119.539 34.3594V42H116.211V34.9531C116.216 34.2187 116.029 33.6458 115.648 33.2344C115.268 32.8177 114.745 32.6094 114.078 32.6094C113.63 32.6094 113.234 32.7057 112.891 32.8984C112.552 33.0911 112.286 33.3724 112.094 33.7422C111.906 34.1068 111.81 34.5469 111.805 35.0625ZM129.199 40.1406C128.684 40.1406 128.241 39.9583 127.871 39.5938C127.507 39.2292 127.324 38.7865 127.324 38.2656C127.324 37.7552 127.507 37.3177 127.871 36.9531C128.241 36.5885 128.684 36.4062 129.199 36.4062C129.699 36.4062 130.137 36.5885 130.512 36.9531C130.887 37.3177 131.074 37.7552 131.074 38.2656C131.074 38.6094 130.986 38.9245 130.809 39.2109C130.637 39.4922 130.41 39.7187 130.129 39.8906C129.848 40.0573 129.538 40.1406 129.199 40.1406ZM129.199 32.2891C128.684 32.2891 128.241 32.1068 127.871 31.7422C127.507 31.3776 127.324 30.9349 127.324 30.4141C127.324 29.9036 127.507 29.4687 127.871 29.1094C128.241 28.7448 128.684 28.5625 129.199 28.5625C129.699 28.5625 130.137 28.7448 130.512 29.1094C130.887 29.4687 131.074 29.9036 131.074 30.4141C131.074 30.763 130.986 31.0807 130.809 31.3672C130.637 31.6484 130.41 31.8724 130.129 32.0391C129.848 32.2057 129.538 32.2891 129.199 32.2891ZM144.711 42.2187C143.607 42.2187 142.622 42.0156 141.758 41.6094C140.898 41.2031 140.216 40.6432 139.711 39.9297C139.206 39.2161 138.943 38.3984 138.922 37.4766H142.203C142.24 38.0964 142.5 38.599 142.984 38.9844C143.469 39.3698 144.044 39.5625 144.711 39.5625C145.242 39.5625 145.711 39.4453 146.117 39.2109C146.529 38.9714 146.849 38.6406 147.078 38.2188C147.313 37.7917 147.43 37.3021 147.43 36.75C147.43 36.1875 147.31 35.6927 147.07 35.2656C146.836 34.8385 146.51 34.5052 146.094 34.2656C145.677 34.026 145.201 33.9036 144.664 33.8984C144.195 33.8984 143.74 33.9948 143.297 34.1875C142.859 34.3802 142.518 34.6432 142.273 34.9766L139.266 34.4375L140.023 26H149.805V28.7656H142.812L142.398 32.7734H142.492C142.773 32.3776 143.198 32.0495 143.766 31.7891C144.333 31.5286 144.969 31.3984 145.672 31.3984C146.635 31.3984 147.495 31.625 148.25 32.0781C149.005 32.5312 149.602 33.1536 150.039 33.9453C150.477 34.7318 150.693 35.638 150.688 36.6641C150.693 37.7422 150.443 38.7005 149.937 39.5391C149.438 40.3724 148.737 41.0286 147.836 41.5078C146.94 41.9818 145.898 42.2187 144.711 42.2187ZM166.912 30.6016C166.85 29.9714 166.581 29.4818 166.107 29.1328C165.633 28.7839 164.99 28.6094 164.178 28.6094C163.626 28.6094 163.16 28.6875 162.779 28.8437C162.399 28.9948 162.107 29.2057 161.904 29.4766C161.706 29.7474 161.607 30.0547 161.607 30.3984C161.597 30.6849 161.657 30.9349 161.787 31.1484C161.923 31.362 162.107 31.5469 162.342 31.7031C162.576 31.8542 162.847 31.987 163.154 32.1016C163.462 32.2109 163.79 32.3047 164.139 32.3828L165.576 32.7266C166.274 32.8828 166.915 33.0911 167.498 33.3516C168.081 33.612 168.587 33.9323 169.014 34.3125C169.441 34.6927 169.771 35.1406 170.006 35.6562C170.245 36.1719 170.368 36.763 170.373 37.4297C170.368 38.4089 170.118 39.2578 169.623 39.9766C169.133 40.6901 168.425 41.2448 167.498 41.6406C166.576 42.0312 165.464 42.2266 164.162 42.2266C162.87 42.2266 161.745 42.0286 160.787 41.6328C159.834 41.237 159.089 40.651 158.553 39.875C158.021 39.0937 157.743 38.1276 157.717 36.9766H160.99C161.027 37.513 161.18 37.9609 161.451 38.3203C161.727 38.6745 162.094 38.9427 162.553 39.125C163.016 39.3021 163.54 39.3906 164.123 39.3906C164.696 39.3906 165.193 39.3073 165.615 39.1406C166.042 38.974 166.373 38.7422 166.607 38.4453C166.842 38.1484 166.959 37.8073 166.959 37.4219C166.959 37.0625 166.852 36.7604 166.639 36.5156C166.43 36.2708 166.123 36.0625 165.717 35.8906C165.316 35.7187 164.824 35.5625 164.24 35.4219L162.498 34.9844C161.149 34.6562 160.084 34.1432 159.303 33.4453C158.521 32.7474 158.133 31.8073 158.139 30.625C158.133 29.6562 158.391 28.8099 158.912 28.0859C159.438 27.362 160.16 26.7969 161.076 26.3906C161.993 25.9844 163.035 25.7812 164.201 25.7812C165.389 25.7812 166.425 25.9844 167.311 26.3906C168.201 26.7969 168.894 27.362 169.389 28.0859C169.883 28.8099 170.139 29.6484 170.154 30.6016H166.912ZM178.055 42.2344C176.82 42.2344 175.758 41.9844 174.867 41.4844C173.982 40.9792 173.299 40.2656 172.82 39.3437C172.341 38.4167 172.102 37.3203 172.102 36.0547C172.102 34.8203 172.341 33.737 172.82 32.8047C173.299 31.8724 173.974 31.1458 174.844 30.625C175.719 30.1042 176.745 29.8438 177.922 29.8438C178.714 29.8438 179.451 29.9714 180.133 30.2266C180.82 30.4766 181.419 30.8542 181.93 31.3594C182.445 31.8646 182.846 32.5 183.133 33.2656C183.419 34.026 183.563 34.9167 183.563 35.9375V36.8516H173.43V34.7891H180.43C180.43 34.3099 180.326 33.8854 180.117 33.5156C179.909 33.1458 179.62 32.8568 179.25 32.6484C178.885 32.4349 178.461 32.3281 177.977 32.3281C177.471 32.3281 177.023 32.4453 176.633 32.6797C176.247 32.9089 175.945 33.2187 175.727 33.6094C175.508 33.9948 175.396 34.4245 175.391 34.8984V36.8594C175.391 37.4531 175.5 37.9661 175.719 38.3984C175.943 38.8307 176.258 39.1641 176.664 39.3984C177.07 39.6328 177.552 39.75 178.109 39.75C178.479 39.75 178.818 39.6979 179.125 39.5938C179.432 39.4896 179.695 39.3333 179.914 39.125C180.133 38.9167 180.299 38.6615 180.414 38.3594L183.492 38.5625C183.336 39.3021 183.016 39.9479 182.531 40.5C182.052 41.0469 181.432 41.474 180.672 41.7813C179.917 42.0833 179.044 42.2344 178.055 42.2344ZM191.156 42.2344C189.927 42.2344 188.87 41.974 187.984 41.4531C187.104 40.9271 186.427 40.1979 185.953 39.2656C185.484 38.3333 185.25 37.2604 185.25 36.0469C185.25 34.8177 185.487 33.7396 185.961 32.8125C186.44 31.8802 187.12 31.1536 188 30.6328C188.88 30.1068 189.927 29.8438 191.141 29.8438C192.188 29.8438 193.104 30.0339 193.891 30.4141C194.677 30.7943 195.299 31.3281 195.758 32.0156C196.216 32.7031 196.469 33.5104 196.516 34.4375H193.375C193.286 33.8385 193.052 33.3568 192.672 32.9922C192.297 32.6224 191.805 32.4375 191.195 32.4375C190.68 32.4375 190.229 32.5781 189.844 32.8594C189.464 33.1354 189.167 33.5391 188.953 34.0703C188.74 34.6016 188.633 35.2448 188.633 36C188.633 36.7656 188.737 37.4167 188.945 37.9531C189.159 38.4896 189.458 38.8984 189.844 39.1797C190.229 39.4609 190.68 39.6016 191.195 39.6016C191.576 39.6016 191.917 39.5234 192.219 39.3672C192.526 39.2109 192.779 38.9844 192.977 38.6875C193.18 38.3854 193.313 38.0234 193.375 37.6016H196.516C196.464 38.5182 196.214 39.3255 195.766 40.0234C195.323 40.7161 194.711 41.2578 193.93 41.6484C193.148 42.0391 192.224 42.2344 191.156 42.2344ZM29.3906 69V53H35.7031C36.9115 53 37.9427 53.2161 38.7969 53.6484C39.6563 54.0755 40.3099 54.6823 40.7578 55.4688C41.2109 56.25 41.4375 57.1693 41.4375 58.2266C41.4375 59.2891 41.2083 60.2031 40.75 60.9687C40.2917 61.7292 39.6276 62.3125 38.7578 62.7187C37.8932 63.125 36.8464 63.3281 35.6172 63.3281H31.3906V60.6094H35.0703C35.7161 60.6094 36.2526 60.5208 36.6797 60.3438C37.1068 60.1667 37.4245 59.901 37.6328 59.5469C37.8464 59.1927 37.9531 58.7526 37.9531 58.2266C37.9531 57.6953 37.8464 57.2474 37.6328 56.8828C37.4245 56.5182 37.1042 56.2422 36.6719 56.0547C36.2448 55.862 35.7057 55.7656 35.0547 55.7656H32.7734V69H29.3906ZM38.0313 61.7188L42.0078 69H38.2734L34.3828 61.7188H38.0313ZM49.041 69.2344C47.8066 69.2344 46.7441 68.9844 45.8535 68.4844C44.9681 67.9792 44.2858 67.2656 43.8066 66.3437C43.3275 65.4167 43.0879 64.3203 43.0879 63.0547C43.0879 61.8203 43.3275 60.737 43.8066 59.8047C44.2858 58.8724 44.9603 58.1458 45.8301 57.625C46.7051 57.1042 47.7311 56.8438 48.9082 56.8438C49.6999 56.8438 50.4368 56.9714 51.1191 57.2266C51.8066 57.4766 52.4056 57.8542 52.916 58.3594C53.4316 58.8646 53.8327 59.5 54.1191 60.2656C54.4056 61.026 54.5488 61.9167 54.5488 62.9375V63.8516H44.416V61.7891H51.416C51.416 61.3099 51.3118 60.8854 51.1035 60.5156C50.8952 60.1458 50.6061 59.8568 50.2363 59.6484C49.8717 59.4349 49.4473 59.3281 48.9629 59.3281C48.4577 59.3281 48.0098 59.4453 47.6191 59.6797C47.2337 59.9089 46.9316 60.2187 46.7129 60.6094C46.4941 60.9948 46.3822 61.4245 46.377 61.8984V63.8594C46.377 64.4531 46.4863 64.9661 46.7051 65.3984C46.929 65.8307 47.2441 66.1641 47.6504 66.3984C48.0566 66.6328 48.5384 66.75 49.0957 66.75C49.4655 66.75 49.804 66.6979 50.1113 66.5938C50.4186 66.4896 50.6816 66.3333 50.9004 66.125C51.1191 65.9167 51.2858 65.6615 51.4004 65.3594L54.4785 65.5625C54.3223 66.3021 54.002 66.9479 53.5176 67.5C53.0384 68.0469 52.4186 68.474 51.6582 68.7813C50.903 69.0833 50.0306 69.2344 49.041 69.2344ZM56.7207 73.5V57H60.002V59.0156H60.1504C60.2962 58.6927 60.5072 58.3646 60.7832 58.0312C61.0645 57.6927 61.429 57.4115 61.877 57.1875C62.3301 56.9583 62.8926 56.8438 63.5645 56.8438C64.4395 56.8438 65.2467 57.0729 65.9863 57.5313C66.7259 57.9844 67.3171 58.6693 67.7598 59.5859C68.2025 60.4974 68.4238 61.6406 68.4238 63.0156C68.4238 64.3542 68.2077 65.4844 67.7754 66.4062C67.3483 67.3229 66.765 68.0182 66.0254 68.4922C65.291 68.9609 64.4681 69.1953 63.5566 69.1953C62.9108 69.1953 62.3613 69.0885 61.9082 68.875C61.4603 68.6615 61.0931 68.3932 60.8066 68.0703C60.5202 67.7422 60.3014 67.4115 60.1504 67.0781H60.0488V73.5H56.7207ZM59.9785 63C59.9785 63.7135 60.0775 64.3359 60.2754 64.8672C60.4733 65.3984 60.7598 65.8125 61.1348 66.1094C61.5098 66.401 61.9655 66.5469 62.502 66.5469C63.0436 66.5469 63.502 66.3984 63.877 66.1016C64.252 65.7995 64.5358 65.3828 64.7285 64.8516C64.9264 64.3151 65.0254 63.6979 65.0254 63C65.0254 62.3073 64.929 61.6979 64.7363 61.1719C64.5436 60.6458 64.2598 60.2344 63.8848 59.9375C63.5098 59.6406 63.0488 59.4922 62.502 59.4922C61.9603 59.4922 61.502 59.6354 61.127 59.9219C60.7572 60.2083 60.4733 60.6146 60.2754 61.1406C60.0775 61.6667 59.9785 62.2865 59.9785 63ZM76.1113 69.2344C74.877 69.2344 73.8145 68.9844 72.9238 68.4844C72.0384 67.9792 71.3561 67.2656 70.877 66.3437C70.3978 65.4167 70.1582 64.3203 70.1582 63.0547C70.1582 61.8203 70.3978 60.737 70.877 59.8047C71.3561 58.8724 72.0306 58.1458 72.9004 57.625C73.7754 57.1042 74.8014 56.8438 75.9785 56.8438C76.7702 56.8438 77.5072 56.9714 78.1895 57.2266C78.877 57.4766 79.4759 57.8542 79.9863 58.3594C80.502 58.8646 80.903 59.5 81.1895 60.2656C81.4759 61.026 81.6191 61.9167 81.6191 62.9375V63.8516H71.4863V61.7891H78.4863C78.4863 61.3099 78.3822 60.8854 78.1738 60.5156C77.9655 60.1458 77.6764 59.8568 77.3066 59.6484C76.9421 59.4349 76.5176 59.3281 76.0332 59.3281C75.528 59.3281 75.0801 59.4453 74.6895 59.6797C74.304 59.9089 74.002 60.2187 73.7832 60.6094C73.5645 60.9948 73.4525 61.4245 73.4473 61.8984V63.8594C73.4473 64.4531 73.5566 64.9661 73.7754 65.3984C73.9993 65.8307 74.3145 66.1641 74.7207 66.3984C75.127 66.6328 75.6087 66.75 76.166 66.75C76.5358 66.75 76.8743 66.6979 77.1816 66.5938C77.4889 66.4896 77.752 66.3333 77.9707 66.125C78.1895 65.9167 78.3561 65.6615 78.4707 65.3594L81.5488 65.5625C81.3926 66.3021 81.0723 66.9479 80.5879 67.5C80.1087 68.0469 79.4889 68.474 78.7285 68.7813C77.9733 69.0833 77.1009 69.2344 76.1113 69.2344ZM87.2129 69.2266C86.4473 69.2266 85.765 69.0938 85.166 68.8281C84.5671 68.5573 84.0931 68.1589 83.7441 67.6328C83.4004 67.1016 83.2285 66.4401 83.2285 65.6484C83.2285 64.9818 83.3509 64.4219 83.5957 63.9687C83.8405 63.5156 84.1738 63.151 84.5957 62.875C85.0176 62.599 85.4967 62.3906 86.0332 62.25C86.5749 62.1094 87.1426 62.0104 87.7363 61.9531C88.4342 61.8802 88.9967 61.8125 89.4238 61.75C89.8509 61.6823 90.1608 61.5833 90.3535 61.4531C90.5462 61.3229 90.6426 61.1302 90.6426 60.875V60.8281C90.6426 60.3333 90.4863 59.9505 90.1738 59.6797C89.8665 59.4089 89.429 59.2734 88.8613 59.2734C88.2624 59.2734 87.7858 59.4062 87.4316 59.6719C87.0775 59.9323 86.8431 60.2604 86.7285 60.6562L83.6504 60.4062C83.8066 59.6771 84.1139 59.0469 84.5723 58.5156C85.0306 57.9792 85.6217 57.5677 86.3457 57.2812C87.0749 56.9896 87.9186 56.8438 88.877 56.8438C89.5436 56.8438 90.1816 56.9219 90.791 57.0781C91.4056 57.2344 91.9499 57.4766 92.4238 57.8047C92.903 58.1328 93.2806 58.5547 93.5566 59.0703C93.8327 59.5807 93.9707 60.1927 93.9707 60.9062V69H90.8145V67.3359H90.7207C90.528 67.7109 90.2702 68.0417 89.9473 68.3281C89.6243 68.6094 89.2363 68.8307 88.7832 68.9922C88.3301 69.1484 87.8066 69.2266 87.2129 69.2266ZM88.166 66.9297C88.6556 66.9297 89.0879 66.8333 89.4629 66.6406C89.8379 66.4427 90.1322 66.1771 90.3457 65.8438C90.5592 65.5104 90.666 65.1328 90.666 64.7109V63.4375C90.5618 63.5052 90.4186 63.5677 90.2363 63.625C90.0592 63.6771 89.8587 63.7266 89.6348 63.7734C89.4108 63.8151 89.1868 63.8542 88.9629 63.8906C88.7389 63.9219 88.5358 63.9505 88.3535 63.9766C87.9629 64.0339 87.6217 64.125 87.3301 64.25C87.0384 64.375 86.8118 64.5443 86.6504 64.7578C86.4889 64.9661 86.4082 65.2266 86.4082 65.5391C86.4082 65.9922 86.5723 66.3385 86.9004 66.5781C87.2337 66.8125 87.6556 66.9297 88.166 66.9297ZM102.936 57V59.5H95.709V57H102.936ZM97.3496 54.125H100.678V65.3125C100.678 65.6198 100.725 65.8594 100.818 66.0312C100.912 66.1979 101.042 66.3151 101.209 66.3828C101.381 66.4505 101.579 66.4844 101.803 66.4844C101.959 66.4844 102.115 66.4714 102.271 66.4453C102.428 66.4141 102.548 66.3906 102.631 66.375L103.154 68.8516C102.988 68.9036 102.753 68.9635 102.451 69.0313C102.149 69.1042 101.782 69.1484 101.35 69.1641C100.548 69.1953 99.8444 69.0885 99.2402 68.8437C98.6413 68.599 98.1751 68.2187 97.8418 67.7031C97.5085 67.1875 97.3444 66.5365 97.3496 65.75V54.125ZM112.141 67.1406C111.625 67.1406 111.182 66.9583 110.813 66.5938C110.448 66.2292 110.266 65.7865 110.266 65.2656C110.266 64.7552 110.448 64.3177 110.813 63.9531C111.182 63.5885 111.625 63.4062 112.141 63.4062C112.641 63.4062 113.078 63.5885 113.453 63.9531C113.828 64.3177 114.016 64.7552 114.016 65.2656C114.016 65.6094 113.927 65.9245 113.75 66.2109C113.578 66.4922 113.352 66.7187 113.07 66.8906C112.789 67.0573 112.479 67.1406 112.141 67.1406ZM112.141 59.2891C111.625 59.2891 111.182 59.1068 110.813 58.7422C110.448 58.3776 110.266 57.9349 110.266 57.4141C110.266 56.9036 110.448 56.4687 110.813 56.1094C111.182 55.7448 111.625 55.5625 112.141 55.5625C112.641 55.5625 113.078 55.7448 113.453 56.1094C113.828 56.4687 114.016 56.9036 114.016 57.4141C114.016 57.763 113.927 58.0807 113.75 58.3672C113.578 58.6484 113.352 58.8724 113.07 59.0391C112.789 59.2057 112.479 59.2891 112.141 59.2891ZM121.566 66.1875V63.5234L128.246 53H130.543V56.6875H129.184L124.973 63.3516V63.4766H134.465V66.1875H121.566ZM129.246 69V65.375L129.309 64.1953V53H132.48V69H129.246Z" fill="white"/>
<rect x="176.652" y="188.711" width="100" height="100" rx="20" transform="rotate(-45 176.652 188.711)" fill="#74E4FD"/>
<defs>
<clipPath id="clip0_2_4">
<rect width="35.0668" height="30.4433" fill="white" transform="translate(231.981 78) rotate(12)"/>
</clipPath>
</defs>
</svg>
