<svg width="491" height="336" viewBox="0 0 491 336" fill="none" xmlns="http://www.w3.org/2000/svg">
<rect width="491" height="336" fill="none"/>
<rect x="60" y="94" width="148" height="148" rx="25" fill="#F7F5F5"/>
<rect x="246.348" y="168" width="140" height="140" rx="25" transform="rotate(-45 246.348 168)" fill="#F7F5F5"/>
<g clip-path="url(#clip0_1_17)">
<path d="M332.452 72.8004C333.082 69.8388 335.041 67.2865 337.898 65.7051C340.755 64.1236 344.277 63.6425 347.689 64.3677C351.282 65.1437 354.475 67.0955 356.599 69.8148L359.233 73.3055" stroke="white" stroke-width="1.5" stroke-linecap="round" stroke-linejoin="round"/>
<path d="M360.551 67.1017L359.233 73.3055L352.087 71.7865" stroke="white" stroke-width="1.5" stroke-linecap="round" stroke-linejoin="round"/>
</g>
<path d="M337.776 57V55.858L340.805 52.8878C341.095 52.5952 341.337 52.3352 341.53 52.108C341.723 51.8807 341.868 51.6605 341.964 51.4474C342.061 51.2344 342.109 51.0071 342.109 50.7656C342.109 50.4901 342.047 50.2543 341.922 50.0582C341.797 49.8594 341.625 49.706 341.406 49.598C341.188 49.4901 340.939 49.4361 340.661 49.4361C340.374 49.4361 340.122 49.4957 339.906 49.6151C339.69 49.7315 339.523 49.8977 339.403 50.1136C339.287 50.3295 339.229 50.5866 339.229 50.8849H337.724C337.724 50.331 337.851 49.8494 338.104 49.4403C338.357 49.0312 338.705 48.7145 339.148 48.4901C339.594 48.2656 340.105 48.1534 340.682 48.1534C341.267 48.1534 341.781 48.2628 342.224 48.4815C342.668 48.7003 343.011 49 343.256 49.3807C343.503 49.7614 343.626 50.196 343.626 50.6847C343.626 51.0114 343.564 51.3324 343.439 51.6477C343.314 51.9631 343.094 52.3125 342.778 52.696C342.466 53.0795 342.027 53.544 341.462 54.0895L339.957 55.6193V55.679H343.759V57H337.776ZM346.507 50.4545L347.828 52.8707L349.17 50.4545H350.803L348.83 53.7273L350.837 57H349.213L347.828 54.6435L346.456 57H344.82L346.814 53.7273L344.871 50.4545H346.507Z" fill="white"/>
<rect x="276" y="167.711" width="100" height="100" rx="20" transform="rotate(-45 276 167.711)" fill="#93EAFD"/>
<defs>
<clipPath id="clip0_1_17">
<rect width="35.0668" height="30.4433" fill="white" transform="translate(331.33 57) rotate(12)"/>
</clipPath>
</defs>
</svg>
