<svg width="491" height="336" viewBox="0 0 491 336" fill="none" xmlns="http://www.w3.org/2000/svg">
<rect width="491" height="336" fill="none"/>
<rect x="175.995" y="119" width="140" height="140" rx="25" fill="#F7F5F5"/>
<g filter="url(#filter0_d_3_45)">
<circle cx="245.5" cy="189.5" r="20.5" fill="#D9D9D9"/>
</g>
<path d="M33.0469 42L28.3906 26H32.6641L35.0781 36.4844H35.2109L37.9688 26H41.4531L44.2109 36.5078H44.3438L46.7656 26H51.0312L46.3828 42H42.6563L39.7734 32.2969H39.6484L36.7656 42H33.0469ZM56.4492 35.1562V42H52.6289V26H56.3242V32.2031H56.457C56.7279 31.4635 57.1706 30.8854 57.7852 30.4687C58.4049 30.0521 59.1628 29.8438 60.0586 29.8438C60.9023 29.8438 61.6367 30.0313 62.2617 30.4063C62.8867 30.776 63.3711 31.2995 63.7148 31.9766C64.0638 32.6536 64.2357 33.4453 64.2305 34.3516V42H60.4102V35.1016C60.4154 34.4349 60.2487 33.9141 59.9102 33.5391C59.5716 33.1641 59.0951 32.9766 58.4805 32.9766C58.0794 32.9766 57.7253 33.0651 57.418 33.2422C57.1159 33.4141 56.8789 33.6615 56.707 33.9844C56.5404 34.3073 56.4544 34.6979 56.4492 35.1562ZM66.6152 42V30H70.4355V42H66.6152ZM68.5293 28.6016C67.9928 28.6016 67.5319 28.4245 67.1465 28.0703C66.7611 27.7109 66.5684 27.2786 66.5684 26.7734C66.5684 26.2734 66.7611 25.8464 67.1465 25.4922C67.5319 25.1328 67.9928 24.9531 68.5293 24.9531C69.071 24.9531 69.5319 25.1328 69.9121 25.4922C70.2975 25.8464 70.4902 26.2734 70.4902 26.7734C70.4902 27.2786 70.2975 27.7109 69.9121 28.0703C69.5319 28.4245 69.071 28.6016 68.5293 28.6016ZM76.6875 26V42H72.8672V26H76.6875ZM84.7285 42.2266C83.4733 42.2266 82.39 41.9792 81.4785 41.4844C80.5723 40.9844 79.8743 40.2734 79.3848 39.3516C78.9004 38.4245 78.6582 37.3229 78.6582 36.0469C78.6582 34.8073 78.903 33.724 79.3926 32.7969C79.8822 31.8646 80.5723 31.1406 81.4629 30.625C82.3535 30.1042 83.403 29.8438 84.6113 29.8438C85.4655 29.8438 86.2467 29.9766 86.9551 30.2422C87.6634 30.5078 88.2754 30.901 88.791 31.4219C89.3066 31.9427 89.7077 32.5859 89.9941 33.3516C90.2806 34.112 90.4238 34.9844 90.4238 35.9687V36.9219H79.9941V34.7031H86.8691C86.8639 34.2969 86.7676 33.9349 86.5801 33.6172C86.3926 33.2995 86.1348 33.0521 85.8066 32.875C85.4837 32.6927 85.1113 32.6016 84.6895 32.6016C84.2624 32.6016 83.8796 32.6979 83.541 32.8906C83.2025 33.0781 82.9342 33.3359 82.7363 33.6641C82.5384 33.987 82.4342 34.3542 82.4238 34.7656V37.0234C82.4238 37.513 82.5202 37.9427 82.7129 38.3125C82.9056 38.6771 83.179 38.9609 83.5332 39.1641C83.8874 39.3672 84.3092 39.4687 84.7988 39.4687C85.1374 39.4687 85.4447 39.4219 85.7207 39.3281C85.9967 39.2344 86.2337 39.0964 86.4316 38.9141C86.6296 38.7318 86.778 38.5078 86.877 38.2422L90.3848 38.3437C90.2389 39.1302 89.9186 39.8151 89.4238 40.3984C88.9342 40.9766 88.291 41.4271 87.4941 41.75C86.6973 42.0677 85.7754 42.2266 84.7285 42.2266ZM97.1016 42V26H100.969V32.4219H107.273V26H111.133V42H107.273V35.5703H100.969V42H97.1016ZM119.16 42.2266C117.9 42.2266 116.816 41.9688 115.91 41.4531C115.009 40.9323 114.314 40.2083 113.824 39.2812C113.34 38.349 113.098 37.2682 113.098 36.0391C113.098 34.8047 113.34 33.724 113.824 32.7969C114.314 31.8646 115.009 31.1406 115.91 30.625C116.816 30.1042 117.9 29.8438 119.16 29.8438C120.421 29.8438 121.501 30.1042 122.402 30.625C123.309 31.1406 124.004 31.8646 124.488 32.7969C124.978 33.724 125.223 34.8047 125.223 36.0391C125.223 37.2682 124.978 38.349 124.488 39.2812C124.004 40.2083 123.309 40.9323 122.402 41.4531C121.501 41.9688 120.421 42.2266 119.16 42.2266ZM119.184 39.3437C119.642 39.3437 120.03 39.2031 120.348 38.9219C120.665 38.6406 120.908 38.25 121.074 37.75C121.246 37.25 121.332 36.6719 121.332 36.0156C121.332 35.349 121.246 34.7656 121.074 34.2656C120.908 33.7656 120.665 33.375 120.348 33.0937C120.03 32.8125 119.642 32.6719 119.184 32.6719C118.71 32.6719 118.309 32.8125 117.98 33.0937C117.658 33.375 117.41 33.7656 117.238 34.2656C117.072 34.7656 116.988 35.349 116.988 36.0156C116.988 36.6719 117.072 37.25 117.238 37.75C117.41 38.25 117.658 38.6406 117.98 38.9219C118.309 39.2031 118.71 39.3437 119.184 39.3437ZM138.434 30L134.316 42H129.941L125.832 30H129.855L132.066 38.2656H132.191L134.41 30H138.434ZM145.121 42.2266C143.866 42.2266 142.783 41.9792 141.871 41.4844C140.965 40.9844 140.267 40.2734 139.777 39.3516C139.293 38.4245 139.051 37.3229 139.051 36.0469C139.051 34.8073 139.296 33.724 139.785 32.7969C140.275 31.8646 140.965 31.1406 141.855 30.625C142.746 30.1042 143.796 29.8438 145.004 29.8438C145.858 29.8438 146.639 29.9766 147.348 30.2422C148.056 30.5078 148.668 30.901 149.184 31.4219C149.699 31.9427 150.1 32.5859 150.387 33.3516C150.673 34.112 150.816 34.9844 150.816 35.9687V36.9219H140.387V34.7031H147.262C147.257 34.2969 147.16 33.9349 146.973 33.6172C146.785 33.2995 146.527 33.0521 146.199 32.875C145.876 32.6927 145.504 32.6016 145.082 32.6016C144.655 32.6016 144.272 32.6979 143.934 32.8906C143.595 33.0781 143.327 33.3359 143.129 33.6641C142.931 33.987 142.827 34.3542 142.816 34.7656V37.0234C142.816 37.513 142.913 37.9427 143.105 38.3125C143.298 38.6771 143.572 38.9609 143.926 39.1641C144.28 39.3672 144.702 39.4687 145.191 39.4687C145.53 39.4687 145.837 39.4219 146.113 39.3281C146.389 39.2344 146.626 39.0964 146.824 38.9141C147.022 38.7318 147.171 38.5078 147.27 38.2422L150.777 38.3437C150.632 39.1302 150.311 39.8151 149.816 40.3984C149.327 40.9766 148.684 41.4271 147.887 41.75C147.09 42.0677 146.168 42.2266 145.121 42.2266ZM152.768 42V30H156.479V32.1875H156.604C156.822 31.3958 157.179 30.8073 157.674 30.4219C158.169 30.0312 158.744 29.8359 159.4 29.8359C159.577 29.8359 159.76 29.849 159.947 29.875C160.135 29.8958 160.309 29.9297 160.471 29.9766V33.2969C160.288 33.2344 160.049 33.1849 159.752 33.1484C159.46 33.112 159.2 33.0937 158.971 33.0937C158.518 33.0937 158.109 33.1953 157.744 33.3984C157.385 33.5964 157.101 33.875 156.893 34.2344C156.689 34.5885 156.588 35.0052 156.588 35.4844V42H152.768Z" fill="white"/>
<path d="M245.75 189.75L249.5 198.75L250.85 194.85L254.75 193.5L245.75 189.75Z" stroke="#033A52" stroke-width="1.04167" stroke-linecap="round" stroke-linejoin="round"/>
<path d="M244.4 184.65L245 186.825" stroke="#033A52" stroke-width="1.04167" stroke-linecap="round" stroke-linejoin="round"/>
<path d="M242.825 189L240.65 188.4" stroke="#033A52" stroke-width="1.04167" stroke-linecap="round" stroke-linejoin="round"/>
<path d="M249.5 186.075L248 187.5" stroke="#033A52" stroke-width="1.04167" stroke-linecap="round" stroke-linejoin="round"/>
<path d="M243.5 192L242.075 193.5" stroke="#033A52" stroke-width="1.04167" stroke-linecap="round" stroke-linejoin="round"/>
<defs>
<filter id="filter0_d_3_45" x="221" y="167" width="49" height="49" filterUnits="userSpaceOnUse" color-interpolation-filters="sRGB">
<feFlood flood-opacity="0" result="BackgroundImageFix"/>
<feColorMatrix in="SourceAlpha" type="matrix" values="0 0 0 0 0 0 0 0 0 0 0 0 0 0 0 0 0 0 127 0" result="hardAlpha"/>
<feOffset dy="2"/>
<feGaussianBlur stdDeviation="2"/>
<feComposite in2="hardAlpha" operator="out"/>
<feColorMatrix type="matrix" values="0 0 0 0 0 0 0 0 0 0 0 0 0 0 0 0 0 0 0.25 0"/>
<feBlend mode="normal" in2="BackgroundImageFix" result="effect1_dropShadow_3_45"/>
<feBlend mode="normal" in="SourceGraphic" in2="effect1_dropShadow_3_45" result="shape"/>
</filter>
</defs>
</svg>
