<svg width="491" height="336" viewBox="0 0 491 336" fill="none" xmlns="http://www.w3.org/2000/svg">
<rect width="491" height="336" fill="#2C2828"/>
<rect x="176" y="172.64" width="90" height="90" rx="25" transform="rotate(-45 176 172.64)" fill="#F7F5F5"/>
<rect x="324" y="172.64" width="90" height="90" rx="45" transform="rotate(-45 324 172.64)" fill="#F7F5F5"/>
<path d="M28.6719 47H24.5156L29.9141 31H35.0625L40.4609 47H36.3047L32.5469 35.0312H32.4219L28.6719 47ZM28.1172 40.7031H36.8047V43.6406H28.1172V40.7031ZM46.0039 40.1562V47H42.1836V35H45.8164V37.2031H45.9492C46.2148 36.4687 46.668 35.8932 47.3086 35.4766C47.9492 35.0547 48.7122 34.8438 49.5977 34.8438C50.4414 34.8438 51.1732 35.0339 51.793 35.4141C52.418 35.7891 52.9023 36.3151 53.2461 36.9922C53.5951 37.6641 53.7669 38.4505 53.7617 39.3516V47H49.9414V40.1016C49.9466 39.4349 49.7773 38.9141 49.4336 38.5391C49.0951 38.1641 48.6237 37.9766 48.0195 37.9766C47.6185 37.9766 47.2643 38.0651 46.957 38.2422C46.6549 38.4141 46.4206 38.6615 46.2539 38.9844C46.0924 39.3073 46.0091 39.6979 46.0039 40.1562ZM56.127 47V35H59.9473V47H56.127ZM58.041 33.6016C57.5046 33.6016 57.0436 33.4245 56.6582 33.0703C56.2728 32.7109 56.0801 32.2786 56.0801 31.7734C56.0801 31.2734 56.2728 30.8464 56.6582 30.4922C57.0436 30.1328 57.5046 29.9531 58.041 29.9531C58.5827 29.9531 59.0436 30.1328 59.4238 30.4922C59.8092 30.8464 60.002 31.2734 60.002 31.7734C60.002 32.2786 59.8092 32.7109 59.4238 33.0703C59.0436 33.4245 58.5827 33.6016 58.041 33.6016ZM62.3789 47V35H66.0117V37.2031H66.1445C66.3945 36.474 66.8164 35.8984 67.4102 35.4766C68.0039 35.0547 68.7122 34.8438 69.5352 34.8438C70.3685 34.8438 71.082 35.0573 71.6758 35.4844C72.2695 35.9115 72.6471 36.4844 72.8086 37.2031H72.9336C73.1576 36.4896 73.5951 35.9193 74.2461 35.4922C74.8971 35.0599 75.6654 34.8438 76.5508 34.8438C77.6862 34.8438 78.6081 35.2083 79.3164 35.9375C80.0247 36.6615 80.3789 37.6562 80.3789 38.9219V47H76.5586V39.7969C76.5586 39.1979 76.4049 38.7422 76.0977 38.4297C75.7904 38.112 75.3919 37.9531 74.9023 37.9531C74.3763 37.9531 73.9622 38.125 73.6602 38.4687C73.3633 38.8073 73.2148 39.263 73.2148 39.8359V47H69.543V39.7578C69.543 39.2005 69.3919 38.7604 69.0898 38.4375C68.7878 38.1146 68.3893 37.9531 67.8945 37.9531C67.5612 37.9531 67.2669 38.0339 67.0117 38.1953C66.7565 38.3516 66.556 38.5755 66.4102 38.8672C66.2695 39.1589 66.1992 39.5026 66.1992 39.8984V47H62.3789ZM86.1289 47.2031C85.3633 47.2031 84.6836 47.0755 84.0898 46.8203C83.5013 46.5599 83.0352 46.1693 82.6914 45.6484C82.3529 45.1224 82.1836 44.4635 82.1836 43.6719C82.1836 43.0052 82.3008 42.4427 82.5352 41.9844C82.7695 41.526 83.0924 41.1536 83.5039 40.8672C83.9154 40.5807 84.3893 40.3646 84.9258 40.2187C85.4622 40.0677 86.0352 39.9661 86.6445 39.9141C87.3268 39.8516 87.8763 39.7865 88.293 39.7188C88.7096 39.6458 89.0117 39.5443 89.1992 39.4141C89.3919 39.2786 89.4883 39.0885 89.4883 38.8437V38.8047C89.4883 38.4036 89.3503 38.0937 89.0742 37.875C88.7982 37.6562 88.4258 37.5469 87.957 37.5469C87.4518 37.5469 87.0456 37.6562 86.7383 37.875C86.431 38.0937 86.2357 38.3958 86.1523 38.7812L82.6289 38.6562C82.7331 37.9271 83.0013 37.276 83.4336 36.7031C83.8711 36.125 84.4701 35.6719 85.2305 35.3437C85.9961 35.0104 86.9154 34.8438 87.9883 34.8438C88.7539 34.8438 89.4596 34.9349 90.1055 35.1172C90.7513 35.2943 91.3138 35.5547 91.793 35.8984C92.2721 36.237 92.6419 36.6536 92.9023 37.1484C93.168 37.6432 93.3008 38.2083 93.3008 38.8437V47H89.707V45.3281H89.6133C89.3997 45.7344 89.1263 46.0781 88.793 46.3594C88.4648 46.6406 88.0768 46.8516 87.6289 46.9922C87.1862 47.1328 86.6862 47.2031 86.1289 47.2031ZM87.3086 44.7031C87.7201 44.7031 88.0898 44.6198 88.418 44.4531C88.7513 44.2865 89.0169 44.0573 89.2148 43.7656C89.4128 43.4687 89.5117 43.125 89.5117 42.7344V41.5937C89.4023 41.651 89.2695 41.7031 89.1133 41.75C88.9622 41.7969 88.7956 41.8411 88.6133 41.8828C88.431 41.9245 88.2435 41.9609 88.0508 41.9922C87.8581 42.0234 87.6732 42.0521 87.4961 42.0781C87.1367 42.1354 86.8294 42.224 86.5742 42.3437C86.3242 42.4635 86.1315 42.6198 85.9961 42.8125C85.8659 43 85.8008 43.224 85.8008 43.4844C85.8008 43.8802 85.9414 44.1823 86.2227 44.3906C86.5091 44.599 86.8711 44.7031 87.3086 44.7031ZM102.41 35V37.8125H94.8398V35H102.41ZM96.4258 32.125H100.246V43.2266C100.246 43.4609 100.283 43.651 100.355 43.7969C100.434 43.9375 100.546 44.0391 100.691 44.1016C100.837 44.1589 101.012 44.1875 101.215 44.1875C101.361 44.1875 101.514 44.1745 101.676 44.1484C101.842 44.1172 101.967 44.0911 102.051 44.0703L102.629 46.8281C102.447 46.8802 102.189 46.9453 101.855 47.0234C101.527 47.1016 101.134 47.151 100.676 47.1719C99.7799 47.2135 99.0117 47.1094 98.3711 46.8594C97.7357 46.6042 97.2487 46.2083 96.9102 45.6719C96.5768 45.1354 96.4154 44.4609 96.4258 43.6484V32.125ZM104.359 47V35H108.18V47H104.359ZM106.273 33.6016C105.737 33.6016 105.276 33.4245 104.891 33.0703C104.505 32.7109 104.313 32.2786 104.313 31.7734C104.313 31.2734 104.505 30.8464 104.891 30.4922C105.276 30.1328 105.737 29.9531 106.273 29.9531C106.815 29.9531 107.276 30.1328 107.656 30.4922C108.042 30.8464 108.234 31.2734 108.234 31.7734C108.234 32.2786 108.042 32.7109 107.656 33.0703C107.276 33.4245 106.815 33.6016 106.273 33.6016ZM116.213 47.2266C114.952 47.2266 113.869 46.9688 112.963 46.4531C112.062 45.9323 111.367 45.2083 110.877 44.2812C110.393 43.349 110.15 42.2682 110.15 41.0391C110.15 39.8047 110.393 38.724 110.877 37.7969C111.367 36.8646 112.062 36.1406 112.963 35.625C113.869 35.1042 114.952 34.8438 116.213 34.8438C117.473 34.8438 118.554 35.1042 119.455 35.625C120.361 36.1406 121.057 36.8646 121.541 37.7969C122.031 38.724 122.275 39.8047 122.275 41.0391C122.275 42.2682 122.031 43.349 121.541 44.2812C121.057 45.2083 120.361 45.9323 119.455 46.4531C118.554 46.9688 117.473 47.2266 116.213 47.2266ZM116.236 44.3437C116.695 44.3437 117.083 44.2031 117.4 43.9219C117.718 43.6406 117.96 43.25 118.127 42.75C118.299 42.25 118.385 41.6719 118.385 41.0156C118.385 40.349 118.299 39.7656 118.127 39.2656C117.96 38.7656 117.718 38.375 117.4 38.0937C117.083 37.8125 116.695 37.6719 116.236 37.6719C115.762 37.6719 115.361 37.8125 115.033 38.0937C114.71 38.375 114.463 38.7656 114.291 39.2656C114.124 39.7656 114.041 40.349 114.041 41.0156C114.041 41.6719 114.124 42.25 114.291 42.75C114.463 43.25 114.71 43.6406 115.033 43.9219C115.361 44.2031 115.762 44.3437 116.236 44.3437ZM128.053 40.1562V47H124.232V35H127.865V37.2031H127.998C128.264 36.4687 128.717 35.8932 129.357 35.4766C129.998 35.0547 130.761 34.8438 131.646 34.8438C132.49 34.8438 133.222 35.0339 133.842 35.4141C134.467 35.7891 134.951 36.3151 135.295 36.9922C135.644 37.6641 135.816 38.4505 135.811 39.3516V47H131.99V40.1016C131.995 39.4349 131.826 38.9141 131.482 38.5391C131.144 38.1641 130.673 37.9766 130.068 37.9766C129.667 37.9766 129.313 38.0651 129.006 38.2422C128.704 38.4141 128.469 38.6615 128.303 38.9844C128.141 39.3073 128.058 39.6979 128.053 40.1562ZM151.551 35.7969C151.499 35.224 151.267 34.7786 150.855 34.4609C150.449 34.138 149.868 33.9766 149.113 33.9766C148.613 33.9766 148.197 34.0417 147.863 34.1719C147.53 34.3021 147.28 34.4818 147.113 34.7109C146.947 34.9349 146.861 35.1927 146.855 35.4844C146.845 35.724 146.892 35.9349 146.996 36.1172C147.105 36.2995 147.262 36.4609 147.465 36.6016C147.673 36.737 147.923 36.8568 148.215 36.9609C148.507 37.0651 148.835 37.1562 149.199 37.2344L150.574 37.5469C151.366 37.7188 152.064 37.9479 152.668 38.2344C153.277 38.5208 153.788 38.862 154.199 39.2578C154.616 39.6536 154.931 40.1094 155.145 40.625C155.358 41.1406 155.467 41.7187 155.473 42.3594C155.467 43.3698 155.212 44.237 154.707 44.9609C154.202 45.6849 153.475 46.2396 152.527 46.625C151.585 47.0104 150.447 47.2031 149.113 47.2031C147.775 47.2031 146.608 47.0026 145.613 46.6016C144.618 46.2005 143.845 45.5911 143.293 44.7734C142.741 43.9557 142.457 42.9219 142.441 41.6719H146.145C146.176 42.1875 146.314 42.6172 146.559 42.9609C146.803 43.3047 147.139 43.5651 147.566 43.7422C147.999 43.9193 148.499 44.0078 149.066 44.0078C149.587 44.0078 150.03 43.9375 150.395 43.7969C150.764 43.6563 151.048 43.4609 151.246 43.2109C151.444 42.9609 151.546 42.6745 151.551 42.3516C151.546 42.0495 151.452 41.7917 151.27 41.5781C151.087 41.3594 150.806 41.1719 150.426 41.0156C150.051 40.8542 149.572 40.7057 148.988 40.5703L147.316 40.1797C145.931 39.862 144.84 39.349 144.043 38.6406C143.246 37.9271 142.85 36.9635 142.855 35.75C142.85 34.7604 143.116 33.8932 143.652 33.1484C144.189 32.4036 144.931 31.8229 145.879 31.4063C146.827 30.9896 147.908 30.7812 149.121 30.7812C150.361 30.7812 151.436 30.9922 152.348 31.4141C153.264 31.8307 153.975 32.4167 154.48 33.1719C154.986 33.9271 155.243 34.8021 155.254 35.7969H151.551ZM163.035 47.2266C161.78 47.2266 160.697 46.9792 159.785 46.4844C158.879 45.9844 158.181 45.2734 157.691 44.3516C157.207 43.4245 156.965 42.3229 156.965 41.0469C156.965 39.8073 157.21 38.724 157.699 37.7969C158.189 36.8646 158.879 36.1406 159.77 35.625C160.66 35.1042 161.71 34.8438 162.918 34.8438C163.772 34.8438 164.553 34.9766 165.262 35.2422C165.97 35.5078 166.582 35.901 167.098 36.4219C167.613 36.9427 168.014 37.5859 168.301 38.3516C168.587 39.112 168.73 39.9844 168.73 40.9687V41.9219H158.301V39.7031H165.176C165.171 39.2969 165.074 38.9349 164.887 38.6172C164.699 38.2995 164.441 38.0521 164.113 37.875C163.79 37.6927 163.418 37.6016 162.996 37.6016C162.569 37.6016 162.186 37.6979 161.848 37.8906C161.509 38.0781 161.241 38.3359 161.043 38.6641C160.845 38.987 160.741 39.3542 160.73 39.7656V42.0234C160.73 42.513 160.827 42.9427 161.02 43.3125C161.212 43.6771 161.486 43.9609 161.84 44.1641C162.194 44.3672 162.616 44.4687 163.105 44.4687C163.444 44.4687 163.751 44.4219 164.027 44.3281C164.303 44.2344 164.54 44.0964 164.738 43.9141C164.936 43.7318 165.085 43.5078 165.184 43.2422L168.691 43.3437C168.546 44.1302 168.225 44.8151 167.73 45.3984C167.241 45.9766 166.598 46.4271 165.801 46.75C165.004 47.0677 164.082 47.2266 163.035 47.2266ZM178.518 51.5V45.0547H178.439C178.278 45.4245 178.049 45.7708 177.752 46.0937C177.455 46.4167 177.083 46.6771 176.635 46.875C176.192 47.0729 175.669 47.1719 175.064 47.1719C174.179 47.1719 173.374 46.9427 172.65 46.4844C171.926 46.026 171.348 45.3385 170.916 44.4219C170.484 43.5052 170.268 42.3672 170.268 41.0078C170.268 39.5964 170.492 38.4349 170.939 37.5234C171.387 36.612 171.973 35.9375 172.697 35.5C173.426 35.0625 174.21 34.8438 175.049 34.8438C175.679 34.8438 176.218 34.9531 176.666 35.1719C177.114 35.3854 177.484 35.6615 177.775 36C178.067 36.3385 178.288 36.6901 178.439 37.0547H178.557V35H182.338V51.5H178.518ZM176.393 44.1953C176.856 44.1953 177.252 44.0651 177.58 43.8047C177.908 43.5391 178.161 43.1667 178.338 42.6875C178.515 42.2083 178.604 41.6458 178.604 41C178.604 40.3437 178.515 39.7786 178.338 39.3047C178.166 38.8307 177.913 38.4661 177.58 38.2109C177.252 37.9557 176.856 37.8281 176.393 37.8281C175.919 37.8281 175.518 37.9583 175.189 38.2187C174.861 38.4792 174.611 38.8464 174.439 39.3203C174.273 39.7943 174.189 40.3542 174.189 41C174.189 41.6458 174.275 42.2083 174.447 42.6875C174.619 43.1667 174.867 43.5391 175.189 43.8047C175.518 44.0651 175.919 44.1953 176.393 44.1953ZM192.496 41.8203V35H196.309V47H192.668V44.7656H192.543C192.277 45.5 191.824 46.0833 191.184 46.5156C190.548 46.9427 189.78 47.1563 188.879 47.1563C188.061 47.1563 187.342 46.9687 186.723 46.5937C186.103 46.2187 185.621 45.6953 185.277 45.0234C184.934 44.3464 184.759 43.5547 184.754 42.6484V35H188.574V41.8984C188.579 42.5495 188.751 43.0625 189.09 43.4375C189.428 43.8125 189.889 44 190.473 44C190.853 44 191.194 43.9167 191.496 43.75C191.803 43.5781 192.046 43.3307 192.223 43.0078C192.405 42.6797 192.496 42.2839 192.496 41.8203ZM204.35 47.2266C203.094 47.2266 202.011 46.9792 201.1 46.4844C200.193 45.9844 199.495 45.2734 199.006 44.3516C198.521 43.4245 198.279 42.3229 198.279 41.0469C198.279 39.8073 198.524 38.724 199.014 37.7969C199.503 36.8646 200.193 36.1406 201.084 35.625C201.975 35.1042 203.024 34.8438 204.232 34.8438C205.087 34.8438 205.868 34.9766 206.576 35.2422C207.285 35.5078 207.896 35.901 208.412 36.4219C208.928 36.9427 209.329 37.5859 209.615 38.3516C209.902 39.112 210.045 39.9844 210.045 40.9687V41.9219H199.615V39.7031H206.49C206.485 39.2969 206.389 38.9349 206.201 38.6172C206.014 38.2995 205.756 38.0521 205.428 37.875C205.105 37.6927 204.732 37.6016 204.311 37.6016C203.883 37.6016 203.501 37.6979 203.162 37.8906C202.824 38.0781 202.555 38.3359 202.357 38.6641C202.16 38.987 202.055 39.3542 202.045 39.7656V42.0234C202.045 42.513 202.141 42.9427 202.334 43.3125C202.527 43.6771 202.8 43.9609 203.154 44.1641C203.508 44.3672 203.93 44.4687 204.42 44.4687C204.758 44.4687 205.066 44.4219 205.342 44.3281C205.618 44.2344 205.855 44.0964 206.053 43.9141C206.251 43.7318 206.399 43.5078 206.498 43.2422L210.006 43.3437C209.86 44.1302 209.54 44.8151 209.045 45.3984C208.555 45.9766 207.912 46.4271 207.115 46.75C206.318 47.0677 205.396 47.2266 204.35 47.2266ZM215.816 40.1562V47H211.996V35H215.629V37.2031H215.762C216.027 36.4687 216.48 35.8932 217.121 35.4766C217.762 35.0547 218.525 34.8438 219.41 34.8438C220.254 34.8438 220.986 35.0339 221.605 35.4141C222.23 35.7891 222.715 36.3151 223.059 36.9922C223.408 37.6641 223.579 38.4505 223.574 39.3516V47H219.754V40.1016C219.759 39.4349 219.59 38.9141 219.246 38.5391C218.908 38.1641 218.436 37.9766 217.832 37.9766C217.431 37.9766 217.077 38.0651 216.77 38.2422C216.467 38.4141 216.233 38.6615 216.066 38.9844C215.905 39.3073 215.822 39.6979 215.816 40.1562ZM231.541 47.2266C230.275 47.2266 229.189 46.9661 228.283 46.4453C227.382 45.9245 226.689 45.2005 226.205 44.2734C225.721 43.3411 225.479 42.263 225.479 41.0391C225.479 39.8099 225.721 38.7318 226.205 37.8047C226.695 36.8724 227.39 36.1458 228.291 35.625C229.197 35.1042 230.278 34.8438 231.533 34.8438C232.643 34.8438 233.609 35.0443 234.432 35.4453C235.26 35.8464 235.906 36.4141 236.369 37.1484C236.838 37.8776 237.085 38.7344 237.111 39.7188H233.541C233.468 39.1042 233.26 38.6224 232.916 38.2734C232.577 37.9245 232.135 37.75 231.588 37.75C231.145 37.75 230.757 37.875 230.424 38.125C230.09 38.3698 229.83 38.7344 229.643 39.2187C229.46 39.6979 229.369 40.2917 229.369 41C229.369 41.7083 229.46 42.3073 229.643 42.7969C229.83 43.2812 230.09 43.6484 230.424 43.8984C230.757 44.1432 231.145 44.2656 231.588 44.2656C231.942 44.2656 232.255 44.1901 232.525 44.0391C232.801 43.888 233.028 43.6667 233.205 43.375C233.382 43.0781 233.494 42.7187 233.541 42.2969H237.111C237.075 43.2865 236.827 44.151 236.369 44.8906C235.916 45.6302 235.278 46.2057 234.455 46.6172C233.637 47.0234 232.666 47.2266 231.541 47.2266ZM244.676 47.2266C243.421 47.2266 242.337 46.9792 241.426 46.4844C240.52 45.9844 239.822 45.2734 239.332 44.3516C238.848 43.4245 238.605 42.3229 238.605 41.0469C238.605 39.8073 238.85 38.724 239.34 37.7969C239.829 36.8646 240.52 36.1406 241.41 35.625C242.301 35.1042 243.35 34.8438 244.559 34.8438C245.413 34.8438 246.194 34.9766 246.902 35.2422C247.611 35.5078 248.223 35.901 248.738 36.4219C249.254 36.9427 249.655 37.5859 249.941 38.3516C250.228 39.112 250.371 39.9844 250.371 40.9687V41.9219H239.941V39.7031H246.816C246.811 39.2969 246.715 38.9349 246.527 38.6172C246.34 38.2995 246.082 38.0521 245.754 37.875C245.431 37.6927 245.059 37.6016 244.637 37.6016C244.21 37.6016 243.827 37.6979 243.488 37.8906C243.15 38.0781 242.882 38.3359 242.684 38.6641C242.486 38.987 242.382 39.3542 242.371 39.7656V42.0234C242.371 42.513 242.467 42.9427 242.66 43.3125C242.853 43.6771 243.126 43.9609 243.48 44.1641C243.835 44.3672 244.257 44.4687 244.746 44.4687C245.085 44.4687 245.392 44.4219 245.668 44.3281C245.944 44.2344 246.181 44.0964 246.379 43.9141C246.577 43.7318 246.725 43.5078 246.824 43.2422L250.332 43.3437C250.186 44.1302 249.866 44.8151 249.371 45.3984C248.882 45.9766 248.238 46.4271 247.441 46.75C246.645 47.0677 245.723 47.2266 244.676 47.2266Z" fill="white"/>
<path d="M164 168L168 173L164 178" stroke="white" stroke-width="2" stroke-linecap="round" stroke-linejoin="round"/>
<path d="M148 173H168" stroke="white" stroke-width="2" stroke-linecap="round" stroke-linejoin="round"/>
<path d="M327 168L331 173L327 178" stroke="white" stroke-width="2" stroke-linecap="round" stroke-linejoin="round"/>
<path d="M311 173H331" stroke="white" stroke-width="2" stroke-linecap="round" stroke-linejoin="round"/>
<path d="M215.415 274H214.307L217.511 265.273H218.602L221.807 274H220.699L218.091 266.653H218.023L215.415 274ZM215.824 270.591H220.29V271.528H215.824V270.591ZM227.155 271.324V267.455H228.161V274H227.155V272.892H227.087C226.933 273.224 226.695 273.507 226.371 273.74C226.047 273.97 225.638 274.085 225.143 274.085C224.734 274.085 224.371 273.996 224.053 273.817C223.734 273.635 223.484 273.362 223.303 272.999C223.121 272.632 223.03 272.17 223.03 271.614V267.455H224.036V271.545C224.036 272.023 224.169 272.403 224.436 272.688C224.706 272.972 225.05 273.114 225.467 273.114C225.717 273.114 225.972 273.05 226.23 272.922C226.491 272.794 226.71 272.598 226.886 272.334C227.065 272.07 227.155 271.733 227.155 271.324ZM232.849 267.455V268.307H229.457V267.455H232.849ZM230.446 265.886H231.451V272.125C231.451 272.409 231.493 272.622 231.575 272.764C231.66 272.903 231.768 272.997 231.899 273.045C232.032 273.091 232.173 273.114 232.321 273.114C232.431 273.114 232.522 273.108 232.593 273.097C232.664 273.082 232.721 273.071 232.764 273.062L232.968 273.966C232.9 273.991 232.805 274.017 232.683 274.043C232.561 274.071 232.406 274.085 232.218 274.085C231.934 274.085 231.656 274.024 231.383 273.902C231.113 273.78 230.889 273.594 230.71 273.344C230.534 273.094 230.446 272.778 230.446 272.398V265.886ZM236.951 274.136C236.36 274.136 235.841 273.996 235.395 273.714C234.952 273.433 234.605 273.04 234.355 272.534C234.108 272.028 233.985 271.437 233.985 270.761C233.985 270.08 234.108 269.484 234.355 268.976C234.605 268.467 234.952 268.072 235.395 267.791C235.841 267.51 236.36 267.369 236.951 267.369C237.542 267.369 238.059 267.51 238.502 267.791C238.948 268.072 239.294 268.467 239.542 268.976C239.792 269.484 239.917 270.08 239.917 270.761C239.917 271.437 239.792 272.028 239.542 272.534C239.294 273.04 238.948 273.433 238.502 273.714C238.059 273.996 237.542 274.136 236.951 274.136ZM236.951 273.233C237.4 273.233 237.769 273.118 238.059 272.888C238.348 272.658 238.563 272.355 238.702 271.98C238.841 271.605 238.911 271.199 238.911 270.761C238.911 270.324 238.841 269.916 238.702 269.538C238.563 269.161 238.348 268.855 238.059 268.622C237.769 268.389 237.4 268.273 236.951 268.273C236.502 268.273 236.132 268.389 235.843 268.622C235.553 268.855 235.338 269.161 235.199 269.538C235.06 269.916 234.99 270.324 234.99 270.761C234.99 271.199 235.06 271.605 235.199 271.98C235.338 272.355 235.553 272.658 235.843 272.888C236.132 273.118 236.502 273.233 236.951 273.233ZM241.452 274V267.455H242.423V268.477H242.509C242.645 268.128 242.865 267.857 243.169 267.663C243.473 267.467 243.838 267.369 244.264 267.369C244.696 267.369 245.055 267.467 245.342 267.663C245.632 267.857 245.858 268.128 246.02 268.477H246.088C246.256 268.139 246.507 267.871 246.842 267.672C247.178 267.47 247.58 267.369 248.048 267.369C248.634 267.369 249.112 267.553 249.484 267.919C249.857 268.283 250.043 268.849 250.043 269.619V274H249.037V269.619C249.037 269.136 248.905 268.791 248.641 268.584C248.376 268.376 248.065 268.273 247.707 268.273C247.247 268.273 246.891 268.412 246.638 268.69C246.385 268.966 246.259 269.315 246.259 269.739V274H245.236V269.517C245.236 269.145 245.115 268.845 244.874 268.618C244.632 268.388 244.321 268.273 243.94 268.273C243.679 268.273 243.435 268.342 243.207 268.482C242.983 268.621 242.801 268.814 242.662 269.061C242.526 269.305 242.457 269.588 242.457 269.909V274H241.452ZM253.808 274.153C253.393 274.153 253.016 274.075 252.678 273.919C252.34 273.76 252.072 273.531 251.873 273.233C251.674 272.932 251.575 272.568 251.575 272.142C251.575 271.767 251.648 271.463 251.796 271.23C251.944 270.994 252.141 270.81 252.388 270.676C252.636 270.543 252.908 270.443 253.207 270.378C253.508 270.31 253.81 270.256 254.114 270.216C254.512 270.165 254.835 270.126 255.082 270.101C255.332 270.072 255.513 270.026 255.627 269.96C255.744 269.895 255.802 269.781 255.802 269.619V269.585C255.802 269.165 255.687 268.838 255.457 268.605C255.229 268.372 254.884 268.256 254.421 268.256C253.941 268.256 253.565 268.361 253.292 268.571C253.019 268.781 252.827 269.006 252.717 269.244L251.762 268.903C251.933 268.506 252.16 268.196 252.444 267.974C252.731 267.75 253.043 267.594 253.381 267.506C253.722 267.415 254.058 267.369 254.387 267.369C254.597 267.369 254.839 267.395 255.112 267.446C255.387 267.494 255.653 267.595 255.908 267.749C256.167 267.902 256.381 268.134 256.552 268.443C256.722 268.753 256.808 269.168 256.808 269.688V274H255.802V273.114H255.751C255.683 273.256 255.569 273.408 255.41 273.57C255.251 273.732 255.039 273.869 254.775 273.983C254.511 274.097 254.188 274.153 253.808 274.153ZM253.961 273.25C254.359 273.25 254.694 273.172 254.967 273.016C255.242 272.859 255.45 272.658 255.589 272.411C255.731 272.163 255.802 271.903 255.802 271.631V270.71C255.759 270.761 255.665 270.808 255.521 270.851C255.379 270.891 255.214 270.926 255.026 270.957C254.842 270.986 254.661 271.011 254.485 271.034C254.312 271.054 254.171 271.071 254.063 271.085C253.802 271.119 253.558 271.175 253.33 271.251C253.106 271.325 252.924 271.437 252.785 271.588C252.648 271.736 252.58 271.937 252.58 272.193C252.58 272.543 252.71 272.807 252.968 272.986C253.229 273.162 253.56 273.25 253.961 273.25ZM261.49 267.455V268.307H258.098V267.455H261.49ZM259.086 265.886H260.092V272.125C260.092 272.409 260.133 272.622 260.216 272.764C260.301 272.903 260.409 272.997 260.539 273.045C260.673 273.091 260.814 273.114 260.961 273.114C261.072 273.114 261.163 273.108 261.234 273.097C261.305 273.082 261.362 273.071 261.404 273.062L261.609 273.966C261.541 273.991 261.446 274.017 261.324 274.043C261.201 274.071 261.047 274.085 260.859 274.085C260.575 274.085 260.297 274.024 260.024 273.902C259.754 273.78 259.529 273.594 259.35 273.344C259.174 273.094 259.086 272.778 259.086 272.398V265.886ZM265.676 274.136C265.046 274.136 264.502 273.997 264.044 273.719C263.59 273.438 263.239 273.045 262.992 272.543C262.748 272.037 262.625 271.449 262.625 270.778C262.625 270.108 262.748 269.517 262.992 269.006C263.239 268.491 263.583 268.091 264.023 267.804C264.466 267.514 264.983 267.369 265.574 267.369C265.915 267.369 266.252 267.426 266.584 267.54C266.917 267.653 267.219 267.838 267.492 268.094C267.765 268.347 267.982 268.682 268.144 269.099C268.306 269.517 268.387 270.031 268.387 270.642V271.068H263.341V270.199H267.364C267.364 269.83 267.29 269.5 267.142 269.21C266.998 268.92 266.79 268.692 266.52 268.524C266.253 268.357 265.938 268.273 265.574 268.273C265.174 268.273 264.827 268.372 264.534 268.571C264.245 268.767 264.022 269.023 263.865 269.338C263.709 269.653 263.631 269.991 263.631 270.352V270.932C263.631 271.426 263.716 271.845 263.887 272.189C264.06 272.53 264.3 272.79 264.607 272.969C264.914 273.145 265.27 273.233 265.676 273.233C265.941 273.233 266.179 273.196 266.392 273.122C266.608 273.045 266.794 272.932 266.951 272.781C267.107 272.628 267.228 272.437 267.313 272.21L268.284 272.483C268.182 272.812 268.01 273.102 267.769 273.352C267.527 273.599 267.229 273.793 266.874 273.932C266.519 274.068 266.12 274.136 265.676 274.136ZM272.388 274.136C271.843 274.136 271.361 273.999 270.944 273.723C270.526 273.445 270.199 273.053 269.963 272.547C269.728 272.038 269.61 271.438 269.61 270.744C269.61 270.057 269.728 269.46 269.963 268.955C270.199 268.449 270.527 268.058 270.948 267.783C271.368 267.507 271.854 267.369 272.405 267.369C272.831 267.369 273.168 267.44 273.415 267.582C273.665 267.722 273.855 267.881 273.986 268.06C274.12 268.236 274.223 268.381 274.297 268.494H274.382V265.273H275.388V274H274.417V272.994H274.297C274.223 273.114 274.118 273.264 273.982 273.446C273.846 273.625 273.651 273.786 273.398 273.928C273.145 274.067 272.809 274.136 272.388 274.136ZM272.525 273.233C272.928 273.233 273.269 273.128 273.547 272.918C273.826 272.705 274.037 272.411 274.182 272.036C274.327 271.658 274.4 271.222 274.4 270.727C274.4 270.239 274.328 269.811 274.186 269.445C274.044 269.075 273.834 268.788 273.556 268.584C273.277 268.376 272.934 268.273 272.525 268.273C272.098 268.273 271.743 268.382 271.459 268.601C271.178 268.817 270.966 269.111 270.824 269.483C270.685 269.852 270.615 270.267 270.615 270.727C270.615 271.193 270.686 271.616 270.828 271.997C270.973 272.375 271.186 272.676 271.468 272.901C271.752 273.122 272.104 273.233 272.525 273.233Z" fill="white"/>
<rect x="180" y="257" width="120" height="26" rx="10" fill="#D9D9D9" fill-opacity="0.12"/>
<rect x="32" y="127" width="95" height="92" rx="25" fill="#F7F5F5"/>
</svg>
