<svg width="491" height="336" viewBox="0 0 491 336" fill="none" xmlns="http://www.w3.org/2000/svg">
<rect width="491" height="336" fill="#2C2828"/>
<rect x="49" y="252" width="65" height="26" rx="10" fill="#D9D9D9" fill-opacity="0.12"/>
<rect x="191" y="252" width="69" height="26" rx="10" fill="#D9D9D9" fill-opacity="0.12"/>
<rect x="357" y="252" width="78" height="26" rx="10" fill="#D9D9D9" fill-opacity="0.12"/>
<rect x="35" y="122" width="95" height="92" rx="25" fill="#F7F5F5"/>
<rect x="160" y="103" width="130" height="130" rx="25" fill="#F7F5F5"/>
<rect x="320" y="167.782" width="110" height="110" rx="25" transform="rotate(-45 320 167.782)" fill="#F7F5F5"/>
<path d="M39.7344 36.7969H35.8281C35.776 36.3958 35.6693 36.0339 35.5078 35.7109C35.3464 35.388 35.1328 35.112 34.8672 34.8828C34.6016 34.6536 34.2865 34.4792 33.9219 34.3594C33.5625 34.2344 33.1641 34.1719 32.7266 34.1719C31.9505 34.1719 31.2813 34.362 30.7188 34.7422C30.1615 35.1224 29.7318 35.6719 29.4297 36.3906C29.1328 37.1094 28.9844 37.9792 28.9844 39C28.9844 40.0625 29.1354 40.9531 29.4375 41.6719C29.7448 42.3854 30.1745 42.9245 30.7266 43.2891C31.2839 43.6484 31.9427 43.8281 32.7031 43.8281C33.1302 43.8281 33.5182 43.7734 33.8672 43.6641C34.2214 43.5547 34.5313 43.3958 34.7969 43.1875C35.0677 42.974 35.2891 42.7161 35.4609 42.4141C35.638 42.1068 35.7604 41.7604 35.8281 41.375L39.7344 41.3984C39.6667 42.1068 39.4609 42.8047 39.1172 43.4922C38.7786 44.1797 38.3125 44.8073 37.7188 45.375C37.125 45.9375 36.401 46.3854 35.5469 46.7187C34.6979 47.0521 33.724 47.2187 32.625 47.2187C31.1771 47.2187 29.8802 46.901 28.7344 46.2656C27.5938 45.625 26.6927 44.6927 26.0313 43.4687C25.3698 42.2448 25.0391 40.7552 25.0391 39C25.0391 37.2396 25.375 35.7474 26.0469 34.5234C26.7188 33.2995 27.6276 32.3698 28.7734 31.7344C29.9193 31.099 31.2031 30.7812 32.625 30.7812C33.5938 30.7812 34.4896 30.9167 35.3125 31.1875C36.1354 31.4531 36.8594 31.8437 37.4844 32.3594C38.1094 32.8698 38.6172 33.4974 39.0078 34.2422C39.3984 34.987 39.6406 35.8385 39.7344 36.7969ZM44.4766 51.5C44.0182 51.5 43.5859 51.4635 43.1797 51.3906C42.7734 51.3229 42.4245 51.2318 42.1328 51.1172L42.9766 48.3438C43.3516 48.4688 43.6901 48.5417 43.9922 48.5625C44.2995 48.5833 44.5625 48.5339 44.7813 48.4141C45.0052 48.2995 45.1771 48.0938 45.2969 47.7969L45.4453 47.4375L41.1797 35H45.1797L47.3906 43.5625H47.5156L49.7578 35H53.7813L49.2578 48.1484C49.0391 48.8047 48.7292 49.3828 48.3281 49.8828C47.9323 50.388 47.4193 50.7839 46.7891 51.0703C46.1641 51.3568 45.3932 51.5 44.4766 51.5ZM60.4609 47.2266C59.1953 47.2266 58.1094 46.9661 57.2031 46.4453C56.3021 45.9245 55.6094 45.2005 55.125 44.2734C54.6406 43.3411 54.3984 42.263 54.3984 41.0391C54.3984 39.8099 54.6406 38.7318 55.125 37.8047C55.6146 36.8724 56.3099 36.1458 57.2109 35.625C58.1172 35.1042 59.1979 34.8438 60.4531 34.8438C61.5625 34.8438 62.5286 35.0443 63.3516 35.4453C64.1797 35.8464 64.8255 36.4141 65.2891 37.1484C65.7578 37.8776 66.0052 38.7344 66.0313 39.7188H62.4609C62.388 39.1042 62.1797 38.6224 61.8359 38.2734C61.4974 37.9245 61.0547 37.75 60.5078 37.75C60.0651 37.75 59.6771 37.875 59.3438 38.125C59.0104 38.3698 58.75 38.7344 58.5625 39.2187C58.3802 39.6979 58.2891 40.2917 58.2891 41C58.2891 41.7083 58.3802 42.3073 58.5625 42.7969C58.75 43.2812 59.0104 43.6484 59.3438 43.8984C59.6771 44.1432 60.0651 44.2656 60.5078 44.2656C60.862 44.2656 61.1745 44.1901 61.4453 44.0391C61.7214 43.888 61.9479 43.6667 62.125 43.375C62.3021 43.0781 62.4141 42.7187 62.4609 42.2969H66.0313C65.9948 43.2865 65.7474 44.151 65.2891 44.8906C64.8359 45.6302 64.1979 46.2057 63.375 46.6172C62.5573 47.0234 61.5859 47.2266 60.4609 47.2266ZM71.8066 31V47H67.9863V31H71.8066ZM74.2383 47V35H78.0586V47H74.2383ZM76.1523 33.6016C75.6159 33.6016 75.1549 33.4245 74.7695 33.0703C74.3841 32.7109 74.1914 32.2786 74.1914 31.7734C74.1914 31.2734 74.3841 30.8464 74.7695 30.4922C75.1549 30.1328 75.6159 29.9531 76.1523 29.9531C76.694 29.9531 77.1549 30.1328 77.5352 30.4922C77.9206 30.8464 78.1133 31.2734 78.1133 31.7734C78.1133 32.2786 77.9206 32.7109 77.5352 33.0703C77.1549 33.4245 76.694 33.6016 76.1523 33.6016ZM84.3105 40.1562V47H80.4902V35H84.123V37.2031H84.2559C84.5215 36.4687 84.9746 35.8932 85.6152 35.4766C86.2559 35.0547 87.0189 34.8438 87.9043 34.8438C88.748 34.8438 89.4798 35.0339 90.0996 35.4141C90.7246 35.7891 91.209 36.3151 91.5527 36.9922C91.9017 37.6641 92.0736 38.4505 92.0684 39.3516V47H88.248V40.1016C88.2533 39.4349 88.084 38.9141 87.7402 38.5391C87.4017 38.1641 86.9303 37.9766 86.3262 37.9766C85.9251 37.9766 85.571 38.0651 85.2637 38.2422C84.9616 38.4141 84.7272 38.6615 84.5605 38.9844C84.3991 39.3073 84.3158 39.6979 84.3105 40.1562ZM100.027 51.75C98.8867 51.75 97.9102 51.5911 97.0977 51.2734C96.2852 50.9557 95.6471 50.5208 95.1836 49.9688C94.7201 49.4167 94.4414 48.7917 94.3477 48.0938L97.9648 47.8906C98.0326 48.1354 98.1576 48.349 98.3398 48.5313C98.5273 48.7135 98.7695 48.8542 99.0664 48.9531C99.3685 49.0521 99.7227 49.1016 100.129 49.1016C100.77 49.1016 101.298 48.9453 101.715 48.6328C102.137 48.3255 102.348 47.7865 102.348 47.0156V44.9062H102.215C102.064 45.276 101.835 45.6068 101.527 45.8984C101.22 46.1901 100.837 46.4193 100.379 46.5859C99.9258 46.7526 99.4049 46.8359 98.8164 46.8359C97.9414 46.8359 97.1393 46.6328 96.4102 46.2266C95.6862 45.8151 95.1055 45.1797 94.668 44.3203C94.2357 43.4557 94.0195 42.3437 94.0195 40.9844C94.0195 39.5833 94.2435 38.4297 94.6914 37.5234C95.1393 36.612 95.7253 35.9375 96.4492 35.5C97.1784 35.0625 97.9622 34.8438 98.8008 34.8438C99.431 34.8438 99.9701 34.9531 100.418 35.1719C100.871 35.3854 101.243 35.6615 101.535 36C101.827 36.3385 102.048 36.6901 102.199 37.0547H102.309V35H106.113V47.0469C106.113 48.0625 105.858 48.9193 105.348 49.6172C104.837 50.3151 104.124 50.8438 103.207 51.2031C102.29 51.5677 101.23 51.75 100.027 51.75ZM100.145 44.0547C100.608 44.0547 101.004 43.9323 101.332 43.6875C101.66 43.4427 101.913 43.0911 102.09 42.6328C102.267 42.1745 102.355 41.625 102.355 40.9844C102.355 40.3333 102.267 39.7734 102.09 39.3047C101.918 38.8307 101.665 38.4661 101.332 38.2109C101.004 37.9557 100.608 37.8281 100.145 37.8281C99.6706 37.8281 99.2695 37.9583 98.9414 38.2187C98.6133 38.4792 98.3633 38.8464 98.1914 39.3203C98.0247 39.7891 97.9414 40.3437 97.9414 40.9844C97.9414 41.625 98.0273 42.1745 98.1992 42.6328C98.3711 43.0911 98.6185 43.4427 98.9414 43.6875C99.2695 43.9323 99.6706 44.0547 100.145 44.0547ZM112.752 34.1406V31H126.275V34.1406H121.424V47H117.611V34.1406H112.752ZM131.984 40.1562V47H128.164V31H131.859V37.2031H131.992C132.263 36.4635 132.706 35.8854 133.32 35.4687C133.94 35.0521 134.698 34.8438 135.594 34.8438C136.438 34.8438 137.172 35.0313 137.797 35.4063C138.422 35.776 138.906 36.2995 139.25 36.9766C139.599 37.6536 139.771 38.4453 139.766 39.3516V47H135.945V40.1016C135.951 39.4349 135.784 38.9141 135.445 38.5391C135.107 38.1641 134.63 37.9766 134.016 37.9766C133.615 37.9766 133.26 38.0651 132.953 38.2422C132.651 38.4141 132.414 38.6615 132.242 38.9844C132.076 39.3073 131.99 39.6979 131.984 40.1562ZM142.15 47V35H145.861V37.1875H145.986C146.205 36.3958 146.562 35.8073 147.057 35.4219C147.551 35.0312 148.127 34.8359 148.783 34.8359C148.96 34.8359 149.143 34.849 149.33 34.875C149.518 34.8958 149.692 34.9297 149.854 34.9766V38.2969C149.671 38.2344 149.432 38.1849 149.135 38.1484C148.843 38.112 148.583 38.0937 148.354 38.0937C147.9 38.0937 147.492 38.1953 147.127 38.3984C146.768 38.5964 146.484 38.875 146.275 39.2344C146.072 39.5885 145.971 40.0052 145.971 40.4844V47H142.15ZM156.389 47.2266C155.128 47.2266 154.045 46.9688 153.139 46.4531C152.238 45.9323 151.542 45.2083 151.053 44.2812C150.568 43.349 150.326 42.2682 150.326 41.0391C150.326 39.8047 150.568 38.724 151.053 37.7969C151.542 36.8646 152.238 36.1406 153.139 35.625C154.045 35.1042 155.128 34.8438 156.389 34.8438C157.649 34.8438 158.73 35.1042 159.631 35.625C160.537 36.1406 161.232 36.8646 161.717 37.7969C162.206 38.724 162.451 39.8047 162.451 41.0391C162.451 42.2682 162.206 43.349 161.717 44.2812C161.232 45.2083 160.537 45.9323 159.631 46.4531C158.73 46.9688 157.649 47.2266 156.389 47.2266ZM156.412 44.3437C156.87 44.3437 157.258 44.2031 157.576 43.9219C157.894 43.6406 158.136 43.25 158.303 42.75C158.475 42.25 158.561 41.6719 158.561 41.0156C158.561 40.349 158.475 39.7656 158.303 39.2656C158.136 38.7656 157.894 38.375 157.576 38.0937C157.258 37.8125 156.87 37.6719 156.412 37.6719C155.938 37.6719 155.537 37.8125 155.209 38.0937C154.886 38.375 154.639 38.7656 154.467 39.2656C154.3 39.7656 154.217 40.349 154.217 41.0156C154.217 41.6719 154.3 42.25 154.467 42.75C154.639 43.25 154.886 43.6406 155.209 43.9219C155.537 44.2031 155.938 44.3437 156.412 44.3437ZM172.15 41.8203V35H175.963V47H172.322V44.7656H172.197C171.932 45.5 171.479 46.0833 170.838 46.5156C170.202 46.9427 169.434 47.1563 168.533 47.1563C167.715 47.1563 166.997 46.9687 166.377 46.5937C165.757 46.2187 165.275 45.6953 164.932 45.0234C164.588 44.3464 164.413 43.5547 164.408 42.6484V35H168.229V41.8984C168.234 42.5495 168.406 43.0625 168.744 43.4375C169.083 43.8125 169.544 44 170.127 44C170.507 44 170.848 43.9167 171.15 43.75C171.458 43.5781 171.7 43.3307 171.877 43.0078C172.059 42.6797 172.15 42.2839 172.15 41.8203ZM183.988 51.75C182.848 51.75 181.871 51.5911 181.059 51.2734C180.246 50.9557 179.608 50.5208 179.145 49.9688C178.681 49.4167 178.402 48.7917 178.309 48.0938L181.926 47.8906C181.993 48.1354 182.118 48.349 182.301 48.5313C182.488 48.7135 182.73 48.8542 183.027 48.9531C183.329 49.0521 183.684 49.1016 184.09 49.1016C184.73 49.1016 185.259 48.9453 185.676 48.6328C186.098 48.3255 186.309 47.7865 186.309 47.0156V44.9062H186.176C186.025 45.276 185.796 45.6068 185.488 45.8984C185.181 46.1901 184.798 46.4193 184.34 46.5859C183.887 46.7526 183.366 46.8359 182.777 46.8359C181.902 46.8359 181.1 46.6328 180.371 46.2266C179.647 45.8151 179.066 45.1797 178.629 44.3203C178.197 43.4557 177.98 42.3437 177.98 40.9844C177.98 39.5833 178.204 38.4297 178.652 37.5234C179.1 36.612 179.686 35.9375 180.41 35.5C181.139 35.0625 181.923 34.8438 182.762 34.8438C183.392 34.8438 183.931 34.9531 184.379 35.1719C184.832 35.3854 185.204 35.6615 185.496 36C185.788 36.3385 186.009 36.6901 186.16 37.0547H186.27V35H190.074V47.0469C190.074 48.0625 189.819 48.9193 189.309 49.6172C188.798 50.3151 188.085 50.8438 187.168 51.2031C186.251 51.5677 185.191 51.75 183.988 51.75ZM184.105 44.0547C184.569 44.0547 184.965 43.9323 185.293 43.6875C185.621 43.4427 185.874 43.0911 186.051 42.6328C186.228 42.1745 186.316 41.625 186.316 40.9844C186.316 40.3333 186.228 39.7734 186.051 39.3047C185.879 38.8307 185.626 38.4661 185.293 38.2109C184.965 37.9557 184.569 37.8281 184.105 37.8281C183.632 37.8281 183.23 37.9583 182.902 38.2187C182.574 38.4792 182.324 38.8464 182.152 39.3203C181.986 39.7891 181.902 40.3437 181.902 40.9844C181.902 41.625 181.988 42.1745 182.16 42.6328C182.332 43.0911 182.579 43.4427 182.902 43.6875C183.23 43.9323 183.632 44.0547 184.105 44.0547ZM196.33 40.1562V47H192.51V31H196.205V37.2031H196.338C196.609 36.4635 197.051 35.8854 197.666 35.4687C198.286 35.0521 199.044 34.8438 199.939 34.8438C200.783 34.8438 201.518 35.0313 202.143 35.4063C202.768 35.776 203.252 36.2995 203.596 36.9766C203.945 37.6536 204.117 38.4453 204.111 39.3516V47H200.291V40.1016C200.296 39.4349 200.13 38.9141 199.791 38.5391C199.452 38.1641 198.976 37.9766 198.361 37.9766C197.96 37.9766 197.606 38.0651 197.299 38.2422C196.997 38.4141 196.76 38.6615 196.588 38.9844C196.421 39.3073 196.335 39.6979 196.33 40.1562ZM219.871 35.7969C219.819 35.224 219.587 34.7786 219.176 34.4609C218.77 34.138 218.189 33.9766 217.434 33.9766C216.934 33.9766 216.517 34.0417 216.184 34.1719C215.85 34.3021 215.6 34.4818 215.434 34.7109C215.267 34.9349 215.181 35.1927 215.176 35.4844C215.165 35.724 215.212 35.9349 215.316 36.1172C215.426 36.2995 215.582 36.4609 215.785 36.6016C215.993 36.737 216.243 36.8568 216.535 36.9609C216.827 37.0651 217.155 37.1562 217.52 37.2344L218.895 37.5469C219.686 37.7188 220.384 37.9479 220.988 38.2344C221.598 38.5208 222.108 38.862 222.52 39.2578C222.936 39.6536 223.251 40.1094 223.465 40.625C223.678 41.1406 223.788 41.7187 223.793 42.3594C223.788 43.3698 223.533 44.237 223.027 44.9609C222.522 45.6849 221.796 46.2396 220.848 46.625C219.905 47.0104 218.767 47.2031 217.434 47.2031C216.095 47.2031 214.928 47.0026 213.934 46.6016C212.939 46.2005 212.165 45.5911 211.613 44.7734C211.061 43.9557 210.777 42.9219 210.762 41.6719H214.465C214.496 42.1875 214.634 42.6172 214.879 42.9609C215.124 43.3047 215.46 43.5651 215.887 43.7422C216.319 43.9193 216.819 44.0078 217.387 44.0078C217.908 44.0078 218.35 43.9375 218.715 43.7969C219.085 43.6563 219.368 43.4609 219.566 43.2109C219.764 42.9609 219.866 42.6745 219.871 42.3516C219.866 42.0495 219.772 41.7917 219.59 41.5781C219.408 41.3594 219.126 41.1719 218.746 41.0156C218.371 40.8542 217.892 40.7057 217.309 40.5703L215.637 40.1797C214.251 39.862 213.16 39.349 212.363 38.6406C211.566 37.9271 211.171 36.9635 211.176 35.75C211.171 34.7604 211.436 33.8932 211.973 33.1484C212.509 32.4036 213.251 31.8229 214.199 31.4063C215.147 30.9896 216.228 30.7812 217.441 30.7812C218.681 30.7812 219.757 30.9922 220.668 31.4141C221.585 31.8307 222.296 32.4167 222.801 33.1719C223.306 33.9271 223.564 34.8021 223.574 35.7969H219.871ZM232.52 35V37.8125H224.949V35H232.52ZM226.535 32.125H230.355V43.2266C230.355 43.4609 230.392 43.651 230.465 43.7969C230.543 43.9375 230.655 44.0391 230.801 44.1016C230.947 44.1589 231.121 44.1875 231.324 44.1875C231.47 44.1875 231.624 44.1745 231.785 44.1484C231.952 44.1172 232.077 44.0911 232.16 44.0703L232.738 46.8281C232.556 46.8802 232.298 46.9453 231.965 47.0234C231.637 47.1016 231.243 47.151 230.785 47.1719C229.889 47.2135 229.121 47.1094 228.48 46.8594C227.845 46.6042 227.358 46.2083 227.02 45.6719C226.686 45.1354 226.525 44.4609 226.535 43.6484V32.125ZM237.852 47.2031C237.086 47.2031 236.406 47.0755 235.813 46.8203C235.224 46.5599 234.758 46.1693 234.414 45.6484C234.076 45.1224 233.906 44.4635 233.906 43.6719C233.906 43.0052 234.023 42.4427 234.258 41.9844C234.492 41.526 234.815 41.1536 235.227 40.8672C235.638 40.5807 236.112 40.3646 236.648 40.2187C237.185 40.0677 237.758 39.9661 238.367 39.9141C239.049 39.8516 239.599 39.7865 240.016 39.7188C240.432 39.6458 240.734 39.5443 240.922 39.4141C241.115 39.2786 241.211 39.0885 241.211 38.8437V38.8047C241.211 38.4036 241.073 38.0937 240.797 37.875C240.521 37.6562 240.148 37.5469 239.68 37.5469C239.174 37.5469 238.768 37.6562 238.461 37.875C238.154 38.0937 237.958 38.3958 237.875 38.7812L234.352 38.6562C234.456 37.9271 234.724 37.276 235.156 36.7031C235.594 36.125 236.193 35.6719 236.953 35.3437C237.719 35.0104 238.638 34.8438 239.711 34.8438C240.477 34.8438 241.182 34.9349 241.828 35.1172C242.474 35.2943 243.036 35.5547 243.516 35.8984C243.995 36.237 244.365 36.6536 244.625 37.1484C244.891 37.6432 245.023 38.2083 245.023 38.8437V47H241.43V45.3281H241.336C241.122 45.7344 240.849 46.0781 240.516 46.3594C240.188 46.6406 239.799 46.8516 239.352 46.9922C238.909 47.1328 238.409 47.2031 237.852 47.2031ZM239.031 44.7031C239.443 44.7031 239.813 44.6198 240.141 44.4531C240.474 44.2865 240.74 44.0573 240.938 43.7656C241.135 43.4687 241.234 43.125 241.234 42.7344V41.5937C241.125 41.651 240.992 41.7031 240.836 41.75C240.685 41.7969 240.518 41.8411 240.336 41.8828C240.154 41.9245 239.966 41.9609 239.773 41.9922C239.581 42.0234 239.396 42.0521 239.219 42.0781C238.859 42.1354 238.552 42.224 238.297 42.3437C238.047 42.4635 237.854 42.6198 237.719 42.8125C237.589 43 237.523 43.224 237.523 43.4844C237.523 43.8802 237.664 44.1823 237.945 44.3906C238.232 44.599 238.594 44.7031 239.031 44.7031ZM254.133 35V37.8125H246.563V35H254.133ZM248.148 32.125H251.969V43.2266C251.969 43.4609 252.005 43.651 252.078 43.7969C252.156 43.9375 252.268 44.0391 252.414 44.1016C252.56 44.1589 252.734 44.1875 252.938 44.1875C253.083 44.1875 253.237 44.1745 253.398 44.1484C253.565 44.1172 253.69 44.0911 253.773 44.0703L254.352 46.8281C254.169 46.8802 253.911 46.9453 253.578 47.0234C253.25 47.1016 252.857 47.151 252.398 47.1719C251.503 47.2135 250.734 47.1094 250.094 46.8594C249.458 46.6042 248.971 46.2083 248.633 45.6719C248.299 45.1354 248.138 44.4609 248.148 43.6484V32.125ZM261.563 47.2266C260.307 47.2266 259.224 46.9792 258.313 46.4844C257.406 45.9844 256.708 45.2734 256.219 44.3516C255.734 43.4245 255.492 42.3229 255.492 41.0469C255.492 39.8073 255.737 38.724 256.227 37.7969C256.716 36.8646 257.406 36.1406 258.297 35.625C259.188 35.1042 260.237 34.8438 261.445 34.8438C262.299 34.8438 263.081 34.9766 263.789 35.2422C264.497 35.5078 265.109 35.901 265.625 36.4219C266.141 36.9427 266.542 37.5859 266.828 38.3516C267.115 39.112 267.258 39.9844 267.258 40.9687V41.9219H256.828V39.7031H263.703C263.698 39.2969 263.602 38.9349 263.414 38.6172C263.227 38.2995 262.969 38.0521 262.641 37.875C262.318 37.6927 261.945 37.6016 261.523 37.6016C261.096 37.6016 260.714 37.6979 260.375 37.8906C260.036 38.0781 259.768 38.3359 259.57 38.6641C259.372 38.987 259.268 39.3542 259.258 39.7656V42.0234C259.258 42.513 259.354 42.9427 259.547 43.3125C259.74 43.6771 260.013 43.9609 260.367 44.1641C260.721 44.3672 261.143 44.4687 261.633 44.4687C261.971 44.4687 262.279 44.4219 262.555 44.3281C262.831 44.2344 263.068 44.0964 263.266 43.9141C263.464 43.7318 263.612 43.5078 263.711 43.2422L267.219 43.3437C267.073 44.1302 266.753 44.8151 266.258 45.3984C265.768 45.9766 265.125 46.4271 264.328 46.75C263.531 47.0677 262.609 47.2266 261.563 47.2266ZM279.686 38.6641L276.178 38.7578C276.141 38.5078 276.042 38.2865 275.881 38.0937C275.719 37.8958 275.508 37.7422 275.248 37.6328C274.993 37.5182 274.696 37.4609 274.357 37.4609C273.915 37.4609 273.537 37.5495 273.225 37.7266C272.917 37.9036 272.766 38.1432 272.771 38.4453C272.766 38.6797 272.86 38.8828 273.053 39.0547C273.251 39.2266 273.602 39.3646 274.107 39.4687L276.42 39.9062C277.618 40.1354 278.508 40.5156 279.092 41.0469C279.68 41.5781 279.977 42.2812 279.982 43.1562C279.977 43.9792 279.732 44.6953 279.248 45.3047C278.769 45.9141 278.113 46.388 277.279 46.7266C276.446 47.0599 275.493 47.2266 274.42 47.2266C272.706 47.2266 271.355 46.875 270.365 46.1719C269.381 45.4635 268.818 44.5156 268.678 43.3281L272.451 43.2344C272.535 43.6719 272.751 44.0052 273.1 44.2344C273.449 44.4635 273.894 44.5781 274.436 44.5781C274.925 44.5781 275.324 44.487 275.631 44.3047C275.938 44.1224 276.094 43.8802 276.1 43.5781C276.094 43.3073 275.975 43.0911 275.74 42.9297C275.506 42.763 275.139 42.6328 274.639 42.5391L272.545 42.1406C271.342 41.9219 270.446 41.5182 269.857 40.9297C269.269 40.3359 268.977 39.5807 268.982 38.6641C268.977 37.862 269.191 37.1771 269.623 36.6094C270.055 36.0365 270.67 35.599 271.467 35.2969C272.264 34.9948 273.204 34.8438 274.287 34.8438C275.912 34.8438 277.193 35.1849 278.131 35.8672C279.068 36.5443 279.587 37.4766 279.686 38.6641Z" fill="white"/>
<path d="M64.9261 265.062V269H63.9205V262.455H64.892V263.477H64.9773C65.1307 263.145 65.3636 262.878 65.6761 262.676C65.9886 262.472 66.392 262.369 66.8864 262.369C67.3295 262.369 67.7173 262.46 68.0497 262.642C68.3821 262.821 68.6406 263.094 68.8253 263.46C69.0099 263.824 69.1023 264.284 69.1023 264.841V269H68.0966V264.909C68.0966 264.395 67.9631 263.994 67.696 263.707C67.429 263.418 67.0625 263.273 66.5966 263.273C66.2756 263.273 65.9886 263.342 65.7358 263.482C65.4858 263.621 65.2884 263.824 65.1435 264.091C64.9986 264.358 64.9261 264.682 64.9261 265.062ZM73.5991 269.136C73.0082 269.136 72.4897 268.996 72.0437 268.714C71.6005 268.433 71.2539 268.04 71.0039 267.534C70.7567 267.028 70.6332 266.437 70.6332 265.761C70.6332 265.08 70.7567 264.484 71.0039 263.976C71.2539 263.467 71.6005 263.072 72.0437 262.791C72.4897 262.51 73.0082 262.369 73.5991 262.369C74.19 262.369 74.707 262.51 75.1502 262.791C75.5962 263.072 75.9428 263.467 76.19 263.976C76.44 264.484 76.565 265.08 76.565 265.761C76.565 266.437 76.44 267.028 76.19 267.534C75.9428 268.04 75.5962 268.433 75.1502 268.714C74.707 268.996 74.19 269.136 73.5991 269.136ZM73.5991 268.233C74.0479 268.233 74.4173 268.118 74.707 267.888C74.9968 267.658 75.2113 267.355 75.3505 266.98C75.4897 266.605 75.5593 266.199 75.5593 265.761C75.5593 265.324 75.4897 264.916 75.3505 264.538C75.2113 264.161 74.9968 263.855 74.707 263.622C74.4173 263.389 74.0479 263.273 73.5991 263.273C73.1502 263.273 72.7809 263.389 72.4911 263.622C72.2013 263.855 71.9869 264.161 71.8477 264.538C71.7085 264.916 71.6388 265.324 71.6388 265.761C71.6388 266.199 71.7085 266.605 71.8477 266.98C71.9869 267.355 72.2013 267.658 72.4911 267.888C72.7809 268.118 73.1502 268.233 73.5991 268.233ZM78.1001 269V262.455H79.0717V263.443H79.1399C79.2592 263.119 79.4751 262.857 79.7876 262.655C80.1001 262.453 80.4524 262.352 80.8445 262.352C80.9183 262.352 81.0107 262.354 81.1214 262.357C81.2322 262.359 81.3161 262.364 81.3729 262.369V263.392C81.3388 263.384 81.2607 263.371 81.1385 263.354C81.0192 263.334 80.8928 263.324 80.7592 263.324C80.4411 263.324 80.157 263.391 79.907 263.524C79.6598 263.655 79.4638 263.837 79.3189 264.07C79.1768 264.3 79.1058 264.562 79.1058 264.858V269H78.1001ZM82.565 269V262.455H83.5366V263.477H83.6218C83.7582 263.128 83.9783 262.857 84.2823 262.663C84.5863 262.467 84.9513 262.369 85.3775 262.369C85.8093 262.369 86.1687 262.467 86.4556 262.663C86.7454 262.857 86.9712 263.128 87.1332 263.477H87.2013C87.369 263.139 87.6204 262.871 87.9556 262.672C88.2908 262.47 88.6928 262.369 89.1616 262.369C89.7468 262.369 90.2255 262.553 90.5977 262.919C90.9698 263.283 91.1559 263.849 91.1559 264.619V269H90.1502V264.619C90.1502 264.136 90.0181 263.791 89.7539 263.584C89.4897 263.376 89.1786 263.273 88.8207 263.273C88.3604 263.273 88.0039 263.412 87.7511 263.69C87.4982 263.966 87.3718 264.315 87.3718 264.739V269H86.3491V264.517C86.3491 264.145 86.2283 263.845 85.9869 263.618C85.7454 263.388 85.4343 263.273 85.0536 263.273C84.7923 263.273 84.5479 263.342 84.3207 263.482C84.0962 263.621 83.9144 263.814 83.7752 264.061C83.6388 264.305 83.5707 264.588 83.5707 264.909V269H82.565ZM94.9208 269.153C94.506 269.153 94.1296 269.075 93.7915 268.919C93.4535 268.76 93.185 268.531 92.9862 268.233C92.7873 267.932 92.6879 267.568 92.6879 267.142C92.6879 266.767 92.7617 266.463 92.9094 266.23C93.0572 265.994 93.2546 265.81 93.5018 265.676C93.7489 265.543 94.0217 265.443 94.32 265.378C94.6211 265.31 94.9237 265.256 95.2276 265.216C95.6254 265.165 95.9478 265.126 96.195 265.101C96.445 265.072 96.6268 265.026 96.7404 264.96C96.8569 264.895 96.9151 264.781 96.9151 264.619V264.585C96.9151 264.165 96.8001 263.838 96.57 263.605C96.3427 263.372 95.9975 263.256 95.5344 263.256C95.0543 263.256 94.6779 263.361 94.4052 263.571C94.1325 263.781 93.9407 264.006 93.8299 264.244L92.8754 263.903C93.0458 263.506 93.2731 263.196 93.5572 262.974C93.8441 262.75 94.1566 262.594 94.4947 262.506C94.8356 262.415 95.1708 262.369 95.5004 262.369C95.7106 262.369 95.9521 262.395 96.2248 262.446C96.5004 262.494 96.766 262.595 97.0217 262.749C97.2802 262.902 97.4947 263.134 97.6651 263.443C97.8356 263.753 97.9208 264.168 97.9208 264.688V269H96.9151V268.114H96.864C96.7958 268.256 96.6822 268.408 96.5231 268.57C96.364 268.732 96.1523 268.869 95.8881 268.983C95.6239 269.097 95.3015 269.153 94.9208 269.153ZM95.0742 268.25C95.4719 268.25 95.8072 268.172 96.0799 268.016C96.3555 267.859 96.5629 267.658 96.7021 267.411C96.8441 267.163 96.9151 266.903 96.9151 266.631V265.71C96.8725 265.761 96.7788 265.808 96.6339 265.851C96.4918 265.891 96.3271 265.926 96.1396 265.957C95.9549 265.986 95.7745 266.011 95.5984 266.034C95.4251 266.054 95.2844 266.071 95.1765 266.085C94.9151 266.119 94.6708 266.175 94.4435 266.251C94.2191 266.325 94.0373 266.437 93.8981 266.588C93.7617 266.736 93.6935 266.937 93.6935 267.193C93.6935 267.543 93.8228 267.807 94.0813 267.986C94.3427 268.162 94.6737 268.25 95.0742 268.25ZM100.762 260.273V269H99.7564V260.273H100.762Z" fill="white"/>
<path d="M206.557 263.92L205.653 264.176C205.597 264.026 205.513 263.879 205.402 263.737C205.294 263.592 205.146 263.473 204.959 263.379C204.771 263.286 204.531 263.239 204.239 263.239C203.838 263.239 203.504 263.331 203.237 263.516C202.973 263.697 202.841 263.929 202.841 264.21C202.841 264.46 202.932 264.658 203.114 264.803C203.295 264.947 203.58 265.068 203.966 265.165L204.938 265.403C205.523 265.545 205.959 265.763 206.246 266.055C206.533 266.345 206.676 266.719 206.676 267.176C206.676 267.551 206.568 267.886 206.352 268.182C206.139 268.477 205.841 268.71 205.457 268.881C205.074 269.051 204.628 269.136 204.119 269.136C203.452 269.136 202.899 268.991 202.462 268.702C202.024 268.412 201.747 267.989 201.631 267.432L202.585 267.193C202.676 267.545 202.848 267.81 203.101 267.986C203.357 268.162 203.69 268.25 204.102 268.25C204.571 268.25 204.943 268.151 205.219 267.952C205.497 267.75 205.636 267.509 205.636 267.227C205.636 267 205.557 266.81 205.398 266.656C205.239 266.5 204.994 266.384 204.665 266.307L203.574 266.051C202.974 265.909 202.534 265.689 202.253 265.391C201.974 265.089 201.835 264.713 201.835 264.261C201.835 263.892 201.939 263.565 202.146 263.281C202.357 262.997 202.642 262.774 203.003 262.612C203.366 262.45 203.778 262.369 204.239 262.369C204.886 262.369 205.395 262.511 205.764 262.795C206.136 263.08 206.401 263.455 206.557 263.92ZM210.849 269.136C210.235 269.136 209.707 268.991 209.264 268.702C208.821 268.412 208.48 268.013 208.241 267.504C208.002 266.996 207.883 266.415 207.883 265.761C207.883 265.097 208.005 264.51 208.25 264.001C208.497 263.49 208.841 263.091 209.281 262.804C209.724 262.514 210.241 262.369 210.832 262.369C211.292 262.369 211.707 262.455 212.076 262.625C212.446 262.795 212.748 263.034 212.984 263.341C213.22 263.648 213.366 264.006 213.423 264.415H212.417C212.341 264.116 212.17 263.852 211.906 263.622C211.645 263.389 211.292 263.273 210.849 263.273C210.457 263.273 210.113 263.375 209.818 263.58C209.525 263.781 209.297 264.067 209.132 264.436C208.97 264.803 208.889 265.233 208.889 265.727C208.889 266.233 208.968 266.673 209.127 267.048C209.289 267.423 209.517 267.714 209.809 267.922C210.105 268.129 210.451 268.233 210.849 268.233C211.11 268.233 211.348 268.188 211.561 268.097C211.774 268.006 211.954 267.875 212.102 267.705C212.25 267.534 212.355 267.33 212.417 267.091H213.423C213.366 267.477 213.225 267.825 213.001 268.135C212.779 268.442 212.485 268.686 212.119 268.868C211.755 269.047 211.332 269.136 210.849 269.136ZM216.819 269.153C216.404 269.153 216.028 269.075 215.69 268.919C215.352 268.76 215.083 268.531 214.885 268.233C214.686 267.932 214.586 267.568 214.586 267.142C214.586 266.767 214.66 266.463 214.808 266.23C214.956 265.994 215.153 265.81 215.4 265.676C215.647 265.543 215.92 265.443 216.218 265.378C216.52 265.31 216.822 265.256 217.126 265.216C217.524 265.165 217.846 265.126 218.093 265.101C218.343 265.072 218.525 265.026 218.639 264.96C218.755 264.895 218.814 264.781 218.814 264.619V264.585C218.814 264.165 218.699 263.838 218.468 263.605C218.241 263.372 217.896 263.256 217.433 263.256C216.953 263.256 216.576 263.361 216.304 263.571C216.031 263.781 215.839 264.006 215.728 264.244L214.774 263.903C214.944 263.506 215.172 263.196 215.456 262.974C215.743 262.75 216.055 262.594 216.393 262.506C216.734 262.415 217.069 262.369 217.399 262.369C217.609 262.369 217.85 262.395 218.123 262.446C218.399 262.494 218.664 262.595 218.92 262.749C219.179 262.902 219.393 263.134 219.564 263.443C219.734 263.753 219.819 264.168 219.819 264.688V269H218.814V268.114H218.762C218.694 268.256 218.581 268.408 218.422 268.57C218.262 268.732 218.051 268.869 217.787 268.983C217.522 269.097 217.2 269.153 216.819 269.153ZM216.973 268.25C217.37 268.25 217.706 268.172 217.978 268.016C218.254 267.859 218.461 267.658 218.6 267.411C218.743 267.163 218.814 266.903 218.814 266.631V265.71C218.771 265.761 218.677 265.808 218.532 265.851C218.39 265.891 218.225 265.926 218.038 265.957C217.853 265.986 217.673 266.011 217.497 266.034C217.324 266.054 217.183 266.071 217.075 266.085C216.814 266.119 216.569 266.175 216.342 266.251C216.118 266.325 215.936 266.437 215.797 266.588C215.66 266.736 215.592 266.937 215.592 267.193C215.592 267.543 215.721 267.807 215.98 267.986C216.241 268.162 216.572 268.25 216.973 268.25ZM222.661 260.273V269H221.655V260.273H222.661ZM227.247 269.136C226.616 269.136 226.072 268.997 225.615 268.719C225.16 268.438 224.809 268.045 224.562 267.543C224.318 267.037 224.196 266.449 224.196 265.778C224.196 265.108 224.318 264.517 224.562 264.006C224.809 263.491 225.153 263.091 225.593 262.804C226.037 262.514 226.554 262.369 227.145 262.369C227.485 262.369 227.822 262.426 228.154 262.54C228.487 262.653 228.789 262.838 229.062 263.094C229.335 263.347 229.552 263.682 229.714 264.099C229.876 264.517 229.957 265.031 229.957 265.642V266.068H224.912V265.199H228.934C228.934 264.83 228.86 264.5 228.713 264.21C228.568 263.92 228.36 263.692 228.091 263.524C227.824 263.357 227.508 263.273 227.145 263.273C226.744 263.273 226.397 263.372 226.105 263.571C225.815 263.767 225.592 264.023 225.436 264.338C225.279 264.653 225.201 264.991 225.201 265.352V265.932C225.201 266.426 225.287 266.845 225.457 267.189C225.63 267.53 225.87 267.79 226.177 267.969C226.484 268.145 226.841 268.233 227.247 268.233C227.511 268.233 227.75 268.196 227.963 268.122C228.179 268.045 228.365 267.932 228.521 267.781C228.677 267.628 228.798 267.437 228.883 267.21L229.855 267.483C229.752 267.812 229.581 268.102 229.339 268.352C229.098 268.599 228.799 268.793 228.444 268.932C228.089 269.068 227.69 269.136 227.247 269.136ZM238.987 266.324V262.455H239.993V269H238.987V267.892H238.919C238.765 268.224 238.527 268.507 238.203 268.74C237.879 268.97 237.47 269.085 236.975 269.085C236.566 269.085 236.203 268.996 235.885 268.817C235.566 268.635 235.316 268.362 235.135 267.999C234.953 267.632 234.862 267.17 234.862 266.614V262.455H235.868V266.545C235.868 267.023 236.001 267.403 236.268 267.688C236.538 267.972 236.882 268.114 237.299 268.114C237.549 268.114 237.804 268.05 238.062 267.922C238.324 267.794 238.542 267.598 238.718 267.334C238.897 267.07 238.987 266.733 238.987 266.324ZM241.835 271.455V262.455H242.806V263.494H242.925C242.999 263.381 243.102 263.236 243.232 263.06C243.366 262.881 243.556 262.722 243.803 262.582C244.053 262.44 244.391 262.369 244.817 262.369C245.369 262.369 245.854 262.507 246.275 262.783C246.695 263.058 247.023 263.449 247.259 263.955C247.495 264.46 247.613 265.057 247.613 265.744C247.613 266.438 247.495 267.038 247.259 267.547C247.023 268.053 246.697 268.445 246.279 268.723C245.862 268.999 245.38 269.136 244.835 269.136C244.414 269.136 244.077 269.067 243.825 268.928C243.572 268.786 243.377 268.625 243.241 268.446C243.104 268.264 242.999 268.114 242.925 267.994H242.84V271.455H241.835ZM242.823 265.727C242.823 266.222 242.896 266.658 243.04 267.036C243.185 267.411 243.397 267.705 243.675 267.918C243.954 268.128 244.295 268.233 244.698 268.233C245.119 268.233 245.469 268.122 245.751 267.901C246.035 267.676 246.248 267.375 246.39 266.997C246.535 266.616 246.607 266.193 246.607 265.727C246.607 265.267 246.536 264.852 246.394 264.483C246.255 264.111 246.043 263.817 245.759 263.601C245.478 263.382 245.124 263.273 244.698 263.273C244.289 263.273 243.945 263.376 243.667 263.584C243.388 263.788 243.178 264.075 243.036 264.445C242.894 264.811 242.823 265.239 242.823 265.727Z" fill="white"/>
<path d="M369.92 269V262.455H370.892V263.443H370.96C371.08 263.119 371.295 262.857 371.608 262.655C371.92 262.453 372.273 262.352 372.665 262.352C372.739 262.352 372.831 262.354 372.942 262.357C373.053 262.359 373.136 262.364 373.193 262.369V263.392C373.159 263.384 373.081 263.371 372.959 263.354C372.839 263.334 372.713 263.324 372.58 263.324C372.261 263.324 371.977 263.391 371.727 263.524C371.48 263.655 371.284 263.837 371.139 264.07C370.997 264.3 370.926 264.562 370.926 264.858V269H369.92ZM376.845 269.136C376.254 269.136 375.736 268.996 375.29 268.714C374.847 268.433 374.5 268.04 374.25 267.534C374.003 267.028 373.879 266.437 373.879 265.761C373.879 265.08 374.003 264.484 374.25 263.976C374.5 263.467 374.847 263.072 375.29 262.791C375.736 262.51 376.254 262.369 376.845 262.369C377.436 262.369 377.953 262.51 378.396 262.791C378.842 263.072 379.189 263.467 379.436 263.976C379.686 264.484 379.811 265.08 379.811 265.761C379.811 266.437 379.686 267.028 379.436 267.534C379.189 268.04 378.842 268.433 378.396 268.714C377.953 268.996 377.436 269.136 376.845 269.136ZM376.845 268.233C377.294 268.233 377.663 268.118 377.953 267.888C378.243 267.658 378.457 267.355 378.597 266.98C378.736 266.605 378.805 266.199 378.805 265.761C378.805 265.324 378.736 264.916 378.597 264.538C378.457 264.161 378.243 263.855 377.953 263.622C377.663 263.389 377.294 263.273 376.845 263.273C376.396 263.273 376.027 263.389 375.737 263.622C375.447 263.855 375.233 264.161 375.094 264.538C374.955 264.916 374.885 265.324 374.885 265.761C374.885 266.199 374.955 266.605 375.094 266.98C375.233 267.355 375.447 267.658 375.737 267.888C376.027 268.118 376.396 268.233 376.845 268.233ZM384.193 262.455V263.307H380.801V262.455H384.193ZM381.789 260.886H382.795V267.125C382.795 267.409 382.836 267.622 382.919 267.764C383.004 267.903 383.112 267.997 383.243 268.045C383.376 268.091 383.517 268.114 383.664 268.114C383.775 268.114 383.866 268.108 383.937 268.097C384.008 268.082 384.065 268.071 384.108 268.062L384.312 268.966C384.244 268.991 384.149 269.017 384.027 269.043C383.904 269.071 383.75 269.085 383.562 269.085C383.278 269.085 383 269.024 382.727 268.902C382.457 268.78 382.233 268.594 382.054 268.344C381.877 268.094 381.789 267.778 381.789 267.398V260.886ZM387.632 269.153C387.217 269.153 386.841 269.075 386.502 268.919C386.164 268.76 385.896 268.531 385.697 268.233C385.498 267.932 385.399 267.568 385.399 267.142C385.399 266.767 385.473 266.463 385.62 266.23C385.768 265.994 385.966 265.81 386.213 265.676C386.46 265.543 386.733 265.443 387.031 265.378C387.332 265.31 387.635 265.256 387.939 265.216C388.336 265.165 388.659 265.126 388.906 265.101C389.156 265.072 389.338 265.026 389.451 264.96C389.568 264.895 389.626 264.781 389.626 264.619V264.585C389.626 264.165 389.511 263.838 389.281 263.605C389.054 263.372 388.708 263.256 388.245 263.256C387.765 263.256 387.389 263.361 387.116 263.571C386.843 263.781 386.652 264.006 386.541 264.244L385.586 263.903C385.757 263.506 385.984 263.196 386.268 262.974C386.555 262.75 386.868 262.594 387.206 262.506C387.547 262.415 387.882 262.369 388.211 262.369C388.422 262.369 388.663 262.395 388.936 262.446C389.211 262.494 389.477 262.595 389.733 262.749C389.991 262.902 390.206 263.134 390.376 263.443C390.547 263.753 390.632 264.168 390.632 264.688V269H389.626V268.114H389.575C389.507 268.256 389.393 268.408 389.234 268.57C389.075 268.732 388.863 268.869 388.599 268.983C388.335 269.097 388.012 269.153 387.632 269.153ZM387.785 268.25C388.183 268.25 388.518 268.172 388.791 268.016C389.066 267.859 389.274 267.658 389.413 267.411C389.555 267.163 389.626 266.903 389.626 266.631V265.71C389.583 265.761 389.49 265.808 389.345 265.851C389.203 265.891 389.038 265.926 388.85 265.957C388.666 265.986 388.485 266.011 388.309 266.034C388.136 266.054 387.995 266.071 387.887 266.085C387.626 266.119 387.382 266.175 387.154 266.251C386.93 266.325 386.748 266.437 386.609 266.588C386.473 266.736 386.404 266.937 386.404 267.193C386.404 267.543 386.534 267.807 386.792 267.986C387.054 268.162 387.385 268.25 387.785 268.25ZM395.314 262.455V263.307H391.922V262.455H395.314ZM392.911 260.886H393.916V267.125C393.916 267.409 393.957 267.622 394.04 267.764C394.125 267.903 394.233 267.997 394.364 268.045C394.497 268.091 394.638 268.114 394.786 268.114C394.896 268.114 394.987 268.108 395.058 268.097C395.129 268.082 395.186 268.071 395.229 268.062L395.433 268.966C395.365 268.991 395.27 269.017 395.148 269.043C395.026 269.071 394.871 269.085 394.683 269.085C394.399 269.085 394.121 269.024 393.848 268.902C393.578 268.78 393.354 268.594 393.175 268.344C392.999 268.094 392.911 267.778 392.911 267.398V260.886ZM399.501 269.136C398.87 269.136 398.326 268.997 397.869 268.719C397.414 268.438 397.063 268.045 396.816 267.543C396.572 267.037 396.45 266.449 396.45 265.778C396.45 265.108 396.572 264.517 396.816 264.006C397.063 263.491 397.407 263.091 397.847 262.804C398.29 262.514 398.808 262.369 399.398 262.369C399.739 262.369 400.076 262.426 400.408 262.54C400.741 262.653 401.043 262.838 401.316 263.094C401.589 263.347 401.806 263.682 401.968 264.099C402.13 264.517 402.211 265.031 402.211 265.642V266.068H397.165V265.199H401.188C401.188 264.83 401.114 264.5 400.967 264.21C400.822 263.92 400.614 263.692 400.344 263.524C400.077 263.357 399.762 263.273 399.398 263.273C398.998 263.273 398.651 263.372 398.359 263.571C398.069 263.767 397.846 264.023 397.69 264.338C397.533 264.653 397.455 264.991 397.455 265.352V265.932C397.455 266.426 397.54 266.845 397.711 267.189C397.884 267.53 398.124 267.79 398.431 267.969C398.738 268.145 399.094 268.233 399.501 268.233C399.765 268.233 400.004 268.196 400.217 268.122C400.433 268.045 400.619 267.932 400.775 267.781C400.931 267.628 401.052 267.437 401.137 267.21L402.109 267.483C402.006 267.812 401.835 268.102 401.593 268.352C401.352 268.599 401.053 268.793 400.698 268.932C400.343 269.068 399.944 269.136 399.501 269.136ZM406.894 267.21V266.341L410.729 260.273H411.36V261.619H410.934L408.036 266.205V266.273H413.201V267.21H406.894ZM411.002 269V266.946V266.541V260.273H412.008V269H411.002ZM417.525 269.119C417.025 269.119 416.575 269.02 416.174 268.821C415.774 268.622 415.453 268.349 415.211 268.003C414.97 267.656 414.838 267.261 414.815 266.818H415.838C415.877 267.213 416.056 267.54 416.375 267.798C416.696 268.054 417.079 268.182 417.525 268.182C417.883 268.182 418.201 268.098 418.48 267.93C418.761 267.763 418.981 267.533 419.14 267.24C419.302 266.945 419.383 266.611 419.383 266.239C419.383 265.858 419.299 265.518 419.132 265.22C418.967 264.919 418.74 264.682 418.45 264.509C418.16 264.335 417.829 264.247 417.457 264.244C417.19 264.241 416.916 264.283 416.635 264.368C416.353 264.45 416.122 264.557 415.94 264.688L414.951 264.568L415.48 260.273H420.014V261.21H416.366L416.059 263.784H416.11C416.289 263.642 416.514 263.524 416.784 263.43C417.054 263.337 417.335 263.29 417.627 263.29C418.162 263.29 418.637 263.418 419.055 263.673C419.475 263.926 419.805 264.273 420.044 264.713C420.285 265.153 420.406 265.656 420.406 266.222C420.406 266.778 420.281 267.276 420.031 267.713C419.784 268.148 419.443 268.491 419.008 268.744C418.574 268.994 418.079 269.119 417.525 269.119ZM423.923 264.125C423.562 264.125 423.232 264.037 422.934 263.861C422.638 263.685 422.403 263.449 422.227 263.153C422.05 262.855 421.962 262.526 421.962 262.165C421.962 261.804 422.05 261.476 422.227 261.18C422.403 260.882 422.638 260.645 422.934 260.469C423.232 260.293 423.562 260.205 423.923 260.205C424.283 260.205 424.612 260.293 424.907 260.469C425.205 260.645 425.442 260.882 425.619 261.18C425.795 261.476 425.883 261.804 425.883 262.165C425.883 262.526 425.795 262.855 425.619 263.153C425.442 263.449 425.205 263.685 424.907 263.861C424.612 264.037 424.283 264.125 423.923 264.125ZM423.923 263.273C424.127 263.273 424.313 263.223 424.481 263.124C424.648 263.024 424.782 262.891 424.881 262.723C424.981 262.555 425.031 262.369 425.031 262.165C425.031 261.96 424.981 261.774 424.881 261.607C424.782 261.439 424.648 261.305 424.481 261.206C424.313 261.107 424.127 261.057 423.923 261.057C423.718 261.057 423.532 261.107 423.364 261.206C423.197 261.305 423.063 261.439 422.964 261.607C422.864 261.774 422.815 261.96 422.815 262.165C422.815 262.369 422.864 262.555 422.964 262.723C423.063 262.891 423.197 263.024 423.364 263.124C423.532 263.223 423.718 263.273 423.923 263.273Z" fill="white"/>
</svg>
