<svg width="491" height="336" viewBox="0 0 491 336" fill="none" xmlns="http://www.w3.org/2000/svg">
<g clip-path="url(#clip0_13_43)">
<rect width="491" height="336" fill="#2C2828"/>
<path d="M183 110H443C454.046 110 463 118.954 463 130V170C463 181.046 454.046 190 443 190H183V110Z" fill="#D9D9D9" fill-opacity="0.21"/>
<path d="M283 273V30C283 18.9543 291.954 10 303 10H343C354.046 10 363 18.9543 363 30V273H283Z" fill="#D9D9D9" fill-opacity="0.21"/>
<g filter="url(#filter0_d_13_43)">
<path d="M0 232H142C158.569 232 172 245.431 172 262V336H0V232Z" fill="#D9D9D9" fill-opacity="0.12" shape-rendering="crispEdges"/>
</g>
<path d="M42.125 278H36.2109V262H42.1172C43.7474 262 45.151 262.32 46.3281 262.961C47.5104 263.596 48.4219 264.513 49.0625 265.711C49.7031 266.904 50.0234 268.331 50.0234 269.992C50.0234 271.659 49.7031 273.091 49.0625 274.289C48.4271 275.487 47.5182 276.406 46.3359 277.047C45.1536 277.682 43.75 278 42.125 278ZM40.0781 274.703H41.9766C42.8724 274.703 43.6302 274.552 44.25 274.25C44.875 273.943 45.3464 273.445 45.6641 272.758C45.987 272.065 46.1484 271.143 46.1484 269.992C46.1484 268.841 45.987 267.924 45.6641 267.242C45.3411 266.555 44.8646 266.06 44.2344 265.758C43.6094 265.451 42.8385 265.297 41.9219 265.297H40.0781V274.703ZM52.2813 278V266H56.1016V278H52.2813ZM54.1953 264.602C53.6589 264.602 53.1979 264.424 52.8125 264.07C52.4271 263.711 52.2344 263.279 52.2344 262.773C52.2344 262.273 52.4271 261.846 52.8125 261.492C53.1979 261.133 53.6589 260.953 54.1953 260.953C54.737 260.953 55.1979 261.133 55.5781 261.492C55.9635 261.846 56.1563 262.273 56.1563 262.773C56.1563 263.279 55.9635 263.711 55.5781 264.07C55.1979 264.424 54.737 264.602 54.1953 264.602ZM58.5332 278V266H62.2441V268.187H62.3691C62.5879 267.396 62.9447 266.807 63.4395 266.422C63.9342 266.031 64.5098 265.836 65.166 265.836C65.3431 265.836 65.5254 265.849 65.7129 265.875C65.9004 265.896 66.0749 265.93 66.2363 265.977V269.297C66.054 269.234 65.8145 269.185 65.5176 269.148C65.2259 269.112 64.9655 269.094 64.7363 269.094C64.2832 269.094 63.8743 269.195 63.5098 269.398C63.1504 269.596 62.8665 269.875 62.6582 270.234C62.4551 270.589 62.3535 271.005 62.3535 271.484V278H58.5332ZM72.7793 278.227C71.5241 278.227 70.4408 277.979 69.5293 277.484C68.623 276.984 67.9251 276.273 67.4355 275.352C66.9512 274.424 66.709 273.323 66.709 272.047C66.709 270.807 66.9538 269.724 67.4434 268.797C67.9329 267.865 68.623 267.141 69.5137 266.625C70.4043 266.104 71.4538 265.844 72.6621 265.844C73.5163 265.844 74.2975 265.977 75.0059 266.242C75.7142 266.508 76.3262 266.901 76.8418 267.422C77.3574 267.943 77.7585 268.586 78.0449 269.352C78.3314 270.112 78.4746 270.984 78.4746 271.969V272.922H68.0449V270.703H74.9199C74.9147 270.297 74.8184 269.935 74.6309 269.617C74.4434 269.299 74.1855 269.052 73.8574 268.875C73.5345 268.693 73.1621 268.602 72.7402 268.602C72.3132 268.602 71.9303 268.698 71.5918 268.891C71.2533 269.078 70.985 269.336 70.7871 269.664C70.5892 269.987 70.485 270.354 70.4746 270.766V273.023C70.4746 273.513 70.571 273.943 70.7637 274.312C70.9564 274.677 71.2298 274.961 71.584 275.164C71.9382 275.367 72.36 275.469 72.8496 275.469C73.1882 275.469 73.4954 275.422 73.7715 275.328C74.0475 275.234 74.2845 275.096 74.4824 274.914C74.6803 274.732 74.8288 274.508 74.9277 274.242L78.4355 274.344C78.2897 275.13 77.9694 275.815 77.4746 276.398C76.985 276.977 76.3418 277.427 75.5449 277.75C74.748 278.068 73.8262 278.227 72.7793 278.227ZM86.0273 278.227C84.7617 278.227 83.6758 277.966 82.7695 277.445C81.8685 276.924 81.1758 276.201 80.6914 275.273C80.207 274.341 79.9648 273.263 79.9648 272.039C79.9648 270.81 80.207 269.732 80.6914 268.805C81.181 267.872 81.8763 267.146 82.7773 266.625C83.6836 266.104 84.7643 265.844 86.0195 265.844C87.1289 265.844 88.0951 266.044 88.918 266.445C89.7461 266.846 90.3919 267.414 90.8555 268.148C91.3242 268.878 91.5716 269.734 91.5977 270.719H88.0273C87.9544 270.104 87.7461 269.622 87.4023 269.273C87.0638 268.924 86.6211 268.75 86.0742 268.75C85.6315 268.75 85.2435 268.875 84.9102 269.125C84.5768 269.37 84.3164 269.734 84.1289 270.219C83.9466 270.698 83.8555 271.292 83.8555 272C83.8555 272.708 83.9466 273.307 84.1289 273.797C84.3164 274.281 84.5768 274.648 84.9102 274.898C85.2435 275.143 85.6315 275.266 86.0742 275.266C86.4284 275.266 86.7409 275.19 87.0117 275.039C87.2878 274.888 87.5143 274.667 87.6914 274.375C87.8685 274.078 87.9805 273.719 88.0273 273.297H91.5977C91.5612 274.286 91.3138 275.151 90.8555 275.891C90.4023 276.63 89.7643 277.206 88.9414 277.617C88.1237 278.023 87.1523 278.227 86.0273 278.227ZM100.326 266V268.812H92.7559V266H100.326ZM94.3418 263.125H98.1621V274.227C98.1621 274.461 98.1986 274.651 98.2715 274.797C98.3496 274.937 98.4616 275.039 98.6074 275.102C98.7533 275.159 98.9277 275.188 99.1309 275.188C99.2767 275.188 99.4303 275.174 99.5918 275.148C99.7585 275.117 99.8835 275.091 99.9668 275.07L100.545 277.828C100.363 277.88 100.105 277.945 99.7715 278.023C99.4434 278.102 99.0501 278.151 98.5918 278.172C97.696 278.214 96.9277 278.109 96.2871 277.859C95.6517 277.604 95.1647 277.208 94.8262 276.672C94.4928 276.135 94.3314 275.461 94.3418 274.648V263.125ZM102.275 278V266H106.096V278H102.275ZM104.189 264.602C103.653 264.602 103.192 264.424 102.807 264.07C102.421 263.711 102.229 263.279 102.229 262.773C102.229 262.273 102.421 261.846 102.807 261.492C103.192 261.133 103.653 260.953 104.189 260.953C104.731 260.953 105.192 261.133 105.572 261.492C105.958 261.846 106.15 262.273 106.15 262.773C106.15 263.279 105.958 263.711 105.572 264.07C105.192 264.424 104.731 264.602 104.189 264.602ZM114.129 278.227C112.868 278.227 111.785 277.969 110.879 277.453C109.978 276.932 109.283 276.208 108.793 275.281C108.309 274.349 108.066 273.268 108.066 272.039C108.066 270.805 108.309 269.724 108.793 268.797C109.283 267.865 109.978 267.141 110.879 266.625C111.785 266.104 112.868 265.844 114.129 265.844C115.389 265.844 116.47 266.104 117.371 266.625C118.277 267.141 118.973 267.865 119.457 268.797C119.947 269.724 120.191 270.805 120.191 272.039C120.191 273.268 119.947 274.349 119.457 275.281C118.973 276.208 118.277 276.932 117.371 277.453C116.47 277.969 115.389 278.227 114.129 278.227ZM114.152 275.344C114.611 275.344 114.999 275.203 115.316 274.922C115.634 274.641 115.876 274.25 116.043 273.75C116.215 273.25 116.301 272.672 116.301 272.016C116.301 271.349 116.215 270.766 116.043 270.266C115.876 269.766 115.634 269.375 115.316 269.094C114.999 268.812 114.611 268.672 114.152 268.672C113.678 268.672 113.277 268.812 112.949 269.094C112.626 269.375 112.379 269.766 112.207 270.266C112.04 270.766 111.957 271.349 111.957 272.016C111.957 272.672 112.04 273.25 112.207 273.75C112.379 274.25 112.626 274.641 112.949 274.922C113.277 275.203 113.678 275.344 114.152 275.344ZM125.969 271.156V278H122.148V266H125.781V268.203H125.914C126.18 267.469 126.633 266.893 127.273 266.477C127.914 266.055 128.677 265.844 129.563 265.844C130.406 265.844 131.138 266.034 131.758 266.414C132.383 266.789 132.867 267.315 133.211 267.992C133.56 268.664 133.732 269.451 133.727 270.352V278H129.906V271.102C129.911 270.435 129.742 269.914 129.398 269.539C129.06 269.164 128.589 268.977 127.984 268.977C127.583 268.977 127.229 269.065 126.922 269.242C126.62 269.414 126.385 269.661 126.219 269.984C126.057 270.307 125.974 270.698 125.969 271.156ZM36.2109 305V289H40.0781V301.859H46.7344V305H36.2109ZM54.3379 305.227C53.0775 305.227 51.9941 304.969 51.0879 304.453C50.1868 303.932 49.4915 303.208 49.002 302.281C48.5176 301.349 48.2754 300.268 48.2754 299.039C48.2754 297.805 48.5176 296.724 49.002 295.797C49.4915 294.865 50.1868 294.141 51.0879 293.625C51.9941 293.104 53.0775 292.844 54.3379 292.844C55.5983 292.844 56.679 293.104 57.5801 293.625C58.4863 294.141 59.1816 294.865 59.666 295.797C60.1556 296.724 60.4004 297.805 60.4004 299.039C60.4004 300.268 60.1556 301.349 59.666 302.281C59.1816 303.208 58.4863 303.932 57.5801 304.453C56.679 304.969 55.5983 305.227 54.3379 305.227ZM54.3613 302.344C54.8197 302.344 55.2077 302.203 55.5254 301.922C55.8431 301.641 56.0853 301.25 56.252 300.75C56.4238 300.25 56.5098 299.672 56.5098 299.016C56.5098 298.349 56.4238 297.766 56.252 297.266C56.0853 296.766 55.8431 296.375 55.5254 296.094C55.2077 295.812 54.8197 295.672 54.3613 295.672C53.8874 295.672 53.4863 295.812 53.1582 296.094C52.8353 296.375 52.5879 296.766 52.416 297.266C52.2493 297.766 52.166 298.349 52.166 299.016C52.166 299.672 52.2493 300.25 52.416 300.75C52.5879 301.25 52.8353 301.641 53.1582 301.922C53.4863 302.203 53.8874 302.344 54.3613 302.344ZM67.959 305.227C66.6934 305.227 65.6074 304.966 64.7012 304.445C63.8001 303.924 63.1074 303.201 62.623 302.273C62.1387 301.341 61.8965 300.263 61.8965 299.039C61.8965 297.81 62.1387 296.732 62.623 295.805C63.1126 294.872 63.8079 294.146 64.709 293.625C65.6152 293.104 66.696 292.844 67.9512 292.844C69.0605 292.844 70.0267 293.044 70.8496 293.445C71.6777 293.846 72.3236 294.414 72.7871 295.148C73.2559 295.878 73.5033 296.734 73.5293 297.719H69.959C69.8861 297.104 69.6777 296.622 69.334 296.273C68.9954 295.924 68.5527 295.75 68.0059 295.75C67.5632 295.75 67.1751 295.875 66.8418 296.125C66.5085 296.37 66.248 296.734 66.0605 297.219C65.8783 297.698 65.7871 298.292 65.7871 299C65.7871 299.708 65.8783 300.307 66.0605 300.797C66.248 301.281 66.5085 301.648 66.8418 301.898C67.1751 302.143 67.5632 302.266 68.0059 302.266C68.36 302.266 68.6725 302.19 68.9434 302.039C69.2194 301.888 69.446 301.667 69.623 301.375C69.8001 301.078 69.9121 300.719 69.959 300.297H73.5293C73.4928 301.286 73.2454 302.151 72.7871 302.891C72.334 303.63 71.696 304.206 70.873 304.617C70.0553 305.023 69.084 305.227 67.959 305.227ZM78.9297 301.852L78.9453 297.297H79.4766L82.8516 293H87.1797L82.1641 299.156H81.1563L78.9297 301.852ZM75.4844 305V289H79.3047V305H75.4844ZM82.9375 305L79.7969 300.016L82.3125 297.305L87.3516 305H82.9375ZM88.5469 305V293H92.3672V305H88.5469ZM90.4609 291.602C89.9245 291.602 89.4635 291.424 89.0781 291.07C88.6927 290.711 88.5 290.279 88.5 289.773C88.5 289.273 88.6927 288.846 89.0781 288.492C89.4635 288.133 89.9245 287.953 90.4609 287.953C91.0026 287.953 91.4635 288.133 91.8438 288.492C92.2292 288.846 92.4219 289.273 92.4219 289.773C92.4219 290.279 92.2292 290.711 91.8438 291.07C91.4635 291.424 91.0026 291.602 90.4609 291.602ZM98.6191 298.156V305H94.7988V293H98.4316V295.203H98.5645C98.8301 294.469 99.2832 293.893 99.9238 293.477C100.564 293.055 101.327 292.844 102.213 292.844C103.057 292.844 103.788 293.034 104.408 293.414C105.033 293.789 105.518 294.315 105.861 294.992C106.21 295.664 106.382 296.451 106.377 297.352V305H102.557V298.102C102.562 297.435 102.393 296.914 102.049 296.539C101.71 296.164 101.239 295.977 100.635 295.977C100.234 295.977 99.8796 296.065 99.5723 296.242C99.2702 296.414 99.0358 296.661 98.8691 296.984C98.7077 297.307 98.6243 297.698 98.6191 298.156ZM114.336 309.75C113.195 309.75 112.219 309.591 111.406 309.273C110.594 308.956 109.956 308.521 109.492 307.969C109.029 307.417 108.75 306.792 108.656 306.094L112.273 305.891C112.341 306.135 112.466 306.349 112.648 306.531C112.836 306.714 113.078 306.854 113.375 306.953C113.677 307.052 114.031 307.102 114.438 307.102C115.078 307.102 115.607 306.945 116.023 306.633C116.445 306.326 116.656 305.786 116.656 305.016V302.906H116.523C116.372 303.276 116.143 303.607 115.836 303.898C115.529 304.19 115.146 304.419 114.688 304.586C114.234 304.753 113.714 304.836 113.125 304.836C112.25 304.836 111.448 304.633 110.719 304.227C109.995 303.815 109.414 303.18 108.977 302.32C108.544 301.456 108.328 300.344 108.328 298.984C108.328 297.583 108.552 296.43 109 295.523C109.448 294.612 110.034 293.937 110.758 293.5C111.487 293.062 112.271 292.844 113.109 292.844C113.74 292.844 114.279 292.953 114.727 293.172C115.18 293.385 115.552 293.661 115.844 294C116.135 294.339 116.357 294.69 116.508 295.055H116.617V293H120.422V305.047C120.422 306.063 120.167 306.919 119.656 307.617C119.146 308.315 118.432 308.844 117.516 309.203C116.599 309.568 115.539 309.75 114.336 309.75ZM114.453 302.055C114.917 302.055 115.313 301.932 115.641 301.687C115.969 301.443 116.221 301.091 116.398 300.633C116.576 300.174 116.664 299.625 116.664 298.984C116.664 298.333 116.576 297.773 116.398 297.305C116.227 296.831 115.974 296.466 115.641 296.211C115.313 295.956 114.917 295.828 114.453 295.828C113.979 295.828 113.578 295.958 113.25 296.219C112.922 296.479 112.672 296.846 112.5 297.32C112.333 297.789 112.25 298.344 112.25 298.984C112.25 299.625 112.336 300.174 112.508 300.633C112.68 301.091 112.927 301.443 113.25 301.687C113.578 301.932 113.979 302.055 114.453 302.055Z" fill="white"/>
<rect x="283" y="110" width="80" height="80" rx="20" fill="#FBFBFB"/>
<rect x="143" y="110" width="80" height="80" rx="20" fill="#88FEE2"/>
<rect x="283" y="233" width="80" height="80" rx="20" fill="#88FEE2"/>
<path d="M63.045 154L61.66 151.405L61.275 150.5L61.035 151.3L59.495 154H58.505L60.82 150.005L58.79 146.5L59.85 146.4L61.155 148.72L61.555 149.7L61.73 148.9L62.99 146.5H63.99L61.995 150.12L64.145 154H63.045ZM74.7378 149.3C74.4311 149.3 74.1528 149.358 73.9028 149.475C73.6528 149.588 73.4378 149.743 73.2578 149.94C73.0811 150.137 72.9445 150.368 72.8478 150.635C72.7511 150.902 72.7028 151.187 72.7028 151.49C72.7028 151.787 72.7445 152.047 72.8278 152.27C72.9145 152.493 73.0261 152.68 73.1628 152.83C73.3028 152.98 73.4595 153.093 73.6328 153.17C73.8061 153.243 73.9811 153.28 74.1578 153.28C74.3145 153.28 74.4628 153.253 74.6028 153.2C74.7428 153.147 74.8728 153.08 74.9928 153C75.1128 152.92 75.2211 152.833 75.3178 152.74C75.4145 152.643 75.4961 152.553 75.5628 152.47V149.3H74.7378ZM75.5628 154V153.19L75.1328 153.755C75.0128 153.835 74.8528 153.91 74.6528 153.98C74.4528 154.05 74.2228 154.085 73.9628 154.085C73.6628 154.085 73.3795 154.032 73.1128 153.925C72.8461 153.815 72.6128 153.65 72.4128 153.43C72.2128 153.207 72.0545 152.925 71.9378 152.585C71.8211 152.242 71.7628 151.837 71.7628 151.37C71.7628 150.97 71.8395 150.597 71.9928 150.25C72.1495 149.9 72.3611 149.595 72.6278 149.335C72.8945 149.075 73.2078 148.872 73.5678 148.725C73.9311 148.575 74.3195 148.5 74.7328 148.5H75.5628V145.9L76.4628 146V153.1L76.5628 154H75.5628ZM81.0667 152.035C81.0667 152.208 81.0767 152.368 81.0967 152.515C81.1201 152.662 81.1567 152.788 81.2067 152.895C81.2567 153.002 81.3234 153.085 81.4067 153.145C81.4901 153.205 81.5934 153.235 81.7167 153.235C81.8801 153.235 82.0384 153.222 82.1917 153.195C82.3484 153.168 82.4884 153.138 82.6117 153.105C82.7351 153.068 82.8367 153.035 82.9167 153.005C83.0001 152.975 83.0517 152.957 83.0717 152.95L83.2667 153.72C83.2467 153.73 83.1934 153.755 83.1067 153.795C83.0201 153.835 82.9067 153.877 82.7667 153.92C82.6267 153.96 82.4634 153.997 82.2767 154.03C82.0901 154.067 81.8867 154.085 81.6667 154.085C81.3401 154.085 81.0751 154.032 80.8717 153.925C80.6717 153.818 80.5151 153.672 80.4017 153.485C80.2884 153.295 80.2117 153.072 80.1717 152.815C80.1351 152.558 80.1167 152.282 80.1167 151.985V149.4L80.3167 149.1L79.6167 149.3H78.6117L78.5117 148.5H81.0667V152.035ZM80.0867 146.5H81.0967V147.5H80.0867V146.5ZM85.9706 149.525L86.4256 148.735C86.519 148.665 86.6256 148.608 86.7456 148.565C86.8656 148.522 86.989 148.49 87.1156 148.47C87.2423 148.447 87.369 148.432 87.4956 148.425C87.6256 148.418 87.749 148.415 87.8656 148.415C88.1156 148.415 88.329 148.427 88.5056 148.45C88.6823 148.47 88.8306 148.497 88.9506 148.53C89.074 148.563 89.1723 148.598 89.2456 148.635C89.319 148.668 89.3756 148.698 89.4156 148.725L89.6656 150.15L88.9156 150.25L88.6656 149.36C88.639 149.35 88.5973 149.34 88.5406 149.33C88.484 149.32 88.419 149.31 88.3456 149.3C88.2723 149.29 88.194 149.282 88.1106 149.275C88.0306 149.268 87.954 149.265 87.8806 149.265C87.654 149.265 87.444 149.292 87.2506 149.345C87.0573 149.395 86.8806 149.465 86.7206 149.555C86.5606 149.645 86.4173 149.75 86.2906 149.87C86.1673 149.99 86.0606 150.117 85.9706 150.25V154H85.0706V148.5L85.9706 148.4V149.525ZM95.6895 153.355C95.5862 153.462 95.4729 153.56 95.3495 153.65C95.2262 153.74 95.0895 153.818 94.9395 153.885C94.7895 153.948 94.6229 153.997 94.4395 154.03C94.2595 154.067 94.0579 154.085 93.8345 154.085C93.3912 154.085 93.0079 154.007 92.6845 153.85C92.3612 153.693 92.0945 153.483 91.8845 153.22C91.6745 152.957 91.5195 152.655 91.4195 152.315C91.3195 151.975 91.2695 151.62 91.2695 151.25C91.2695 151.013 91.2929 150.78 91.3395 150.55C91.3895 150.317 91.4595 150.095 91.5495 149.885C91.6429 149.675 91.7579 149.48 91.8945 149.3C92.0345 149.12 92.1945 148.965 92.3745 148.835C92.5579 148.705 92.7595 148.603 92.9795 148.53C93.2029 148.453 93.4462 148.415 93.7095 148.415C94.0695 148.415 94.3945 148.473 94.6845 148.59C94.9745 148.707 95.2212 148.87 95.4245 149.08C95.6279 149.29 95.7845 149.543 95.8945 149.84C96.0045 150.133 96.0595 150.457 96.0595 150.81C96.0595 150.913 96.0562 151.027 96.0495 151.15C96.0429 151.273 96.0329 151.39 96.0195 151.5H92.2195C92.2195 151.757 92.2595 151.995 92.3395 152.215C92.4195 152.432 92.5279 152.62 92.6645 152.78C92.8045 152.937 92.9679 153.06 93.1545 153.15C93.3445 153.24 93.5495 153.285 93.7695 153.285C93.9829 153.285 94.1645 153.27 94.3145 153.24C94.4679 153.207 94.5962 153.167 94.6995 153.12C94.8062 153.073 94.8945 153.023 94.9645 152.97C95.0345 152.917 95.0945 152.867 95.1445 152.82L95.6895 153.355ZM95.1795 150.75V150.53C95.1795 150.34 95.1412 150.165 95.0645 150.005C94.9912 149.845 94.8895 149.707 94.7595 149.59C94.6329 149.47 94.4845 149.377 94.3145 149.31C94.1479 149.243 93.9712 149.21 93.7845 149.21C93.5612 149.21 93.3645 149.247 93.1945 149.32C93.0279 149.39 92.8845 149.482 92.7645 149.595C92.6445 149.705 92.5479 149.827 92.4745 149.96C92.4012 150.093 92.3479 150.22 92.3145 150.34L92.0195 150.91L92.9445 150.75H95.1795ZM102.058 149.61C101.928 149.493 101.748 149.398 101.518 149.325C101.288 149.252 100.997 149.215 100.643 149.215C100.363 149.215 100.112 149.268 99.8884 149.375C99.6684 149.478 99.4801 149.62 99.3234 149.8C99.1701 149.98 99.0518 150.19 98.9684 150.43C98.8884 150.667 98.8484 150.917 98.8484 151.18C98.8484 151.453 98.8868 151.715 98.9634 151.965C99.0434 152.212 99.1601 152.43 99.3134 152.62C99.4701 152.81 99.6634 152.962 99.8934 153.075C100.123 153.185 100.392 153.24 100.698 153.24C100.872 153.24 101.038 153.22 101.198 153.18C101.358 153.14 101.503 153.093 101.633 153.04C101.763 152.983 101.873 152.928 101.963 152.875C102.057 152.818 102.123 152.773 102.163 152.74L102.523 153.445C102.473 153.488 102.398 153.547 102.298 153.62C102.198 153.69 102.07 153.76 101.913 153.83C101.76 153.9 101.577 153.96 101.363 154.01C101.153 154.06 100.908 154.085 100.628 154.085C100.212 154.085 99.8334 154.003 99.4934 153.84C99.1568 153.673 98.8684 153.453 98.6284 153.18C98.3884 152.903 98.2018 152.587 98.0684 152.23C97.9384 151.873 97.8734 151.502 97.8734 151.115C97.8734 150.768 97.9368 150.433 98.0634 150.11C98.1934 149.783 98.3784 149.495 98.6184 149.245C98.8584 148.995 99.1501 148.795 99.4934 148.645C99.8368 148.492 100.223 148.415 100.653 148.415C101.06 148.415 101.425 148.463 101.748 148.56C102.075 148.653 102.343 148.815 102.553 149.045L102.058 149.61ZM106.382 152.12C106.382 152.34 106.394 152.525 106.417 152.675C106.444 152.822 106.481 152.942 106.527 153.035C106.577 153.125 106.637 153.19 106.707 153.23C106.781 153.267 106.864 153.285 106.957 153.285C107.114 153.285 107.269 153.267 107.422 153.23C107.576 153.193 107.719 153.152 107.852 153.105C107.986 153.055 108.104 153.007 108.207 152.96C108.311 152.91 108.391 152.873 108.447 152.85L108.792 153.455C108.762 153.482 108.689 153.53 108.572 153.6C108.459 153.667 108.314 153.737 108.137 153.81C107.964 153.883 107.767 153.947 107.547 154C107.327 154.057 107.097 154.085 106.857 154.085C106.557 154.085 106.316 154.03 106.132 153.92C105.952 153.81 105.814 153.66 105.717 153.47C105.621 153.28 105.557 153.06 105.527 152.81C105.497 152.557 105.482 152.287 105.482 152V149.3H104.027V148.5H105.482V147.455L106.357 146.9V148.5H108.777L108.677 149.3H106.382V152.12ZM113.586 152.035C113.586 152.208 113.596 152.368 113.616 152.515C113.64 152.662 113.676 152.788 113.726 152.895C113.776 153.002 113.843 153.085 113.926 153.145C114.01 153.205 114.113 153.235 114.236 153.235C114.4 153.235 114.558 153.222 114.711 153.195C114.868 153.168 115.008 153.138 115.131 153.105C115.255 153.068 115.356 153.035 115.436 153.005C115.52 152.975 115.571 152.957 115.591 152.95L115.786 153.72C115.766 153.73 115.713 153.755 115.626 153.795C115.54 153.835 115.426 153.877 115.286 153.92C115.146 153.96 114.983 153.997 114.796 154.03C114.61 154.067 114.406 154.085 114.186 154.085C113.86 154.085 113.595 154.032 113.391 153.925C113.191 153.818 113.035 153.672 112.921 153.485C112.808 153.295 112.731 153.072 112.691 152.815C112.655 152.558 112.636 152.282 112.636 151.985V149.4L112.836 149.1L112.136 149.3H111.131L111.031 148.5H113.586V152.035ZM112.606 146.5H113.616V147.5H112.606V146.5ZM119.78 154.085C119.41 154.085 119.07 154.013 118.76 153.87C118.453 153.723 118.188 153.523 117.965 153.27C117.742 153.013 117.567 152.712 117.44 152.365C117.317 152.018 117.255 151.642 117.255 151.235C117.255 150.832 117.315 150.458 117.435 150.115C117.555 149.768 117.725 149.47 117.945 149.22C118.165 148.967 118.43 148.77 118.74 148.63C119.053 148.487 119.4 148.415 119.78 148.415C120.15 148.415 120.487 148.487 120.79 148.63C121.093 148.77 121.353 148.967 121.57 149.22C121.79 149.47 121.96 149.768 122.08 150.115C122.2 150.458 122.26 150.832 122.26 151.235C122.26 151.642 122.202 152.018 122.085 152.365C121.972 152.712 121.807 153.013 121.59 153.27C121.377 153.523 121.117 153.723 120.81 153.87C120.503 154.013 120.16 154.085 119.78 154.085ZM121.31 151.37C121.31 151.1 121.282 150.835 121.225 150.575C121.168 150.315 121.078 150.083 120.955 149.88C120.832 149.673 120.672 149.507 120.475 149.38C120.278 149.253 120.04 149.19 119.76 149.19C119.493 149.19 119.262 149.245 119.065 149.355C118.868 149.465 118.707 149.612 118.58 149.795C118.453 149.978 118.358 150.187 118.295 150.42C118.235 150.653 118.205 150.893 118.205 151.14C118.205 151.41 118.235 151.675 118.295 151.935C118.358 152.195 118.453 152.427 118.58 152.63C118.71 152.833 118.875 152.998 119.075 153.125C119.278 153.248 119.52 153.31 119.8 153.31C120.063 153.31 120.29 153.255 120.48 153.145C120.673 153.035 120.83 152.89 120.95 152.71C121.073 152.527 121.163 152.32 121.22 152.09C121.28 151.857 121.31 151.617 121.31 151.37ZM124.994 154H124.094V148.5L124.994 148.4V149.365L125.299 148.78C125.359 148.74 125.429 148.698 125.509 148.655C125.592 148.612 125.692 148.573 125.809 148.54C125.926 148.503 126.064 148.473 126.224 148.45C126.384 148.427 126.572 148.415 126.789 148.415C127.052 148.415 127.289 148.458 127.499 148.545C127.712 148.628 127.891 148.75 128.034 148.91C128.181 149.07 128.292 149.263 128.369 149.49C128.449 149.717 128.489 149.97 128.489 150.25V154H127.589V150.25C127.589 150.07 127.559 149.915 127.499 149.785C127.442 149.655 127.362 149.548 127.259 149.465C127.156 149.378 127.036 149.315 126.899 149.275C126.762 149.235 126.617 149.215 126.464 149.215C126.304 149.215 126.149 149.235 125.999 149.275C125.852 149.315 125.716 149.367 125.589 149.43C125.462 149.49 125.347 149.557 125.244 149.63C125.144 149.7 125.061 149.767 124.994 149.83V154Z" fill="white"/>
<path d="M382.455 274.325L383.895 271.5H384.855L382.68 275.77V279H381.63V275.775L379.45 271.5L380.47 271.4L381.91 274.23L382.305 275.475L382.455 274.325ZM395.738 274.3C395.431 274.3 395.153 274.358 394.903 274.475C394.653 274.588 394.438 274.743 394.258 274.94C394.081 275.137 393.944 275.368 393.848 275.635C393.751 275.902 393.703 276.187 393.703 276.49C393.703 276.787 393.744 277.047 393.828 277.27C393.914 277.493 394.026 277.68 394.163 277.83C394.303 277.98 394.459 278.093 394.633 278.17C394.806 278.243 394.981 278.28 395.158 278.28C395.314 278.28 395.463 278.253 395.603 278.2C395.743 278.147 395.873 278.08 395.993 278C396.113 277.92 396.221 277.833 396.318 277.74C396.414 277.643 396.496 277.553 396.563 277.47V274.3H395.738ZM396.563 279V278.19L396.133 278.755C396.013 278.835 395.853 278.91 395.653 278.98C395.453 279.05 395.223 279.085 394.963 279.085C394.663 279.085 394.379 279.032 394.113 278.925C393.846 278.815 393.613 278.65 393.413 278.43C393.213 278.207 393.054 277.925 392.938 277.585C392.821 277.242 392.763 276.837 392.763 276.37C392.763 275.97 392.839 275.597 392.993 275.25C393.149 274.9 393.361 274.595 393.628 274.335C393.894 274.075 394.208 273.872 394.568 273.725C394.931 273.575 395.319 273.5 395.733 273.5H396.563V270.9L397.463 271V278.1L397.563 279H396.563ZM402.067 277.035C402.067 277.208 402.077 277.368 402.097 277.515C402.12 277.662 402.157 277.788 402.207 277.895C402.257 278.002 402.323 278.085 402.407 278.145C402.49 278.205 402.593 278.235 402.717 278.235C402.88 278.235 403.038 278.222 403.192 278.195C403.348 278.168 403.488 278.138 403.612 278.105C403.735 278.068 403.837 278.035 403.917 278.005C404 277.975 404.052 277.957 404.072 277.95L404.267 278.72C404.247 278.73 404.193 278.755 404.107 278.795C404.02 278.835 403.907 278.877 403.767 278.92C403.627 278.96 403.463 278.997 403.277 279.03C403.09 279.067 402.887 279.085 402.667 279.085C402.34 279.085 402.075 279.032 401.872 278.925C401.672 278.818 401.515 278.672 401.402 278.485C401.288 278.295 401.212 278.072 401.172 277.815C401.135 277.558 401.117 277.282 401.117 276.985V274.4L401.317 274.1L400.617 274.3H399.612L399.512 273.5H402.067V277.035ZM401.087 271.5H402.097V272.5H401.087V271.5ZM406.971 274.525L407.426 273.735C407.519 273.665 407.626 273.608 407.746 273.565C407.866 273.522 407.989 273.49 408.116 273.47C408.242 273.447 408.369 273.432 408.496 273.425C408.626 273.418 408.749 273.415 408.866 273.415C409.116 273.415 409.329 273.427 409.506 273.45C409.682 273.47 409.831 273.497 409.951 273.53C410.074 273.563 410.172 273.598 410.246 273.635C410.319 273.668 410.376 273.698 410.416 273.725L410.666 275.15L409.916 275.25L409.666 274.36C409.639 274.35 409.597 274.34 409.541 274.33C409.484 274.32 409.419 274.31 409.346 274.3C409.272 274.29 409.194 274.282 409.111 274.275C409.031 274.268 408.954 274.265 408.881 274.265C408.654 274.265 408.444 274.292 408.251 274.345C408.057 274.395 407.881 274.465 407.721 274.555C407.561 274.645 407.417 274.75 407.291 274.87C407.167 274.99 407.061 275.117 406.971 275.25V279H406.071V273.5L406.971 273.4V274.525ZM416.69 278.355C416.586 278.462 416.473 278.56 416.35 278.65C416.226 278.74 416.09 278.818 415.94 278.885C415.79 278.948 415.623 278.997 415.44 279.03C415.26 279.067 415.058 279.085 414.835 279.085C414.391 279.085 414.008 279.007 413.685 278.85C413.361 278.693 413.095 278.483 412.885 278.22C412.675 277.957 412.52 277.655 412.42 277.315C412.32 276.975 412.27 276.62 412.27 276.25C412.27 276.013 412.293 275.78 412.34 275.55C412.39 275.317 412.46 275.095 412.55 274.885C412.643 274.675 412.758 274.48 412.895 274.3C413.035 274.12 413.195 273.965 413.375 273.835C413.558 273.705 413.76 273.603 413.98 273.53C414.203 273.453 414.446 273.415 414.71 273.415C415.07 273.415 415.395 273.473 415.685 273.59C415.975 273.707 416.221 273.87 416.425 274.08C416.628 274.29 416.785 274.543 416.895 274.84C417.005 275.133 417.06 275.457 417.06 275.81C417.06 275.913 417.056 276.027 417.05 276.15C417.043 276.273 417.033 276.39 417.02 276.5H413.22C413.22 276.757 413.26 276.995 413.34 277.215C413.42 277.432 413.528 277.62 413.665 277.78C413.805 277.937 413.968 278.06 414.155 278.15C414.345 278.24 414.55 278.285 414.77 278.285C414.983 278.285 415.165 278.27 415.315 278.24C415.468 278.207 415.596 278.167 415.7 278.12C415.806 278.073 415.895 278.023 415.965 277.97C416.035 277.917 416.095 277.867 416.145 277.82L416.69 278.355ZM416.18 275.75V275.53C416.18 275.34 416.141 275.165 416.065 275.005C415.991 274.845 415.89 274.707 415.76 274.59C415.633 274.47 415.485 274.377 415.315 274.31C415.148 274.243 414.971 274.21 414.785 274.21C414.561 274.21 414.365 274.247 414.195 274.32C414.028 274.39 413.885 274.482 413.765 274.595C413.645 274.705 413.548 274.827 413.475 274.96C413.401 275.093 413.348 275.22 413.315 275.34L413.02 275.91L413.945 275.75H416.18ZM423.058 274.61C422.928 274.493 422.748 274.398 422.518 274.325C422.288 274.252 421.997 274.215 421.643 274.215C421.363 274.215 421.112 274.268 420.888 274.375C420.668 274.478 420.48 274.62 420.323 274.8C420.17 274.98 420.052 275.19 419.968 275.43C419.888 275.667 419.848 275.917 419.848 276.18C419.848 276.453 419.887 276.715 419.963 276.965C420.043 277.212 420.16 277.43 420.313 277.62C420.47 277.81 420.663 277.962 420.893 278.075C421.123 278.185 421.392 278.24 421.698 278.24C421.872 278.24 422.038 278.22 422.198 278.18C422.358 278.14 422.503 278.093 422.633 278.04C422.763 277.983 422.873 277.928 422.963 277.875C423.057 277.818 423.123 277.773 423.163 277.74L423.523 278.445C423.473 278.488 423.398 278.547 423.298 278.62C423.198 278.69 423.07 278.76 422.913 278.83C422.76 278.9 422.577 278.96 422.363 279.01C422.153 279.06 421.908 279.085 421.628 279.085C421.212 279.085 420.833 279.003 420.493 278.84C420.157 278.673 419.868 278.453 419.628 278.18C419.388 277.903 419.202 277.587 419.068 277.23C418.938 276.873 418.873 276.502 418.873 276.115C418.873 275.768 418.937 275.433 419.063 275.11C419.193 274.783 419.378 274.495 419.618 274.245C419.858 273.995 420.15 273.795 420.493 273.645C420.837 273.492 421.223 273.415 421.653 273.415C422.06 273.415 422.425 273.463 422.748 273.56C423.075 273.653 423.343 273.815 423.553 274.045L423.058 274.61ZM427.382 277.12C427.382 277.34 427.394 277.525 427.417 277.675C427.444 277.822 427.481 277.942 427.527 278.035C427.577 278.125 427.637 278.19 427.707 278.23C427.781 278.267 427.864 278.285 427.957 278.285C428.114 278.285 428.269 278.267 428.422 278.23C428.576 278.193 428.719 278.152 428.852 278.105C428.986 278.055 429.104 278.007 429.207 277.96C429.311 277.91 429.391 277.873 429.447 277.85L429.792 278.455C429.762 278.482 429.689 278.53 429.572 278.6C429.459 278.667 429.314 278.737 429.137 278.81C428.964 278.883 428.767 278.947 428.547 279C428.327 279.057 428.097 279.085 427.857 279.085C427.557 279.085 427.316 279.03 427.132 278.92C426.952 278.81 426.814 278.66 426.717 278.47C426.621 278.28 426.557 278.06 426.527 277.81C426.497 277.557 426.482 277.287 426.482 277V274.3H425.027V273.5H426.482V272.455L427.357 271.9V273.5H429.777L429.677 274.3H427.382V277.12ZM434.586 277.035C434.586 277.208 434.596 277.368 434.616 277.515C434.64 277.662 434.676 277.788 434.726 277.895C434.776 278.002 434.843 278.085 434.926 278.145C435.01 278.205 435.113 278.235 435.236 278.235C435.4 278.235 435.558 278.222 435.711 278.195C435.868 278.168 436.008 278.138 436.131 278.105C436.255 278.068 436.356 278.035 436.436 278.005C436.52 277.975 436.571 277.957 436.591 277.95L436.786 278.72C436.766 278.73 436.713 278.755 436.626 278.795C436.54 278.835 436.426 278.877 436.286 278.92C436.146 278.96 435.983 278.997 435.796 279.03C435.61 279.067 435.406 279.085 435.186 279.085C434.86 279.085 434.595 279.032 434.391 278.925C434.191 278.818 434.035 278.672 433.921 278.485C433.808 278.295 433.731 278.072 433.691 277.815C433.655 277.558 433.636 277.282 433.636 276.985V274.4L433.836 274.1L433.136 274.3H432.131L432.031 273.5H434.586V277.035ZM433.606 271.5H434.616V272.5H433.606V271.5ZM440.78 279.085C440.41 279.085 440.07 279.013 439.76 278.87C439.453 278.723 439.188 278.523 438.965 278.27C438.742 278.013 438.567 277.712 438.44 277.365C438.317 277.018 438.255 276.642 438.255 276.235C438.255 275.832 438.315 275.458 438.435 275.115C438.555 274.768 438.725 274.47 438.945 274.22C439.165 273.967 439.43 273.77 439.74 273.63C440.053 273.487 440.4 273.415 440.78 273.415C441.15 273.415 441.487 273.487 441.79 273.63C442.093 273.77 442.353 273.967 442.57 274.22C442.79 274.47 442.96 274.768 443.08 275.115C443.2 275.458 443.26 275.832 443.26 276.235C443.26 276.642 443.202 277.018 443.085 277.365C442.972 277.712 442.807 278.013 442.59 278.27C442.377 278.523 442.117 278.723 441.81 278.87C441.503 279.013 441.16 279.085 440.78 279.085ZM442.31 276.37C442.31 276.1 442.282 275.835 442.225 275.575C442.168 275.315 442.078 275.083 441.955 274.88C441.832 274.673 441.672 274.507 441.475 274.38C441.278 274.253 441.04 274.19 440.76 274.19C440.493 274.19 440.262 274.245 440.065 274.355C439.868 274.465 439.707 274.612 439.58 274.795C439.453 274.978 439.358 275.187 439.295 275.42C439.235 275.653 439.205 275.893 439.205 276.14C439.205 276.41 439.235 276.675 439.295 276.935C439.358 277.195 439.453 277.427 439.58 277.63C439.71 277.833 439.875 277.998 440.075 278.125C440.278 278.248 440.52 278.31 440.8 278.31C441.063 278.31 441.29 278.255 441.48 278.145C441.673 278.035 441.83 277.89 441.95 277.71C442.073 277.527 442.163 277.32 442.22 277.09C442.28 276.857 442.31 276.617 442.31 276.37ZM445.994 279H445.094V273.5L445.994 273.4V274.365L446.299 273.78C446.359 273.74 446.429 273.698 446.509 273.655C446.592 273.612 446.692 273.573 446.809 273.54C446.926 273.503 447.064 273.473 447.224 273.45C447.384 273.427 447.572 273.415 447.789 273.415C448.052 273.415 448.289 273.458 448.499 273.545C448.712 273.628 448.891 273.75 449.034 273.91C449.181 274.07 449.292 274.263 449.369 274.49C449.449 274.717 449.489 274.97 449.489 275.25V279H448.589V275.25C448.589 275.07 448.559 274.915 448.499 274.785C448.442 274.655 448.362 274.548 448.259 274.465C448.156 274.378 448.036 274.315 447.899 274.275C447.762 274.235 447.617 274.215 447.464 274.215C447.304 274.215 447.149 274.235 446.999 274.275C446.852 274.315 446.716 274.367 446.589 274.43C446.462 274.49 446.347 274.557 446.244 274.63C446.144 274.7 446.061 274.767 445.994 274.83V279Z" fill="white"/>
</g>
<defs>
<filter id="filter0_d_13_43" x="-4" y="232" width="180" height="112" filterUnits="userSpaceOnUse" color-interpolation-filters="sRGB">
<feFlood flood-opacity="0" result="BackgroundImageFix"/>
<feColorMatrix in="SourceAlpha" type="matrix" values="0 0 0 0 0 0 0 0 0 0 0 0 0 0 0 0 0 0 127 0" result="hardAlpha"/>
<feOffset dy="4"/>
<feGaussianBlur stdDeviation="2"/>
<feComposite in2="hardAlpha" operator="out"/>
<feColorMatrix type="matrix" values="0 0 0 0 0 0 0 0 0 0 0 0 0 0 0 0 0 0 0.25 0"/>
<feBlend mode="normal" in2="BackgroundImageFix" result="effect1_dropShadow_13_43"/>
<feBlend mode="normal" in="SourceGraphic" in2="effect1_dropShadow_13_43" result="shape"/>
</filter>
<clipPath id="clip0_13_43">
<rect width="491" height="336" fill="white"/>
</clipPath>
</defs>
</svg>
