<svg width="491" height="336" viewBox="0 0 491 336" fill="none" xmlns="http://www.w3.org/2000/svg">
<g clip-path="url(#clip0_14_32)">
<rect width="491" height="336" fill="#2C2828"/>
<path d="M447.001 150.499C447.084 150.499 447.151 150.432 447.151 150.349C447.151 150.266 447.084 150.199 447.001 150.199V150.499ZM54.9994 150.499H55.2991V150.199H54.9994V150.499ZM55.8985 150.499H56.4979V150.199H55.8985V150.499ZM57.0973 150.499H57.6966V150.199H57.0973V150.499ZM58.296 150.499H58.8954V150.199H58.296V150.499ZM59.4948 150.499H60.0942V150.199H59.4948V150.499ZM60.6936 150.499H61.293V150.199H60.6936V150.499ZM61.8924 150.499H62.4918V150.199H61.8924V150.499ZM63.0912 150.499H63.6906V150.199H63.0912V150.499ZM64.2899 150.499H64.8893V150.199H64.2899V150.499ZM65.4887 150.499H66.0881V150.199H65.4887V150.499ZM66.6875 150.499H67.2869V150.199H66.6875V150.499ZM67.8863 150.499H68.4857V150.199H67.8863V150.499ZM69.0851 150.499H69.6844V150.199H69.0851V150.499ZM70.2838 150.499H70.8832V150.199H70.2838V150.499ZM71.4826 150.499H72.082V150.199H71.4826V150.499ZM72.6814 150.499H73.2808V150.199H72.6814V150.499ZM73.8802 150.499H74.4796V150.199H73.8802V150.499ZM75.079 150.499H75.6784V150.199H75.079V150.499ZM76.2777 150.499H76.8771V150.199H76.2777V150.499ZM77.4765 150.499H78.0759V150.199H77.4765V150.499ZM78.6753 150.499H79.2747V150.199H78.6753V150.499ZM79.8741 150.499H80.4735V150.199H79.8741V150.499ZM81.0729 150.499H81.6723V150.199H81.0729V150.499ZM82.2716 150.499H82.871V150.199H82.2716V150.499ZM83.4704 150.499H84.0698V150.199H83.4704V150.499ZM84.6692 150.499H85.2686V150.199H84.6692V150.499ZM85.868 150.499H86.4674V150.199H85.868V150.499ZM87.0668 150.499H87.6662V150.199H87.0668V150.499ZM88.2655 150.499H88.8649V150.199H88.2655V150.499ZM89.4643 150.499H90.0637V150.199H89.4643V150.499ZM90.6631 150.499H91.2625V150.199H90.6631V150.499ZM91.8619 150.499H92.4613V150.199H91.8619V150.499ZM93.0607 150.499H93.6601V150.199H93.0607V150.499ZM94.2595 150.499H94.8589V150.199H94.2595V150.499ZM95.4582 150.499H96.0576V150.199H95.4582V150.499ZM96.657 150.499H97.2564V150.199H96.657V150.499ZM97.8558 150.499H98.4552V150.199H97.8558V150.499ZM99.0546 150.499H99.654V150.199H99.0546V150.499ZM100.253 150.499H100.853V150.199H100.253V150.499ZM101.452 150.499H102.052V150.199H101.452V150.499ZM102.651 150.499H103.25V150.199H102.651V150.499ZM103.85 150.499H104.449V150.199H103.85V150.499ZM105.049 150.499H105.648V150.199H105.049V150.499ZM106.247 150.499H106.847V150.199H106.247V150.499ZM107.446 150.499H108.045V150.199H107.446V150.499ZM108.645 150.499H109.244V150.199H108.645V150.499ZM109.844 150.499H110.443V150.199H109.844V150.499ZM111.042 150.499H111.642V150.199H111.042V150.499ZM112.241 150.499H112.841V150.199H112.241V150.499ZM113.44 150.499H114.039V150.199H113.44V150.499ZM114.639 150.499H115.238V150.199H114.639V150.499ZM115.838 150.499H116.437V150.199H115.838V150.499ZM117.036 150.499H117.636V150.199H117.036V150.499ZM118.235 150.499H118.835V150.199H118.235V150.499ZM119.434 150.499H120.033V150.199H119.434V150.499ZM120.633 150.499H121.232V150.199H120.633V150.499ZM121.831 150.499H122.431V150.199H121.831V150.499ZM123.03 150.499H123.63V150.199H123.03V150.499ZM124.229 150.499H124.828V150.199H124.229V150.499ZM125.428 150.499H126.027V150.199H125.428V150.499ZM126.627 150.499H127.226V150.199H126.627V150.499ZM127.825 150.499H128.425V150.199H127.825V150.499ZM129.024 150.499H129.624V150.199H129.024V150.499ZM130.223 150.499H130.822V150.199H130.223V150.499ZM131.422 150.499H132.021V150.199H131.422V150.499ZM132.62 150.499H133.22V150.199H132.62V150.499ZM133.819 150.499H134.419V150.199H133.819V150.499ZM135.018 150.499H135.617V150.199H135.018V150.499ZM136.217 150.499H136.816V150.199H136.217V150.499ZM137.416 150.499H138.015V150.199H137.416V150.499ZM138.614 150.499H139.214V150.199H138.614V150.499ZM139.813 150.499H140.413V150.199H139.813V150.499ZM141.012 150.499H141.611V150.199H141.012V150.499ZM142.211 150.499H142.81V150.199H142.211V150.499ZM143.409 150.499H144.009V150.199H143.409V150.499ZM144.608 150.499H145.208V150.199H144.608V150.499ZM145.807 150.499H146.406V150.199H145.807V150.499ZM147.006 150.499H147.605V150.199H147.006V150.499ZM148.205 150.499H148.804V150.199H148.205V150.499ZM149.403 150.499H150.003V150.199H149.403V150.499ZM150.602 150.499H151.201V150.199H150.602V150.499ZM151.801 150.499H152.4V150.199H151.801V150.499ZM153 150.499H153.599V150.199H153V150.499ZM154.198 150.499H154.798V150.199H154.198V150.499ZM155.397 150.499H155.997V150.199H155.397V150.499ZM156.596 150.499H157.195V150.199H156.596V150.499ZM157.795 150.499H158.394V150.199H157.795V150.499ZM158.994 150.499H159.593V150.199H158.994V150.499ZM160.192 150.499H160.792V150.199H160.192V150.499ZM161.391 150.499H161.99V150.199H161.391V150.499ZM162.59 150.499H163.189V150.199H162.59V150.499ZM163.789 150.499H164.388V150.199H163.789V150.499ZM164.987 150.499H165.587V150.199H164.987V150.499ZM166.186 150.499H166.786V150.199H166.186V150.499ZM167.385 150.499H167.984V150.199H167.385V150.499ZM168.584 150.499H169.183V150.199H168.584V150.499ZM169.783 150.499H170.382V150.199H169.783V150.499ZM170.981 150.499H171.581V150.199H170.981V150.499ZM172.18 150.499H172.779V150.199H172.18V150.499ZM173.379 150.499H173.978V150.199H173.379V150.499ZM174.578 150.499H175.177V150.199H174.578V150.499ZM175.776 150.499H176.376V150.199H175.776V150.499ZM176.975 150.499H177.575V150.199H176.975V150.499ZM178.174 150.499H178.773V150.199H178.174V150.499ZM179.373 150.499H179.972V150.199H179.373V150.499ZM180.572 150.499H181.171V150.199H180.572V150.499ZM181.77 150.499H182.37V150.199H181.77V150.499ZM182.969 150.499H183.568V150.199H182.969V150.499ZM184.168 150.499H184.767V150.199H184.168V150.499ZM185.367 150.499H185.966V150.199H185.367V150.499ZM186.565 150.499H187.165V150.199H186.565V150.499ZM187.764 150.499H188.364V150.199H187.764V150.499ZM188.963 150.499H189.562V150.199H188.963V150.499ZM190.162 150.499H190.761V150.199H190.162V150.499ZM191.361 150.499H191.96V150.199H191.361V150.499ZM192.559 150.499H193.159V150.199H192.559V150.499ZM193.758 150.499H194.358V150.199H193.758V150.499ZM194.957 150.499H195.556V150.199H194.957V150.499ZM196.156 150.499H196.755V150.199H196.156V150.499ZM197.355 150.499H197.954V150.199H197.355V150.499ZM198.553 150.499H199.153V150.199H198.553V150.499ZM199.752 150.499H200.352V150.199H199.752V150.499ZM200.951 150.499H201.55V150.199H200.951V150.499ZM202.15 150.499H202.749V150.199H202.15V150.499ZM203.349 150.499H203.948V150.199H203.349V150.499ZM204.547 150.499H205.147V150.199H204.547V150.499ZM205.746 150.499H206.345V150.199H205.746V150.499ZM206.945 150.499H207.544V150.199H206.945V150.499ZM208.144 150.499H208.743V150.199H208.144V150.499ZM209.342 150.499H209.942V150.199H209.342V150.499ZM210.541 150.499H211.141V150.199H210.541V150.499ZM211.74 150.499H212.339V150.199H211.74V150.499ZM212.939 150.499H213.538V150.199H212.939V150.499ZM214.138 150.499H214.737V150.199H214.138V150.499ZM215.336 150.499H215.936V150.199H215.336V150.499ZM216.535 150.499H217.135V150.199H216.535V150.499ZM217.734 150.499H218.333V150.199H217.734V150.499ZM218.933 150.499H219.532V150.199H218.933V150.499ZM220.132 150.499H220.731V150.199H220.132V150.499ZM221.33 150.499H221.93V150.199H221.33V150.499ZM222.529 150.499H223.129V150.199H222.529V150.499ZM223.728 150.499H224.327V150.199H223.728V150.499ZM224.927 150.499H225.526V150.199H224.927V150.499ZM226.126 150.499H226.725V150.199H226.126V150.499ZM227.324 150.499H227.924V150.199H227.324V150.499ZM228.523 150.499H229.123V150.199H228.523V150.499ZM229.722 150.499H230.321V150.199H229.722V150.499ZM230.921 150.499H231.52V150.199H230.921V150.499ZM232.12 150.499H232.719V150.199H232.12V150.499ZM233.318 150.499H233.918V150.199H233.318V150.499ZM234.517 150.499H235.116V150.199H234.517V150.499ZM235.716 150.499H236.315V150.199H235.716V150.499ZM236.915 150.499H237.514V150.199H236.915V150.499ZM238.113 150.499H238.713V150.199H238.113V150.499ZM239.312 150.499H239.912V150.199H239.312V150.499ZM240.511 150.499H241.11V150.199H240.511V150.499ZM241.71 150.499H242.309V150.199H241.71V150.499ZM242.909 150.499H243.508V150.199H242.909V150.499ZM244.107 150.499H244.707V150.199H244.107V150.499ZM245.306 150.499H245.906V150.199H245.306V150.499ZM246.505 150.499H247.104V150.199H246.505V150.499ZM247.704 150.499H248.303V150.199H247.704V150.499ZM248.903 150.499H249.502V150.199H248.903V150.499ZM250.101 150.499H250.701V150.199H250.101V150.499ZM251.3 150.499H251.9V150.199H251.3V150.499ZM252.499 150.499H253.098V150.199H252.499V150.499ZM253.698 150.499H254.297V150.199H253.698V150.499ZM254.897 150.499H255.496V150.199H254.897V150.499ZM256.095 150.499H256.695V150.199H256.095V150.499ZM257.294 150.499H257.894V150.199H257.294V150.499ZM258.493 150.499H259.092V150.199H258.493V150.499ZM259.692 150.499H260.291V150.199H259.692V150.499ZM260.89 150.499H261.49V150.199H260.89V150.499ZM262.089 150.499H262.689V150.199H262.089V150.499ZM263.288 150.499H263.887V150.199H263.288V150.499ZM264.487 150.499H265.086V150.199H264.487V150.499ZM265.686 150.499H266.285V150.199H265.686V150.499ZM266.884 150.499H267.484V150.199H266.884V150.499ZM268.083 150.499H268.683V150.199H268.083V150.499ZM269.282 150.499H269.881V150.199H269.282V150.499ZM270.481 150.499H271.08V150.199H270.481V150.499ZM271.68 150.499H272.279V150.199H271.68V150.499ZM272.878 150.499H273.478V150.199H272.878V150.499ZM274.077 150.499H274.677V150.199H274.077V150.499ZM275.276 150.499H275.875V150.199H275.276V150.499ZM276.475 150.499H277.074V150.199H276.475V150.499ZM277.674 150.499H278.273V150.199H277.674V150.499ZM278.872 150.499H279.472V150.199H278.872V150.499ZM280.071 150.499H280.671V150.199H280.071V150.499ZM281.27 150.499H281.869V150.199H281.27V150.499ZM282.469 150.499H283.068V150.199H282.469V150.499ZM283.668 150.499H284.267V150.199H283.668V150.499ZM284.866 150.499H285.466V150.199H284.866V150.499ZM286.065 150.499H286.665V150.199H286.065V150.499ZM287.264 150.499H287.863V150.199H287.264V150.499ZM288.463 150.499H289.062V150.199H288.463V150.499ZM289.662 150.499H290.261V150.199H289.662V150.499ZM290.86 150.499H291.46V150.199H290.86V150.499ZM292.059 150.499H292.658V150.199H292.059V150.499ZM293.258 150.499H293.857V150.199H293.258V150.499ZM294.457 150.499H295.056V150.199H294.457V150.499ZM295.655 150.499H296.255V150.199H295.655V150.499ZM296.854 150.499H297.454V150.199H296.854V150.499ZM298.053 150.499H298.652V150.199H298.053V150.499ZM299.252 150.499H299.851V150.199H299.252V150.499ZM300.451 150.499H301.05V150.199H300.451V150.499ZM301.649 150.499H302.249V150.199H301.649V150.499ZM302.848 150.499H303.448V150.199H302.848V150.499ZM304.047 150.499H304.646V150.199H304.047V150.499ZM305.246 150.499H305.845V150.199H305.246V150.499ZM306.445 150.499H307.044V150.199H306.445V150.499ZM307.643 150.499H308.243V150.199H307.643V150.499ZM308.842 150.499H309.442V150.199H308.842V150.499ZM310.041 150.499H310.64V150.199H310.041V150.499ZM311.24 150.499H311.839V150.199H311.24V150.499ZM312.439 150.499H313.038V150.199H312.439V150.499ZM313.637 150.499H314.237V150.199H313.637V150.499ZM314.836 150.499H315.436V150.199H314.836V150.499ZM316.035 150.499H316.634V150.199H316.035V150.499ZM317.234 150.499H317.833V150.199H317.234V150.499ZM318.432 150.499H319.032V150.199H318.432V150.499ZM319.631 150.499H320.231V150.199H319.631V150.499ZM320.83 150.499H321.429V150.199H320.83V150.499ZM322.029 150.499H322.628V150.199H322.029V150.499ZM323.228 150.499H323.827V150.199H323.228V150.499ZM324.426 150.499H325.026V150.199H324.426V150.499ZM325.625 150.499H326.225V150.199H325.625V150.499ZM326.824 150.499H327.423V150.199H326.824V150.499ZM328.023 150.499H328.622V150.199H328.023V150.499ZM329.222 150.499H329.821V150.199H329.222V150.499ZM330.42 150.499H331.02V150.199H330.42V150.499ZM331.619 150.499H332.219V150.199H331.619V150.499ZM332.818 150.499H333.417V150.199H332.818V150.499ZM334.017 150.499H334.616V150.199H334.017V150.499ZM335.216 150.499H335.815V150.199H335.216V150.499ZM336.414 150.499H337.014V150.199H336.414V150.499ZM337.613 150.499H338.213V150.199H337.613V150.499ZM338.812 150.499H339.411V150.199H338.812V150.499ZM340.011 150.499H340.61V150.199H340.011V150.499ZM341.21 150.499H341.809V150.199H341.21V150.499ZM342.408 150.499H343.008V150.199H342.408V150.499ZM343.607 150.499H344.207V150.199H343.607V150.499ZM344.806 150.499H345.405V150.199H344.806V150.499ZM346.005 150.499H346.604V150.199H346.005V150.499ZM347.203 150.499H347.803V150.199H347.203V150.499ZM348.402 150.499H349.002V150.199H348.402V150.499ZM349.601 150.499H350.2V150.199H349.601V150.499ZM350.8 150.499H351.399V150.199H350.8V150.499ZM351.999 150.499H352.598V150.199H351.999V150.499ZM353.197 150.499H353.797V150.199H353.197V150.499ZM354.396 150.499H354.996V150.199H354.396V150.499ZM355.595 150.499H356.194V150.199H355.595V150.499ZM356.794 150.499H357.393V150.199H356.794V150.499ZM357.993 150.499H358.592V150.199H357.993V150.499ZM359.191 150.499H359.791V150.199H359.191V150.499ZM360.39 150.499H360.99V150.199H360.39V150.499ZM361.589 150.499H362.188V150.199H361.589V150.499ZM362.788 150.499H363.387V150.199H362.788V150.499ZM363.987 150.499H364.586V150.199H363.987V150.499ZM365.185 150.499H365.785V150.199H365.185V150.499ZM366.384 150.499H366.984V150.199H366.384V150.499ZM367.583 150.499H368.182V150.199H367.583V150.499ZM368.782 150.499H369.381V150.199H368.782V150.499ZM369.981 150.499H370.58V150.199H369.981V150.499ZM371.179 150.499H371.779V150.199H371.179V150.499ZM372.378 150.499H372.978V150.199H372.378V150.499ZM373.577 150.499H374.176V150.199H373.577V150.499ZM374.776 150.499H375.375V150.199H374.776V150.499ZM375.974 150.499H376.574V150.199H375.974V150.499ZM377.173 150.499H377.773V150.199H377.173V150.499ZM378.372 150.499H378.971V150.199H378.372V150.499ZM379.571 150.499H380.17V150.199H379.571V150.499ZM380.77 150.499H381.369V150.199H380.77V150.499ZM381.968 150.499H382.568V150.199H381.968V150.499ZM383.167 150.499H383.767V150.199H383.167V150.499ZM384.366 150.499H384.965V150.199H384.366V150.499ZM385.565 150.499H386.164V150.199H385.565V150.499ZM386.764 150.499H387.363V150.199H386.764V150.499ZM387.962 150.499H388.562V150.199H387.962V150.499ZM389.161 150.499H389.761V150.199H389.161V150.499ZM390.36 150.499H390.959V150.199H390.36V150.499ZM391.559 150.499H392.158V150.199H391.559V150.499ZM392.758 150.499H393.357V150.199H392.758V150.499ZM393.956 150.499H394.556V150.199H393.956V150.499ZM395.155 150.499H395.755V150.199H395.155V150.499ZM396.354 150.499H396.953V150.199H396.354V150.499ZM397.553 150.499H398.152V150.199H397.553V150.499ZM398.752 150.499H399.351V150.199H398.752V150.499ZM399.95 150.499H400.55V150.199H399.95V150.499ZM401.149 150.499H401.749V150.199H401.149V150.499ZM402.348 150.499H402.947V150.199H402.348V150.499ZM403.547 150.499H404.146V150.199H403.547V150.499ZM404.745 150.499H405.345V150.199H404.745V150.499ZM405.944 150.499H406.544V150.199H405.944V150.499ZM407.143 150.499H407.742V150.199H407.143V150.499ZM408.342 150.499H408.941V150.199H408.342V150.499ZM409.541 150.499H410.14V150.199H409.541V150.499ZM410.739 150.499H411.339V150.199H410.739V150.499ZM411.938 150.499H412.538V150.199H411.938V150.499ZM413.137 150.499H413.736V150.199H413.137V150.499ZM414.336 150.499H414.935V150.199H414.336V150.499ZM415.535 150.499H416.134V150.199H415.535V150.499ZM416.733 150.499H417.333V150.199H416.733V150.499ZM417.932 150.499H418.532V150.199H417.932V150.499ZM419.131 150.499H419.73V150.199H419.131V150.499ZM420.33 150.499H420.929V150.199H420.33V150.499ZM421.529 150.499H422.128V150.199H421.529V150.499ZM422.727 150.499H423.327V150.199H422.727V150.499ZM423.926 150.499H424.526V150.199H423.926V150.499ZM425.125 150.499H425.724V150.199H425.125V150.499ZM426.324 150.499H426.923V150.199H426.324V150.499ZM427.523 150.499H428.122V150.199H427.523V150.499ZM428.721 150.499H429.321V150.199H428.721V150.499ZM429.92 150.499H430.519V150.199H429.92V150.499ZM431.119 150.499H431.718V150.199H431.119V150.499ZM432.318 150.499H432.917V150.199H432.318V150.499ZM433.516 150.499H434.116V150.199H433.516V150.499ZM434.715 150.499H435.315V150.199H434.715V150.499ZM435.914 150.499H436.513V150.199H435.914V150.499ZM437.113 150.499H437.712V150.199H437.113V150.499ZM438.312 150.499H438.911V150.199H438.312V150.499ZM439.51 150.499H440.11V150.199H439.51V150.499ZM440.709 150.499H441.309V150.199H440.709V150.499ZM441.908 150.499H442.507V150.199H441.908V150.499ZM443.107 150.499H443.706V150.199H443.107V150.499ZM444.306 150.499H444.905V150.199H444.306V150.499ZM445.504 150.499H446.104V150.199H445.504V150.499ZM446.703 150.499H447.001V150.199H446.703V150.499Z" fill="white"/>
<path d="M279.283 75.0001C279.283 74.9173 279.216 74.8501 279.133 74.85C279.05 74.8499 278.983 74.917 278.983 74.9999L279.283 75.0001ZM279.15 225L279.15 224.7L278.85 224.7L278.85 225L279.15 225ZM279.151 224.1L279.151 223.5L278.851 223.5L278.851 224.1L279.151 224.1ZM279.152 222.9L279.152 222.3L278.852 222.3L278.852 222.9L279.152 222.9ZM279.153 221.7L279.153 221.1L278.853 221.1L278.853 221.7L279.153 221.7ZM279.154 220.5L279.155 219.9L278.855 219.9L278.854 220.5L279.154 220.5ZM279.155 219.3L279.156 218.7L278.856 218.7L278.855 219.3L279.155 219.3ZM279.156 218.1L279.157 217.5L278.857 217.5L278.856 218.1L279.156 218.1ZM279.157 216.9L279.158 216.3L278.858 216.3L278.857 216.9L279.157 216.9ZM279.158 215.7L279.159 215.1L278.859 215.1L278.858 215.7L279.158 215.7ZM279.159 214.5L279.16 213.9L278.86 213.9L278.859 214.5L279.159 214.5ZM279.16 213.3L279.161 212.7L278.861 212.7L278.86 213.3L279.16 213.3ZM279.161 212.1L279.162 211.5L278.862 211.5L278.861 212.1L279.161 212.1ZM279.163 210.9L279.163 210.3L278.863 210.3L278.863 210.9L279.163 210.9ZM279.164 209.7L279.164 209.1L278.864 209.1L278.864 209.7L279.164 209.7ZM279.165 208.5L279.165 207.9L278.865 207.9L278.865 208.5L279.165 208.5ZM279.166 207.3L279.166 206.7L278.866 206.7L278.866 207.3L279.166 207.3ZM279.167 206.1L279.167 205.5L278.867 205.5L278.867 206.1L279.167 206.1ZM279.168 204.9L279.168 204.3L278.868 204.3L278.868 204.9L279.168 204.9ZM279.169 203.7L279.169 203.1L278.869 203.1L278.869 203.7L279.169 203.7ZM279.17 202.5L279.171 201.9L278.871 201.9L278.87 202.5L279.17 202.5ZM279.171 201.3L279.172 200.7L278.872 200.7L278.871 201.3L279.171 201.3ZM279.172 200.1L279.173 199.5L278.873 199.5L278.872 200.1L279.172 200.1ZM279.173 198.9L279.174 198.3L278.874 198.3L278.873 198.9L279.173 198.9ZM279.174 197.7L279.175 197.1L278.875 197.1L278.874 197.7L279.174 197.7ZM279.175 196.5L279.176 195.9L278.876 195.9L278.875 196.5L279.175 196.5ZM279.176 195.3L279.177 194.7L278.877 194.7L278.876 195.3L279.176 195.3ZM279.177 194.1L279.178 193.5L278.878 193.5L278.877 194.1L279.177 194.1ZM279.178 192.9L279.179 192.3L278.879 192.3L278.878 192.9L279.178 192.9ZM279.18 191.7L279.18 191.1L278.88 191.1L278.88 191.7L279.18 191.7ZM279.181 190.5L279.181 189.9L278.881 189.9L278.881 190.5L279.181 190.5ZM279.182 189.3L279.182 188.7L278.882 188.7L278.882 189.3L279.182 189.3ZM279.183 188.1L279.183 187.5L278.883 187.5L278.883 188.1L279.183 188.1ZM279.184 186.9L279.184 186.3L278.884 186.3L278.884 186.9L279.184 186.9ZM279.185 185.7L279.185 185.1L278.885 185.1L278.885 185.7L279.185 185.7ZM279.186 184.5L279.186 183.9L278.886 183.9L278.886 184.5L279.186 184.5ZM279.187 183.3L279.188 182.7L278.888 182.7L278.887 183.3L279.187 183.3ZM279.188 182.1L279.189 181.5L278.889 181.5L278.888 182.1L279.188 182.1ZM279.189 180.9L279.19 180.3L278.89 180.3L278.889 180.9L279.189 180.9ZM279.19 179.7L279.191 179.1L278.891 179.1L278.89 179.7L279.19 179.7ZM279.191 178.5L279.192 177.9L278.892 177.9L278.891 178.5L279.191 178.5ZM279.192 177.3L279.193 176.7L278.893 176.7L278.892 177.3L279.192 177.3ZM279.193 176.1L279.194 175.5L278.894 175.5L278.893 176.1L279.193 176.1ZM279.194 174.9L279.195 174.3L278.895 174.3L278.894 174.9L279.194 174.9ZM279.196 173.7L279.196 173.1L278.896 173.1L278.896 173.7L279.196 173.7ZM279.197 172.5L279.197 171.9L278.897 171.9L278.897 172.5L279.197 172.5ZM279.198 171.3L279.198 170.7L278.898 170.7L278.898 171.3L279.198 171.3ZM279.199 170.1L279.199 169.5L278.899 169.5L278.899 170.1L279.199 170.1ZM279.2 168.9L279.2 168.3L278.9 168.3L278.9 168.9L279.2 168.9ZM279.201 167.7L279.201 167.1L278.901 167.1L278.901 167.7L279.201 167.7ZM279.202 166.5L279.202 165.9L278.902 165.9L278.902 166.5L279.202 166.5ZM279.203 165.3L279.204 164.7L278.904 164.7L278.903 165.3L279.203 165.3ZM279.204 164.1L279.205 163.5L278.905 163.5L278.904 164.1L279.204 164.1ZM279.205 162.9L279.206 162.3L278.906 162.3L278.905 162.9L279.205 162.9ZM279.206 161.7L279.207 161.1L278.907 161.1L278.906 161.7L279.206 161.7ZM279.207 160.5L279.208 159.9L278.908 159.9L278.907 160.5L279.207 160.5ZM279.208 159.3L279.209 158.7L278.909 158.7L278.908 159.3L279.208 159.3ZM279.209 158.1L279.21 157.5L278.91 157.5L278.909 158.1L279.209 158.1ZM279.21 156.9L279.211 156.3L278.911 156.3L278.91 156.9L279.21 156.9ZM279.212 155.7L279.212 155.1L278.912 155.1L278.912 155.7L279.212 155.7ZM279.213 154.5L279.213 153.9L278.913 153.9L278.913 154.5L279.213 154.5ZM279.214 153.3L279.214 152.7L278.914 152.7L278.914 153.3L279.214 153.3ZM279.215 152.1L279.215 151.5L278.915 151.5L278.915 152.1L279.215 152.1ZM279.216 150.9L279.216 150.3L278.916 150.3L278.916 150.9L279.216 150.9ZM279.217 149.7L279.217 149.1L278.917 149.1L278.917 149.7L279.217 149.7ZM279.218 148.5L279.218 147.9L278.918 147.9L278.918 148.5L279.218 148.5ZM279.219 147.3L279.22 146.7L278.92 146.7L278.919 147.3L279.219 147.3ZM279.22 146.1L279.221 145.5L278.921 145.5L278.92 146.1L279.22 146.1ZM279.221 144.9L279.222 144.3L278.922 144.3L278.921 144.9L279.221 144.9ZM279.222 143.7L279.223 143.1L278.923 143.1L278.922 143.7L279.222 143.7ZM279.223 142.5L279.224 141.9L278.924 141.9L278.923 142.5L279.223 142.5ZM279.224 141.3L279.225 140.7L278.925 140.7L278.924 141.3L279.224 141.3ZM279.225 140.1L279.226 139.5L278.926 139.5L278.925 140.1L279.225 140.1ZM279.226 138.9L279.227 138.3L278.927 138.3L278.926 138.9L279.226 138.9ZM279.227 137.7L279.228 137.1L278.928 137.1L278.927 137.7L279.227 137.7ZM279.229 136.5L279.229 135.9L278.929 135.9L278.929 136.5L279.229 136.5ZM279.23 135.3L279.23 134.7L278.93 134.7L278.93 135.3L279.23 135.3ZM279.231 134.1L279.231 133.5L278.931 133.5L278.931 134.1L279.231 134.1ZM279.232 132.9L279.232 132.3L278.932 132.3L278.932 132.9L279.232 132.9ZM279.233 131.7L279.233 131.1L278.933 131.1L278.933 131.7L279.233 131.7ZM279.234 130.5L279.234 129.9L278.934 129.9L278.934 130.5L279.234 130.5ZM279.235 129.3L279.235 128.7L278.935 128.7L278.935 129.3L279.235 129.3ZM279.236 128.1L279.237 127.5L278.937 127.5L278.936 128.1L279.236 128.1ZM279.237 126.9L279.238 126.3L278.938 126.3L278.937 126.9L279.237 126.9ZM279.238 125.7L279.239 125.1L278.939 125.1L278.938 125.7L279.238 125.7ZM279.239 124.5L279.24 123.9L278.94 123.9L278.939 124.5L279.239 124.5ZM279.24 123.3L279.241 122.7L278.941 122.7L278.94 123.3L279.24 123.3ZM279.241 122.1L279.242 121.5L278.942 121.5L278.941 122.1L279.241 122.1ZM279.242 120.9L279.243 120.3L278.943 120.3L278.942 120.9L279.242 120.9ZM279.243 119.7L279.244 119.1L278.944 119.1L278.943 119.7L279.243 119.7ZM279.245 118.5L279.245 117.9L278.945 117.9L278.945 118.5L279.245 118.5ZM279.246 117.3L279.246 116.7L278.946 116.7L278.946 117.3L279.246 117.3ZM279.247 116.1L279.247 115.5L278.947 115.5L278.947 116.1L279.247 116.1ZM279.248 114.9L279.248 114.3L278.948 114.3L278.948 114.9L279.248 114.9ZM279.249 113.7L279.249 113.1L278.949 113.1L278.949 113.7L279.249 113.7ZM279.25 112.5L279.25 111.9L278.95 111.9L278.95 112.5L279.25 112.5ZM279.251 111.3L279.251 110.7L278.951 110.7L278.951 111.3L279.251 111.3ZM279.252 110.1L279.253 109.5L278.953 109.5L278.952 110.1L279.252 110.1ZM279.253 108.9L279.254 108.3L278.954 108.3L278.953 108.9L279.253 108.9ZM279.254 107.7L279.255 107.1L278.955 107.1L278.954 107.7L279.254 107.7ZM279.255 106.5L279.256 105.9L278.956 105.9L278.955 106.5L279.255 106.5ZM279.256 105.3L279.257 104.7L278.957 104.7L278.956 105.3L279.256 105.3ZM279.257 104.1L279.258 103.5L278.958 103.5L278.957 104.1L279.257 104.1ZM279.258 102.9L279.259 102.3L278.959 102.3L278.958 102.9L279.258 102.9ZM279.259 101.7L279.26 101.1L278.96 101.1L278.959 101.7L279.259 101.7ZM279.261 100.5L279.261 99.9003L278.961 99.9001L278.961 100.5L279.261 100.5ZM279.262 99.3003L279.262 98.7003L278.962 98.7001L278.962 99.3001L279.262 99.3003ZM279.263 98.1004L279.263 97.5004L278.963 97.5001L278.963 98.1001L279.263 98.1004ZM279.264 96.9003L279.264 96.3003L278.964 96.3001L278.964 96.9001L279.264 96.9003ZM279.265 95.7003L279.265 95.1003L278.965 95.1001L278.965 95.7001L279.265 95.7003ZM279.266 94.5003L279.266 93.9003L278.966 93.9001L278.966 94.5001L279.266 94.5003ZM279.267 93.3003L279.267 92.7003L278.967 92.7L278.967 93.3L279.267 93.3003ZM279.268 92.1003L279.269 91.5003L278.969 91.5L278.968 92.1L279.268 92.1003ZM279.269 90.9003L279.27 90.3003L278.97 90.3L278.969 90.9L279.269 90.9003ZM279.27 89.7003L279.271 89.1003L278.971 89.1L278.97 89.7L279.27 89.7003ZM279.271 88.5003L279.272 87.9003L278.972 87.9L278.971 88.5L279.271 88.5003ZM279.272 87.3003L279.273 86.7002L278.973 86.7L278.972 87.3L279.272 87.3003ZM279.273 86.1002L279.274 85.5002L278.974 85.5L278.973 86.1L279.273 86.1002ZM279.274 84.9002L279.275 84.3002L278.975 84.3L278.974 84.9L279.274 84.9002ZM279.275 83.7002L279.276 83.1002L278.976 83.0999L278.975 83.6999L279.275 83.7002ZM279.276 82.5002L279.277 81.9002L278.977 81.8999L278.976 82.4999L279.276 82.5002ZM279.278 81.3002L279.278 80.7002L278.978 80.6999L278.978 81.2999L279.278 81.3002ZM279.279 80.1002L279.279 79.5002L278.979 79.4999L278.979 80.0999L279.279 80.1002ZM279.28 78.9002L279.28 78.3002L278.98 78.2999L278.98 78.8999L279.28 78.9002ZM279.281 77.7002L279.281 77.1002L278.981 77.0999L278.981 77.6999L279.281 77.7002ZM279.282 76.5002L279.282 75.9001L278.982 75.8999L278.982 76.4999L279.282 76.5002ZM279.283 75.3001L279.283 75.0001L278.983 74.9999L278.983 75.2999L279.283 75.3001Z" fill="white"/>
<path d="M133.283 77.0001C133.283 76.9173 133.216 76.8501 133.133 76.85C133.05 76.8499 132.983 76.917 132.983 76.9999L133.283 77.0001ZM133.15 227L133.15 226.7L132.85 226.7L132.85 227L133.15 227ZM133.151 226.1L133.151 225.5L132.851 225.5L132.851 226.1L133.151 226.1ZM133.152 224.9L133.152 224.3L132.852 224.3L132.852 224.9L133.152 224.9ZM133.153 223.7L133.153 223.1L132.853 223.1L132.853 223.7L133.153 223.7ZM133.154 222.5L133.155 221.9L132.855 221.9L132.854 222.5L133.154 222.5ZM133.155 221.3L133.156 220.7L132.856 220.7L132.855 221.3L133.155 221.3ZM133.156 220.1L133.157 219.5L132.857 219.5L132.856 220.1L133.156 220.1ZM133.157 218.9L133.158 218.3L132.858 218.3L132.857 218.9L133.157 218.9ZM133.158 217.7L133.159 217.1L132.859 217.1L132.858 217.7L133.158 217.7ZM133.159 216.5L133.16 215.9L132.86 215.9L132.859 216.5L133.159 216.5ZM133.16 215.3L133.161 214.7L132.861 214.7L132.86 215.3L133.16 215.3ZM133.161 214.1L133.162 213.5L132.862 213.5L132.861 214.1L133.161 214.1ZM133.163 212.9L133.163 212.3L132.863 212.3L132.863 212.9L133.163 212.9ZM133.164 211.7L133.164 211.1L132.864 211.1L132.864 211.7L133.164 211.7ZM133.165 210.5L133.165 209.9L132.865 209.9L132.865 210.5L133.165 210.5ZM133.166 209.3L133.166 208.7L132.866 208.7L132.866 209.3L133.166 209.3ZM133.167 208.1L133.167 207.5L132.867 207.5L132.867 208.1L133.167 208.1ZM133.168 206.9L133.168 206.3L132.868 206.3L132.868 206.9L133.168 206.9ZM133.169 205.7L133.169 205.1L132.869 205.1L132.869 205.7L133.169 205.7ZM133.17 204.5L133.171 203.9L132.871 203.9L132.87 204.5L133.17 204.5ZM133.171 203.3L133.172 202.7L132.872 202.7L132.871 203.3L133.171 203.3ZM133.172 202.1L133.173 201.5L132.873 201.5L132.872 202.1L133.172 202.1ZM133.173 200.9L133.174 200.3L132.874 200.3L132.873 200.9L133.173 200.9ZM133.174 199.7L133.175 199.1L132.875 199.1L132.874 199.7L133.174 199.7ZM133.175 198.5L133.176 197.9L132.876 197.9L132.875 198.5L133.175 198.5ZM133.176 197.3L133.177 196.7L132.877 196.7L132.876 197.3L133.176 197.3ZM133.177 196.1L133.178 195.5L132.878 195.5L132.877 196.1L133.177 196.1ZM133.178 194.9L133.179 194.3L132.879 194.3L132.878 194.9L133.178 194.9ZM133.18 193.7L133.18 193.1L132.88 193.1L132.88 193.7L133.18 193.7ZM133.181 192.5L133.181 191.9L132.881 191.9L132.881 192.5L133.181 192.5ZM133.182 191.3L133.182 190.7L132.882 190.7L132.882 191.3L133.182 191.3ZM133.183 190.1L133.183 189.5L132.883 189.5L132.883 190.1L133.183 190.1ZM133.184 188.9L133.184 188.3L132.884 188.3L132.884 188.9L133.184 188.9ZM133.185 187.7L133.185 187.1L132.885 187.1L132.885 187.7L133.185 187.7ZM133.186 186.5L133.186 185.9L132.886 185.9L132.886 186.5L133.186 186.5ZM133.187 185.3L133.188 184.7L132.888 184.7L132.887 185.3L133.187 185.3ZM133.188 184.1L133.189 183.5L132.889 183.5L132.888 184.1L133.188 184.1ZM133.189 182.9L133.19 182.3L132.89 182.3L132.889 182.9L133.189 182.9ZM133.19 181.7L133.191 181.1L132.891 181.1L132.89 181.7L133.19 181.7ZM133.191 180.5L133.192 179.9L132.892 179.9L132.891 180.5L133.191 180.5ZM133.192 179.3L133.193 178.7L132.893 178.7L132.892 179.3L133.192 179.3ZM133.193 178.1L133.194 177.5L132.894 177.5L132.893 178.1L133.193 178.1ZM133.194 176.9L133.195 176.3L132.895 176.3L132.894 176.9L133.194 176.9ZM133.196 175.7L133.196 175.1L132.896 175.1L132.896 175.7L133.196 175.7ZM133.197 174.5L133.197 173.9L132.897 173.9L132.897 174.5L133.197 174.5ZM133.198 173.3L133.198 172.7L132.898 172.7L132.898 173.3L133.198 173.3ZM133.199 172.1L133.199 171.5L132.899 171.5L132.899 172.1L133.199 172.1ZM133.2 170.9L133.2 170.3L132.9 170.3L132.9 170.9L133.2 170.9ZM133.201 169.7L133.201 169.1L132.901 169.1L132.901 169.7L133.201 169.7ZM133.202 168.5L133.202 167.9L132.902 167.9L132.902 168.5L133.202 168.5ZM133.203 167.3L133.204 166.7L132.904 166.7L132.903 167.3L133.203 167.3ZM133.204 166.1L133.205 165.5L132.905 165.5L132.904 166.1L133.204 166.1ZM133.205 164.9L133.206 164.3L132.906 164.3L132.905 164.9L133.205 164.9ZM133.206 163.7L133.207 163.1L132.907 163.1L132.906 163.7L133.206 163.7ZM133.207 162.5L133.208 161.9L132.908 161.9L132.907 162.5L133.207 162.5ZM133.208 161.3L133.209 160.7L132.909 160.7L132.908 161.3L133.208 161.3ZM133.209 160.1L133.21 159.5L132.91 159.5L132.909 160.1L133.209 160.1ZM133.21 158.9L133.211 158.3L132.911 158.3L132.91 158.9L133.21 158.9ZM133.212 157.7L133.212 157.1L132.912 157.1L132.912 157.7L133.212 157.7ZM133.213 156.5L133.213 155.9L132.913 155.9L132.913 156.5L133.213 156.5ZM133.214 155.3L133.214 154.7L132.914 154.7L132.914 155.3L133.214 155.3ZM133.215 154.1L133.215 153.5L132.915 153.5L132.915 154.1L133.215 154.1ZM133.216 152.9L133.216 152.3L132.916 152.3L132.916 152.9L133.216 152.9ZM133.217 151.7L133.217 151.1L132.917 151.1L132.917 151.7L133.217 151.7ZM133.218 150.5L133.218 149.9L132.918 149.9L132.918 150.5L133.218 150.5ZM133.219 149.3L133.22 148.7L132.92 148.7L132.919 149.3L133.219 149.3ZM133.22 148.1L133.221 147.5L132.921 147.5L132.92 148.1L133.22 148.1ZM133.221 146.9L133.222 146.3L132.922 146.3L132.921 146.9L133.221 146.9ZM133.222 145.7L133.223 145.1L132.923 145.1L132.922 145.7L133.222 145.7ZM133.223 144.5L133.224 143.9L132.924 143.9L132.923 144.5L133.223 144.5ZM133.224 143.3L133.225 142.7L132.925 142.7L132.924 143.3L133.224 143.3ZM133.225 142.1L133.226 141.5L132.926 141.5L132.925 142.1L133.225 142.1ZM133.226 140.9L133.227 140.3L132.927 140.3L132.926 140.9L133.226 140.9ZM133.227 139.7L133.228 139.1L132.928 139.1L132.927 139.7L133.227 139.7ZM133.229 138.5L133.229 137.9L132.929 137.9L132.929 138.5L133.229 138.5ZM133.23 137.3L133.23 136.7L132.93 136.7L132.93 137.3L133.23 137.3ZM133.231 136.1L133.231 135.5L132.931 135.5L132.931 136.1L133.231 136.1ZM133.232 134.9L133.232 134.3L132.932 134.3L132.932 134.9L133.232 134.9ZM133.233 133.7L133.233 133.1L132.933 133.1L132.933 133.7L133.233 133.7ZM133.234 132.5L133.234 131.9L132.934 131.9L132.934 132.5L133.234 132.5ZM133.235 131.3L133.235 130.7L132.935 130.7L132.935 131.3L133.235 131.3ZM133.236 130.1L133.237 129.5L132.937 129.5L132.936 130.1L133.236 130.1ZM133.237 128.9L133.238 128.3L132.938 128.3L132.937 128.9L133.237 128.9ZM133.238 127.7L133.239 127.1L132.939 127.1L132.938 127.7L133.238 127.7ZM133.239 126.5L133.24 125.9L132.94 125.9L132.939 126.5L133.239 126.5ZM133.24 125.3L133.241 124.7L132.941 124.7L132.94 125.3L133.24 125.3ZM133.241 124.1L133.242 123.5L132.942 123.5L132.941 124.1L133.241 124.1ZM133.242 122.9L133.243 122.3L132.943 122.3L132.942 122.9L133.242 122.9ZM133.243 121.7L133.244 121.1L132.944 121.1L132.943 121.7L133.243 121.7ZM133.245 120.5L133.245 119.9L132.945 119.9L132.945 120.5L133.245 120.5ZM133.246 119.3L133.246 118.7L132.946 118.7L132.946 119.3L133.246 119.3ZM133.247 118.1L133.247 117.5L132.947 117.5L132.947 118.1L133.247 118.1ZM133.248 116.9L133.248 116.3L132.948 116.3L132.948 116.9L133.248 116.9ZM133.249 115.7L133.249 115.1L132.949 115.1L132.949 115.7L133.249 115.7ZM133.25 114.5L133.25 113.9L132.95 113.9L132.95 114.5L133.25 114.5ZM133.251 113.3L133.251 112.7L132.951 112.7L132.951 113.3L133.251 113.3ZM133.252 112.1L133.253 111.5L132.953 111.5L132.952 112.1L133.252 112.1ZM133.253 110.9L133.254 110.3L132.954 110.3L132.953 110.9L133.253 110.9ZM133.254 109.7L133.255 109.1L132.955 109.1L132.954 109.7L133.254 109.7ZM133.255 108.5L133.256 107.9L132.956 107.9L132.955 108.5L133.255 108.5ZM133.256 107.3L133.257 106.7L132.957 106.7L132.956 107.3L133.256 107.3ZM133.257 106.1L133.258 105.5L132.958 105.5L132.957 106.1L133.257 106.1ZM133.258 104.9L133.259 104.3L132.959 104.3L132.958 104.9L133.258 104.9ZM133.259 103.7L133.26 103.1L132.96 103.1L132.959 103.7L133.259 103.7ZM133.261 102.5L133.261 101.9L132.961 101.9L132.961 102.5L133.261 102.5ZM133.262 101.3L133.262 100.7L132.962 100.7L132.962 101.3L133.262 101.3ZM133.263 100.1L133.263 99.5004L132.963 99.5001L132.963 100.1L133.263 100.1ZM133.264 98.9003L133.264 98.3003L132.964 98.3001L132.964 98.9001L133.264 98.9003ZM133.265 97.7003L133.265 97.1003L132.965 97.1001L132.965 97.7001L133.265 97.7003ZM133.266 96.5003L133.266 95.9003L132.966 95.9001L132.966 96.5001L133.266 96.5003ZM133.267 95.3003L133.267 94.7003L132.967 94.7L132.967 95.3L133.267 95.3003ZM133.268 94.1003L133.269 93.5003L132.969 93.5L132.968 94.1L133.268 94.1003ZM133.269 92.9003L133.27 92.3003L132.97 92.3L132.969 92.9L133.269 92.9003ZM133.27 91.7003L133.271 91.1003L132.971 91.1L132.97 91.7L133.27 91.7003ZM133.271 90.5003L133.272 89.9003L132.972 89.9L132.971 90.5L133.271 90.5003ZM133.272 89.3003L133.273 88.7002L132.973 88.7L132.972 89.3L133.272 89.3003ZM133.273 88.1002L133.274 87.5002L132.974 87.5L132.973 88.1L133.273 88.1002ZM133.274 86.9002L133.275 86.3002L132.975 86.3L132.974 86.9L133.274 86.9002ZM133.275 85.7002L133.276 85.1002L132.976 85.0999L132.975 85.6999L133.275 85.7002ZM133.276 84.5002L133.277 83.9002L132.977 83.8999L132.976 84.4999L133.276 84.5002ZM133.278 83.3002L133.278 82.7002L132.978 82.6999L132.978 83.2999L133.278 83.3002ZM133.279 82.1002L133.279 81.5002L132.979 81.4999L132.979 82.0999L133.279 82.1002ZM133.28 80.9002L133.28 80.3002L132.98 80.2999L132.98 80.8999L133.28 80.9002ZM133.281 79.7002L133.281 79.1002L132.981 79.0999L132.981 79.6999L133.281 79.7002ZM133.282 78.5002L133.282 77.9001L132.982 77.8999L132.982 78.4999L133.282 78.5002ZM133.283 77.3001L133.283 77.0001L132.983 76.9999L132.983 77.2999L133.283 77.3001Z" fill="white"/>
<path d="M405.283 75.0001C405.283 74.9173 405.216 74.8501 405.133 74.85C405.05 74.8499 404.983 74.917 404.983 74.9999L405.283 75.0001ZM405.15 225L405.15 224.7L404.85 224.7L404.85 225L405.15 225ZM405.151 224.1L405.151 223.5L404.851 223.5L404.851 224.1L405.151 224.1ZM405.152 222.9L405.152 222.3L404.852 222.3L404.852 222.9L405.152 222.9ZM405.153 221.7L405.153 221.1L404.853 221.1L404.853 221.7L405.153 221.7ZM405.154 220.5L405.155 219.9L404.855 219.9L404.854 220.5L405.154 220.5ZM405.155 219.3L405.156 218.7L404.856 218.7L404.855 219.3L405.155 219.3ZM405.156 218.1L405.157 217.5L404.857 217.5L404.856 218.1L405.156 218.1ZM405.157 216.9L405.158 216.3L404.858 216.3L404.857 216.9L405.157 216.9ZM405.158 215.7L405.159 215.1L404.859 215.1L404.858 215.7L405.158 215.7ZM405.159 214.5L405.16 213.9L404.86 213.9L404.859 214.5L405.159 214.5ZM405.16 213.3L405.161 212.7L404.861 212.7L404.86 213.3L405.16 213.3ZM405.161 212.1L405.162 211.5L404.862 211.5L404.861 212.1L405.161 212.1ZM405.163 210.9L405.163 210.3L404.863 210.3L404.863 210.9L405.163 210.9ZM405.164 209.7L405.164 209.1L404.864 209.1L404.864 209.7L405.164 209.7ZM405.165 208.5L405.165 207.9L404.865 207.9L404.865 208.5L405.165 208.5ZM405.166 207.3L405.166 206.7L404.866 206.7L404.866 207.3L405.166 207.3ZM405.167 206.1L405.167 205.5L404.867 205.5L404.867 206.1L405.167 206.1ZM405.168 204.9L405.168 204.3L404.868 204.3L404.868 204.9L405.168 204.9ZM405.169 203.7L405.169 203.1L404.869 203.1L404.869 203.7L405.169 203.7ZM405.17 202.5L405.171 201.9L404.871 201.9L404.87 202.5L405.17 202.5ZM405.171 201.3L405.172 200.7L404.872 200.7L404.871 201.3L405.171 201.3ZM405.172 200.1L405.173 199.5L404.873 199.5L404.872 200.1L405.172 200.1ZM405.173 198.9L405.174 198.3L404.874 198.3L404.873 198.9L405.173 198.9ZM405.174 197.7L405.175 197.1L404.875 197.1L404.874 197.7L405.174 197.7ZM405.175 196.5L405.176 195.9L404.876 195.9L404.875 196.5L405.175 196.5ZM405.176 195.3L405.177 194.7L404.877 194.7L404.876 195.3L405.176 195.3ZM405.177 194.1L405.178 193.5L404.878 193.5L404.877 194.1L405.177 194.1ZM405.178 192.9L405.179 192.3L404.879 192.3L404.878 192.9L405.178 192.9ZM405.18 191.7L405.18 191.1L404.88 191.1L404.88 191.7L405.18 191.7ZM405.181 190.5L405.181 189.9L404.881 189.9L404.881 190.5L405.181 190.5ZM405.182 189.3L405.182 188.7L404.882 188.7L404.882 189.3L405.182 189.3ZM405.183 188.1L405.183 187.5L404.883 187.5L404.883 188.1L405.183 188.1ZM405.184 186.9L405.184 186.3L404.884 186.3L404.884 186.9L405.184 186.9ZM405.185 185.7L405.185 185.1L404.885 185.1L404.885 185.7L405.185 185.7ZM405.186 184.5L405.186 183.9L404.886 183.9L404.886 184.5L405.186 184.5ZM405.187 183.3L405.188 182.7L404.888 182.7L404.887 183.3L405.187 183.3ZM405.188 182.1L405.189 181.5L404.889 181.5L404.888 182.1L405.188 182.1ZM405.189 180.9L405.19 180.3L404.89 180.3L404.889 180.9L405.189 180.9ZM405.19 179.7L405.191 179.1L404.891 179.1L404.89 179.7L405.19 179.7ZM405.191 178.5L405.192 177.9L404.892 177.9L404.891 178.5L405.191 178.5ZM405.192 177.3L405.193 176.7L404.893 176.7L404.892 177.3L405.192 177.3ZM405.193 176.1L405.194 175.5L404.894 175.5L404.893 176.1L405.193 176.1ZM405.194 174.9L405.195 174.3L404.895 174.3L404.894 174.9L405.194 174.9ZM405.196 173.7L405.196 173.1L404.896 173.1L404.896 173.7L405.196 173.7ZM405.197 172.5L405.197 171.9L404.897 171.9L404.897 172.5L405.197 172.5ZM405.198 171.3L405.198 170.7L404.898 170.7L404.898 171.3L405.198 171.3ZM405.199 170.1L405.199 169.5L404.899 169.5L404.899 170.1L405.199 170.1ZM405.2 168.9L405.2 168.3L404.9 168.3L404.9 168.9L405.2 168.9ZM405.201 167.7L405.201 167.1L404.901 167.1L404.901 167.7L405.201 167.7ZM405.202 166.5L405.202 165.9L404.902 165.9L404.902 166.5L405.202 166.5ZM405.203 165.3L405.204 164.7L404.904 164.7L404.903 165.3L405.203 165.3ZM405.204 164.1L405.205 163.5L404.905 163.5L404.904 164.1L405.204 164.1ZM405.205 162.9L405.206 162.3L404.906 162.3L404.905 162.9L405.205 162.9ZM405.206 161.7L405.207 161.1L404.907 161.1L404.906 161.7L405.206 161.7ZM405.207 160.5L405.208 159.9L404.908 159.9L404.907 160.5L405.207 160.5ZM405.208 159.3L405.209 158.7L404.909 158.7L404.908 159.3L405.208 159.3ZM405.209 158.1L405.21 157.5L404.91 157.5L404.909 158.1L405.209 158.1ZM405.21 156.9L405.211 156.3L404.911 156.3L404.91 156.9L405.21 156.9ZM405.212 155.7L405.212 155.1L404.912 155.1L404.912 155.7L405.212 155.7ZM405.213 154.5L405.213 153.9L404.913 153.9L404.913 154.5L405.213 154.5ZM405.214 153.3L405.214 152.7L404.914 152.7L404.914 153.3L405.214 153.3ZM405.215 152.1L405.215 151.5L404.915 151.5L404.915 152.1L405.215 152.1ZM405.216 150.9L405.216 150.3L404.916 150.3L404.916 150.9L405.216 150.9ZM405.217 149.7L405.217 149.1L404.917 149.1L404.917 149.7L405.217 149.7ZM405.218 148.5L405.218 147.9L404.918 147.9L404.918 148.5L405.218 148.5ZM405.219 147.3L405.22 146.7L404.92 146.7L404.919 147.3L405.219 147.3ZM405.22 146.1L405.221 145.5L404.921 145.5L404.92 146.1L405.22 146.1ZM405.221 144.9L405.222 144.3L404.922 144.3L404.921 144.9L405.221 144.9ZM405.222 143.7L405.223 143.1L404.923 143.1L404.922 143.7L405.222 143.7ZM405.223 142.5L405.224 141.9L404.924 141.9L404.923 142.5L405.223 142.5ZM405.224 141.3L405.225 140.7L404.925 140.7L404.924 141.3L405.224 141.3ZM405.225 140.1L405.226 139.5L404.926 139.5L404.925 140.1L405.225 140.1ZM405.226 138.9L405.227 138.3L404.927 138.3L404.926 138.9L405.226 138.9ZM405.227 137.7L405.228 137.1L404.928 137.1L404.927 137.7L405.227 137.7ZM405.229 136.5L405.229 135.9L404.929 135.9L404.929 136.5L405.229 136.5ZM405.23 135.3L405.23 134.7L404.93 134.7L404.93 135.3L405.23 135.3ZM405.231 134.1L405.231 133.5L404.931 133.5L404.931 134.1L405.231 134.1ZM405.232 132.9L405.232 132.3L404.932 132.3L404.932 132.9L405.232 132.9ZM405.233 131.7L405.233 131.1L404.933 131.1L404.933 131.7L405.233 131.7ZM405.234 130.5L405.234 129.9L404.934 129.9L404.934 130.5L405.234 130.5ZM405.235 129.3L405.235 128.7L404.935 128.7L404.935 129.3L405.235 129.3ZM405.236 128.1L405.237 127.5L404.937 127.5L404.936 128.1L405.236 128.1ZM405.237 126.9L405.238 126.3L404.938 126.3L404.937 126.9L405.237 126.9ZM405.238 125.7L405.239 125.1L404.939 125.1L404.938 125.7L405.238 125.7ZM405.239 124.5L405.24 123.9L404.94 123.9L404.939 124.5L405.239 124.5ZM405.24 123.3L405.241 122.7L404.941 122.7L404.94 123.3L405.24 123.3ZM405.241 122.1L405.242 121.5L404.942 121.5L404.941 122.1L405.241 122.1ZM405.242 120.9L405.243 120.3L404.943 120.3L404.942 120.9L405.242 120.9ZM405.243 119.7L405.244 119.1L404.944 119.1L404.943 119.7L405.243 119.7ZM405.245 118.5L405.245 117.9L404.945 117.9L404.945 118.5L405.245 118.5ZM405.246 117.3L405.246 116.7L404.946 116.7L404.946 117.3L405.246 117.3ZM405.247 116.1L405.247 115.5L404.947 115.5L404.947 116.1L405.247 116.1ZM405.248 114.9L405.248 114.3L404.948 114.3L404.948 114.9L405.248 114.9ZM405.249 113.7L405.249 113.1L404.949 113.1L404.949 113.7L405.249 113.7ZM405.25 112.5L405.25 111.9L404.95 111.9L404.95 112.5L405.25 112.5ZM405.251 111.3L405.251 110.7L404.951 110.7L404.951 111.3L405.251 111.3ZM405.252 110.1L405.253 109.5L404.953 109.5L404.952 110.1L405.252 110.1ZM405.253 108.9L405.254 108.3L404.954 108.3L404.953 108.9L405.253 108.9ZM405.254 107.7L405.255 107.1L404.955 107.1L404.954 107.7L405.254 107.7ZM405.255 106.5L405.256 105.9L404.956 105.9L404.955 106.5L405.255 106.5ZM405.256 105.3L405.257 104.7L404.957 104.7L404.956 105.3L405.256 105.3ZM405.257 104.1L405.258 103.5L404.958 103.5L404.957 104.1L405.257 104.1ZM405.258 102.9L405.259 102.3L404.959 102.3L404.958 102.9L405.258 102.9ZM405.259 101.7L405.26 101.1L404.96 101.1L404.959 101.7L405.259 101.7ZM405.261 100.5L405.261 99.9003L404.961 99.9001L404.961 100.5L405.261 100.5ZM405.262 99.3003L405.262 98.7003L404.962 98.7001L404.962 99.3001L405.262 99.3003ZM405.263 98.1004L405.263 97.5004L404.963 97.5001L404.963 98.1001L405.263 98.1004ZM405.264 96.9003L405.264 96.3003L404.964 96.3001L404.964 96.9001L405.264 96.9003ZM405.265 95.7003L405.265 95.1003L404.965 95.1001L404.965 95.7001L405.265 95.7003ZM405.266 94.5003L405.266 93.9003L404.966 93.9001L404.966 94.5001L405.266 94.5003ZM405.267 93.3003L405.267 92.7003L404.967 92.7L404.967 93.3L405.267 93.3003ZM405.268 92.1003L405.269 91.5003L404.969 91.5L404.968 92.1L405.268 92.1003ZM405.269 90.9003L405.27 90.3003L404.97 90.3L404.969 90.9L405.269 90.9003ZM405.27 89.7003L405.271 89.1003L404.971 89.1L404.97 89.7L405.27 89.7003ZM405.271 88.5003L405.272 87.9003L404.972 87.9L404.971 88.5L405.271 88.5003ZM405.272 87.3003L405.273 86.7002L404.973 86.7L404.972 87.3L405.272 87.3003ZM405.273 86.1002L405.274 85.5002L404.974 85.5L404.973 86.1L405.273 86.1002ZM405.274 84.9002L405.275 84.3002L404.975 84.3L404.974 84.9L405.274 84.9002ZM405.275 83.7002L405.276 83.1002L404.976 83.0999L404.975 83.6999L405.275 83.7002ZM405.276 82.5002L405.277 81.9002L404.977 81.8999L404.976 82.4999L405.276 82.5002ZM405.278 81.3002L405.278 80.7002L404.978 80.6999L404.978 81.2999L405.278 81.3002ZM405.279 80.1002L405.279 79.5002L404.979 79.4999L404.979 80.0999L405.279 80.1002ZM405.28 78.9002L405.28 78.3002L404.98 78.2999L404.98 78.8999L405.28 78.9002ZM405.281 77.7002L405.281 77.1002L404.981 77.0999L404.981 77.6999L405.281 77.7002ZM405.282 76.5002L405.282 75.9001L404.982 75.8999L404.982 76.4999L405.282 76.5002ZM405.283 75.3001L405.283 75.0001L404.983 74.9999L404.983 75.2999L405.283 75.3001Z" fill="white"/>
<g filter="url(#filter0_d_14_32)">
<path d="M0 232H142C158.569 232 172 245.431 172 262V336H0V232Z" fill="#D9D9D9" fill-opacity="0.12" shape-rendering="crispEdges"/>
</g>
<path d="M42.125 278H36.2109V262H42.1172C43.7474 262 45.151 262.32 46.3281 262.961C47.5104 263.596 48.4219 264.513 49.0625 265.711C49.7031 266.904 50.0234 268.331 50.0234 269.992C50.0234 271.659 49.7031 273.091 49.0625 274.289C48.4271 275.487 47.5182 276.406 46.3359 277.047C45.1536 277.682 43.75 278 42.125 278ZM40.0781 274.703H41.9766C42.8724 274.703 43.6302 274.552 44.25 274.25C44.875 273.943 45.3464 273.445 45.6641 272.758C45.987 272.065 46.1484 271.143 46.1484 269.992C46.1484 268.841 45.987 267.924 45.6641 267.242C45.3411 266.555 44.8646 266.06 44.2344 265.758C43.6094 265.451 42.8385 265.297 41.9219 265.297H40.0781V274.703ZM52.2813 278V266H55.9922V268.187H56.1172C56.3359 267.396 56.6927 266.807 57.1875 266.422C57.6823 266.031 58.2578 265.836 58.9141 265.836C59.0911 265.836 59.2734 265.849 59.4609 265.875C59.6484 265.896 59.8229 265.93 59.9844 265.977V269.297C59.8021 269.234 59.5625 269.185 59.2656 269.148C58.974 269.112 58.7135 269.094 58.4844 269.094C58.0313 269.094 57.6224 269.195 57.2578 269.398C56.8984 269.596 56.6146 269.875 56.4063 270.234C56.2031 270.589 56.1016 271.005 56.1016 271.484V278H52.2813ZM64.4727 278.203C63.707 278.203 63.0273 278.076 62.4336 277.82C61.8451 277.56 61.3789 277.169 61.0352 276.648C60.6966 276.122 60.5273 275.464 60.5273 274.672C60.5273 274.005 60.6445 273.443 60.8789 272.984C61.1133 272.526 61.4362 272.154 61.8477 271.867C62.2591 271.581 62.7331 271.365 63.2695 271.219C63.806 271.068 64.3789 270.966 64.9883 270.914C65.6706 270.852 66.2201 270.786 66.6367 270.719C67.0534 270.646 67.3555 270.544 67.543 270.414C67.7357 270.279 67.832 270.089 67.832 269.844V269.805C67.832 269.404 67.694 269.094 67.418 268.875C67.1419 268.656 66.7695 268.547 66.3008 268.547C65.7956 268.547 65.3893 268.656 65.082 268.875C64.7747 269.094 64.5794 269.396 64.4961 269.781L60.9727 269.656C61.0768 268.927 61.3451 268.276 61.7773 267.703C62.2148 267.125 62.8138 266.672 63.5742 266.344C64.3398 266.01 65.2591 265.844 66.332 265.844C67.0977 265.844 67.8034 265.935 68.4492 266.117C69.0951 266.294 69.6576 266.555 70.1367 266.898C70.6159 267.237 70.9857 267.654 71.2461 268.148C71.5117 268.643 71.6445 269.208 71.6445 269.844V278H68.0508V276.328H67.957C67.7435 276.734 67.4701 277.078 67.1367 277.359C66.8086 277.641 66.4206 277.852 65.9727 277.992C65.5299 278.133 65.0299 278.203 64.4727 278.203ZM65.6523 275.703C66.0638 275.703 66.4336 275.62 66.7617 275.453C67.0951 275.286 67.3607 275.057 67.5586 274.766C67.7565 274.469 67.8555 274.125 67.8555 273.734V272.594C67.7461 272.651 67.6133 272.703 67.457 272.75C67.306 272.797 67.1393 272.841 66.957 272.883C66.7747 272.924 66.5872 272.961 66.3945 272.992C66.2018 273.023 66.0169 273.052 65.8398 273.078C65.4805 273.135 65.1732 273.224 64.918 273.344C64.668 273.464 64.4753 273.62 64.3398 273.812C64.2096 274 64.1445 274.224 64.1445 274.484C64.1445 274.88 64.2852 275.182 64.5664 275.391C64.8529 275.599 65.2148 275.703 65.6523 275.703ZM79.5742 282.75C78.4336 282.75 77.457 282.591 76.6445 282.273C75.832 281.956 75.194 281.521 74.7305 280.969C74.2669 280.417 73.9883 279.792 73.8945 279.094L77.5117 278.891C77.5794 279.135 77.7044 279.349 77.8867 279.531C78.0742 279.714 78.3164 279.854 78.6133 279.953C78.9154 280.052 79.2695 280.102 79.6758 280.102C80.3164 280.102 80.8451 279.945 81.2617 279.633C81.6836 279.326 81.8945 278.786 81.8945 278.016V275.906H81.7617C81.6107 276.276 81.3815 276.607 81.0742 276.898C80.7669 277.19 80.3841 277.419 79.9258 277.586C79.4727 277.753 78.9518 277.836 78.3633 277.836C77.4883 277.836 76.6862 277.633 75.957 277.227C75.2331 276.815 74.6523 276.18 74.2148 275.32C73.7826 274.456 73.5664 273.344 73.5664 271.984C73.5664 270.583 73.7904 269.43 74.2383 268.523C74.6862 267.612 75.2721 266.937 75.9961 266.5C76.7253 266.062 77.5091 265.844 78.3477 265.844C78.9779 265.844 79.5169 265.953 79.9648 266.172C80.418 266.385 80.7904 266.661 81.082 267C81.3737 267.339 81.5951 267.69 81.7461 268.055H81.8555V266H85.6602V278.047C85.6602 279.063 85.4049 279.919 84.8945 280.617C84.3841 281.315 83.6706 281.844 82.7539 282.203C81.8372 282.568 80.7773 282.75 79.5742 282.75ZM79.6914 275.055C80.1549 275.055 80.5508 274.932 80.8789 274.687C81.207 274.443 81.4596 274.091 81.6367 273.633C81.8138 273.174 81.9023 272.625 81.9023 271.984C81.9023 271.333 81.8138 270.773 81.6367 270.305C81.4648 269.831 81.2122 269.466 80.8789 269.211C80.5508 268.956 80.1549 268.828 79.6914 268.828C79.2174 268.828 78.8164 268.958 78.4883 269.219C78.1602 269.479 77.9102 269.846 77.7383 270.32C77.5716 270.789 77.4883 271.344 77.4883 271.984C77.4883 272.625 77.5742 273.174 77.7461 273.633C77.918 274.091 78.1654 274.443 78.4883 274.687C78.8164 274.932 79.2174 275.055 79.6914 275.055ZM35.6875 292.141V289H49.2109V292.141H44.3594V305H40.5469V292.141H35.6875ZM49.8535 305V293H53.5645V295.187H53.6895C53.9082 294.396 54.265 293.807 54.7598 293.422C55.2546 293.031 55.8301 292.836 56.4863 292.836C56.6634 292.836 56.8457 292.849 57.0332 292.875C57.2207 292.896 57.3952 292.93 57.5566 292.977V296.297C57.3743 296.234 57.1348 296.185 56.8379 296.148C56.5462 296.112 56.2858 296.094 56.0566 296.094C55.6035 296.094 55.1947 296.195 54.8301 296.398C54.4707 296.596 54.1868 296.875 53.9785 297.234C53.7754 297.589 53.6738 298.005 53.6738 298.484V305H49.8535ZM62.0449 305.203C61.2793 305.203 60.5996 305.076 60.0059 304.82C59.4173 304.56 58.9512 304.169 58.6074 303.648C58.2689 303.122 58.0996 302.464 58.0996 301.672C58.0996 301.005 58.2168 300.443 58.4512 299.984C58.6855 299.526 59.0085 299.154 59.4199 298.867C59.8314 298.581 60.3053 298.365 60.8418 298.219C61.3783 298.068 61.9512 297.966 62.5605 297.914C63.2428 297.852 63.7923 297.786 64.209 297.719C64.6257 297.646 64.9277 297.544 65.1152 297.414C65.3079 297.279 65.4043 297.089 65.4043 296.844V296.805C65.4043 296.404 65.2663 296.094 64.9902 295.875C64.7142 295.656 64.3418 295.547 63.873 295.547C63.3678 295.547 62.9616 295.656 62.6543 295.875C62.347 296.094 62.1517 296.396 62.0684 296.781L58.5449 296.656C58.6491 295.927 58.9173 295.276 59.3496 294.703C59.7871 294.125 60.3861 293.672 61.1465 293.344C61.9121 293.01 62.8314 292.844 63.9043 292.844C64.6699 292.844 65.3757 292.935 66.0215 293.117C66.6673 293.294 67.2298 293.555 67.709 293.898C68.1882 294.237 68.5579 294.654 68.8184 295.148C69.084 295.643 69.2168 296.208 69.2168 296.844V305H65.623V303.328H65.5293C65.3158 303.734 65.0423 304.078 64.709 304.359C64.3809 304.641 63.9928 304.852 63.5449 304.992C63.1022 305.133 62.6022 305.203 62.0449 305.203ZM63.2246 302.703C63.6361 302.703 64.0059 302.62 64.334 302.453C64.6673 302.286 64.9329 302.057 65.1309 301.766C65.3288 301.469 65.4277 301.125 65.4277 300.734V299.594C65.3184 299.651 65.1855 299.703 65.0293 299.75C64.8783 299.797 64.7116 299.841 64.5293 299.883C64.347 299.924 64.1595 299.961 63.9668 299.992C63.7741 300.023 63.5892 300.052 63.4121 300.078C63.0527 300.135 62.7454 300.224 62.4902 300.344C62.2402 300.464 62.0475 300.62 61.9121 300.812C61.7819 301 61.7168 301.224 61.7168 301.484C61.7168 301.88 61.8574 302.182 62.1387 302.391C62.4251 302.599 62.7871 302.703 63.2246 302.703ZM75.373 298.156V305H71.5527V293H75.1855V295.203H75.3184C75.584 294.469 76.0371 293.893 76.6777 293.477C77.3184 293.055 78.0814 292.844 78.9668 292.844C79.8105 292.844 80.5423 293.034 81.1621 293.414C81.7871 293.789 82.2715 294.315 82.6152 294.992C82.9642 295.664 83.1361 296.451 83.1309 297.352V305H79.3105V298.102C79.3158 297.435 79.1465 296.914 78.8027 296.539C78.4642 296.164 77.9928 295.977 77.3887 295.977C76.9876 295.977 76.6335 296.065 76.3262 296.242C76.0241 296.414 75.7897 296.661 75.623 296.984C75.4616 297.307 75.3783 297.698 75.373 298.156ZM95.9727 296.664L92.4648 296.758C92.4284 296.508 92.3294 296.286 92.168 296.094C92.0065 295.896 91.7956 295.742 91.5352 295.633C91.2799 295.518 90.9831 295.461 90.6445 295.461C90.2018 295.461 89.8242 295.549 89.5117 295.727C89.2044 295.904 89.0534 296.143 89.0586 296.445C89.0534 296.68 89.1471 296.883 89.3398 297.055C89.5378 297.227 89.8893 297.365 90.3945 297.469L92.707 297.906C93.9049 298.135 94.7956 298.516 95.3789 299.047C95.9674 299.578 96.2643 300.281 96.2695 301.156C96.2643 301.979 96.0195 302.695 95.5352 303.305C95.056 303.914 94.3997 304.388 93.5664 304.727C92.7331 305.06 91.7799 305.227 90.707 305.227C88.9935 305.227 87.6419 304.875 86.6523 304.172C85.668 303.464 85.1055 302.516 84.9648 301.328L88.7383 301.234C88.8216 301.672 89.0378 302.005 89.3867 302.234C89.7357 302.464 90.181 302.578 90.7227 302.578C91.2122 302.578 91.6107 302.487 91.918 302.305C92.2253 302.122 92.3815 301.88 92.3867 301.578C92.3815 301.307 92.2617 301.091 92.0273 300.93C91.793 300.763 91.4258 300.633 90.9258 300.539L88.832 300.141C87.6289 299.922 86.7331 299.518 86.1445 298.93C85.556 298.336 85.2643 297.581 85.2695 296.664C85.2643 295.862 85.4779 295.177 85.9102 294.609C86.3424 294.036 86.957 293.599 87.7539 293.297C88.5508 292.995 89.4909 292.844 90.5742 292.844C92.1992 292.844 93.4805 293.185 94.418 293.867C95.3555 294.544 95.8737 295.477 95.9727 296.664ZM104.971 293V295.812H97.252V293H104.971ZM98.8613 305V292.391C98.8613 291.464 99.0358 290.695 99.3848 290.086C99.7337 289.471 100.218 289.013 100.838 288.711C101.458 288.404 102.174 288.25 102.986 288.25C103.518 288.25 104.018 288.292 104.486 288.375C104.96 288.453 105.312 288.523 105.541 288.586L104.932 291.383C104.791 291.336 104.619 291.297 104.416 291.266C104.218 291.234 104.031 291.219 103.854 291.219C103.406 291.219 103.098 291.318 102.932 291.516C102.765 291.714 102.682 291.984 102.682 292.328V305H98.8613ZM112.023 305.227C110.763 305.227 109.68 304.969 108.773 304.453C107.872 303.932 107.177 303.208 106.687 302.281C106.203 301.349 105.961 300.268 105.961 299.039C105.961 297.805 106.203 296.724 106.687 295.797C107.177 294.865 107.872 294.141 108.773 293.625C109.68 293.104 110.763 292.844 112.023 292.844C113.284 292.844 114.365 293.104 115.266 293.625C116.172 294.141 116.867 294.865 117.352 295.797C117.841 296.724 118.086 297.805 118.086 299.039C118.086 300.268 117.841 301.349 117.352 302.281C116.867 303.208 116.172 303.932 115.266 304.453C114.365 304.969 113.284 305.227 112.023 305.227ZM112.047 302.344C112.505 302.344 112.893 302.203 113.211 301.922C113.529 301.641 113.771 301.25 113.938 300.75C114.109 300.25 114.195 299.672 114.195 299.016C114.195 298.349 114.109 297.766 113.938 297.266C113.771 296.766 113.529 296.375 113.211 296.094C112.893 295.812 112.505 295.672 112.047 295.672C111.573 295.672 111.172 295.812 110.844 296.094C110.521 296.375 110.273 296.766 110.102 297.266C109.935 297.766 109.852 298.349 109.852 299.016C109.852 299.672 109.935 300.25 110.102 300.75C110.273 301.25 110.521 301.641 110.844 301.922C111.172 302.203 111.573 302.344 112.047 302.344ZM120.043 305V293H123.754V295.187H123.879C124.098 294.396 124.454 293.807 124.949 293.422C125.444 293.031 126.02 292.836 126.676 292.836C126.853 292.836 127.035 292.849 127.223 292.875C127.41 292.896 127.585 292.93 127.746 292.977V296.297C127.564 296.234 127.324 296.185 127.027 296.148C126.736 296.112 126.475 296.094 126.246 296.094C125.793 296.094 125.384 296.195 125.02 296.398C124.66 296.596 124.376 296.875 124.168 297.234C123.965 297.589 123.863 298.005 123.863 298.484V305H120.043ZM129.303 305V293H132.936V295.203H133.068C133.318 294.474 133.74 293.898 134.334 293.477C134.928 293.055 135.636 292.844 136.459 292.844C137.292 292.844 138.006 293.057 138.6 293.484C139.193 293.911 139.571 294.484 139.732 295.203H139.857C140.081 294.49 140.519 293.919 141.17 293.492C141.821 293.06 142.589 292.844 143.475 292.844C144.61 292.844 145.532 293.208 146.24 293.937C146.949 294.661 147.303 295.656 147.303 296.922V305H143.482V297.797C143.482 297.198 143.329 296.742 143.021 296.43C142.714 296.112 142.316 295.953 141.826 295.953C141.3 295.953 140.886 296.125 140.584 296.469C140.287 296.807 140.139 297.263 140.139 297.836V305H136.467V297.758C136.467 297.201 136.316 296.76 136.014 296.437C135.712 296.115 135.313 295.953 134.818 295.953C134.485 295.953 134.191 296.034 133.936 296.195C133.68 296.352 133.48 296.576 133.334 296.867C133.193 297.159 133.123 297.503 133.123 297.898V305H129.303Z" fill="white"/>
<rect x="239" y="110" width="80" height="80" rx="20" fill="#FBFBFB"/>
<path d="M273.15 149.89C273.15 149.317 273.037 148.857 272.81 148.51C272.59 148.157 272.293 147.9 271.92 147.74C271.553 147.573 271.143 147.49 270.69 147.49C270.483 147.49 270.3 147.497 270.14 147.51C269.98 147.523 269.833 147.543 269.7 147.57V152.33C269.86 152.37 270.03 152.397 270.21 152.41C270.397 152.423 270.587 152.43 270.78 152.43C271.56 152.43 272.15 152.217 272.55 151.79C272.95 151.357 273.15 150.723 273.15 149.89ZM273.98 149.89C273.98 150.617 273.847 151.22 273.58 151.7C273.32 152.173 272.95 152.527 272.47 152.76C271.997 152.993 271.437 153.11 270.79 153.11C270.583 153.11 270.343 153.1 270.07 153.08C269.803 153.067 269.55 153.023 269.31 152.95C269.03 152.863 268.89 152.71 268.89 152.49V147.35C268.89 147.243 268.917 147.163 268.97 147.11C269.03 147.05 269.113 147.003 269.22 146.97C269.427 146.903 269.66 146.86 269.92 146.84C270.18 146.82 270.44 146.81 270.7 146.81C271.353 146.81 271.923 146.927 272.41 147.16C272.903 147.387 273.287 147.727 273.56 148.18C273.84 148.633 273.98 149.203 273.98 149.89ZM276.073 149.24V150.82H275.273V149.3C275.273 149.147 275.3 149.027 275.353 148.94C275.413 148.847 275.51 148.757 275.643 148.67C275.817 148.557 276.053 148.46 276.353 148.38C276.653 148.293 276.987 148.25 277.353 148.25C277.887 148.25 278.153 148.383 278.153 148.65C278.153 148.717 278.143 148.78 278.123 148.84C278.103 148.893 278.077 148.94 278.043 148.98C277.977 148.967 277.89 148.953 277.783 148.94C277.677 148.927 277.57 148.92 277.463 148.92C277.157 148.92 276.887 148.953 276.653 149.02C276.42 149.08 276.227 149.153 276.073 149.24ZM275.273 150.36L276.073 150.48V152.98C276.04 152.993 275.99 153.007 275.923 153.02C275.857 153.04 275.783 153.05 275.703 153.05C275.563 153.05 275.457 153.023 275.383 152.97C275.31 152.91 275.273 152.817 275.273 152.69V150.36ZM280.693 153.14C280.066 153.14 279.58 153.017 279.233 152.77C278.893 152.523 278.723 152.167 278.723 151.7C278.723 151.267 278.866 150.937 279.153 150.71C279.446 150.477 279.85 150.337 280.363 150.29L281.783 150.15V149.87C281.783 149.537 281.683 149.293 281.483 149.14C281.283 148.987 281.013 148.91 280.673 148.91C280.4 148.91 280.136 148.95 279.883 149.03C279.636 149.11 279.416 149.2 279.223 149.3C279.17 149.253 279.12 149.2 279.073 149.14C279.033 149.073 279.013 149.007 279.013 148.94C279.013 148.767 279.11 148.633 279.303 148.54C279.483 148.447 279.69 148.377 279.923 148.33C280.163 148.277 280.416 148.25 280.683 148.25C281.263 148.25 281.723 148.38 282.063 148.64C282.403 148.9 282.573 149.31 282.573 149.87V152.24C282.573 152.387 282.543 152.5 282.483 152.58C282.43 152.653 282.346 152.723 282.233 152.79C282.073 152.877 281.86 152.957 281.593 153.03C281.326 153.103 281.026 153.14 280.693 153.14ZM280.693 152.48C280.973 152.48 281.203 152.453 281.383 152.4C281.57 152.34 281.703 152.283 281.783 152.23V150.78L280.543 150.91C280.196 150.937 279.94 151.013 279.773 151.14C279.606 151.267 279.523 151.45 279.523 151.69C279.523 151.937 279.62 152.13 279.813 152.27C280.013 152.41 280.306 152.48 280.693 152.48ZM285.953 152.86C285.567 152.86 285.21 152.787 284.883 152.64C284.557 152.487 284.293 152.24 284.093 151.9C283.893 151.56 283.793 151.11 283.793 150.55C283.793 150.043 283.89 149.62 284.083 149.28C284.283 148.94 284.557 148.683 284.903 148.51C285.25 148.337 285.647 148.25 286.093 148.25C286.4 148.25 286.68 148.29 286.933 148.37C287.193 148.443 287.41 148.537 287.583 148.65C287.683 148.717 287.763 148.793 287.823 148.88C287.89 148.96 287.923 149.06 287.923 149.18V152.27H287.123V149.19C287.01 149.117 286.867 149.053 286.693 149C286.527 148.94 286.327 148.91 286.093 148.91C285.647 148.91 285.287 149.047 285.013 149.32C284.74 149.593 284.603 150 284.603 150.54C284.603 151.14 284.74 151.567 285.013 151.82C285.293 152.073 285.637 152.2 286.043 152.2C286.337 152.2 286.573 152.15 286.753 152.05C286.933 151.95 287.077 151.84 287.183 151.72L287.223 152.43C287.123 152.537 286.963 152.637 286.743 152.73C286.53 152.817 286.267 152.86 285.953 152.86ZM287.123 153.15V152.1H287.923V153.2C287.923 153.64 287.827 153.993 287.633 154.26C287.447 154.527 287.187 154.72 286.853 154.84C286.527 154.96 286.157 155.02 285.743 155.02C285.41 155.02 285.123 154.983 284.883 154.91C284.643 154.837 284.48 154.777 284.393 154.73C284.193 154.617 284.093 154.473 284.093 154.3C284.093 154.207 284.113 154.127 284.153 154.06C284.2 154 284.257 153.953 284.323 153.92C284.463 154.027 284.66 154.123 284.913 154.21C285.173 154.303 285.45 154.35 285.743 154.35C286.19 154.35 286.53 154.253 286.763 154.06C287.003 153.867 287.123 153.563 287.123 153.15Z" fill="black"/>
<rect x="375" y="120" width="60" height="60" rx="20" fill="#FBFBFB"/>
<path d="M83 120C83 108.954 91.9543 100 103 100H163C174.046 100 183 108.954 183 120V180C183 191.046 174.046 200 163 200H103C91.9543 200 83 191.046 83 180V120Z" fill="#88FEE2"/>
<path d="M271.14 64.39L271.29 64.32C271.563 63.9667 271.82 63.6367 272.06 63.33C272.3 63.0233 272.547 62.6867 272.8 62.32C272.827 62.3133 272.847 62.31 272.86 62.31C272.873 62.31 272.89 62.31 272.91 62.31C273.05 62.31 273.16 62.3433 273.24 62.41C273.32 62.47 273.36 62.5533 273.36 62.66C273.36 62.7333 273.343 62.8033 273.31 62.87C273.283 62.9367 273.237 63.0133 273.17 63.1C272.943 63.38 272.71 63.6633 272.47 63.95C272.237 64.2367 272.007 64.5167 271.78 64.79L271.52 65.01C271.273 65.3367 271.02 65.6767 270.76 66.03C270.5 66.3767 270.25 66.7167 270.01 67.05C270.003 67.05 269.98 67.05 269.94 67.05C269.907 67.05 269.883 67.05 269.87 67.05C269.717 67.05 269.6 67.0167 269.52 66.95C269.447 66.8833 269.41 66.8 269.41 66.7C269.41 66.6467 269.42 66.59 269.44 66.53C269.467 66.47 269.523 66.3867 269.61 66.28C269.85 65.96 270.103 65.6467 270.37 65.34C270.637 65.0267 270.893 64.71 271.14 64.39ZM271.63 64.41L271.81 64.53C272.083 64.89 272.357 65.2467 272.63 65.6C272.91 65.9467 273.187 66.2967 273.46 66.65C273.447 66.7767 273.403 66.8767 273.33 66.95C273.257 67.0233 273.16 67.06 273.04 67.06C272.933 67.06 272.843 67.0333 272.77 66.98C272.697 66.92 272.613 66.83 272.52 66.71C272.32 66.43 272.107 66.1333 271.88 65.82C271.66 65.5067 271.45 65.2133 271.25 64.94L271.02 64.73C270.727 64.3767 270.453 64.04 270.2 63.72C269.947 63.4 269.687 63.07 269.42 62.73C269.447 62.5967 269.497 62.4933 269.57 62.42C269.643 62.3467 269.733 62.31 269.84 62.31C269.953 62.31 270.043 62.34 270.11 62.4C270.177 62.4533 270.243 62.5267 270.31 62.62C270.51 62.8867 270.72 63.18 270.94 63.5C271.16 63.8133 271.39 64.1167 271.63 64.41ZM280.136 63.37H276.406C276.386 63.33 276.37 63.2833 276.356 63.23C276.343 63.1767 276.336 63.12 276.336 63.06C276.336 62.9467 276.366 62.8633 276.426 62.81C276.493 62.75 276.58 62.72 276.686 62.72H280.426C280.44 62.76 280.453 62.8067 280.466 62.86C280.48 62.9067 280.486 62.9633 280.486 63.03C280.486 63.1367 280.456 63.22 280.396 63.28C280.336 63.34 280.25 63.37 280.136 63.37ZM280.136 65.39H276.406C276.386 65.35 276.37 65.3067 276.356 65.26C276.343 65.2067 276.336 65.1467 276.336 65.08C276.336 64.9667 276.366 64.8833 276.426 64.83C276.493 64.77 276.58 64.74 276.686 64.74H280.426C280.44 64.78 280.453 64.8267 280.466 64.88C280.48 64.9333 280.486 64.99 280.486 65.05C280.486 65.1567 280.456 65.24 280.396 65.3C280.336 65.36 280.25 65.39 280.136 65.39ZM285.914 67.13C285.447 67.13 285.034 67.0167 284.674 66.79C284.321 66.5567 284.044 66.2067 283.844 65.74C283.644 65.2667 283.544 64.6733 283.544 63.96C283.544 63.1933 283.657 62.58 283.884 62.12C284.111 61.66 284.404 61.3267 284.764 61.12C285.124 60.9067 285.507 60.8 285.914 60.8C286.327 60.8 286.714 60.9067 287.074 61.12C287.441 61.3333 287.734 61.6733 287.954 62.14C288.181 62.6 288.294 63.2067 288.294 63.96C288.294 64.6667 288.194 65.2567 287.994 65.73C287.794 66.1967 287.514 66.5467 287.154 66.78C286.801 67.0133 286.387 67.13 285.914 67.13ZM285.914 66.45C286.407 66.45 286.791 66.2367 287.064 65.81C287.337 65.3767 287.474 64.76 287.474 63.96C287.474 63.3667 287.401 62.89 287.254 62.53C287.114 62.1633 286.927 61.8967 286.694 61.73C286.461 61.5633 286.201 61.48 285.914 61.48C285.634 61.48 285.374 61.5667 285.134 61.74C284.901 61.9067 284.714 62.1733 284.574 62.54C284.434 62.9067 284.364 63.38 284.364 63.96C284.364 64.76 284.501 65.3767 284.774 65.81C285.047 66.2367 285.427 66.45 285.914 66.45Z" fill="white"/>
<path d="M267.01 44.77C267.01 45.1967 266.853 45.53 266.54 45.77C266.227 46.01 265.773 46.13 265.18 46.13C264.673 46.13 264.26 46.0533 263.94 45.9C263.62 45.74 263.46 45.5667 263.46 45.38C263.46 45.3 263.48 45.2233 263.52 45.15C263.567 45.07 263.633 45.0067 263.72 44.96C263.9 45.0867 264.11 45.2033 264.35 45.31C264.59 45.4167 264.863 45.47 265.17 45.47C265.863 45.47 266.21 45.2367 266.21 44.77C266.21 44.5767 266.15 44.42 266.03 44.3C265.917 44.1733 265.747 44.0833 265.52 44.03L264.69 43.81C264.283 43.71 263.987 43.5567 263.8 43.35C263.613 43.1367 263.52 42.8733 263.52 42.56C263.52 42.2067 263.663 41.9 263.95 41.64C264.237 41.38 264.673 41.25 265.26 41.25C265.573 41.25 265.847 41.2833 266.08 41.35C266.313 41.41 266.493 41.4933 266.62 41.6C266.753 41.7 266.82 41.81 266.82 41.93C266.82 42.0167 266.797 42.0933 266.75 42.16C266.71 42.2267 266.653 42.2767 266.58 42.31C266.5 42.2567 266.397 42.2 266.27 42.14C266.15 42.0733 266.007 42.02 265.84 41.98C265.673 41.9333 265.49 41.91 265.29 41.91C264.997 41.91 264.76 41.9667 264.58 42.08C264.4 42.1933 264.31 42.3533 264.31 42.56C264.31 42.7067 264.36 42.8367 264.46 42.95C264.567 43.0567 264.733 43.1367 264.96 43.19L265.65 43.36C266.103 43.4667 266.443 43.6367 266.67 43.87C266.897 44.0967 267.01 44.3967 267.01 44.77ZM270.411 41.92C269.958 41.92 269.581 42.0733 269.281 42.38C268.981 42.6867 268.831 43.1267 268.831 43.7C268.831 44.2667 268.975 44.7033 269.261 45.01C269.555 45.3167 269.938 45.47 270.411 45.47C270.691 45.47 270.925 45.4333 271.111 45.36C271.298 45.28 271.465 45.19 271.611 45.09C271.685 45.13 271.745 45.18 271.791 45.24C271.838 45.3 271.861 45.3733 271.861 45.46C271.861 45.6467 271.721 45.8067 271.441 45.94C271.168 46.0667 270.825 46.13 270.411 46.13C269.951 46.13 269.538 46.0433 269.171 45.87C268.811 45.69 268.528 45.42 268.321 45.06C268.115 44.7 268.011 44.2467 268.011 43.7C268.011 43.16 268.118 42.71 268.331 42.35C268.545 41.9833 268.831 41.71 269.191 41.53C269.558 41.3433 269.958 41.25 270.391 41.25C270.805 41.25 271.145 41.32 271.411 41.46C271.685 41.6 271.821 41.76 271.821 41.94C271.821 42.02 271.798 42.09 271.751 42.15C271.705 42.21 271.645 42.2567 271.571 42.29C271.425 42.19 271.261 42.1033 271.081 42.03C270.908 41.9567 270.685 41.92 270.411 41.92ZM274.736 46.14C274.109 46.14 273.623 46.0167 273.276 45.77C272.936 45.5233 272.766 45.1667 272.766 44.7C272.766 44.2667 272.909 43.9367 273.196 43.71C273.489 43.4767 273.893 43.3367 274.406 43.29L275.826 43.15V42.87C275.826 42.5367 275.726 42.2933 275.526 42.14C275.326 41.9867 275.056 41.91 274.716 41.91C274.443 41.91 274.179 41.95 273.926 42.03C273.679 42.11 273.459 42.2 273.266 42.3C273.213 42.2533 273.163 42.2 273.116 42.14C273.076 42.0733 273.056 42.0067 273.056 41.94C273.056 41.7667 273.153 41.6333 273.346 41.54C273.526 41.4467 273.733 41.3767 273.966 41.33C274.206 41.2767 274.459 41.25 274.726 41.25C275.306 41.25 275.766 41.38 276.106 41.64C276.446 41.9 276.616 42.31 276.616 42.87V45.24C276.616 45.3867 276.586 45.5 276.526 45.58C276.473 45.6533 276.389 45.7233 276.276 45.79C276.116 45.8767 275.903 45.9567 275.636 46.03C275.369 46.1033 275.069 46.14 274.736 46.14ZM274.736 45.48C275.016 45.48 275.246 45.4533 275.426 45.4C275.613 45.34 275.746 45.2833 275.826 45.23V43.78L274.586 43.91C274.239 43.9367 273.983 44.0133 273.816 44.14C273.649 44.2667 273.566 44.45 273.566 44.69C273.566 44.9367 273.663 45.13 273.856 45.27C274.056 45.41 274.349 45.48 274.736 45.48ZM278.156 43.36L278.956 43.48V45.98C278.923 45.9933 278.873 46.0067 278.806 46.02C278.74 46.04 278.666 46.05 278.586 46.05C278.446 46.05 278.34 46.0233 278.266 45.97C278.193 45.91 278.156 45.8167 278.156 45.69V43.36ZM278.956 43.86L278.156 43.75V39.52C278.19 39.5067 278.24 39.4933 278.306 39.48C278.38 39.46 278.453 39.45 278.526 39.45C278.673 39.45 278.78 39.48 278.846 39.54C278.92 39.5933 278.956 39.6833 278.956 39.81V43.86ZM280.827 44.2L280.787 43.57L283.807 43.16C283.78 42.7933 283.654 42.4933 283.427 42.26C283.2 42.02 282.887 41.9 282.487 41.9C282.074 41.9 281.73 42.05 281.457 42.35C281.19 42.6433 281.057 43.0667 281.057 43.62V43.84C281.104 44.3733 281.277 44.78 281.577 45.06C281.884 45.3333 282.3 45.47 282.827 45.47C283.107 45.47 283.36 45.4233 283.587 45.33C283.814 45.2367 283.994 45.1367 284.127 45.03C284.2 45.0767 284.257 45.1333 284.297 45.2C284.344 45.26 284.367 45.33 284.367 45.41C284.367 45.5367 284.294 45.6567 284.147 45.77C284.007 45.8767 283.817 45.9633 283.577 46.03C283.344 46.0967 283.08 46.13 282.787 46.13C282.274 46.13 281.827 46.0367 281.447 45.85C281.074 45.6633 280.784 45.3867 280.577 45.02C280.377 44.6467 280.277 44.1933 280.277 43.66C280.277 43.28 280.33 42.9433 280.437 42.65C280.55 42.35 280.704 42.0967 280.897 41.89C281.097 41.6833 281.334 41.5267 281.607 41.42C281.88 41.3067 282.177 41.25 282.497 41.25C282.904 41.25 283.26 41.3367 283.567 41.51C283.88 41.6833 284.124 41.9267 284.297 42.24C284.477 42.5467 284.567 42.9 284.567 43.3C284.567 43.4467 284.534 43.5533 284.467 43.62C284.4 43.68 284.307 43.7167 284.187 43.73L280.827 44.2ZM287.375 42.08C287.375 41.92 287.421 41.7867 287.515 41.68C287.615 41.5733 287.748 41.52 287.915 41.52C288.088 41.52 288.221 41.5733 288.315 41.68C288.415 41.7867 288.465 41.92 288.465 42.08C288.465 42.24 288.415 42.3733 288.315 42.48C288.221 42.58 288.088 42.63 287.915 42.63C287.748 42.63 287.615 42.58 287.515 42.48C287.421 42.3733 287.375 42.24 287.375 42.08ZM287.375 45.58C287.375 45.42 287.421 45.2867 287.515 45.18C287.608 45.0733 287.741 45.02 287.915 45.02C288.088 45.02 288.221 45.0733 288.315 45.18C288.415 45.2867 288.465 45.42 288.465 45.58C288.465 45.7333 288.415 45.8633 288.315 45.97C288.221 46.0767 288.088 46.13 287.915 46.13C287.741 46.13 287.608 46.0767 287.515 45.97C287.421 45.8633 287.375 45.7333 287.375 45.58ZM293.411 43.76H292.601V40.7L291.321 41.3C291.234 41.2667 291.161 41.2167 291.101 41.15C291.048 41.0833 291.021 41 291.021 40.9C291.021 40.7067 291.141 40.56 291.381 40.46L292.781 39.85H292.971C293.104 39.85 293.211 39.89 293.291 39.97C293.371 40.05 293.411 40.1567 293.411 40.29V43.76ZM292.601 43.36H293.411V46.01C293.371 46.0233 293.318 46.0367 293.251 46.05C293.184 46.07 293.111 46.08 293.031 46.08C292.891 46.08 292.784 46.05 292.711 45.99C292.638 45.93 292.601 45.8367 292.601 45.71V43.36Z" fill="white"/>
<path d="M120.01 44.77C120.01 45.1967 119.853 45.53 119.54 45.77C119.227 46.01 118.773 46.13 118.18 46.13C117.673 46.13 117.26 46.0533 116.94 45.9C116.62 45.74 116.46 45.5667 116.46 45.38C116.46 45.3 116.48 45.2233 116.52 45.15C116.567 45.07 116.633 45.0067 116.72 44.96C116.9 45.0867 117.11 45.2033 117.35 45.31C117.59 45.4167 117.863 45.47 118.17 45.47C118.863 45.47 119.21 45.2367 119.21 44.77C119.21 44.5767 119.15 44.42 119.03 44.3C118.917 44.1733 118.747 44.0833 118.52 44.03L117.69 43.81C117.283 43.71 116.987 43.5567 116.8 43.35C116.613 43.1367 116.52 42.8733 116.52 42.56C116.52 42.2067 116.663 41.9 116.95 41.64C117.237 41.38 117.673 41.25 118.26 41.25C118.573 41.25 118.847 41.2833 119.08 41.35C119.313 41.41 119.493 41.4933 119.62 41.6C119.753 41.7 119.82 41.81 119.82 41.93C119.82 42.0167 119.797 42.0933 119.75 42.16C119.71 42.2267 119.653 42.2767 119.58 42.31C119.5 42.2567 119.397 42.2 119.27 42.14C119.15 42.0733 119.007 42.02 118.84 41.98C118.673 41.9333 118.49 41.91 118.29 41.91C117.997 41.91 117.76 41.9667 117.58 42.08C117.4 42.1933 117.31 42.3533 117.31 42.56C117.31 42.7067 117.36 42.8367 117.46 42.95C117.567 43.0567 117.733 43.1367 117.96 43.19L118.65 43.36C119.103 43.4667 119.443 43.6367 119.67 43.87C119.897 44.0967 120.01 44.3967 120.01 44.77ZM123.411 41.92C122.958 41.92 122.581 42.0733 122.281 42.38C121.981 42.6867 121.831 43.1267 121.831 43.7C121.831 44.2667 121.975 44.7033 122.261 45.01C122.555 45.3167 122.938 45.47 123.411 45.47C123.691 45.47 123.925 45.4333 124.111 45.36C124.298 45.28 124.465 45.19 124.611 45.09C124.685 45.13 124.745 45.18 124.791 45.24C124.838 45.3 124.861 45.3733 124.861 45.46C124.861 45.6467 124.721 45.8067 124.441 45.94C124.168 46.0667 123.825 46.13 123.411 46.13C122.951 46.13 122.538 46.0433 122.171 45.87C121.811 45.69 121.528 45.42 121.321 45.06C121.115 44.7 121.011 44.2467 121.011 43.7C121.011 43.16 121.118 42.71 121.331 42.35C121.545 41.9833 121.831 41.71 122.191 41.53C122.558 41.3433 122.958 41.25 123.391 41.25C123.805 41.25 124.145 41.32 124.411 41.46C124.685 41.6 124.821 41.76 124.821 41.94C124.821 42.02 124.798 42.09 124.751 42.15C124.705 42.21 124.645 42.2567 124.571 42.29C124.425 42.19 124.261 42.1033 124.081 42.03C123.908 41.9567 123.685 41.92 123.411 41.92ZM127.736 46.14C127.109 46.14 126.623 46.0167 126.276 45.77C125.936 45.5233 125.766 45.1667 125.766 44.7C125.766 44.2667 125.909 43.9367 126.196 43.71C126.489 43.4767 126.893 43.3367 127.406 43.29L128.826 43.15V42.87C128.826 42.5367 128.726 42.2933 128.526 42.14C128.326 41.9867 128.056 41.91 127.716 41.91C127.443 41.91 127.179 41.95 126.926 42.03C126.679 42.11 126.459 42.2 126.266 42.3C126.213 42.2533 126.163 42.2 126.116 42.14C126.076 42.0733 126.056 42.0067 126.056 41.94C126.056 41.7667 126.153 41.6333 126.346 41.54C126.526 41.4467 126.733 41.3767 126.966 41.33C127.206 41.2767 127.459 41.25 127.726 41.25C128.306 41.25 128.766 41.38 129.106 41.64C129.446 41.9 129.616 42.31 129.616 42.87V45.24C129.616 45.3867 129.586 45.5 129.526 45.58C129.473 45.6533 129.389 45.7233 129.276 45.79C129.116 45.8767 128.903 45.9567 128.636 46.03C128.369 46.1033 128.069 46.14 127.736 46.14ZM127.736 45.48C128.016 45.48 128.246 45.4533 128.426 45.4C128.613 45.34 128.746 45.2833 128.826 45.23V43.78L127.586 43.91C127.239 43.9367 126.983 44.0133 126.816 44.14C126.649 44.2667 126.566 44.45 126.566 44.69C126.566 44.9367 126.663 45.13 126.856 45.27C127.056 45.41 127.349 45.48 127.736 45.48ZM131.156 43.36L131.956 43.48V45.98C131.923 45.9933 131.873 46.0067 131.806 46.02C131.74 46.04 131.666 46.05 131.586 46.05C131.446 46.05 131.34 46.0233 131.266 45.97C131.193 45.91 131.156 45.8167 131.156 45.69V43.36ZM131.956 43.86L131.156 43.75V39.52C131.19 39.5067 131.24 39.4933 131.306 39.48C131.38 39.46 131.453 39.45 131.526 39.45C131.673 39.45 131.78 39.48 131.846 39.54C131.92 39.5933 131.956 39.6833 131.956 39.81V43.86ZM133.827 44.2L133.787 43.57L136.807 43.16C136.78 42.7933 136.654 42.4933 136.427 42.26C136.2 42.02 135.887 41.9 135.487 41.9C135.074 41.9 134.73 42.05 134.457 42.35C134.19 42.6433 134.057 43.0667 134.057 43.62V43.84C134.104 44.3733 134.277 44.78 134.577 45.06C134.884 45.3333 135.3 45.47 135.827 45.47C136.107 45.47 136.36 45.4233 136.587 45.33C136.814 45.2367 136.994 45.1367 137.127 45.03C137.2 45.0767 137.257 45.1333 137.297 45.2C137.344 45.26 137.367 45.33 137.367 45.41C137.367 45.5367 137.294 45.6567 137.147 45.77C137.007 45.8767 136.817 45.9633 136.577 46.03C136.344 46.0967 136.08 46.13 135.787 46.13C135.274 46.13 134.827 46.0367 134.447 45.85C134.074 45.6633 133.784 45.3867 133.577 45.02C133.377 44.6467 133.277 44.1933 133.277 43.66C133.277 43.28 133.33 42.9433 133.437 42.65C133.55 42.35 133.704 42.0967 133.897 41.89C134.097 41.6833 134.334 41.5267 134.607 41.42C134.88 41.3067 135.177 41.25 135.497 41.25C135.904 41.25 136.26 41.3367 136.567 41.51C136.88 41.6833 137.124 41.9267 137.297 42.24C137.477 42.5467 137.567 42.9 137.567 43.3C137.567 43.4467 137.534 43.5533 137.467 43.62C137.4 43.68 137.307 43.7167 137.187 43.73L133.827 44.2ZM140.375 42.08C140.375 41.92 140.421 41.7867 140.515 41.68C140.615 41.5733 140.748 41.52 140.915 41.52C141.088 41.52 141.221 41.5733 141.315 41.68C141.415 41.7867 141.465 41.92 141.465 42.08C141.465 42.24 141.415 42.3733 141.315 42.48C141.221 42.58 141.088 42.63 140.915 42.63C140.748 42.63 140.615 42.58 140.515 42.48C140.421 42.3733 140.375 42.24 140.375 42.08ZM140.375 45.58C140.375 45.42 140.421 45.2867 140.515 45.18C140.608 45.0733 140.741 45.02 140.915 45.02C141.088 45.02 141.221 45.0733 141.315 45.18C141.415 45.2867 141.465 45.42 141.465 45.58C141.465 45.7333 141.415 45.8633 141.315 45.97C141.221 46.0767 141.088 46.13 140.915 46.13C140.741 46.13 140.608 46.0767 140.515 45.97C140.421 45.8633 140.375 45.7333 140.375 45.58ZM144.441 40.55C144.441 40.43 144.518 40.3133 144.671 40.2C144.824 40.08 145.031 39.9833 145.291 39.91C145.551 39.8367 145.834 39.8 146.141 39.8C146.568 39.8 146.934 39.8733 147.241 40.02C147.548 40.16 147.784 40.36 147.951 40.62C148.118 40.88 148.201 41.1867 148.201 41.54C148.201 41.9067 148.098 42.2667 147.891 42.62C147.691 42.9733 147.344 43.3767 146.851 43.83L145.221 45.34H148.191C148.218 45.3667 148.241 45.41 148.261 45.47C148.281 45.5233 148.291 45.5867 148.291 45.66C148.291 45.7667 148.261 45.85 148.201 45.91C148.148 45.97 148.074 46 147.981 46H144.451C144.384 45.9533 144.334 45.8967 144.301 45.83C144.268 45.7567 144.251 45.68 144.251 45.6C144.251 45.4933 144.271 45.4 144.311 45.32C144.351 45.2333 144.411 45.1533 144.491 45.08L146.291 43.35C146.704 42.9633 146.988 42.64 147.141 42.38C147.294 42.1133 147.371 41.8367 147.371 41.55C147.371 41.2367 147.264 40.98 147.051 40.78C146.838 40.58 146.514 40.48 146.081 40.48C145.788 40.48 145.524 40.53 145.291 40.63C145.064 40.73 144.874 40.8367 144.721 40.95C144.648 40.9167 144.581 40.8667 144.521 40.8C144.468 40.7333 144.441 40.65 144.441 40.55Z" fill="white"/>
<path d="M389.01 44.77C389.01 45.1967 388.853 45.53 388.54 45.77C388.227 46.01 387.773 46.13 387.18 46.13C386.673 46.13 386.26 46.0533 385.94 45.9C385.62 45.74 385.46 45.5667 385.46 45.38C385.46 45.3 385.48 45.2233 385.52 45.15C385.567 45.07 385.633 45.0067 385.72 44.96C385.9 45.0867 386.11 45.2033 386.35 45.31C386.59 45.4167 386.863 45.47 387.17 45.47C387.863 45.47 388.21 45.2367 388.21 44.77C388.21 44.5767 388.15 44.42 388.03 44.3C387.917 44.1733 387.747 44.0833 387.52 44.03L386.69 43.81C386.283 43.71 385.987 43.5567 385.8 43.35C385.613 43.1367 385.52 42.8733 385.52 42.56C385.52 42.2067 385.663 41.9 385.95 41.64C386.237 41.38 386.673 41.25 387.26 41.25C387.573 41.25 387.847 41.2833 388.08 41.35C388.313 41.41 388.493 41.4933 388.62 41.6C388.753 41.7 388.82 41.81 388.82 41.93C388.82 42.0167 388.797 42.0933 388.75 42.16C388.71 42.2267 388.653 42.2767 388.58 42.31C388.5 42.2567 388.397 42.2 388.27 42.14C388.15 42.0733 388.007 42.02 387.84 41.98C387.673 41.9333 387.49 41.91 387.29 41.91C386.997 41.91 386.76 41.9667 386.58 42.08C386.4 42.1933 386.31 42.3533 386.31 42.56C386.31 42.7067 386.36 42.8367 386.46 42.95C386.567 43.0567 386.733 43.1367 386.96 43.19L387.65 43.36C388.103 43.4667 388.443 43.6367 388.67 43.87C388.897 44.0967 389.01 44.3967 389.01 44.77ZM392.411 41.92C391.958 41.92 391.581 42.0733 391.281 42.38C390.981 42.6867 390.831 43.1267 390.831 43.7C390.831 44.2667 390.975 44.7033 391.261 45.01C391.555 45.3167 391.938 45.47 392.411 45.47C392.691 45.47 392.925 45.4333 393.111 45.36C393.298 45.28 393.465 45.19 393.611 45.09C393.685 45.13 393.745 45.18 393.791 45.24C393.838 45.3 393.861 45.3733 393.861 45.46C393.861 45.6467 393.721 45.8067 393.441 45.94C393.168 46.0667 392.825 46.13 392.411 46.13C391.951 46.13 391.538 46.0433 391.171 45.87C390.811 45.69 390.528 45.42 390.321 45.06C390.115 44.7 390.011 44.2467 390.011 43.7C390.011 43.16 390.118 42.71 390.331 42.35C390.545 41.9833 390.831 41.71 391.191 41.53C391.558 41.3433 391.958 41.25 392.391 41.25C392.805 41.25 393.145 41.32 393.411 41.46C393.685 41.6 393.821 41.76 393.821 41.94C393.821 42.02 393.798 42.09 393.751 42.15C393.705 42.21 393.645 42.2567 393.571 42.29C393.425 42.19 393.261 42.1033 393.081 42.03C392.908 41.9567 392.685 41.92 392.411 41.92ZM396.736 46.14C396.109 46.14 395.623 46.0167 395.276 45.77C394.936 45.5233 394.766 45.1667 394.766 44.7C394.766 44.2667 394.909 43.9367 395.196 43.71C395.489 43.4767 395.893 43.3367 396.406 43.29L397.826 43.15V42.87C397.826 42.5367 397.726 42.2933 397.526 42.14C397.326 41.9867 397.056 41.91 396.716 41.91C396.443 41.91 396.179 41.95 395.926 42.03C395.679 42.11 395.459 42.2 395.266 42.3C395.213 42.2533 395.163 42.2 395.116 42.14C395.076 42.0733 395.056 42.0067 395.056 41.94C395.056 41.7667 395.153 41.6333 395.346 41.54C395.526 41.4467 395.733 41.3767 395.966 41.33C396.206 41.2767 396.459 41.25 396.726 41.25C397.306 41.25 397.766 41.38 398.106 41.64C398.446 41.9 398.616 42.31 398.616 42.87V45.24C398.616 45.3867 398.586 45.5 398.526 45.58C398.473 45.6533 398.389 45.7233 398.276 45.79C398.116 45.8767 397.903 45.9567 397.636 46.03C397.369 46.1033 397.069 46.14 396.736 46.14ZM396.736 45.48C397.016 45.48 397.246 45.4533 397.426 45.4C397.613 45.34 397.746 45.2833 397.826 45.23V43.78L396.586 43.91C396.239 43.9367 395.983 44.0133 395.816 44.14C395.649 44.2667 395.566 44.45 395.566 44.69C395.566 44.9367 395.663 45.13 395.856 45.27C396.056 45.41 396.349 45.48 396.736 45.48ZM400.156 43.36L400.956 43.48V45.98C400.923 45.9933 400.873 46.0067 400.806 46.02C400.74 46.04 400.666 46.05 400.586 46.05C400.446 46.05 400.34 46.0233 400.266 45.97C400.193 45.91 400.156 45.8167 400.156 45.69V43.36ZM400.956 43.86L400.156 43.75V39.52C400.19 39.5067 400.24 39.4933 400.306 39.48C400.38 39.46 400.453 39.45 400.526 39.45C400.673 39.45 400.78 39.48 400.846 39.54C400.92 39.5933 400.956 39.6833 400.956 39.81V43.86ZM402.827 44.2L402.787 43.57L405.807 43.16C405.78 42.7933 405.654 42.4933 405.427 42.26C405.2 42.02 404.887 41.9 404.487 41.9C404.074 41.9 403.73 42.05 403.457 42.35C403.19 42.6433 403.057 43.0667 403.057 43.62V43.84C403.104 44.3733 403.277 44.78 403.577 45.06C403.884 45.3333 404.3 45.47 404.827 45.47C405.107 45.47 405.36 45.4233 405.587 45.33C405.814 45.2367 405.994 45.1367 406.127 45.03C406.2 45.0767 406.257 45.1333 406.297 45.2C406.344 45.26 406.367 45.33 406.367 45.41C406.367 45.5367 406.294 45.6567 406.147 45.77C406.007 45.8767 405.817 45.9633 405.577 46.03C405.344 46.0967 405.08 46.13 404.787 46.13C404.274 46.13 403.827 46.0367 403.447 45.85C403.074 45.6633 402.784 45.3867 402.577 45.02C402.377 44.6467 402.277 44.1933 402.277 43.66C402.277 43.28 402.33 42.9433 402.437 42.65C402.55 42.35 402.704 42.0967 402.897 41.89C403.097 41.6833 403.334 41.5267 403.607 41.42C403.88 41.3067 404.177 41.25 404.497 41.25C404.904 41.25 405.26 41.3367 405.567 41.51C405.88 41.6833 406.124 41.9267 406.297 42.24C406.477 42.5467 406.567 42.9 406.567 43.3C406.567 43.4467 406.534 43.5533 406.467 43.62C406.4 43.68 406.307 43.7167 406.187 43.73L402.827 44.2ZM409.375 42.08C409.375 41.92 409.421 41.7867 409.515 41.68C409.615 41.5733 409.748 41.52 409.915 41.52C410.088 41.52 410.221 41.5733 410.315 41.68C410.415 41.7867 410.465 41.92 410.465 42.08C410.465 42.24 410.415 42.3733 410.315 42.48C410.221 42.58 410.088 42.63 409.915 42.63C409.748 42.63 409.615 42.58 409.515 42.48C409.421 42.3733 409.375 42.24 409.375 42.08ZM409.375 45.58C409.375 45.42 409.421 45.2867 409.515 45.18C409.608 45.0733 409.741 45.02 409.915 45.02C410.088 45.02 410.221 45.0733 410.315 45.18C410.415 45.2867 410.465 45.42 410.465 45.58C410.465 45.7333 410.415 45.8633 410.315 45.97C410.221 46.0767 410.088 46.13 409.915 46.13C409.741 46.13 409.608 46.0767 409.515 45.97C409.421 45.8633 409.375 45.7333 409.375 45.58ZM415.781 46.13C415.314 46.13 414.901 46.0167 414.541 45.79C414.188 45.5567 413.911 45.2067 413.711 44.74C413.511 44.2667 413.411 43.6733 413.411 42.96C413.411 42.1933 413.524 41.58 413.751 41.12C413.978 40.66 414.271 40.3267 414.631 40.12C414.991 39.9067 415.374 39.8 415.781 39.8C416.194 39.8 416.581 39.9067 416.941 40.12C417.308 40.3333 417.601 40.6733 417.821 41.14C418.048 41.6 418.161 42.2067 418.161 42.96C418.161 43.6667 418.061 44.2567 417.861 44.73C417.661 45.1967 417.381 45.5467 417.021 45.78C416.668 46.0133 416.254 46.13 415.781 46.13ZM415.781 45.45C416.274 45.45 416.658 45.2367 416.931 44.81C417.204 44.3767 417.341 43.76 417.341 42.96C417.341 42.3667 417.268 41.89 417.121 41.53C416.981 41.1633 416.794 40.8967 416.561 40.73C416.328 40.5633 416.068 40.48 415.781 40.48C415.501 40.48 415.241 40.5667 415.001 40.74C414.768 40.9067 414.581 41.1733 414.441 41.54C414.301 41.9067 414.231 42.38 414.231 42.96C414.231 43.76 414.368 44.3767 414.641 44.81C414.914 45.2367 415.294 45.45 415.781 45.45ZM418.744 45.58C418.744 45.42 418.791 45.2867 418.884 45.18C418.984 45.0733 419.121 45.02 419.294 45.02C419.467 45.02 419.601 45.0733 419.694 45.18C419.787 45.2867 419.834 45.42 419.834 45.58C419.834 45.7333 419.787 45.8633 419.694 45.97C419.601 46.0767 419.467 46.13 419.294 46.13C419.121 46.13 418.984 46.0767 418.884 45.97C418.791 45.8633 418.744 45.7333 418.744 45.58ZM420.54 39.92H424.14C424.214 39.96 424.27 40.0167 424.31 40.09C424.35 40.1567 424.37 40.2333 424.37 40.32C424.37 40.3867 424.36 40.4533 424.34 40.52C424.327 40.5867 424.3 40.66 424.26 40.74L421.75 46.04C421.71 46.0467 421.67 46.05 421.63 46.05C421.597 46.05 421.56 46.05 421.52 46.05C421.394 46.05 421.284 46.02 421.19 45.96C421.097 45.8933 421.05 45.8033 421.05 45.69C421.05 45.61 421.067 45.5333 421.1 45.46C421.134 45.38 421.174 45.29 421.22 45.19L423.48 40.6H420.32C420.3 40.5667 420.28 40.5233 420.26 40.47C420.24 40.41 420.23 40.3467 420.23 40.28C420.23 40.1667 420.257 40.08 420.31 40.02C420.364 39.9533 420.44 39.92 420.54 39.92Z" fill="white"/>
<path d="M118.14 64.39L118.29 64.32C118.563 63.9667 118.82 63.6367 119.06 63.33C119.3 63.0233 119.547 62.6867 119.8 62.32C119.827 62.3133 119.847 62.31 119.86 62.31C119.873 62.31 119.89 62.31 119.91 62.31C120.05 62.31 120.16 62.3433 120.24 62.41C120.32 62.47 120.36 62.5533 120.36 62.66C120.36 62.7333 120.343 62.8033 120.31 62.87C120.283 62.9367 120.237 63.0133 120.17 63.1C119.943 63.38 119.71 63.6633 119.47 63.95C119.237 64.2367 119.007 64.5167 118.78 64.79L118.52 65.01C118.273 65.3367 118.02 65.6767 117.76 66.03C117.5 66.3767 117.25 66.7167 117.01 67.05C117.003 67.05 116.98 67.05 116.94 67.05C116.907 67.05 116.883 67.05 116.87 67.05C116.717 67.05 116.6 67.0167 116.52 66.95C116.447 66.8833 116.41 66.8 116.41 66.7C116.41 66.6467 116.42 66.59 116.44 66.53C116.467 66.47 116.523 66.3867 116.61 66.28C116.85 65.96 117.103 65.6467 117.37 65.34C117.637 65.0267 117.893 64.71 118.14 64.39ZM118.63 64.41L118.81 64.53C119.083 64.89 119.357 65.2467 119.63 65.6C119.91 65.9467 120.187 66.2967 120.46 66.65C120.447 66.7767 120.403 66.8767 120.33 66.95C120.257 67.0233 120.16 67.06 120.04 67.06C119.933 67.06 119.843 67.0333 119.77 66.98C119.697 66.92 119.613 66.83 119.52 66.71C119.32 66.43 119.107 66.1333 118.88 65.82C118.66 65.5067 118.45 65.2133 118.25 64.94L118.02 64.73C117.727 64.3767 117.453 64.04 117.2 63.72C116.947 63.4 116.687 63.07 116.42 62.73C116.447 62.5967 116.497 62.4933 116.57 62.42C116.643 62.3467 116.733 62.31 116.84 62.31C116.953 62.31 117.043 62.34 117.11 62.4C117.177 62.4533 117.243 62.5267 117.31 62.62C117.51 62.8867 117.72 63.18 117.94 63.5C118.16 63.8133 118.39 64.1167 118.63 64.41ZM127.136 63.37H123.406C123.386 63.33 123.37 63.2833 123.356 63.23C123.343 63.1767 123.336 63.12 123.336 63.06C123.336 62.9467 123.366 62.8633 123.426 62.81C123.493 62.75 123.58 62.72 123.686 62.72H127.426C127.44 62.76 127.453 62.8067 127.466 62.86C127.48 62.9067 127.486 62.9633 127.486 63.03C127.486 63.1367 127.456 63.22 127.396 63.28C127.336 63.34 127.25 63.37 127.136 63.37ZM127.136 65.39H123.406C123.386 65.35 123.37 65.3067 123.356 65.26C123.343 65.2067 123.336 65.1467 123.336 65.08C123.336 64.9667 123.366 64.8833 123.426 64.83C123.493 64.77 123.58 64.74 123.686 64.74H127.426C127.44 64.78 127.453 64.8267 127.466 64.88C127.48 64.9333 127.486 64.99 127.486 65.05C127.486 65.1567 127.456 65.24 127.396 65.3C127.336 65.36 127.25 65.39 127.136 65.39ZM133.004 64.72H130.614C130.594 64.6733 130.577 64.6267 130.564 64.58C130.551 64.5267 130.544 64.4667 130.544 64.4C130.544 64.2867 130.574 64.2033 130.634 64.15C130.701 64.09 130.787 64.06 130.894 64.06H133.284C133.297 64.1 133.311 64.1467 133.324 64.2C133.344 64.2533 133.354 64.31 133.354 64.37C133.354 64.4767 133.324 64.5633 133.264 64.63C133.204 64.69 133.117 64.72 133.004 64.72ZM136.235 64.76H135.425V61.7L134.145 62.3C134.059 62.2667 133.985 62.2167 133.925 62.15C133.872 62.0833 133.845 62 133.845 61.9C133.845 61.7067 133.965 61.56 134.205 61.46L135.605 60.85H135.795C135.929 60.85 136.035 60.89 136.115 60.97C136.195 61.05 136.235 61.1567 136.235 61.29V64.76ZM135.425 64.36H136.235V67.01C136.195 67.0233 136.142 67.0367 136.075 67.05C136.009 67.07 135.935 67.08 135.855 67.08C135.715 67.08 135.609 67.05 135.535 66.99C135.462 66.93 135.425 66.8367 135.425 66.71V64.36ZM140.18 67.13C139.713 67.13 139.3 67.0167 138.94 66.79C138.586 66.5567 138.31 66.2067 138.11 65.74C137.91 65.2667 137.81 64.6733 137.81 63.96C137.81 63.1933 137.923 62.58 138.15 62.12C138.376 61.66 138.67 61.3267 139.03 61.12C139.39 60.9067 139.773 60.8 140.18 60.8C140.593 60.8 140.98 60.9067 141.34 61.12C141.706 61.3333 142 61.6733 142.22 62.14C142.446 62.6 142.56 63.2067 142.56 63.96C142.56 64.6667 142.46 65.2567 142.26 65.73C142.06 66.1967 141.78 66.5467 141.42 66.78C141.066 67.0133 140.653 67.13 140.18 67.13ZM140.18 66.45C140.673 66.45 141.056 66.2367 141.33 65.81C141.603 65.3767 141.74 64.76 141.74 63.96C141.74 63.3667 141.666 62.89 141.52 62.53C141.38 62.1633 141.193 61.8967 140.96 61.73C140.726 61.5633 140.466 61.48 140.18 61.48C139.9 61.48 139.64 61.5667 139.4 61.74C139.166 61.9067 138.98 62.1733 138.84 62.54C138.7 62.9067 138.63 63.38 138.63 63.96C138.63 64.76 138.766 65.3767 139.04 65.81C139.313 66.2367 139.693 66.45 140.18 66.45ZM146.01 67.13C145.543 67.13 145.13 67.0167 144.77 66.79C144.416 66.5567 144.14 66.2067 143.94 65.74C143.74 65.2667 143.64 64.6733 143.64 63.96C143.64 63.1933 143.753 62.58 143.98 62.12C144.206 61.66 144.5 61.3267 144.86 61.12C145.22 60.9067 145.603 60.8 146.01 60.8C146.423 60.8 146.81 60.9067 147.17 61.12C147.536 61.3333 147.83 61.6733 148.05 62.14C148.276 62.6 148.39 63.2067 148.39 63.96C148.39 64.6667 148.29 65.2567 148.09 65.73C147.89 66.1967 147.61 66.5467 147.25 66.78C146.896 67.0133 146.483 67.13 146.01 67.13ZM146.01 66.45C146.503 66.45 146.886 66.2367 147.16 65.81C147.433 65.3767 147.57 64.76 147.57 63.96C147.57 63.3667 147.496 62.89 147.35 62.53C147.21 62.1633 147.023 61.8967 146.79 61.73C146.556 61.5633 146.296 61.48 146.01 61.48C145.73 61.48 145.47 61.5667 145.23 61.74C144.996 61.9067 144.81 62.1733 144.67 62.54C144.53 62.9067 144.46 63.38 144.46 63.96C144.46 64.76 144.596 65.3767 144.87 65.81C145.143 66.2367 145.523 66.45 146.01 66.45Z" fill="white"/>
<path d="M392.14 64.39L392.29 64.32C392.563 63.9667 392.82 63.6367 393.06 63.33C393.3 63.0233 393.547 62.6867 393.8 62.32C393.827 62.3133 393.847 62.31 393.86 62.31C393.873 62.31 393.89 62.31 393.91 62.31C394.05 62.31 394.16 62.3433 394.24 62.41C394.32 62.47 394.36 62.5533 394.36 62.66C394.36 62.7333 394.343 62.8033 394.31 62.87C394.283 62.9367 394.237 63.0133 394.17 63.1C393.943 63.38 393.71 63.6633 393.47 63.95C393.237 64.2367 393.007 64.5167 392.78 64.79L392.52 65.01C392.273 65.3367 392.02 65.6767 391.76 66.03C391.5 66.3767 391.25 66.7167 391.01 67.05C391.003 67.05 390.98 67.05 390.94 67.05C390.907 67.05 390.883 67.05 390.87 67.05C390.717 67.05 390.6 67.0167 390.52 66.95C390.447 66.8833 390.41 66.8 390.41 66.7C390.41 66.6467 390.42 66.59 390.44 66.53C390.467 66.47 390.523 66.3867 390.61 66.28C390.85 65.96 391.103 65.6467 391.37 65.34C391.637 65.0267 391.893 64.71 392.14 64.39ZM392.63 64.41L392.81 64.53C393.083 64.89 393.357 65.2467 393.63 65.6C393.91 65.9467 394.187 66.2967 394.46 66.65C394.447 66.7767 394.403 66.8767 394.33 66.95C394.257 67.0233 394.16 67.06 394.04 67.06C393.933 67.06 393.843 67.0333 393.77 66.98C393.697 66.92 393.613 66.83 393.52 66.71C393.32 66.43 393.107 66.1333 392.88 65.82C392.66 65.5067 392.45 65.2133 392.25 64.94L392.02 64.73C391.727 64.3767 391.453 64.04 391.2 63.72C390.947 63.4 390.687 63.07 390.42 62.73C390.447 62.5967 390.497 62.4933 390.57 62.42C390.643 62.3467 390.733 62.31 390.84 62.31C390.953 62.31 391.043 62.34 391.11 62.4C391.177 62.4533 391.243 62.5267 391.31 62.62C391.51 62.8867 391.72 63.18 391.94 63.5C392.16 63.8133 392.39 64.1167 392.63 64.41ZM401.136 63.37H397.406C397.386 63.33 397.37 63.2833 397.356 63.23C397.343 63.1767 397.336 63.12 397.336 63.06C397.336 62.9467 397.366 62.8633 397.426 62.81C397.493 62.75 397.58 62.72 397.686 62.72H401.426C401.44 62.76 401.453 62.8067 401.466 62.86C401.48 62.9067 401.486 62.9633 401.486 63.03C401.486 63.1367 401.456 63.22 401.396 63.28C401.336 63.34 401.25 63.37 401.136 63.37ZM401.136 65.39H397.406C397.386 65.35 397.37 65.3067 397.356 65.26C397.343 65.2067 397.336 65.1467 397.336 65.08C397.336 64.9667 397.366 64.8833 397.426 64.83C397.493 64.77 397.58 64.74 397.686 64.74H401.426C401.44 64.78 401.453 64.8267 401.466 64.88C401.48 64.9333 401.486 64.99 401.486 65.05C401.486 65.1567 401.456 65.24 401.396 65.3C401.336 65.36 401.25 65.39 401.136 65.39ZM406.544 64.76H405.734V61.7L404.454 62.3C404.367 62.2667 404.294 62.2167 404.234 62.15C404.181 62.0833 404.154 62 404.154 61.9C404.154 61.7067 404.274 61.56 404.514 61.46L405.914 60.85H406.104C406.237 60.85 406.344 60.89 406.424 60.97C406.504 61.05 406.544 61.1567 406.544 61.29V64.76ZM405.734 64.36H406.544V67.01C406.504 67.0233 406.451 67.0367 406.384 67.05C406.317 67.07 406.244 67.08 406.164 67.08C406.024 67.08 405.917 67.05 405.844 66.99C405.771 66.93 405.734 66.8367 405.734 66.71V64.36ZM410.488 67.13C410.021 67.13 409.608 67.0167 409.248 66.79C408.895 66.5567 408.618 66.2067 408.418 65.74C408.218 65.2667 408.118 64.6733 408.118 63.96C408.118 63.1933 408.231 62.58 408.458 62.12C408.685 61.66 408.978 61.3267 409.338 61.12C409.698 60.9067 410.081 60.8 410.488 60.8C410.901 60.8 411.288 60.9067 411.648 61.12C412.015 61.3333 412.308 61.6733 412.528 62.14C412.755 62.6 412.868 63.2067 412.868 63.96C412.868 64.6667 412.768 65.2567 412.568 65.73C412.368 66.1967 412.088 66.5467 411.728 66.78C411.375 67.0133 410.961 67.13 410.488 67.13ZM410.488 66.45C410.981 66.45 411.365 66.2367 411.638 65.81C411.911 65.3767 412.048 64.76 412.048 63.96C412.048 63.3667 411.975 62.89 411.828 62.53C411.688 62.1633 411.501 61.8967 411.268 61.73C411.035 61.5633 410.775 61.48 410.488 61.48C410.208 61.48 409.948 61.5667 409.708 61.74C409.475 61.9067 409.288 62.1733 409.148 62.54C409.008 62.9067 408.938 63.38 408.938 63.96C408.938 64.76 409.075 65.3767 409.348 65.81C409.621 66.2367 410.001 66.45 410.488 66.45ZM416.318 67.13C415.852 67.13 415.438 67.0167 415.078 66.79C414.725 66.5567 414.448 66.2067 414.248 65.74C414.048 65.2667 413.948 64.6733 413.948 63.96C413.948 63.1933 414.062 62.58 414.288 62.12C414.515 61.66 414.808 61.3267 415.168 61.12C415.528 60.9067 415.912 60.8 416.318 60.8C416.732 60.8 417.118 60.9067 417.478 61.12C417.845 61.3333 418.138 61.6733 418.358 62.14C418.585 62.6 418.698 63.2067 418.698 63.96C418.698 64.6667 418.598 65.2567 418.398 65.73C418.198 66.1967 417.918 66.5467 417.558 66.78C417.205 67.0133 416.792 67.13 416.318 67.13ZM416.318 66.45C416.812 66.45 417.195 66.2367 417.468 65.81C417.742 65.3767 417.878 64.76 417.878 63.96C417.878 63.3667 417.805 62.89 417.658 62.53C417.518 62.1633 417.332 61.8967 417.098 61.73C416.865 61.5633 416.605 61.48 416.318 61.48C416.038 61.48 415.778 61.5667 415.538 61.74C415.305 61.9067 415.118 62.1733 414.978 62.54C414.838 62.9067 414.768 63.38 414.768 63.96C414.768 64.76 414.905 65.3767 415.178 65.81C415.452 66.2367 415.832 66.45 416.318 66.45Z" fill="white"/>
</g>
<defs>
<filter id="filter0_d_14_32" x="-4" y="232" width="180" height="112" filterUnits="userSpaceOnUse" color-interpolation-filters="sRGB">
<feFlood flood-opacity="0" result="BackgroundImageFix"/>
<feColorMatrix in="SourceAlpha" type="matrix" values="0 0 0 0 0 0 0 0 0 0 0 0 0 0 0 0 0 0 127 0" result="hardAlpha"/>
<feOffset dy="4"/>
<feGaussianBlur stdDeviation="2"/>
<feComposite in2="hardAlpha" operator="out"/>
<feColorMatrix type="matrix" values="0 0 0 0 0 0 0 0 0 0 0 0 0 0 0 0 0 0 0.25 0"/>
<feBlend mode="normal" in2="BackgroundImageFix" result="effect1_dropShadow_14_32"/>
<feBlend mode="normal" in="SourceGraphic" in2="effect1_dropShadow_14_32" result="shape"/>
</filter>
<clipPath id="clip0_14_32">
<rect width="491" height="336" fill="white"/>
</clipPath>
</defs>
</svg>
