<svg width="491" height="336" viewBox="0 0 491 336" fill="none" xmlns="http://www.w3.org/2000/svg">
<g clip-path="url(#clip0_17_90)">
<rect width="491" height="336" fill="#2C2828"/>
<g filter="url(#filter0_d_17_90)">
<path d="M195 51C195 39.9543 203.954 31 215 31H435C446.046 31 455 39.9543 455 51V241C455 252.046 446.046 261 435 261H215C203.954 261 195 252.046 195 241V51Z" fill="#D9D9D9" fill-opacity="0.21" shape-rendering="crispEdges"/>
</g>
<g filter="url(#filter1_d_17_90)">
<path d="M0 232H142C158.569 232 172 245.431 172 262V336H0V232Z" fill="#D9D9D9" fill-opacity="0.12" shape-rendering="crispEdges"/>
</g>
<path d="M32.125 279H26.2109V263H32.1172C33.7474 263 35.151 263.32 36.3281 263.961C37.5104 264.596 38.4219 265.513 39.0625 266.711C39.7031 267.904 40.0234 269.331 40.0234 270.992C40.0234 272.659 39.7031 274.091 39.0625 275.289C38.4271 276.487 37.5182 277.406 36.3359 278.047C35.1536 278.682 33.75 279 32.125 279ZM30.0781 275.703H31.9766C32.8724 275.703 33.6302 275.552 34.25 275.25C34.875 274.943 35.3464 274.445 35.6641 273.758C35.987 273.065 36.1484 272.143 36.1484 270.992C36.1484 269.841 35.987 268.924 35.6641 268.242C35.3411 267.555 34.8646 267.06 34.2344 266.758C33.6094 266.451 32.8385 266.297 31.9219 266.297H30.0781V275.703ZM42.2813 279V267H45.9922V269.187H46.1172C46.3359 268.396 46.6927 267.807 47.1875 267.422C47.6823 267.031 48.2578 266.836 48.9141 266.836C49.0911 266.836 49.2734 266.849 49.4609 266.875C49.6484 266.896 49.8229 266.93 49.9844 266.977V270.297C49.8021 270.234 49.5625 270.185 49.2656 270.148C48.974 270.112 48.7135 270.094 48.4844 270.094C48.0313 270.094 47.6224 270.195 47.2578 270.398C46.8984 270.596 46.6146 270.875 46.4063 271.234C46.2031 271.589 46.1016 272.005 46.1016 272.484V279H42.2813ZM54.4727 279.203C53.707 279.203 53.0273 279.076 52.4336 278.82C51.8451 278.56 51.3789 278.169 51.0352 277.648C50.6966 277.122 50.5273 276.464 50.5273 275.672C50.5273 275.005 50.6445 274.443 50.8789 273.984C51.1133 273.526 51.4362 273.154 51.8477 272.867C52.2591 272.581 52.7331 272.365 53.2695 272.219C53.806 272.068 54.3789 271.966 54.9883 271.914C55.6706 271.852 56.2201 271.786 56.6367 271.719C57.0534 271.646 57.3555 271.544 57.543 271.414C57.7357 271.279 57.832 271.089 57.832 270.844V270.805C57.832 270.404 57.694 270.094 57.418 269.875C57.1419 269.656 56.7695 269.547 56.3008 269.547C55.7956 269.547 55.3893 269.656 55.082 269.875C54.7747 270.094 54.5794 270.396 54.4961 270.781L50.9727 270.656C51.0768 269.927 51.3451 269.276 51.7773 268.703C52.2148 268.125 52.8138 267.672 53.5742 267.344C54.3398 267.01 55.2591 266.844 56.332 266.844C57.0977 266.844 57.8034 266.935 58.4492 267.117C59.0951 267.294 59.6576 267.555 60.1367 267.898C60.6159 268.237 60.9857 268.654 61.2461 269.148C61.5117 269.643 61.6445 270.208 61.6445 270.844V279H58.0508V277.328H57.957C57.7435 277.734 57.4701 278.078 57.1367 278.359C56.8086 278.641 56.4206 278.852 55.9727 278.992C55.5299 279.133 55.0299 279.203 54.4727 279.203ZM55.6523 276.703C56.0638 276.703 56.4336 276.62 56.7617 276.453C57.0951 276.286 57.3607 276.057 57.5586 275.766C57.7565 275.469 57.8555 275.125 57.8555 274.734V273.594C57.7461 273.651 57.6133 273.703 57.457 273.75C57.306 273.797 57.1393 273.841 56.957 273.883C56.7747 273.924 56.5872 273.961 56.3945 273.992C56.2018 274.023 56.0169 274.052 55.8398 274.078C55.4805 274.135 55.1732 274.224 54.918 274.344C54.668 274.464 54.4753 274.62 54.3398 274.812C54.2096 275 54.1445 275.224 54.1445 275.484C54.1445 275.88 54.2852 276.182 54.5664 276.391C54.8529 276.599 55.2148 276.703 55.6523 276.703ZM69.5742 283.75C68.4336 283.75 67.457 283.591 66.6445 283.273C65.832 282.956 65.194 282.521 64.7305 281.969C64.2669 281.417 63.9883 280.792 63.8945 280.094L67.5117 279.891C67.5794 280.135 67.7044 280.349 67.8867 280.531C68.0742 280.714 68.3164 280.854 68.6133 280.953C68.9154 281.052 69.2695 281.102 69.6758 281.102C70.3164 281.102 70.8451 280.945 71.2617 280.633C71.6836 280.326 71.8945 279.786 71.8945 279.016V276.906H71.7617C71.6107 277.276 71.3815 277.607 71.0742 277.898C70.7669 278.19 70.3841 278.419 69.9258 278.586C69.4727 278.753 68.9518 278.836 68.3633 278.836C67.4883 278.836 66.6862 278.633 65.957 278.227C65.2331 277.815 64.6523 277.18 64.2148 276.32C63.7826 275.456 63.5664 274.344 63.5664 272.984C63.5664 271.583 63.7904 270.43 64.2383 269.523C64.6862 268.612 65.2721 267.937 65.9961 267.5C66.7253 267.062 67.5091 266.844 68.3477 266.844C68.9779 266.844 69.5169 266.953 69.9648 267.172C70.418 267.385 70.7904 267.661 71.082 268C71.3737 268.339 71.5951 268.69 71.7461 269.055H71.8555V267H75.6602V279.047C75.6602 280.063 75.4049 280.919 74.8945 281.617C74.3841 282.315 73.6706 282.844 72.7539 283.203C71.8372 283.568 70.7773 283.75 69.5742 283.75ZM69.6914 276.055C70.1549 276.055 70.5508 275.932 70.8789 275.687C71.207 275.443 71.4596 275.091 71.6367 274.633C71.8138 274.174 71.9023 273.625 71.9023 272.984C71.9023 272.333 71.8138 271.773 71.6367 271.305C71.4648 270.831 71.2122 270.466 70.8789 270.211C70.5508 269.956 70.1549 269.828 69.6914 269.828C69.2174 269.828 68.8164 269.958 68.4883 270.219C68.1602 270.479 67.9102 270.846 67.7383 271.32C67.5716 271.789 67.4883 272.344 67.4883 272.984C67.4883 273.625 67.5742 274.174 67.7461 274.633C67.918 275.091 68.1654 275.443 68.4883 275.687C68.8164 275.932 69.2174 276.055 69.6914 276.055ZM40.7344 295.797H36.8281C36.776 295.396 36.6693 295.034 36.5078 294.711C36.3464 294.388 36.1328 294.112 35.8672 293.883C35.6016 293.654 35.2865 293.479 34.9219 293.359C34.5625 293.234 34.1641 293.172 33.7266 293.172C32.9505 293.172 32.2813 293.362 31.7188 293.742C31.1615 294.122 30.7318 294.672 30.4297 295.391C30.1328 296.109 29.9844 296.979 29.9844 298C29.9844 299.062 30.1354 299.953 30.4375 300.672C30.7448 301.385 31.1745 301.924 31.7266 302.289C32.2839 302.648 32.9427 302.828 33.7031 302.828C34.1302 302.828 34.5182 302.773 34.8672 302.664C35.2214 302.555 35.5313 302.396 35.7969 302.188C36.0677 301.974 36.2891 301.716 36.4609 301.414C36.638 301.107 36.7604 300.76 36.8281 300.375L40.7344 300.398C40.6667 301.107 40.4609 301.805 40.1172 302.492C39.7786 303.18 39.3125 303.807 38.7188 304.375C38.125 304.937 37.401 305.385 36.5469 305.719C35.6979 306.052 34.724 306.219 33.625 306.219C32.1771 306.219 30.8802 305.901 29.7344 305.266C28.5938 304.625 27.6927 303.693 27.0313 302.469C26.3698 301.245 26.0391 299.755 26.0391 298C26.0391 296.24 26.375 294.747 27.0469 293.523C27.7188 292.299 28.6276 291.37 29.7734 290.734C30.9193 290.099 32.2031 289.781 33.625 289.781C34.5938 289.781 35.4896 289.917 36.3125 290.188C37.1354 290.453 37.8594 290.844 38.4844 291.359C39.1094 291.87 39.6172 292.497 40.0078 293.242C40.3984 293.987 40.6406 294.839 40.7344 295.797ZM48.5488 306.227C47.2884 306.227 46.2051 305.969 45.2988 305.453C44.3978 304.932 43.7025 304.208 43.2129 303.281C42.7285 302.349 42.4863 301.268 42.4863 300.039C42.4863 298.805 42.7285 297.724 43.2129 296.797C43.7025 295.865 44.3978 295.141 45.2988 294.625C46.2051 294.104 47.2884 293.844 48.5488 293.844C49.8092 293.844 50.89 294.104 51.791 294.625C52.6973 295.141 53.3926 295.865 53.877 296.797C54.3665 297.724 54.6113 298.805 54.6113 300.039C54.6113 301.268 54.3665 302.349 53.877 303.281C53.3926 304.208 52.6973 304.932 51.791 305.453C50.89 305.969 49.8092 306.227 48.5488 306.227ZM48.5723 303.344C49.0306 303.344 49.4186 303.203 49.7363 302.922C50.054 302.641 50.2962 302.25 50.4629 301.75C50.6348 301.25 50.7207 300.672 50.7207 300.016C50.7207 299.349 50.6348 298.766 50.4629 298.266C50.2962 297.766 50.054 297.375 49.7363 297.094C49.4186 296.812 49.0306 296.672 48.5723 296.672C48.0983 296.672 47.6973 296.812 47.3691 297.094C47.0462 297.375 46.7988 297.766 46.627 298.266C46.4603 298.766 46.377 299.349 46.377 300.016C46.377 300.672 46.4603 301.25 46.627 301.75C46.7988 302.25 47.0462 302.641 47.3691 302.922C47.6973 303.203 48.0983 303.344 48.5723 303.344ZM60.3887 299.156V306H56.5684V294H60.2012V296.203H60.334C60.5996 295.469 61.0527 294.893 61.6934 294.477C62.334 294.055 63.097 293.844 63.9824 293.844C64.8262 293.844 65.5579 294.034 66.1777 294.414C66.8027 294.789 67.2871 295.315 67.6309 295.992C67.9798 296.664 68.1517 297.451 68.1465 298.352V306H64.3262V299.102C64.3314 298.435 64.1621 297.914 63.8184 297.539C63.4798 297.164 63.0085 296.977 62.4043 296.977C62.0033 296.977 61.6491 297.065 61.3418 297.242C61.0397 297.414 60.8053 297.661 60.6387 297.984C60.4772 298.307 60.3939 298.698 60.3887 299.156ZM80.9883 297.664L77.4805 297.758C77.444 297.508 77.3451 297.286 77.1836 297.094C77.0221 296.896 76.8112 296.742 76.5508 296.633C76.2956 296.518 75.9987 296.461 75.6602 296.461C75.2174 296.461 74.8398 296.549 74.5273 296.727C74.2201 296.904 74.069 297.143 74.0742 297.445C74.069 297.68 74.1628 297.883 74.3555 298.055C74.5534 298.227 74.9049 298.365 75.4102 298.469L77.7227 298.906C78.9206 299.135 79.8112 299.516 80.3945 300.047C80.9831 300.578 81.2799 301.281 81.2852 302.156C81.2799 302.979 81.0352 303.695 80.5508 304.305C80.0716 304.914 79.4154 305.388 78.582 305.727C77.7487 306.06 76.7956 306.227 75.7227 306.227C74.0091 306.227 72.6576 305.875 71.668 305.172C70.6836 304.464 70.1211 303.516 69.9805 302.328L73.7539 302.234C73.8372 302.672 74.0534 303.005 74.4023 303.234C74.7513 303.464 75.1966 303.578 75.7383 303.578C76.2279 303.578 76.6263 303.487 76.9336 303.305C77.2409 303.122 77.3971 302.88 77.4023 302.578C77.3971 302.307 77.2773 302.091 77.043 301.93C76.8086 301.763 76.4414 301.633 75.9414 301.539L73.8477 301.141C72.6445 300.922 71.7487 300.518 71.1602 299.93C70.5716 299.336 70.2799 298.581 70.2852 297.664C70.2799 296.862 70.4935 296.177 70.9258 295.609C71.3581 295.036 71.9727 294.599 72.7695 294.297C73.5664 293.995 74.5065 293.844 75.5898 293.844C77.2148 293.844 78.4961 294.185 79.4336 294.867C80.3711 295.544 80.8893 296.477 80.9883 297.664ZM89.9395 294V296.812H82.3691V294H89.9395ZM83.9551 291.125H87.7754V302.227C87.7754 302.461 87.8118 302.651 87.8848 302.797C87.9629 302.937 88.0749 303.039 88.2207 303.102C88.3665 303.159 88.541 303.188 88.7441 303.188C88.89 303.188 89.0436 303.174 89.2051 303.148C89.3717 303.117 89.4967 303.091 89.5801 303.07L90.1582 305.828C89.9759 305.88 89.7181 305.945 89.3848 306.023C89.0566 306.102 88.6634 306.151 88.2051 306.172C87.3092 306.214 86.541 306.109 85.9004 305.859C85.265 305.604 84.778 305.208 84.4395 304.672C84.1061 304.135 83.9447 303.461 83.9551 302.648V291.125ZM91.8887 306V294H95.5996V296.187H95.7246C95.9434 295.396 96.3001 294.807 96.7949 294.422C97.2897 294.031 97.8652 293.836 98.5215 293.836C98.6986 293.836 98.8809 293.849 99.0684 293.875C99.2559 293.896 99.4303 293.93 99.5918 293.977V297.297C99.4095 297.234 99.1699 297.185 98.873 297.148C98.5814 297.112 98.321 297.094 98.0918 297.094C97.6387 297.094 97.2298 297.195 96.8652 297.398C96.5059 297.596 96.222 297.875 96.0137 298.234C95.8105 298.589 95.709 299.005 95.709 299.484V306H91.8887ZM104.08 306.203C103.314 306.203 102.635 306.076 102.041 305.82C101.452 305.56 100.986 305.169 100.643 304.648C100.304 304.122 100.135 303.464 100.135 302.672C100.135 302.005 100.252 301.443 100.486 300.984C100.721 300.526 101.044 300.154 101.455 299.867C101.867 299.581 102.34 299.365 102.877 299.219C103.413 299.068 103.986 298.966 104.596 298.914C105.278 298.852 105.827 298.786 106.244 298.719C106.661 298.646 106.963 298.544 107.15 298.414C107.343 298.279 107.439 298.089 107.439 297.844V297.805C107.439 297.404 107.301 297.094 107.025 296.875C106.749 296.656 106.377 296.547 105.908 296.547C105.403 296.547 104.997 296.656 104.689 296.875C104.382 297.094 104.187 297.396 104.104 297.781L100.58 297.656C100.684 296.927 100.952 296.276 101.385 295.703C101.822 295.125 102.421 294.672 103.182 294.344C103.947 294.01 104.867 293.844 105.939 293.844C106.705 293.844 107.411 293.935 108.057 294.117C108.702 294.294 109.265 294.555 109.744 294.898C110.223 295.237 110.593 295.654 110.854 296.148C111.119 296.643 111.252 297.208 111.252 297.844V306H107.658V304.328H107.564C107.351 304.734 107.077 305.078 106.744 305.359C106.416 305.641 106.028 305.852 105.58 305.992C105.137 306.133 104.637 306.203 104.08 306.203ZM105.26 303.703C105.671 303.703 106.041 303.62 106.369 303.453C106.702 303.286 106.968 303.057 107.166 302.766C107.364 302.469 107.463 302.125 107.463 301.734V300.594C107.354 300.651 107.221 300.703 107.064 300.75C106.913 300.797 106.747 300.841 106.564 300.883C106.382 300.924 106.195 300.961 106.002 300.992C105.809 301.023 105.624 301.052 105.447 301.078C105.088 301.135 104.781 301.224 104.525 301.344C104.275 301.464 104.083 301.62 103.947 301.812C103.817 302 103.752 302.224 103.752 302.484C103.752 302.88 103.893 303.182 104.174 303.391C104.46 303.599 104.822 303.703 105.26 303.703ZM113.588 306V294H117.408V306H113.588ZM115.502 292.602C114.965 292.602 114.505 292.424 114.119 292.07C113.734 291.711 113.541 291.279 113.541 290.773C113.541 290.273 113.734 289.846 114.119 289.492C114.505 289.133 114.965 288.953 115.502 288.953C116.044 288.953 116.505 289.133 116.885 289.492C117.27 289.846 117.463 290.273 117.463 290.773C117.463 291.279 117.27 291.711 116.885 292.07C116.505 292.424 116.044 292.602 115.502 292.602ZM123.66 299.156V306H119.84V294H123.473V296.203H123.605C123.871 295.469 124.324 294.893 124.965 294.477C125.605 294.055 126.368 293.844 127.254 293.844C128.098 293.844 128.829 294.034 129.449 294.414C130.074 294.789 130.559 295.315 130.902 295.992C131.251 296.664 131.423 297.451 131.418 298.352V306H127.598V299.102C127.603 298.435 127.434 297.914 127.09 297.539C126.751 297.164 126.28 296.977 125.676 296.977C125.275 296.977 124.921 297.065 124.613 297.242C124.311 297.414 124.077 297.661 123.91 297.984C123.749 298.307 123.665 298.698 123.66 299.156ZM140.557 294V296.812H132.986V294H140.557ZM134.572 291.125H138.393V302.227C138.393 302.461 138.429 302.651 138.502 302.797C138.58 302.937 138.692 303.039 138.838 303.102C138.984 303.159 139.158 303.188 139.361 303.188C139.507 303.188 139.661 303.174 139.822 303.148C139.989 303.117 140.114 303.091 140.197 303.07L140.775 305.828C140.593 305.88 140.335 305.945 140.002 306.023C139.674 306.102 139.281 306.151 138.822 306.172C137.926 306.214 137.158 306.109 136.518 305.859C135.882 305.604 135.395 305.208 135.057 304.672C134.723 304.135 134.562 303.461 134.572 302.648V291.125ZM152.832 297.664L149.324 297.758C149.288 297.508 149.189 297.286 149.027 297.094C148.866 296.896 148.655 296.742 148.395 296.633C148.139 296.518 147.842 296.461 147.504 296.461C147.061 296.461 146.684 296.549 146.371 296.727C146.064 296.904 145.913 297.143 145.918 297.445C145.913 297.68 146.007 297.883 146.199 298.055C146.397 298.227 146.749 298.365 147.254 298.469L149.566 298.906C150.764 299.135 151.655 299.516 152.238 300.047C152.827 300.578 153.124 301.281 153.129 302.156C153.124 302.979 152.879 303.695 152.395 304.305C151.915 304.914 151.259 305.388 150.426 305.727C149.592 306.06 148.639 306.227 147.566 306.227C145.853 306.227 144.501 305.875 143.512 305.172C142.527 304.464 141.965 303.516 141.824 302.328L145.598 302.234C145.681 302.672 145.897 303.005 146.246 303.234C146.595 303.464 147.04 303.578 147.582 303.578C148.072 303.578 148.47 303.487 148.777 303.305C149.085 303.122 149.241 302.88 149.246 302.578C149.241 302.307 149.121 302.091 148.887 301.93C148.652 301.763 148.285 301.633 147.785 301.539L145.691 301.141C144.488 300.922 143.592 300.518 143.004 299.93C142.415 299.336 142.124 298.581 142.129 297.664C142.124 296.862 142.337 296.177 142.77 295.609C143.202 295.036 143.816 294.599 144.613 294.297C145.41 293.995 146.35 293.844 147.434 293.844C149.059 293.844 150.34 294.185 151.277 294.867C152.215 295.544 152.733 296.477 152.832 297.664Z" fill="white"/>
<path d="M354 75C354 63.9543 362.954 55 374 55H414C425.046 55 434 63.9543 434 75V115C434 126.046 425.046 135 414 135H374C362.954 135 354 126.046 354 115V75Z" fill="#FBFBFB"/>
<path d="M380.875 91.5C380.978 91.49 381.097 91.4817 381.23 91.475C381.363 91.4683 381.5 91.4633 381.64 91.46C381.78 91.4533 381.918 91.45 382.055 91.45C382.192 91.4467 382.315 91.445 382.425 91.445C382.955 91.445 383.445 91.51 383.895 91.64C384.348 91.77 384.74 91.9767 385.07 92.26C385.4 92.5433 385.658 92.9067 385.845 93.35C386.032 93.7933 386.125 94.3267 386.125 94.95C386.125 95.4367 386.078 95.875 385.985 96.265C385.892 96.6517 385.762 96.995 385.595 97.295C385.432 97.595 385.233 97.8533 385 98.07C384.77 98.2833 384.515 98.46 384.235 98.6C383.958 98.7367 383.663 98.8383 383.35 98.905C383.037 98.9683 382.713 99 382.38 99H381.025V92.55L380.875 91.5ZM381.975 93.25V98.2H382.075C382.505 98.2 382.878 98.15 383.195 98.05C383.512 97.95 383.78 97.8183 384 97.655C384.223 97.4883 384.405 97.2983 384.545 97.085C384.685 96.8683 384.793 96.645 384.87 96.415C384.95 96.185 385.003 95.9567 385.03 95.73C385.06 95.5033 385.075 95.2933 385.075 95.1C385.075 94.8167 385.062 94.5483 385.035 94.295C385.008 94.0417 384.958 93.8083 384.885 93.595C384.812 93.3817 384.712 93.19 384.585 93.02C384.458 92.85 384.295 92.705 384.095 92.585C383.895 92.465 383.653 92.3733 383.37 92.31C383.09 92.2433 382.76 92.21 382.38 92.21C382.327 92.21 382.27 92.2117 382.21 92.215C382.15 92.2183 382.093 92.2233 382.04 92.23L381.85 92.25L381.975 93.25ZM388.459 94.525L388.914 93.735C389.007 93.665 389.114 93.6083 389.234 93.565C389.354 93.5217 389.477 93.49 389.604 93.47C389.731 93.4467 389.857 93.4317 389.984 93.425C390.114 93.4183 390.237 93.415 390.354 93.415C390.604 93.415 390.817 93.4267 390.994 93.45C391.171 93.47 391.319 93.4967 391.439 93.53C391.562 93.5633 391.661 93.5983 391.734 93.635C391.807 93.6683 391.864 93.6983 391.904 93.725L392.154 95.15L391.404 95.25L391.154 94.36C391.127 94.35 391.086 94.34 391.029 94.33C390.972 94.32 390.907 94.31 390.834 94.3C390.761 94.29 390.682 94.2817 390.599 94.275C390.519 94.2683 390.442 94.265 390.369 94.265C390.142 94.265 389.932 94.2917 389.739 94.345C389.546 94.395 389.369 94.465 389.209 94.555C389.049 94.645 388.906 94.75 388.779 94.87C388.656 94.99 388.549 95.1167 388.459 95.25V99H387.559V93.5L388.459 93.4V94.525ZM398.558 99H397.558V98.19L397.088 98.75C397.031 98.7933 396.958 98.835 396.868 98.875C396.781 98.915 396.688 98.9517 396.588 98.985C396.488 99.015 396.386 99.0383 396.283 99.055C396.179 99.075 396.081 99.085 395.988 99.085C395.738 99.085 395.486 99.0467 395.233 98.97C394.979 98.89 394.751 98.775 394.548 98.625C394.344 98.4717 394.178 98.2833 394.048 98.06C393.921 97.8333 393.858 97.5733 393.858 97.28C393.858 96.97 393.923 96.7033 394.053 96.48C394.186 96.2533 394.359 96.0667 394.573 95.92C394.786 95.7733 395.029 95.665 395.303 95.595C395.576 95.525 395.853 95.49 396.133 95.49C396.449 95.49 396.724 95.5083 396.958 95.545C397.191 95.5783 397.391 95.6267 397.558 95.69V95.475C397.558 95.2783 397.533 95.1017 397.483 94.945C397.436 94.7883 397.361 94.6567 397.258 94.55C397.154 94.44 397.021 94.3567 396.858 94.3C396.698 94.2433 396.506 94.215 396.283 94.215C396.073 94.215 395.891 94.2283 395.738 94.255C395.588 94.2783 395.448 94.305 395.318 94.335C395.241 94.3517 395.168 94.37 395.098 94.39C395.028 94.41 394.959 94.43 394.893 94.45L394.533 93.78C394.673 93.7167 394.839 93.6567 395.033 93.6C395.193 93.5533 395.374 93.5117 395.578 93.475C395.784 93.435 396.036 93.415 396.333 93.415C396.716 93.415 397.043 93.4667 397.313 93.57C397.583 93.6733 397.803 93.8183 397.973 94.005C398.143 94.1917 398.266 94.4167 398.343 94.68C398.419 94.94 398.458 95.23 398.458 95.55V98.1L398.558 99ZM397.558 96.375L397.258 96.335C397.211 96.3317 397.149 96.3267 397.073 96.32C396.996 96.3133 396.913 96.3083 396.823 96.305L396.558 96.295C396.471 96.2917 396.396 96.29 396.333 96.29C396.146 96.29 395.963 96.3067 395.783 96.34C395.603 96.3733 395.441 96.4283 395.298 96.505C395.158 96.5817 395.043 96.6833 394.953 96.81C394.866 96.9333 394.823 97.0883 394.823 97.275C394.823 97.425 394.856 97.5617 394.923 97.685C394.989 97.8083 395.078 97.915 395.188 98.005C395.301 98.095 395.429 98.165 395.573 98.215C395.719 98.2617 395.871 98.285 396.028 98.285C396.338 98.285 396.616 98.2267 396.863 98.11C397.109 97.99 397.341 97.83 397.558 97.63V96.375ZM404.062 98.325L403.627 98.875C403.597 98.895 403.553 98.9167 403.497 98.94C403.443 98.9633 403.377 98.985 403.297 99.005C403.217 99.0283 403.123 99.0467 403.017 99.06C402.91 99.0767 402.792 99.085 402.662 99.085C402.458 99.085 402.258 99.0517 402.062 98.985C401.865 98.9183 401.677 98.8233 401.497 98.7C401.32 98.5767 401.157 98.43 401.007 98.26C400.857 98.0867 400.725 97.8967 400.612 97.69C400.502 97.48 400.415 97.2567 400.352 97.02C400.292 96.78 400.262 96.5317 400.262 96.275C400.262 95.885 400.325 95.5167 400.452 95.17C400.578 94.8233 400.757 94.52 400.987 94.26C401.217 94 401.493 93.795 401.817 93.645C402.14 93.4917 402.498 93.415 402.892 93.415C403.015 93.415 403.135 93.42 403.252 93.43C403.372 93.44 403.483 93.4633 403.587 93.5L404.062 94.21V93.4L404.962 93.5V99.23C404.962 99.5567 404.908 99.8633 404.802 100.15C404.695 100.437 404.54 100.685 404.337 100.895C404.133 101.108 403.883 101.277 403.587 101.4C403.29 101.523 402.952 101.585 402.572 101.585C402.308 101.585 402.077 101.552 401.877 101.485C401.68 101.418 401.512 101.345 401.372 101.265C401.292 101.218 401.217 101.168 401.147 101.115C401.077 101.062 401.013 101.003 400.957 100.94L401.447 100.39C401.493 100.427 401.543 100.462 401.597 100.495C401.653 100.528 401.712 100.56 401.772 100.59C401.875 100.64 401.995 100.685 402.132 100.725C402.268 100.765 402.417 100.785 402.577 100.785C402.783 100.785 402.977 100.742 403.157 100.655C403.337 100.572 403.493 100.457 403.627 100.31C403.763 100.163 403.87 99.99 403.947 99.79C404.023 99.5933 404.062 99.3817 404.062 99.155V98.325ZM404.062 94.83C403.975 94.72 403.87 94.6183 403.747 94.525C403.643 94.4483 403.518 94.3783 403.372 94.315C403.225 94.2483 403.057 94.215 402.867 94.215C402.667 94.215 402.487 94.2467 402.327 94.31C402.167 94.3733 402.025 94.4583 401.902 94.565C401.782 94.6717 401.677 94.7967 401.587 94.94C401.5 95.08 401.428 95.23 401.372 95.39C401.318 95.5467 401.278 95.7067 401.252 95.87C401.225 96.03 401.212 96.185 401.212 96.335C401.212 96.6183 401.255 96.88 401.342 97.12C401.432 97.3567 401.548 97.5617 401.692 97.735C401.835 97.905 401.998 98.0383 402.182 98.135C402.365 98.2317 402.552 98.28 402.742 98.28C402.912 98.28 403.063 98.2617 403.197 98.225C403.33 98.1883 403.45 98.14 403.557 98.08C403.663 98.0167 403.757 97.9467 403.837 97.87C403.92 97.79 403.995 97.7083 404.062 97.625V94.83Z" fill="black"/>
<rect x="233" y="146" width="80" height="80" rx="20" fill="#88FEE2"/>
<rect x="92" y="31" width="80" height="80" rx="20" fill="#88FEE2"/>
<path d="M281 180L270 191L265 186" stroke="#042309" stroke-width="2" stroke-linecap="round" stroke-linejoin="round"/>
<path d="M138 65L126 77" stroke="#FF4848" stroke-width="2" stroke-linecap="round" stroke-linejoin="round"/>
<path d="M126 65L138 77" stroke="#FF4848" stroke-width="2" stroke-linecap="round" stroke-linejoin="round"/>
</g>
<defs>
<filter id="filter0_d_17_90" x="191" y="31" width="268" height="238" filterUnits="userSpaceOnUse" color-interpolation-filters="sRGB">
<feFlood flood-opacity="0" result="BackgroundImageFix"/>
<feColorMatrix in="SourceAlpha" type="matrix" values="0 0 0 0 0 0 0 0 0 0 0 0 0 0 0 0 0 0 127 0" result="hardAlpha"/>
<feOffset dy="4"/>
<feGaussianBlur stdDeviation="2"/>
<feComposite in2="hardAlpha" operator="out"/>
<feColorMatrix type="matrix" values="0 0 0 0 0 0 0 0 0 0 0 0 0 0 0 0 0 0 0.25 0"/>
<feBlend mode="normal" in2="BackgroundImageFix" result="effect1_dropShadow_17_90"/>
<feBlend mode="normal" in="SourceGraphic" in2="effect1_dropShadow_17_90" result="shape"/>
</filter>
<filter id="filter1_d_17_90" x="-4" y="232" width="180" height="112" filterUnits="userSpaceOnUse" color-interpolation-filters="sRGB">
<feFlood flood-opacity="0" result="BackgroundImageFix"/>
<feColorMatrix in="SourceAlpha" type="matrix" values="0 0 0 0 0 0 0 0 0 0 0 0 0 0 0 0 0 0 127 0" result="hardAlpha"/>
<feOffset dy="4"/>
<feGaussianBlur stdDeviation="2"/>
<feComposite in2="hardAlpha" operator="out"/>
<feColorMatrix type="matrix" values="0 0 0 0 0 0 0 0 0 0 0 0 0 0 0 0 0 0 0.25 0"/>
<feBlend mode="normal" in2="BackgroundImageFix" result="effect1_dropShadow_17_90"/>
<feBlend mode="normal" in="SourceGraphic" in2="effect1_dropShadow_17_90" result="shape"/>
</filter>
<clipPath id="clip0_17_90">
<rect width="491" height="336" fill="white"/>
</clipPath>
</defs>
</svg>
