<svg width="491" height="336" viewBox="0 0 491 336" fill="none" xmlns="http://www.w3.org/2000/svg">
<g clip-path="url(#clip0_17_65)">
<rect width="491" height="336" fill="none"/>
<path d="M355 177.5C298 181 245.5 174 209.5 105M355.5 108.5C321.37 108.5 296.716 100.5 274.662 60" stroke="#6A6868" stroke-opacity="0.46"/>
<g filter="url(#filter0_d_17_65)">
<path d="M0 232H142C158.569 232 172 245.431 172 262V336H0V232Z" fill="#D9D9D9" fill-opacity="0.12" shape-rendering="crispEdges"/>
</g>
<path d="M42.125 278H36.2109V262H42.1172C43.7474 262 45.151 262.32 46.3281 262.961C47.5104 263.596 48.4219 264.513 49.0625 265.711C49.7031 266.904 50.0234 268.331 50.0234 269.992C50.0234 271.659 49.7031 273.091 49.0625 274.289C48.4271 275.487 47.5182 276.406 46.3359 277.047C45.1536 277.682 43.75 278 42.125 278ZM40.0781 274.703H41.9766C42.8724 274.703 43.6302 274.552 44.25 274.25C44.875 273.943 45.3464 273.445 45.6641 272.758C45.987 272.065 46.1484 271.143 46.1484 269.992C46.1484 268.841 45.987 267.924 45.6641 267.242C45.3411 266.555 44.8646 266.06 44.2344 265.758C43.6094 265.451 42.8385 265.297 41.9219 265.297H40.0781V274.703ZM52.2813 278V266H55.9922V268.187H56.1172C56.3359 267.396 56.6927 266.807 57.1875 266.422C57.6823 266.031 58.2578 265.836 58.9141 265.836C59.0911 265.836 59.2734 265.849 59.4609 265.875C59.6484 265.896 59.8229 265.93 59.9844 265.977V269.297C59.8021 269.234 59.5625 269.185 59.2656 269.148C58.974 269.112 58.7135 269.094 58.4844 269.094C58.0313 269.094 57.6224 269.195 57.2578 269.398C56.8984 269.596 56.6146 269.875 56.4063 270.234C56.2031 270.589 56.1016 271.005 56.1016 271.484V278H52.2813ZM64.4727 278.203C63.707 278.203 63.0273 278.076 62.4336 277.82C61.8451 277.56 61.3789 277.169 61.0352 276.648C60.6966 276.122 60.5273 275.464 60.5273 274.672C60.5273 274.005 60.6445 273.443 60.8789 272.984C61.1133 272.526 61.4362 272.154 61.8477 271.867C62.2591 271.581 62.7331 271.365 63.2695 271.219C63.806 271.068 64.3789 270.966 64.9883 270.914C65.6706 270.852 66.2201 270.786 66.6367 270.719C67.0534 270.646 67.3555 270.544 67.543 270.414C67.7357 270.279 67.832 270.089 67.832 269.844V269.805C67.832 269.404 67.694 269.094 67.418 268.875C67.1419 268.656 66.7695 268.547 66.3008 268.547C65.7956 268.547 65.3893 268.656 65.082 268.875C64.7747 269.094 64.5794 269.396 64.4961 269.781L60.9727 269.656C61.0768 268.927 61.3451 268.276 61.7773 267.703C62.2148 267.125 62.8138 266.672 63.5742 266.344C64.3398 266.01 65.2591 265.844 66.332 265.844C67.0977 265.844 67.8034 265.935 68.4492 266.117C69.0951 266.294 69.6576 266.555 70.1367 266.898C70.6159 267.237 70.9857 267.654 71.2461 268.148C71.5117 268.643 71.6445 269.208 71.6445 269.844V278H68.0508V276.328H67.957C67.7435 276.734 67.4701 277.078 67.1367 277.359C66.8086 277.641 66.4206 277.852 65.9727 277.992C65.5299 278.133 65.0299 278.203 64.4727 278.203ZM65.6523 275.703C66.0638 275.703 66.4336 275.62 66.7617 275.453C67.0951 275.286 67.3607 275.057 67.5586 274.766C67.7565 274.469 67.8555 274.125 67.8555 273.734V272.594C67.7461 272.651 67.6133 272.703 67.457 272.75C67.306 272.797 67.1393 272.841 66.957 272.883C66.7747 272.924 66.5872 272.961 66.3945 272.992C66.2018 273.023 66.0169 273.052 65.8398 273.078C65.4805 273.135 65.1732 273.224 64.918 273.344C64.668 273.464 64.4753 273.62 64.3398 273.812C64.2096 274 64.1445 274.224 64.1445 274.484C64.1445 274.88 64.2852 275.182 64.5664 275.391C64.8529 275.599 65.2148 275.703 65.6523 275.703ZM79.5742 282.75C78.4336 282.75 77.457 282.591 76.6445 282.273C75.832 281.956 75.194 281.521 74.7305 280.969C74.2669 280.417 73.9883 279.792 73.8945 279.094L77.5117 278.891C77.5794 279.135 77.7044 279.349 77.8867 279.531C78.0742 279.714 78.3164 279.854 78.6133 279.953C78.9154 280.052 79.2695 280.102 79.6758 280.102C80.3164 280.102 80.8451 279.945 81.2617 279.633C81.6836 279.326 81.8945 278.786 81.8945 278.016V275.906H81.7617C81.6107 276.276 81.3815 276.607 81.0742 276.898C80.7669 277.19 80.3841 277.419 79.9258 277.586C79.4727 277.753 78.9518 277.836 78.3633 277.836C77.4883 277.836 76.6862 277.633 75.957 277.227C75.2331 276.815 74.6523 276.18 74.2148 275.32C73.7826 274.456 73.5664 273.344 73.5664 271.984C73.5664 270.583 73.7904 269.43 74.2383 268.523C74.6862 267.612 75.2721 266.937 75.9961 266.5C76.7253 266.062 77.5091 265.844 78.3477 265.844C78.9779 265.844 79.5169 265.953 79.9648 266.172C80.418 266.385 80.7904 266.661 81.082 267C81.3737 267.339 81.5951 267.69 81.7461 268.055H81.8555V266H85.6602V278.047C85.6602 279.063 85.4049 279.919 84.8945 280.617C84.3841 281.315 83.6706 281.844 82.7539 282.203C81.8372 282.568 80.7773 282.75 79.5742 282.75ZM79.6914 275.055C80.1549 275.055 80.5508 274.932 80.8789 274.687C81.207 274.443 81.4596 274.091 81.6367 273.633C81.8138 273.174 81.9023 272.625 81.9023 271.984C81.9023 271.333 81.8138 270.773 81.6367 270.305C81.4648 269.831 81.2122 269.466 80.8789 269.211C80.5508 268.956 80.1549 268.828 79.6914 268.828C79.2174 268.828 78.8164 268.958 78.4883 269.219C78.1602 269.479 77.9102 269.846 77.7383 270.32C77.5716 270.789 77.4883 271.344 77.4883 271.984C77.4883 272.625 77.5742 273.174 77.7461 273.633C77.918 274.091 78.1654 274.443 78.4883 274.687C78.8164 274.932 79.2174 275.055 79.6914 275.055ZM98.877 278.219C97.6582 278.219 96.5775 278.01 95.6348 277.594C94.6973 277.172 93.9577 276.591 93.416 275.852C92.8743 275.112 92.5983 274.26 92.5879 273.297H96.4785C96.4941 273.646 96.6061 273.956 96.8145 274.227C97.0228 274.492 97.3066 274.701 97.666 274.852C98.0254 275.003 98.4342 275.078 98.8926 275.078C99.3509 275.078 99.7546 274.997 100.104 274.836C100.458 274.669 100.734 274.443 100.932 274.156C101.13 273.865 101.226 273.531 101.221 273.156C101.226 272.781 101.119 272.448 100.9 272.156C100.682 271.865 100.372 271.638 99.9707 271.477C99.5749 271.315 99.1061 271.234 98.5645 271.234H97.0098V268.484H98.5645C99.0384 268.484 99.4551 268.406 99.8145 268.25C100.179 268.094 100.463 267.875 100.666 267.594C100.869 267.307 100.968 266.979 100.963 266.609C100.968 266.25 100.882 265.935 100.705 265.664C100.533 265.388 100.291 265.174 99.9785 265.023C99.6712 264.872 99.3145 264.797 98.9082 264.797C98.4811 264.797 98.0931 264.872 97.7441 265.023C97.4004 265.174 97.127 265.388 96.9238 265.664C96.7207 265.94 96.6139 266.26 96.6035 266.625H92.9082C92.9186 265.672 93.1842 264.833 93.7051 264.109C94.2259 263.38 94.9342 262.81 95.8301 262.398C96.7311 261.987 97.7572 261.781 98.9082 261.781C100.054 261.781 101.062 261.982 101.932 262.383C102.801 262.784 103.479 263.331 103.963 264.023C104.447 264.711 104.689 265.49 104.689 266.359C104.695 267.26 104.4 268.003 103.807 268.586C103.218 269.169 102.46 269.529 101.533 269.664V269.789C102.773 269.935 103.708 270.336 104.338 270.992C104.973 271.648 105.288 272.469 105.283 273.453C105.283 274.38 105.01 275.203 104.463 275.922C103.921 276.635 103.166 277.198 102.197 277.609C101.234 278.016 100.127 278.219 98.877 278.219ZM113.41 278H107.496V262H113.402C115.033 262 116.436 262.32 117.613 262.961C118.796 263.596 119.707 264.513 120.348 265.711C120.988 266.904 121.309 268.331 121.309 269.992C121.309 271.659 120.988 273.091 120.348 274.289C119.712 275.487 118.803 276.406 117.621 277.047C116.439 277.682 115.035 278 113.41 278ZM111.363 274.703H113.262C114.158 274.703 114.915 274.552 115.535 274.25C116.16 273.943 116.632 273.445 116.949 272.758C117.272 272.065 117.434 271.143 117.434 269.992C117.434 268.841 117.272 267.924 116.949 267.242C116.626 266.555 116.15 266.06 115.52 265.758C114.895 265.451 114.124 265.297 113.207 265.297H111.363V274.703ZM35.6875 292.141V289H49.2109V292.141H44.3594V305H40.5469V292.141H35.6875ZM49.8535 305V293H53.5645V295.187H53.6895C53.9082 294.396 54.265 293.807 54.7598 293.422C55.2546 293.031 55.8301 292.836 56.4863 292.836C56.6634 292.836 56.8457 292.849 57.0332 292.875C57.2207 292.896 57.3952 292.93 57.5566 292.977V296.297C57.3743 296.234 57.1348 296.185 56.8379 296.148C56.5462 296.112 56.2858 296.094 56.0566 296.094C55.6035 296.094 55.1947 296.195 54.8301 296.398C54.4707 296.596 54.1868 296.875 53.9785 297.234C53.7754 297.589 53.6738 298.005 53.6738 298.484V305H49.8535ZM62.0449 305.203C61.2793 305.203 60.5996 305.076 60.0059 304.82C59.4173 304.56 58.9512 304.169 58.6074 303.648C58.2689 303.122 58.0996 302.464 58.0996 301.672C58.0996 301.005 58.2168 300.443 58.4512 299.984C58.6855 299.526 59.0085 299.154 59.4199 298.867C59.8314 298.581 60.3053 298.365 60.8418 298.219C61.3783 298.068 61.9512 297.966 62.5605 297.914C63.2428 297.852 63.7923 297.786 64.209 297.719C64.6257 297.646 64.9277 297.544 65.1152 297.414C65.3079 297.279 65.4043 297.089 65.4043 296.844V296.805C65.4043 296.404 65.2663 296.094 64.9902 295.875C64.7142 295.656 64.3418 295.547 63.873 295.547C63.3678 295.547 62.9616 295.656 62.6543 295.875C62.347 296.094 62.1517 296.396 62.0684 296.781L58.5449 296.656C58.6491 295.927 58.9173 295.276 59.3496 294.703C59.7871 294.125 60.3861 293.672 61.1465 293.344C61.9121 293.01 62.8314 292.844 63.9043 292.844C64.6699 292.844 65.3757 292.935 66.0215 293.117C66.6673 293.294 67.2298 293.555 67.709 293.898C68.1882 294.237 68.5579 294.654 68.8184 295.148C69.084 295.643 69.2168 296.208 69.2168 296.844V305H65.623V303.328H65.5293C65.3158 303.734 65.0423 304.078 64.709 304.359C64.3809 304.641 63.9928 304.852 63.5449 304.992C63.1022 305.133 62.6022 305.203 62.0449 305.203ZM63.2246 302.703C63.6361 302.703 64.0059 302.62 64.334 302.453C64.6673 302.286 64.9329 302.057 65.1309 301.766C65.3288 301.469 65.4277 301.125 65.4277 300.734V299.594C65.3184 299.651 65.1855 299.703 65.0293 299.75C64.8783 299.797 64.7116 299.841 64.5293 299.883C64.347 299.924 64.1595 299.961 63.9668 299.992C63.7741 300.023 63.5892 300.052 63.4121 300.078C63.0527 300.135 62.7454 300.224 62.4902 300.344C62.2402 300.464 62.0475 300.62 61.9121 300.812C61.7819 301 61.7168 301.224 61.7168 301.484C61.7168 301.88 61.8574 302.182 62.1387 302.391C62.4251 302.599 62.7871 302.703 63.2246 302.703ZM75.373 298.156V305H71.5527V293H75.1855V295.203H75.3184C75.584 294.469 76.0371 293.893 76.6777 293.477C77.3184 293.055 78.0814 292.844 78.9668 292.844C79.8105 292.844 80.5423 293.034 81.1621 293.414C81.7871 293.789 82.2715 294.315 82.6152 294.992C82.9642 295.664 83.1361 296.451 83.1309 297.352V305H79.3105V298.102C79.3158 297.435 79.1465 296.914 78.8027 296.539C78.4642 296.164 77.9928 295.977 77.3887 295.977C76.9876 295.977 76.6335 296.065 76.3262 296.242C76.0241 296.414 75.7897 296.661 75.623 296.984C75.4616 297.307 75.3783 297.698 75.373 298.156ZM95.9727 296.664L92.4648 296.758C92.4284 296.508 92.3294 296.286 92.168 296.094C92.0065 295.896 91.7956 295.742 91.5352 295.633C91.2799 295.518 90.9831 295.461 90.6445 295.461C90.2018 295.461 89.8242 295.549 89.5117 295.727C89.2044 295.904 89.0534 296.143 89.0586 296.445C89.0534 296.68 89.1471 296.883 89.3398 297.055C89.5378 297.227 89.8893 297.365 90.3945 297.469L92.707 297.906C93.9049 298.135 94.7956 298.516 95.3789 299.047C95.9674 299.578 96.2643 300.281 96.2695 301.156C96.2643 301.979 96.0195 302.695 95.5352 303.305C95.056 303.914 94.3997 304.388 93.5664 304.727C92.7331 305.06 91.7799 305.227 90.707 305.227C88.9935 305.227 87.6419 304.875 86.6523 304.172C85.668 303.464 85.1055 302.516 84.9648 301.328L88.7383 301.234C88.8216 301.672 89.0378 302.005 89.3867 302.234C89.7357 302.464 90.181 302.578 90.7227 302.578C91.2122 302.578 91.6107 302.487 91.918 302.305C92.2253 302.122 92.3815 301.88 92.3867 301.578C92.3815 301.307 92.2617 301.091 92.0273 300.93C91.793 300.763 91.4258 300.633 90.9258 300.539L88.832 300.141C87.6289 299.922 86.7331 299.518 86.1445 298.93C85.556 298.336 85.2643 297.581 85.2695 296.664C85.2643 295.862 85.4779 295.177 85.9102 294.609C86.3424 294.036 86.957 293.599 87.7539 293.297C88.5508 292.995 89.4909 292.844 90.5742 292.844C92.1992 292.844 93.4805 293.185 94.418 293.867C95.3555 294.544 95.8737 295.477 95.9727 296.664ZM104.971 293V295.812H97.252V293H104.971ZM98.8613 305V292.391C98.8613 291.464 99.0358 290.695 99.3848 290.086C99.7337 289.471 100.218 289.013 100.838 288.711C101.458 288.404 102.174 288.25 102.986 288.25C103.518 288.25 104.018 288.292 104.486 288.375C104.96 288.453 105.312 288.523 105.541 288.586L104.932 291.383C104.791 291.336 104.619 291.297 104.416 291.266C104.218 291.234 104.031 291.219 103.854 291.219C103.406 291.219 103.098 291.318 102.932 291.516C102.765 291.714 102.682 291.984 102.682 292.328V305H98.8613ZM112.023 305.227C110.763 305.227 109.68 304.969 108.773 304.453C107.872 303.932 107.177 303.208 106.687 302.281C106.203 301.349 105.961 300.268 105.961 299.039C105.961 297.805 106.203 296.724 106.687 295.797C107.177 294.865 107.872 294.141 108.773 293.625C109.68 293.104 110.763 292.844 112.023 292.844C113.284 292.844 114.365 293.104 115.266 293.625C116.172 294.141 116.867 294.865 117.352 295.797C117.841 296.724 118.086 297.805 118.086 299.039C118.086 300.268 117.841 301.349 117.352 302.281C116.867 303.208 116.172 303.932 115.266 304.453C114.365 304.969 113.284 305.227 112.023 305.227ZM112.047 302.344C112.505 302.344 112.893 302.203 113.211 301.922C113.529 301.641 113.771 301.25 113.938 300.75C114.109 300.25 114.195 299.672 114.195 299.016C114.195 298.349 114.109 297.766 113.938 297.266C113.771 296.766 113.529 296.375 113.211 296.094C112.893 295.812 112.505 295.672 112.047 295.672C111.573 295.672 111.172 295.812 110.844 296.094C110.521 296.375 110.273 296.766 110.102 297.266C109.935 297.766 109.852 298.349 109.852 299.016C109.852 299.672 109.935 300.25 110.102 300.75C110.273 301.25 110.521 301.641 110.844 301.922C111.172 302.203 111.573 302.344 112.047 302.344ZM120.043 305V293H123.754V295.187H123.879C124.098 294.396 124.454 293.807 124.949 293.422C125.444 293.031 126.02 292.836 126.676 292.836C126.853 292.836 127.035 292.849 127.223 292.875C127.41 292.896 127.585 292.93 127.746 292.977V296.297C127.564 296.234 127.324 296.185 127.027 296.148C126.736 296.112 126.475 296.094 126.246 296.094C125.793 296.094 125.384 296.195 125.02 296.398C124.66 296.596 124.376 296.875 124.168 297.234C123.965 297.589 123.863 298.005 123.863 298.484V305H120.043ZM129.303 305V293H132.936V295.203H133.068C133.318 294.474 133.74 293.898 134.334 293.477C134.928 293.055 135.636 292.844 136.459 292.844C137.292 292.844 138.006 293.057 138.6 293.484C139.193 293.911 139.571 294.484 139.732 295.203H139.857C140.081 294.49 140.519 293.919 141.17 293.492C141.821 293.06 142.589 292.844 143.475 292.844C144.61 292.844 145.532 293.208 146.24 293.937C146.949 294.661 147.303 295.656 147.303 296.922V305H143.482V297.797C143.482 297.198 143.329 296.742 143.021 296.43C142.714 296.112 142.316 295.953 141.826 295.953C141.3 295.953 140.886 296.125 140.584 296.469C140.287 296.807 140.139 297.263 140.139 297.836V305H136.467V297.758C136.467 297.201 136.316 296.76 136.014 296.437C135.712 296.115 135.313 295.953 134.818 295.953C134.485 295.953 134.191 296.034 133.936 296.195C133.68 296.352 133.48 296.576 133.334 296.867C133.193 297.159 133.123 297.503 133.123 297.898V305H129.303Z" fill="white"/>
<rect x="325" y="118" width="50" height="50" rx="25" fill="#D9D9D9" fill-opacity="0.75"/>
<rect x="315" y="108" width="70" height="70" rx="20" fill="#D9D9D9" fill-opacity="0.23"/>
<g filter="url(#filter1_d_17_65)">
<rect x="191" y="74" width="80" height="80" rx="20" transform="rotate(-30 191 74)" fill="#D9D9D9" fill-opacity="0.23" shape-rendering="crispEdges"/>
</g>
<path d="M344.15 141.89C344.15 141.317 344.037 140.857 343.81 140.51C343.59 140.157 343.293 139.9 342.92 139.74C342.553 139.573 342.143 139.49 341.69 139.49C341.483 139.49 341.3 139.497 341.14 139.51C340.98 139.523 340.833 139.543 340.7 139.57V144.33C340.86 144.37 341.03 144.397 341.21 144.41C341.397 144.423 341.587 144.43 341.78 144.43C342.56 144.43 343.15 144.217 343.55 143.79C343.95 143.357 344.15 142.723 344.15 141.89ZM344.98 141.89C344.98 142.617 344.847 143.22 344.58 143.7C344.32 144.173 343.95 144.527 343.47 144.76C342.997 144.993 342.437 145.11 341.79 145.11C341.583 145.11 341.343 145.1 341.07 145.08C340.803 145.067 340.55 145.023 340.31 144.95C340.03 144.863 339.89 144.71 339.89 144.49V139.35C339.89 139.243 339.917 139.163 339.97 139.11C340.03 139.05 340.113 139.003 340.22 138.97C340.427 138.903 340.66 138.86 340.92 138.84C341.18 138.82 341.44 138.81 341.7 138.81C342.353 138.81 342.923 138.927 343.41 139.16C343.903 139.387 344.287 139.727 344.56 140.18C344.84 140.633 344.98 141.203 344.98 141.89ZM347.073 141.24V142.82H346.273V141.3C346.273 141.147 346.3 141.027 346.353 140.94C346.413 140.847 346.51 140.757 346.643 140.67C346.817 140.557 347.053 140.46 347.353 140.38C347.653 140.293 347.987 140.25 348.353 140.25C348.887 140.25 349.153 140.383 349.153 140.65C349.153 140.717 349.143 140.78 349.123 140.84C349.103 140.893 349.077 140.94 349.043 140.98C348.977 140.967 348.89 140.953 348.783 140.94C348.677 140.927 348.57 140.92 348.463 140.92C348.157 140.92 347.887 140.953 347.653 141.02C347.42 141.08 347.227 141.153 347.073 141.24ZM346.273 142.36L347.073 142.48V144.98C347.04 144.993 346.99 145.007 346.923 145.02C346.857 145.04 346.783 145.05 346.703 145.05C346.563 145.05 346.457 145.023 346.383 144.97C346.31 144.91 346.273 144.817 346.273 144.69V142.36ZM351.693 144.48C351.973 144.48 352.203 144.453 352.383 144.4C352.57 144.34 352.703 144.283 352.783 144.23V142.78L351.543 142.91C351.196 142.937 350.94 143.013 350.773 143.14C350.606 143.267 350.523 143.45 350.523 143.69C350.523 143.937 350.62 144.13 350.813 144.27C351.013 144.41 351.306 144.48 351.693 144.48ZM351.683 140.25C352.263 140.25 352.723 140.38 353.063 140.64C353.403 140.9 353.573 141.31 353.573 141.87V144.24C353.573 144.387 353.543 144.5 353.483 144.58C353.43 144.653 353.346 144.723 353.233 144.79C353.073 144.877 352.86 144.957 352.593 145.03C352.326 145.103 352.026 145.14 351.693 145.14C351.066 145.14 350.58 145.017 350.233 144.77C349.893 144.523 349.723 144.167 349.723 143.7C349.723 143.267 349.866 142.937 350.153 142.71C350.446 142.477 350.85 142.337 351.363 142.29L352.783 142.15V141.87C352.783 141.537 352.683 141.293 352.483 141.14C352.283 140.987 352.013 140.91 351.673 140.91C351.4 140.91 351.136 140.95 350.883 141.03C350.636 141.11 350.416 141.2 350.223 141.3C350.17 141.253 350.12 141.2 350.073 141.14C350.033 141.073 350.013 141.007 350.013 140.94C350.013 140.767 350.11 140.633 350.303 140.54C350.483 140.447 350.69 140.377 350.923 140.33C351.163 140.277 351.416 140.25 351.683 140.25ZM356.953 144.86C356.567 144.86 356.21 144.787 355.883 144.64C355.557 144.487 355.293 144.24 355.093 143.9C354.893 143.56 354.793 143.11 354.793 142.55C354.793 142.043 354.89 141.62 355.083 141.28C355.283 140.94 355.557 140.683 355.903 140.51C356.25 140.337 356.647 140.25 357.093 140.25C357.4 140.25 357.68 140.29 357.933 140.37C358.193 140.443 358.41 140.537 358.583 140.65C358.683 140.717 358.763 140.793 358.823 140.88C358.89 140.96 358.923 141.06 358.923 141.18V144.27H358.123V141.19C358.01 141.117 357.867 141.053 357.693 141C357.527 140.94 357.327 140.91 357.093 140.91C356.647 140.91 356.287 141.047 356.013 141.32C355.74 141.593 355.603 142 355.603 142.54C355.603 143.14 355.74 143.567 356.013 143.82C356.293 144.073 356.637 144.2 357.043 144.2C357.337 144.2 357.573 144.15 357.753 144.05C357.933 143.95 358.077 143.84 358.183 143.72L358.223 144.43C358.123 144.537 357.963 144.637 357.743 144.73C357.53 144.817 357.267 144.86 356.953 144.86ZM358.123 145.15V144.1H358.923V145.2C358.923 145.64 358.827 145.993 358.633 146.26C358.447 146.527 358.187 146.72 357.853 146.84C357.527 146.96 357.157 147.02 356.743 147.02C356.41 147.02 356.123 146.983 355.883 146.91C355.643 146.837 355.48 146.777 355.393 146.73C355.193 146.617 355.093 146.473 355.093 146.3C355.093 146.207 355.113 146.127 355.153 146.06C355.2 146 355.257 145.953 355.323 145.92C355.463 146.027 355.66 146.123 355.913 146.21C356.173 146.303 356.45 146.35 356.743 146.35C357.19 146.35 357.53 146.253 357.763 146.06C358.003 145.867 358.123 145.563 358.123 145.15Z" fill="#262222"/>
</g>
<defs>
<filter id="filter0_d_17_65" x="-4" y="232" width="180" height="112" filterUnits="userSpaceOnUse" color-interpolation-filters="sRGB">
<feFlood flood-opacity="0" result="BackgroundImageFix"/>
<feColorMatrix in="SourceAlpha" type="matrix" values="0 0 0 0 0 0 0 0 0 0 0 0 0 0 0 0 0 0 127 0" result="hardAlpha"/>
<feOffset dy="4"/>
<feGaussianBlur stdDeviation="2"/>
<feComposite in2="hardAlpha" operator="out"/>
<feColorMatrix type="matrix" values="0 0 0 0 0 0 0 0 0 0 0 0 0 0 0 0 0 0 0.25 0"/>
<feBlend mode="normal" in2="BackgroundImageFix" result="effect1_dropShadow_17_65"/>
<feBlend mode="normal" in="SourceGraphic" in2="effect1_dropShadow_17_65" result="shape"/>
</filter>
<filter id="filter1_d_17_65" x="194.321" y="41.3205" width="102.641" height="102.641" filterUnits="userSpaceOnUse" color-interpolation-filters="sRGB">
<feFlood flood-opacity="0" result="BackgroundImageFix"/>
<feColorMatrix in="SourceAlpha" type="matrix" values="0 0 0 0 0 0 0 0 0 0 0 0 0 0 0 0 0 0 127 0" result="hardAlpha"/>
<feOffset dy="4"/>
<feGaussianBlur stdDeviation="2"/>
<feComposite in2="hardAlpha" operator="out"/>
<feColorMatrix type="matrix" values="0 0 0 0 0 0 0 0 0 0 0 0 0 0 0 0 0 0 0.25 0"/>
<feBlend mode="normal" in2="BackgroundImageFix" result="effect1_dropShadow_17_65"/>
<feBlend mode="normal" in="SourceGraphic" in2="effect1_dropShadow_17_65" result="shape"/>
</filter>
<clipPath id="clip0_17_65">
<rect width="491" height="336" fill="white"/>
</clipPath>
</defs>
</svg>
