<svg width="491" height="336" viewBox="0 0 491 336" fill="none" xmlns="http://www.w3.org/2000/svg">
<rect width="491" height="336" fill="none"/>
<rect x="60" y="94" width="148" height="148" rx="25" fill="#F7F5F5"/>
<rect x="246.348" y="168" width="140" height="140" rx="25" transform="rotate(-45 246.348 168)" fill="#F7F5F5"/>
<g clip-path="url(#clip0_1_27)">
<path d="M332.452 72.8004C333.082 69.8388 335.041 67.2865 337.898 65.7051C340.755 64.1236 344.277 63.6425 347.689 64.3677C351.282 65.1437 354.475 67.0955 356.599 69.8148L359.233 73.3055" stroke="white" stroke-width="1.5" stroke-linecap="round" stroke-linejoin="round"/>
<path d="M360.551 67.1017L359.233 73.3055L352.087 71.7865" stroke="white" stroke-width="1.5" stroke-linecap="round" stroke-linejoin="round"/>
</g>
<path d="M337.776 57V55.858L340.805 52.8878C341.095 52.5952 341.337 52.3352 341.53 52.108C341.723 51.8807 341.868 51.6605 341.964 51.4474C342.061 51.2344 342.109 51.0071 342.109 50.7656C342.109 50.4901 342.047 50.2543 341.922 50.0582C341.797 49.8594 341.625 49.706 341.406 49.598C341.188 49.4901 340.939 49.4361 340.661 49.4361C340.374 49.4361 340.122 49.4957 339.906 49.6151C339.69 49.7315 339.523 49.8977 339.403 50.1136C339.287 50.3295 339.229 50.5866 339.229 50.8849H337.724C337.724 50.331 337.851 49.8494 338.104 49.4403C338.357 49.0312 338.705 48.7145 339.148 48.4901C339.594 48.2656 340.105 48.1534 340.682 48.1534C341.267 48.1534 341.781 48.2628 342.224 48.4815C342.668 48.7003 343.011 49 343.256 49.3807C343.503 49.7614 343.626 50.196 343.626 50.6847C343.626 51.0114 343.564 51.3324 343.439 51.6477C343.314 51.9631 343.094 52.3125 342.778 52.696C342.466 53.0795 342.027 53.544 341.462 54.0895L339.957 55.6193V55.679H343.759V57H337.776ZM346.507 50.4545L347.828 52.8707L349.17 50.4545H350.803L348.83 53.7273L350.837 57H349.213L347.828 54.6435L346.456 57H344.82L346.814 53.7273L344.871 50.4545H346.507Z" fill="white"/>
<path d="M331.81 279.119C331.241 279.119 330.733 279.013 330.284 278.8C329.835 278.584 329.479 278.288 329.214 277.913C328.953 277.538 328.814 277.109 328.797 276.626H330.331C330.359 276.984 330.514 277.277 330.795 277.504C331.077 277.729 331.415 277.841 331.81 277.841C332.119 277.841 332.395 277.77 332.636 277.628C332.878 277.486 333.068 277.288 333.207 277.036C333.347 276.783 333.415 276.494 333.412 276.17C333.415 275.841 333.345 275.548 333.203 275.293C333.061 275.037 332.866 274.837 332.619 274.692C332.372 274.544 332.088 274.47 331.767 274.47C331.506 274.467 331.249 274.516 330.996 274.615C330.743 274.714 330.543 274.845 330.395 275.007L328.967 274.773L329.423 270.273H334.486V271.594H330.732L330.48 273.908H330.531C330.693 273.717 330.922 273.56 331.217 273.435C331.513 273.307 331.837 273.243 332.189 273.243C332.717 273.243 333.189 273.368 333.604 273.618C334.018 273.865 334.345 274.206 334.584 274.641C334.822 275.075 334.942 275.572 334.942 276.132C334.942 276.709 334.808 277.223 334.541 277.675C334.277 278.124 333.909 278.477 333.438 278.736C332.969 278.991 332.426 279.119 331.81 279.119ZM344.174 272.672C344.134 272.3 343.967 272.01 343.671 271.803C343.379 271.595 342.998 271.491 342.529 271.491C342.2 271.491 341.917 271.541 341.681 271.641C341.445 271.74 341.265 271.875 341.14 272.045C341.015 272.216 340.951 272.411 340.948 272.629C340.948 272.811 340.989 272.969 341.072 273.102C341.157 273.236 341.272 273.349 341.417 273.443C341.562 273.534 341.722 273.611 341.898 273.673C342.075 273.736 342.252 273.788 342.431 273.831L343.249 274.036C343.579 274.112 343.896 274.216 344.2 274.347C344.506 274.477 344.781 274.642 345.022 274.841C345.266 275.04 345.46 275.28 345.602 275.561C345.744 275.842 345.815 276.172 345.815 276.55C345.815 277.061 345.684 277.511 345.423 277.901C345.161 278.287 344.783 278.589 344.289 278.808C343.798 279.024 343.202 279.132 342.504 279.132C341.825 279.132 341.235 279.027 340.735 278.817C340.238 278.607 339.849 278.3 339.567 277.896C339.289 277.493 339.138 277.001 339.116 276.422H340.671C340.694 276.726 340.788 276.979 340.952 277.18C341.117 277.382 341.332 277.533 341.596 277.632C341.863 277.732 342.161 277.781 342.491 277.781C342.835 277.781 343.136 277.73 343.394 277.628C343.656 277.523 343.86 277.378 344.008 277.193C344.156 277.006 344.231 276.787 344.234 276.537C344.231 276.31 344.164 276.122 344.033 275.974C343.903 275.824 343.719 275.699 343.484 275.599C343.251 275.497 342.978 275.406 342.665 275.327L341.673 275.071C340.954 274.886 340.386 274.607 339.968 274.232C339.553 273.854 339.346 273.352 339.346 272.727C339.346 272.213 339.485 271.763 339.763 271.376C340.045 270.99 340.427 270.69 340.91 270.477C341.393 270.261 341.94 270.153 342.55 270.153C343.17 270.153 343.712 270.261 344.178 270.477C344.647 270.69 345.015 270.987 345.282 271.368C345.549 271.746 345.687 272.18 345.695 272.672H344.174ZM350.054 279.128C349.397 279.128 348.831 278.991 348.353 278.719C347.879 278.443 347.514 278.054 347.258 277.551C347.002 277.045 346.875 276.45 346.875 275.766C346.875 275.092 347.002 274.501 347.258 273.993C347.517 273.482 347.877 273.084 348.341 272.8C348.804 272.513 349.348 272.369 349.973 272.369C350.376 272.369 350.757 272.435 351.115 272.565C351.475 272.693 351.794 272.892 352.069 273.162C352.348 273.432 352.566 273.776 352.725 274.193C352.885 274.608 352.964 275.102 352.964 275.676V276.149H347.599V275.109H351.485C351.483 274.814 351.419 274.551 351.294 274.321C351.169 274.088 350.994 273.905 350.77 273.771C350.548 273.638 350.289 273.571 349.994 273.571C349.679 273.571 349.402 273.648 349.163 273.801C348.924 273.952 348.738 274.151 348.605 274.398C348.474 274.642 348.407 274.911 348.404 275.203V276.111C348.404 276.491 348.474 276.818 348.613 277.091C348.752 277.361 348.947 277.568 349.197 277.713C349.447 277.855 349.74 277.926 350.075 277.926C350.299 277.926 350.502 277.895 350.684 277.832C350.866 277.767 351.024 277.672 351.157 277.547C351.291 277.422 351.392 277.267 351.46 277.082L352.9 277.244C352.809 277.625 352.636 277.957 352.38 278.241C352.127 278.523 351.804 278.741 351.409 278.898C351.014 279.051 350.562 279.128 350.054 279.128ZM357.124 279.128C356.471 279.128 355.91 278.984 355.441 278.697C354.975 278.411 354.616 278.014 354.363 277.509C354.113 277 353.988 276.415 353.988 275.753C353.988 275.088 354.116 274.501 354.371 273.993C354.627 273.482 354.988 273.084 355.454 272.8C355.923 272.513 356.477 272.369 357.116 272.369C357.647 272.369 358.117 272.467 358.526 272.663C358.938 272.857 359.266 273.131 359.511 273.486C359.755 273.838 359.894 274.25 359.928 274.722H358.454C358.394 274.406 358.252 274.143 358.028 273.933C357.806 273.72 357.509 273.614 357.137 273.614C356.822 273.614 356.545 273.699 356.306 273.869C356.067 274.037 355.881 274.278 355.748 274.594C355.617 274.909 355.552 275.287 355.552 275.727C355.552 276.173 355.617 276.557 355.748 276.878C355.879 277.196 356.062 277.442 356.298 277.615C356.536 277.786 356.816 277.871 357.137 277.871C357.364 277.871 357.567 277.828 357.746 277.743C357.928 277.655 358.08 277.528 358.202 277.364C358.325 277.199 358.408 276.999 358.454 276.763H359.928C359.891 277.226 359.755 277.636 359.519 277.994C359.283 278.349 358.962 278.628 358.556 278.83C358.15 279.028 357.673 279.128 357.124 279.128Z" fill="white"/>
<rect x="276" y="167.711" width="100" height="100" rx="20" transform="rotate(-45 276 167.711)" fill="#93EAFD"/>
<path d="M103.506 154H98.9357V141.636H103.5C104.759 141.636 105.844 141.884 106.754 142.379C107.667 142.87 108.371 143.578 108.866 144.504C109.362 145.426 109.609 146.528 109.609 147.812C109.609 149.1 109.362 150.207 108.866 151.132C108.375 152.058 107.673 152.768 106.76 153.263C105.846 153.754 104.761 154 103.506 154ZM101.924 151.452H103.391C104.083 151.452 104.669 151.336 105.148 151.102C105.631 150.865 105.995 150.48 106.24 149.949C106.49 149.414 106.615 148.702 106.615 147.812C106.615 146.923 106.49 146.214 106.24 145.687C105.991 145.156 105.623 144.774 105.136 144.54C104.653 144.303 104.057 144.184 103.349 144.184H101.924V151.452ZM117.336 149.998V144.727H120.282V154H117.469V152.273H117.373C117.167 152.841 116.817 153.292 116.322 153.626C115.831 153.956 115.237 154.121 114.541 154.121C113.909 154.121 113.354 153.976 112.875 153.686C112.396 153.396 112.024 152.992 111.758 152.473C111.493 151.949 111.358 151.338 111.354 150.637V144.727H114.306V150.058C114.31 150.561 114.443 150.957 114.704 151.247C114.966 151.537 115.322 151.682 115.773 151.682C116.067 151.682 116.33 151.617 116.564 151.489C116.801 151.356 116.988 151.165 117.125 150.915C117.266 150.662 117.336 150.356 117.336 149.998ZM122.161 154V144.727H125.029V146.418H125.125C125.294 145.806 125.57 145.351 125.953 145.053C126.335 144.751 126.78 144.6 127.287 144.6C127.424 144.6 127.564 144.611 127.709 144.631C127.854 144.647 127.989 144.673 128.114 144.709V147.275C127.973 147.227 127.788 147.188 127.558 147.16C127.333 147.132 127.132 147.118 126.955 147.118C126.604 147.118 126.289 147.196 126.007 147.353C125.729 147.506 125.51 147.722 125.349 147.999C125.192 148.273 125.113 148.595 125.113 148.965V154H122.161ZM131.582 154.157C130.99 154.157 130.465 154.058 130.006 153.861C129.552 153.66 129.191 153.358 128.926 152.956C128.664 152.549 128.533 152.04 128.533 151.428C128.533 150.913 128.624 150.478 128.805 150.124C128.986 149.77 129.236 149.482 129.554 149.261C129.871 149.04 130.238 148.873 130.652 148.76C131.067 148.643 131.509 148.565 131.98 148.525C132.508 148.476 132.932 148.426 133.254 148.374C133.576 148.317 133.81 148.239 133.954 148.138C134.103 148.033 134.178 147.887 134.178 147.697V147.667C134.178 147.357 134.071 147.118 133.858 146.949C133.645 146.78 133.357 146.695 132.995 146.695C132.604 146.695 132.29 146.78 132.053 146.949C131.815 147.118 131.664 147.351 131.6 147.649L128.877 147.553C128.958 146.989 129.165 146.486 129.499 146.043C129.837 145.597 130.3 145.246 130.888 144.993C131.479 144.735 132.19 144.607 133.019 144.607C133.61 144.607 134.156 144.677 134.655 144.818C135.154 144.955 135.588 145.156 135.959 145.422C136.329 145.683 136.615 146.005 136.816 146.387C137.021 146.77 137.124 147.206 137.124 147.697V154H134.347V152.708H134.274C134.109 153.022 133.898 153.288 133.641 153.505C133.387 153.722 133.087 153.885 132.741 153.994C132.399 154.103 132.013 154.157 131.582 154.157ZM132.494 152.225C132.811 152.225 133.097 152.161 133.351 152.032C133.608 151.903 133.814 151.726 133.967 151.501C134.119 151.271 134.196 151.006 134.196 150.704V149.822C134.111 149.867 134.009 149.907 133.888 149.943C133.771 149.979 133.643 150.014 133.502 150.046C133.361 150.078 133.216 150.106 133.067 150.13C132.918 150.154 132.775 150.177 132.638 150.197C132.361 150.241 132.123 150.309 131.926 150.402C131.733 150.495 131.584 150.615 131.479 150.764C131.379 150.909 131.328 151.082 131.328 151.283C131.328 151.589 131.437 151.823 131.654 151.984C131.876 152.145 132.155 152.225 132.494 152.225ZM144.163 144.727V146.901H138.313V144.727H144.163ZM139.539 142.506H142.491V151.084C142.491 151.265 142.519 151.412 142.575 151.525C142.636 151.634 142.722 151.712 142.835 151.76C142.947 151.805 143.082 151.827 143.239 151.827C143.352 151.827 143.471 151.817 143.595 151.797C143.724 151.772 143.821 151.752 143.885 151.736L144.332 153.867C144.191 153.907 143.992 153.958 143.734 154.018C143.481 154.078 143.177 154.117 142.823 154.133C142.13 154.165 141.537 154.085 141.042 153.891C140.551 153.694 140.175 153.388 139.913 152.974C139.655 152.559 139.531 152.038 139.539 151.41V142.506ZM145.669 154V144.727H148.621V154H145.669ZM147.148 143.647C146.734 143.647 146.377 143.51 146.08 143.236C145.782 142.958 145.633 142.624 145.633 142.234C145.633 141.848 145.782 141.518 146.08 141.244C146.377 140.966 146.734 140.827 147.148 140.827C147.567 140.827 147.923 140.966 148.217 141.244C148.515 141.518 148.663 141.848 148.663 142.234C148.663 142.624 148.515 142.958 148.217 143.236C147.923 143.51 147.567 143.647 147.148 143.647ZM154.829 154.175C153.855 154.175 153.018 153.976 152.317 153.577C151.621 153.175 151.084 152.616 150.705 151.899C150.331 151.179 150.144 150.344 150.144 149.394C150.144 148.44 150.331 147.605 150.705 146.888C151.084 146.168 151.621 145.609 152.317 145.21C153.018 144.808 153.855 144.607 154.829 144.607C155.803 144.607 156.638 144.808 157.334 145.21C158.034 145.609 158.572 146.168 158.946 146.888C159.324 147.605 159.513 148.44 159.513 149.394C159.513 150.344 159.324 151.179 158.946 151.899C158.572 152.616 158.034 153.175 157.334 153.577C156.638 153.976 155.803 154.175 154.829 154.175ZM154.847 151.947C155.201 151.947 155.501 151.839 155.746 151.621C155.992 151.404 156.179 151.102 156.308 150.716C156.441 150.33 156.507 149.883 156.507 149.376C156.507 148.861 156.441 148.41 156.308 148.023C156.179 147.637 155.992 147.335 155.746 147.118C155.501 146.901 155.201 146.792 154.847 146.792C154.481 146.792 154.171 146.901 153.917 147.118C153.668 147.335 153.476 147.637 153.344 148.023C153.215 148.41 153.15 148.861 153.15 149.376C153.15 149.883 153.215 150.33 153.344 150.716C153.476 151.102 153.668 151.404 153.917 151.621C154.171 151.839 154.481 151.947 154.847 151.947ZM163.978 148.712V154H161.026V144.727H163.833V146.43H163.935C164.141 145.862 164.491 145.417 164.986 145.096C165.481 144.77 166.07 144.607 166.755 144.607C167.407 144.607 167.972 144.753 168.451 145.047C168.934 145.337 169.308 145.743 169.574 146.267C169.844 146.786 169.976 147.394 169.972 148.09V154H167.02V148.669C167.024 148.154 166.893 147.752 166.628 147.462C166.366 147.172 166.002 147.027 165.535 147.027C165.225 147.027 164.952 147.096 164.714 147.233C164.481 147.365 164.3 147.557 164.171 147.806C164.046 148.056 163.982 148.357 163.978 148.712ZM98.9357 175V162.636H104.091C105.017 162.636 105.792 162.767 106.415 163.029C107.043 163.29 107.514 163.657 107.828 164.127C108.146 164.598 108.305 165.144 108.305 165.763C108.305 166.234 108.206 166.655 108.009 167.025C107.812 167.391 107.54 167.695 107.194 167.937C106.848 168.178 106.448 168.347 105.993 168.444V168.565C106.492 168.589 106.953 168.724 107.375 168.969C107.802 169.215 108.144 169.557 108.402 169.995C108.659 170.43 108.788 170.945 108.788 171.541C108.788 172.205 108.619 172.799 108.281 173.322C107.943 173.841 107.454 174.251 106.814 174.553C106.174 174.851 105.397 175 104.484 175H98.9357ZM101.924 172.591H103.771C104.419 172.591 104.896 172.469 105.202 172.223C105.512 171.978 105.667 171.635 105.667 171.197C105.667 170.879 105.592 170.605 105.444 170.376C105.295 170.142 105.083 169.963 104.81 169.838C104.536 169.71 104.208 169.645 103.826 169.645H101.924V172.591ZM101.924 167.719H103.578C103.904 167.719 104.194 167.665 104.447 167.556C104.701 167.448 104.898 167.291 105.039 167.086C105.184 166.88 105.256 166.633 105.256 166.343C105.256 165.929 105.109 165.603 104.816 165.365C104.522 165.128 104.125 165.009 103.626 165.009H101.924V167.719ZM112.839 175.157C112.247 175.157 111.722 175.058 111.263 174.861C110.808 174.66 110.448 174.358 110.183 173.956C109.921 173.549 109.79 173.04 109.79 172.428C109.79 171.913 109.881 171.478 110.062 171.124C110.243 170.77 110.492 170.482 110.81 170.261C111.128 170.04 111.495 169.873 111.909 169.76C112.324 169.643 112.766 169.565 113.237 169.525C113.764 169.476 114.189 169.426 114.511 169.374C114.833 169.317 115.066 169.239 115.211 169.138C115.36 169.033 115.435 168.887 115.435 168.697V168.667C115.435 168.357 115.328 168.118 115.115 167.949C114.901 167.78 114.614 167.695 114.251 167.695C113.861 167.695 113.547 167.78 113.31 167.949C113.072 168.118 112.921 168.351 112.857 168.649L110.134 168.553C110.215 167.989 110.422 167.486 110.756 167.043C111.094 166.597 111.557 166.246 112.145 165.993C112.736 165.735 113.446 165.607 114.276 165.607C114.867 165.607 115.413 165.677 115.912 165.818C116.411 165.955 116.845 166.156 117.216 166.422C117.586 166.683 117.872 167.005 118.073 167.387C118.278 167.77 118.381 168.206 118.381 168.697V175H115.604V173.708H115.531C115.366 174.022 115.155 174.288 114.897 174.505C114.644 174.722 114.344 174.885 113.998 174.994C113.656 175.103 113.269 175.157 112.839 175.157ZM113.75 173.225C114.068 173.225 114.354 173.161 114.608 173.032C114.865 172.903 115.07 172.726 115.223 172.501C115.376 172.271 115.453 172.006 115.453 171.704V170.822C115.368 170.867 115.266 170.907 115.145 170.943C115.028 170.979 114.899 171.014 114.759 171.046C114.618 171.078 114.473 171.106 114.324 171.13C114.175 171.154 114.032 171.177 113.895 171.197C113.618 171.241 113.38 171.309 113.183 171.402C112.99 171.495 112.841 171.615 112.736 171.764C112.636 171.909 112.585 172.082 112.585 172.283C112.585 172.589 112.694 172.823 112.911 172.984C113.133 173.145 113.412 173.225 113.75 173.225ZM128.281 168.559L125.571 168.631C125.542 168.438 125.466 168.267 125.341 168.118C125.217 167.965 125.054 167.846 124.852 167.762C124.655 167.673 124.426 167.629 124.164 167.629C123.822 167.629 123.53 167.697 123.289 167.834C123.051 167.971 122.935 168.156 122.939 168.39C122.935 168.571 123.007 168.728 123.156 168.86C123.309 168.993 123.58 169.1 123.971 169.18L125.758 169.518C126.683 169.696 127.372 169.989 127.822 170.4C128.277 170.81 128.507 171.354 128.511 172.03C128.507 172.666 128.317 173.219 127.943 173.69C127.573 174.161 127.066 174.527 126.422 174.789C125.778 175.046 125.041 175.175 124.212 175.175C122.888 175.175 121.844 174.903 121.079 174.36C120.319 173.813 119.884 173.08 119.775 172.163L122.691 172.09C122.755 172.428 122.922 172.686 123.192 172.863C123.462 173.04 123.806 173.129 124.224 173.129C124.603 173.129 124.911 173.058 125.148 172.917C125.386 172.776 125.506 172.589 125.51 172.356C125.506 172.147 125.414 171.98 125.233 171.855C125.051 171.726 124.768 171.625 124.381 171.553L122.763 171.245C121.834 171.076 121.142 170.764 120.687 170.309C120.232 169.85 120.007 169.267 120.011 168.559C120.007 167.939 120.172 167.41 120.506 166.971C120.84 166.528 121.315 166.19 121.93 165.957C122.546 165.723 123.273 165.607 124.11 165.607C125.365 165.607 126.355 165.87 127.08 166.397C127.804 166.921 128.205 167.641 128.281 168.559ZM134.299 175.175C133.329 175.175 132.492 174.984 131.787 174.602C131.087 174.215 130.548 173.666 130.169 172.953C129.795 172.237 129.608 171.386 129.608 170.4C129.608 169.442 129.797 168.605 130.175 167.888C130.554 167.168 131.087 166.609 131.775 166.21C132.463 165.808 133.274 165.607 134.208 165.607C134.868 165.607 135.472 165.709 136.019 165.914C136.566 166.12 137.039 166.424 137.438 166.826C137.836 167.228 138.146 167.725 138.367 168.317C138.589 168.905 138.699 169.579 138.699 170.339V171.076H130.64V169.362H135.953C135.949 169.048 135.874 168.768 135.729 168.522C135.584 168.277 135.385 168.086 135.132 167.949C134.882 167.808 134.594 167.738 134.268 167.738C133.938 167.738 133.643 167.812 133.381 167.961C133.119 168.106 132.912 168.305 132.759 168.559C132.606 168.808 132.526 169.092 132.518 169.41V171.154C132.518 171.533 132.592 171.865 132.741 172.151C132.89 172.432 133.101 172.652 133.375 172.809C133.649 172.966 133.975 173.044 134.353 173.044C134.614 173.044 134.852 173.008 135.065 172.935C135.279 172.863 135.462 172.756 135.615 172.615C135.768 172.475 135.882 172.301 135.959 172.096L138.669 172.175C138.557 172.782 138.309 173.312 137.927 173.762C137.548 174.209 137.051 174.557 136.436 174.807C135.82 175.052 135.108 175.175 134.299 175.175ZM143.594 175.133C142.91 175.133 142.288 174.956 141.729 174.602C141.169 174.247 140.722 173.716 140.388 173.008C140.054 172.299 139.887 171.42 139.887 170.37C139.887 169.279 140.06 168.382 140.406 167.677C140.753 166.973 141.205 166.452 141.765 166.114C142.328 165.776 142.934 165.607 143.582 165.607C144.069 165.607 144.485 165.691 144.831 165.86C145.178 166.025 145.463 166.238 145.689 166.5C145.914 166.762 146.085 167.033 146.202 167.315H146.262V162.636H149.214V175H146.292V173.497H146.202C146.077 173.783 145.9 174.05 145.671 174.3C145.441 174.549 145.153 174.75 144.807 174.903C144.465 175.056 144.061 175.133 143.594 175.133ZM144.62 172.833C144.978 172.833 145.284 172.732 145.538 172.531C145.791 172.326 145.987 172.038 146.123 171.668C146.26 171.297 146.329 170.863 146.329 170.364C146.329 169.857 146.26 169.42 146.123 169.054C145.991 168.687 145.795 168.406 145.538 168.208C145.284 168.011 144.978 167.913 144.62 167.913C144.254 167.913 143.944 168.013 143.691 168.214C143.437 168.416 143.244 168.699 143.111 169.066C142.982 169.432 142.918 169.865 142.918 170.364C142.918 170.863 142.984 171.297 143.117 171.668C143.25 172.038 143.441 172.326 143.691 172.531C143.944 172.732 144.254 172.833 144.62 172.833ZM105.619 187.343C105.578 186.9 105.399 186.556 105.081 186.311C104.767 186.061 104.319 185.936 103.735 185.936C103.349 185.936 103.027 185.987 102.769 186.087C102.512 186.188 102.318 186.327 102.19 186.504C102.061 186.677 101.994 186.876 101.99 187.102C101.982 187.287 102.019 187.45 102.099 187.591C102.184 187.731 102.304 187.856 102.461 187.965C102.622 188.069 102.815 188.162 103.041 188.243C103.266 188.323 103.52 188.393 103.801 188.454L104.864 188.695C105.476 188.828 106.015 189.005 106.482 189.227C106.953 189.448 107.347 189.712 107.665 190.017C107.987 190.323 108.231 190.675 108.396 191.074C108.561 191.472 108.645 191.919 108.649 192.414C108.645 193.195 108.448 193.865 108.058 194.424C107.667 194.984 107.106 195.412 106.373 195.71C105.645 196.008 104.765 196.157 103.735 196.157C102.701 196.157 101.799 196.002 101.031 195.692C100.262 195.382 99.6642 194.911 99.2376 194.279C98.811 193.648 98.5916 192.849 98.5795 191.883H101.441C101.465 192.281 101.572 192.613 101.761 192.879C101.95 193.145 102.21 193.346 102.54 193.483C102.874 193.619 103.26 193.688 103.699 193.688C104.101 193.688 104.443 193.634 104.725 193.525C105.011 193.416 105.23 193.265 105.383 193.072C105.536 192.879 105.615 192.658 105.619 192.408C105.615 192.175 105.542 191.975 105.401 191.81C105.26 191.641 105.043 191.496 104.749 191.376C104.46 191.251 104.089 191.136 103.638 191.032L102.347 190.73C101.276 190.484 100.433 190.088 99.8171 189.54C99.2013 188.989 98.8955 188.245 98.8995 187.307C98.8955 186.542 99.1007 185.872 99.5153 185.297C99.9298 184.721 100.503 184.272 101.236 183.95C101.968 183.628 102.803 183.467 103.741 183.467C104.699 183.467 105.53 183.63 106.234 183.956C106.943 184.278 107.492 184.731 107.882 185.315C108.273 185.898 108.472 186.574 108.48 187.343H105.619ZM110.158 199.477V186.727H113.08V188.315H113.171C113.292 188.033 113.463 187.762 113.684 187.5C113.909 187.238 114.195 187.025 114.541 186.86C114.891 186.691 115.31 186.607 115.797 186.607C116.441 186.607 117.042 186.776 117.602 187.114C118.165 187.452 118.62 187.973 118.966 188.677C119.312 189.382 119.485 190.279 119.485 191.37C119.485 192.42 119.318 193.299 118.984 194.008C118.654 194.716 118.208 195.247 117.644 195.602C117.085 195.956 116.463 196.133 115.779 196.133C115.312 196.133 114.907 196.056 114.565 195.903C114.223 195.75 113.935 195.549 113.702 195.3C113.473 195.05 113.296 194.783 113.171 194.497H113.11V199.477H110.158ZM113.05 191.364C113.05 191.863 113.116 192.297 113.249 192.668C113.386 193.038 113.581 193.326 113.835 193.531C114.092 193.732 114.4 193.833 114.759 193.833C115.121 193.833 115.429 193.732 115.682 193.531C115.936 193.326 116.127 193.038 116.256 192.668C116.388 192.297 116.455 191.863 116.455 191.364C116.455 190.865 116.388 190.432 116.256 190.066C116.127 189.699 115.936 189.416 115.682 189.214C115.433 189.013 115.125 188.913 114.759 188.913C114.396 188.913 114.088 189.011 113.835 189.208C113.581 189.406 113.386 189.687 113.249 190.054C113.116 190.42 113.05 190.857 113.05 191.364ZM121.032 196V186.727H123.9V188.418H123.997C124.166 187.806 124.441 187.351 124.824 187.053C125.206 186.751 125.651 186.6 126.158 186.6C126.295 186.6 126.435 186.611 126.58 186.631C126.725 186.647 126.86 186.673 126.985 186.709V189.275C126.844 189.227 126.659 189.188 126.429 189.16C126.204 189.132 126.003 189.118 125.826 189.118C125.476 189.118 125.16 189.196 124.878 189.353C124.6 189.506 124.381 189.722 124.22 189.999C124.063 190.273 123.984 190.595 123.984 190.965V196H121.032ZM128.188 196V186.727H131.14V196H128.188ZM129.667 185.647C129.252 185.647 128.896 185.51 128.598 185.236C128.3 184.958 128.151 184.624 128.151 184.234C128.151 183.848 128.3 183.518 128.598 183.244C128.896 182.966 129.252 182.827 129.667 182.827C130.085 182.827 130.441 182.966 130.735 183.244C131.033 183.518 131.182 183.848 131.182 184.234C131.182 184.624 131.033 184.958 130.735 185.236C130.441 185.51 130.085 185.647 129.667 185.647ZM135.971 190.712V196H133.019V186.727H135.826V188.43H135.929C136.134 187.862 136.484 187.417 136.979 187.096C137.474 186.77 138.064 186.607 138.748 186.607C139.4 186.607 139.965 186.753 140.444 187.047C140.927 187.337 141.301 187.743 141.567 188.267C141.837 188.786 141.969 189.394 141.965 190.09V196H139.013V190.669C139.017 190.154 138.887 189.752 138.621 189.462C138.359 189.172 137.995 189.027 137.528 189.027C137.218 189.027 136.945 189.096 136.707 189.233C136.474 189.365 136.293 189.557 136.164 189.806C136.039 190.056 135.975 190.357 135.971 190.712ZM148.116 199.67C147.234 199.67 146.48 199.548 145.852 199.302C145.224 199.057 144.731 198.721 144.373 198.294C144.015 197.867 143.799 197.384 143.727 196.845L146.522 196.688C146.574 196.877 146.671 197.042 146.812 197.183C146.956 197.324 147.144 197.433 147.373 197.509C147.606 197.586 147.88 197.624 148.194 197.624C148.689 197.624 149.098 197.503 149.42 197.262C149.746 197.024 149.909 196.608 149.909 196.012V194.382H149.806C149.689 194.668 149.512 194.923 149.275 195.149C149.037 195.374 148.741 195.551 148.387 195.68C148.037 195.809 147.635 195.873 147.18 195.873C146.504 195.873 145.884 195.716 145.32 195.402C144.761 195.084 144.312 194.593 143.974 193.929C143.64 193.261 143.473 192.402 143.473 191.352C143.473 190.269 143.646 189.377 143.992 188.677C144.338 187.973 144.791 187.452 145.351 187.114C145.914 186.776 146.52 186.607 147.168 186.607C147.655 186.607 148.071 186.691 148.417 186.86C148.768 187.025 149.055 187.238 149.281 187.5C149.506 187.762 149.677 188.033 149.794 188.315H149.878V186.727H152.818V196.036C152.818 196.821 152.621 197.483 152.227 198.022C151.832 198.562 151.281 198.97 150.573 199.248C149.864 199.53 149.045 199.67 148.116 199.67ZM148.206 193.724C148.564 193.724 148.87 193.629 149.124 193.44C149.377 193.251 149.573 192.98 149.709 192.625C149.846 192.271 149.915 191.847 149.915 191.352C149.915 190.848 149.846 190.416 149.709 190.054C149.577 189.687 149.381 189.406 149.124 189.208C148.87 189.011 148.564 188.913 148.206 188.913C147.84 188.913 147.53 189.013 147.276 189.214C147.023 189.416 146.83 189.699 146.697 190.066C146.568 190.428 146.504 190.857 146.504 191.352C146.504 191.847 146.57 192.271 146.703 192.625C146.836 192.98 147.027 193.251 147.276 193.44C147.53 193.629 147.84 193.724 148.206 193.724Z" fill="#01293B"/>
<defs>
<clipPath id="clip0_1_27">
<rect width="35.0668" height="30.4433" fill="white" transform="translate(331.33 57) rotate(12)"/>
</clipPath>
</defs>
</svg>
