<svg width="491" height="336" viewBox="0 0 491 336" fill="none" xmlns="http://www.w3.org/2000/svg">
<rect width="491" height="336" fill="#2C2828"/>
<rect x="147" y="189" width="140" height="140" rx="25" transform="rotate(-45 147 189)" fill="#F7F5F5"/>
<path d="M29.2109 42V26H35.8203C37.0182 26 38.0521 26.2161 38.9219 26.6484C39.7969 27.0755 40.4714 27.6901 40.9453 28.4922C41.4193 29.2891 41.6562 30.2344 41.6562 31.3281C41.6562 32.4375 41.4141 33.3802 40.9297 34.1562C40.4453 34.9271 39.7578 35.5156 38.8672 35.9219C37.9766 36.3229 36.9219 36.5234 35.7031 36.5234H31.5234V33.4766H34.9844C35.5677 33.4766 36.0547 33.401 36.4453 33.25C36.8411 33.0937 37.1406 32.8594 37.3438 32.5469C37.5469 32.2292 37.6484 31.8229 37.6484 31.3281C37.6484 30.8333 37.5469 30.4245 37.3438 30.1016C37.1406 29.7734 36.8411 29.5286 36.4453 29.3672C36.0495 29.2005 35.5625 29.1172 34.9844 29.1172H33.0781V42H29.2109ZM38.2188 34.6875L42.2031 42H37.9844L34.0781 34.6875H38.2188ZM49.1504 42.2266C47.8952 42.2266 46.8118 41.9792 45.9004 41.4844C44.9941 40.9844 44.2962 40.2734 43.8066 39.3516C43.3223 38.4245 43.0801 37.3229 43.0801 36.0469C43.0801 34.8073 43.3249 33.724 43.8145 32.7969C44.304 31.8646 44.9941 31.1406 45.8848 30.625C46.7754 30.1042 47.8249 29.8438 49.0332 29.8438C49.8874 29.8438 50.6686 29.9766 51.377 30.2422C52.0853 30.5078 52.6973 30.901 53.2129 31.4219C53.7285 31.9427 54.1296 32.5859 54.416 33.3516C54.7025 34.112 54.8457 34.9844 54.8457 35.9687V36.9219H44.416V34.7031H51.291C51.2858 34.2969 51.1895 33.9349 51.002 33.6172C50.8145 33.2995 50.5566 33.0521 50.2285 32.875C49.9056 32.6927 49.5332 32.6016 49.1113 32.6016C48.6842 32.6016 48.3014 32.6979 47.9629 32.8906C47.6243 33.0781 47.3561 33.3359 47.1582 33.6641C46.9603 33.987 46.8561 34.3542 46.8457 34.7656V37.0234C46.8457 37.513 46.9421 37.9427 47.1348 38.3125C47.3275 38.6771 47.6009 38.9609 47.9551 39.1641C48.3092 39.3672 48.7311 39.4687 49.2207 39.4687C49.5592 39.4687 49.8665 39.4219 50.1426 39.3281C50.4186 39.2344 50.6556 39.0964 50.8535 38.9141C51.0514 38.7318 51.1999 38.5078 51.2988 38.2422L54.8066 38.3437C54.6608 39.1302 54.3405 39.8151 53.8457 40.3984C53.3561 40.9766 52.7129 41.4271 51.916 41.75C51.1191 42.0677 50.1973 42.2266 49.1504 42.2266ZM68.1152 30L63.998 42H59.623L55.5137 30H59.5371L61.748 38.2656H61.873L64.0918 30H68.1152ZM74.8027 42.2266C73.5475 42.2266 72.4642 41.9792 71.5527 41.4844C70.6465 40.9844 69.9486 40.2734 69.459 39.3516C68.9746 38.4245 68.7324 37.3229 68.7324 36.0469C68.7324 34.8073 68.9772 33.724 69.4668 32.7969C69.9564 31.8646 70.6465 31.1406 71.5371 30.625C72.4277 30.1042 73.4772 29.8438 74.6855 29.8438C75.5397 29.8438 76.321 29.9766 77.0293 30.2422C77.7376 30.5078 78.3496 30.901 78.8652 31.4219C79.3809 31.9427 79.7819 32.5859 80.0684 33.3516C80.3548 34.112 80.498 34.9844 80.498 35.9687V36.9219H70.0684V34.7031H76.9434C76.9382 34.2969 76.8418 33.9349 76.6543 33.6172C76.4668 33.2995 76.209 33.0521 75.8809 32.875C75.5579 32.6927 75.1855 32.6016 74.7637 32.6016C74.3366 32.6016 73.9538 32.6979 73.6152 32.8906C73.2767 33.0781 73.0085 33.3359 72.8105 33.6641C72.6126 33.987 72.5085 34.3542 72.498 34.7656V37.0234C72.498 37.513 72.5944 37.9427 72.7871 38.3125C72.9798 38.6771 73.2533 38.9609 73.6074 39.1641C73.9616 39.3672 74.3835 39.4687 74.873 39.4687C75.2116 39.4687 75.5189 39.4219 75.7949 39.3281C76.071 39.2344 76.3079 39.0964 76.5059 38.9141C76.7038 38.7318 76.8522 38.5078 76.9512 38.2422L80.459 38.3437C80.3132 39.1302 79.9928 39.8151 79.498 40.3984C79.0085 40.9766 78.3652 41.4271 77.5684 41.75C76.7715 42.0677 75.8496 42.2266 74.8027 42.2266ZM82.4492 42V30H86.1602V32.1875H86.2852C86.5039 31.3958 86.8607 30.8073 87.3555 30.4219C87.8503 30.0312 88.4258 29.8359 89.082 29.8359C89.2591 29.8359 89.4414 29.849 89.6289 29.875C89.8164 29.8958 89.9909 29.9297 90.1523 29.9766V33.2969C89.9701 33.2344 89.7305 33.1849 89.4336 33.1484C89.1419 33.112 88.8815 33.0937 88.6523 33.0937C88.1992 33.0937 87.7904 33.1953 87.4258 33.3984C87.0664 33.5964 86.7826 33.875 86.5742 34.2344C86.3711 34.5885 86.2695 35.0052 86.2695 35.4844V42H82.4492ZM102.186 33.6641L98.6777 33.7578C98.6413 33.5078 98.5423 33.2865 98.3809 33.0937C98.2194 32.8958 98.0085 32.7422 97.748 32.6328C97.4928 32.5182 97.196 32.4609 96.8574 32.4609C96.4147 32.4609 96.0371 32.5495 95.7246 32.7266C95.4173 32.9036 95.2663 33.1432 95.2715 33.4453C95.2663 33.6797 95.36 33.8828 95.5527 34.0547C95.7507 34.2266 96.1022 34.3646 96.6074 34.4687L98.9199 34.9062C100.118 35.1354 101.008 35.5156 101.592 36.0469C102.18 36.5781 102.477 37.2812 102.482 38.1562C102.477 38.9792 102.232 39.6953 101.748 40.3047C101.269 40.9141 100.613 41.388 99.7793 41.7266C98.946 42.0599 97.9928 42.2266 96.9199 42.2266C95.2064 42.2266 93.8548 41.875 92.8652 41.1719C91.8809 40.4635 91.3184 39.5156 91.1777 38.3281L94.9512 38.2344C95.0345 38.6719 95.2507 39.0052 95.5996 39.2344C95.9486 39.4635 96.3939 39.5781 96.9355 39.5781C97.4251 39.5781 97.8236 39.487 98.1309 39.3047C98.4382 39.1224 98.5944 38.8802 98.5996 38.5781C98.5944 38.3073 98.4746 38.0911 98.2402 37.9297C98.0059 37.763 97.6387 37.6328 97.1387 37.5391L95.0449 37.1406C93.8418 36.9219 92.946 36.5182 92.3574 35.9297C91.7689 35.3359 91.4772 34.5807 91.4824 33.6641C91.4772 32.862 91.6908 32.1771 92.123 31.6094C92.5553 31.0365 93.1699 30.599 93.9668 30.2969C94.7637 29.9948 95.7038 29.8438 96.7871 29.8438C98.4121 29.8438 99.6934 30.1849 100.631 30.8672C101.568 31.5443 102.087 32.4766 102.186 33.6641ZM109.973 42.2266C108.717 42.2266 107.634 41.9792 106.723 41.4844C105.816 40.9844 105.118 40.2734 104.629 39.3516C104.145 38.4245 103.902 37.3229 103.902 36.0469C103.902 34.8073 104.147 33.724 104.637 32.7969C105.126 31.8646 105.816 31.1406 106.707 30.625C107.598 30.1042 108.647 29.8438 109.855 29.8438C110.71 29.8438 111.491 29.9766 112.199 30.2422C112.908 30.5078 113.52 30.901 114.035 31.4219C114.551 31.9427 114.952 32.5859 115.238 33.3516C115.525 34.112 115.668 34.9844 115.668 35.9687V36.9219H105.238V34.7031H112.113C112.108 34.2969 112.012 33.9349 111.824 33.6172C111.637 33.2995 111.379 33.0521 111.051 32.875C110.728 32.6927 110.355 32.6016 109.934 32.6016C109.507 32.6016 109.124 32.6979 108.785 32.8906C108.447 33.0781 108.178 33.3359 107.98 33.6641C107.783 33.987 107.678 34.3542 107.668 34.7656V37.0234C107.668 37.513 107.764 37.9427 107.957 38.3125C108.15 38.6771 108.423 38.9609 108.777 39.1641C109.132 39.3672 109.553 39.4687 110.043 39.4687C110.382 39.4687 110.689 39.4219 110.965 39.3281C111.241 39.2344 111.478 39.0964 111.676 38.9141C111.874 38.7318 112.022 38.5078 112.121 38.2422L115.629 38.3437C115.483 39.1302 115.163 39.8151 114.668 40.3984C114.178 40.9766 113.535 41.4271 112.738 41.75C111.941 42.0677 111.02 42.2266 109.973 42.2266ZM121.822 29.1406V26H135.346V29.1406H130.494V42H126.682V29.1406H121.822ZM135.988 42V30H139.699V32.1875H139.824C140.043 31.3958 140.4 30.8073 140.895 30.4219C141.389 30.0312 141.965 29.8359 142.621 29.8359C142.798 29.8359 142.98 29.849 143.168 29.875C143.355 29.8958 143.53 29.9297 143.691 29.9766V33.2969C143.509 33.2344 143.27 33.1849 142.973 33.1484C142.681 33.112 142.421 33.0937 142.191 33.0937C141.738 33.0937 141.329 33.1953 140.965 33.3984C140.605 33.5964 140.322 33.875 140.113 34.2344C139.91 34.5885 139.809 35.0052 139.809 35.4844V42H135.988ZM148.18 42.2031C147.414 42.2031 146.734 42.0755 146.141 41.8203C145.552 41.5599 145.086 41.1693 144.742 40.6484C144.404 40.1224 144.234 39.4635 144.234 38.6719C144.234 38.0052 144.352 37.4427 144.586 36.9844C144.82 36.526 145.143 36.1536 145.555 35.8672C145.966 35.5807 146.44 35.3646 146.977 35.2187C147.513 35.0677 148.086 34.9661 148.695 34.9141C149.378 34.8516 149.927 34.7865 150.344 34.7188C150.76 34.6458 151.063 34.5443 151.25 34.4141C151.443 34.2786 151.539 34.0885 151.539 33.8437V33.8047C151.539 33.4036 151.401 33.0937 151.125 32.875C150.849 32.6562 150.477 32.5469 150.008 32.5469C149.503 32.5469 149.096 32.6562 148.789 32.875C148.482 33.0937 148.286 33.3958 148.203 33.7812L144.68 33.6562C144.784 32.9271 145.052 32.276 145.484 31.7031C145.922 31.125 146.521 30.6719 147.281 30.3437C148.047 30.0104 148.966 29.8438 150.039 29.8438C150.805 29.8438 151.51 29.9349 152.156 30.1172C152.802 30.2943 153.365 30.5547 153.844 30.8984C154.323 31.237 154.693 31.6536 154.953 32.1484C155.219 32.6432 155.352 33.2083 155.352 33.8437V42H151.758V40.3281H151.664C151.451 40.7344 151.177 41.0781 150.844 41.3594C150.516 41.6406 150.128 41.8516 149.68 41.9922C149.237 42.1328 148.737 42.2031 148.18 42.2031ZM149.359 39.7031C149.771 39.7031 150.141 39.6198 150.469 39.4531C150.802 39.2865 151.068 39.0573 151.266 38.7656C151.464 38.4687 151.563 38.125 151.563 37.7344V36.5937C151.453 36.651 151.32 36.7031 151.164 36.75C151.013 36.7969 150.846 36.8411 150.664 36.8828C150.482 36.9245 150.294 36.9609 150.102 36.9922C149.909 37.0234 149.724 37.0521 149.547 37.0781C149.188 37.1354 148.88 37.224 148.625 37.3437C148.375 37.4635 148.182 37.6198 148.047 37.8125C147.917 38 147.852 38.224 147.852 38.4844C147.852 38.8802 147.992 39.1823 148.273 39.3906C148.56 39.599 148.922 39.7031 149.359 39.7031ZM161.508 35.1562V42H157.688V30H161.32V32.2031H161.453C161.719 31.4687 162.172 30.8932 162.812 30.4766C163.453 30.0547 164.216 29.8438 165.102 29.8438C165.945 29.8438 166.677 30.0339 167.297 30.4141C167.922 30.7891 168.406 31.3151 168.75 31.9922C169.099 32.6641 169.271 33.4505 169.266 34.3516V42H165.445V35.1016C165.451 34.4349 165.281 33.9141 164.938 33.5391C164.599 33.1641 164.128 32.9766 163.523 32.9766C163.122 32.9766 162.768 33.0651 162.461 33.2422C162.159 33.4141 161.924 33.6615 161.758 33.9844C161.596 34.3073 161.513 34.6979 161.508 35.1562ZM182.107 33.6641L178.6 33.7578C178.563 33.5078 178.464 33.2865 178.303 33.0937C178.141 32.8958 177.93 32.7422 177.67 32.6328C177.415 32.5182 177.118 32.4609 176.779 32.4609C176.337 32.4609 175.959 32.5495 175.646 32.7266C175.339 32.9036 175.188 33.1432 175.193 33.4453C175.188 33.6797 175.282 33.8828 175.475 34.0547C175.673 34.2266 176.024 34.3646 176.529 34.4687L178.842 34.9062C180.04 35.1354 180.93 35.5156 181.514 36.0469C182.102 36.5781 182.399 37.2812 182.404 38.1562C182.399 38.9792 182.154 39.6953 181.67 40.3047C181.191 40.9141 180.535 41.388 179.701 41.7266C178.868 42.0599 177.915 42.2266 176.842 42.2266C175.128 42.2266 173.777 41.875 172.787 41.1719C171.803 40.4635 171.24 39.5156 171.1 38.3281L174.873 38.2344C174.956 38.6719 175.173 39.0052 175.521 39.2344C175.87 39.4635 176.316 39.5781 176.857 39.5781C177.347 39.5781 177.745 39.487 178.053 39.3047C178.36 39.1224 178.516 38.8802 178.521 38.5781C178.516 38.3073 178.396 38.0911 178.162 37.9297C177.928 37.763 177.561 37.6328 177.061 37.5391L174.967 37.1406C173.764 36.9219 172.868 36.5182 172.279 35.9297C171.691 35.3359 171.399 34.5807 171.404 33.6641C171.399 32.862 171.613 32.1771 172.045 31.6094C172.477 31.0365 173.092 30.599 173.889 30.2969C174.686 29.9948 175.626 29.8438 176.709 29.8438C178.334 29.8438 179.615 30.1849 180.553 30.8672C181.49 31.5443 182.008 32.4766 182.107 33.6641ZM184.285 42V30H188.105V42H184.285ZM186.199 28.6016C185.663 28.6016 185.202 28.4245 184.816 28.0703C184.431 27.7109 184.238 27.2786 184.238 26.7734C184.238 26.2734 184.431 25.8464 184.816 25.4922C185.202 25.1328 185.663 24.9531 186.199 24.9531C186.741 24.9531 187.202 25.1328 187.582 25.4922C187.967 25.8464 188.16 26.2734 188.16 26.7734C188.16 27.2786 187.967 27.7109 187.582 28.0703C187.202 28.4245 186.741 28.6016 186.199 28.6016ZM197.311 30V32.8125H189.74V30H197.311ZM191.326 27.125H195.146V38.2266C195.146 38.4609 195.183 38.651 195.256 38.7969C195.334 38.9375 195.446 39.0391 195.592 39.1016C195.738 39.1589 195.912 39.1875 196.115 39.1875C196.261 39.1875 196.415 39.1745 196.576 39.1484C196.743 39.1172 196.868 39.0911 196.951 39.0703L197.529 41.8281C197.347 41.8802 197.089 41.9453 196.756 42.0234C196.428 42.1016 196.035 42.151 195.576 42.1719C194.68 42.2135 193.912 42.1094 193.271 41.8594C192.636 41.6042 192.149 41.2083 191.811 40.6719C191.477 40.1354 191.316 39.4609 191.326 38.6484V27.125ZM199.26 42V30H203.08V42H199.26ZM201.174 28.6016C200.637 28.6016 200.176 28.4245 199.791 28.0703C199.406 27.7109 199.213 27.2786 199.213 26.7734C199.213 26.2734 199.406 25.8464 199.791 25.4922C200.176 25.1328 200.637 24.9531 201.174 24.9531C201.715 24.9531 202.176 25.1328 202.557 25.4922C202.942 25.8464 203.135 26.2734 203.135 26.7734C203.135 27.2786 202.942 27.7109 202.557 28.0703C202.176 28.4245 201.715 28.6016 201.174 28.6016ZM211.113 42.2266C209.853 42.2266 208.77 41.9688 207.863 41.4531C206.962 40.9323 206.267 40.2083 205.777 39.2812C205.293 38.349 205.051 37.2682 205.051 36.0391C205.051 34.8047 205.293 33.724 205.777 32.7969C206.267 31.8646 206.962 31.1406 207.863 30.625C208.77 30.1042 209.853 29.8438 211.113 29.8438C212.374 29.8438 213.454 30.1042 214.355 30.625C215.262 31.1406 215.957 31.8646 216.441 32.7969C216.931 33.724 217.176 34.8047 217.176 36.0391C217.176 37.2682 216.931 38.349 216.441 39.2812C215.957 40.2083 215.262 40.9323 214.355 41.4531C213.454 41.9688 212.374 42.2266 211.113 42.2266ZM211.137 39.3437C211.595 39.3437 211.983 39.2031 212.301 38.9219C212.618 38.6406 212.861 38.25 213.027 37.75C213.199 37.25 213.285 36.6719 213.285 36.0156C213.285 35.349 213.199 34.7656 213.027 34.2656C212.861 33.7656 212.618 33.375 212.301 33.0937C211.983 32.8125 211.595 32.6719 211.137 32.6719C210.663 32.6719 210.262 32.8125 209.934 33.0937C209.611 33.375 209.363 33.7656 209.191 34.2656C209.025 34.7656 208.941 35.349 208.941 36.0156C208.941 36.6719 209.025 37.25 209.191 37.75C209.363 38.25 209.611 38.6406 209.934 38.9219C210.262 39.2031 210.663 39.3437 211.137 39.3437ZM222.953 35.1562V42H219.133V30H222.766V32.2031H222.898C223.164 31.4687 223.617 30.8932 224.258 30.4766C224.898 30.0547 225.661 29.8438 226.547 29.8438C227.391 29.8438 228.122 30.0339 228.742 30.4141C229.367 30.7891 229.852 31.3151 230.195 31.9922C230.544 32.6641 230.716 33.4505 230.711 34.3516V42H226.891V35.1016C226.896 34.4349 226.727 33.9141 226.383 33.5391C226.044 33.1641 225.573 32.9766 224.969 32.9766C224.568 32.9766 224.214 33.0651 223.906 33.2422C223.604 33.4141 223.37 33.6615 223.203 33.9844C223.042 34.3073 222.958 34.6979 222.953 35.1562Z" fill="white"/>
<rect x="176.652" y="188.711" width="100" height="100" rx="20" transform="rotate(-45 176.652 188.711)" fill="#74E4FD"/>
<path d="M149.131 205.786C145.785 204.826 142.99 202.463 141.361 199.215C139.731 195.968 139.401 192.103 140.443 188.47C141.554 184.644 143.984 181.363 147.225 179.313L151.38 176.782" stroke="white" stroke-width="2" stroke-linecap="round" stroke-linejoin="round"/>
<path d="M149.198 184.392L151.38 176.782L144.37 174.772" stroke="white" stroke-width="2" stroke-linecap="round" stroke-linejoin="round"/>
<path d="M342.531 176.565C345.923 177.348 348.838 179.562 350.635 182.719C352.432 185.877 352.964 189.72 352.114 193.402C351.204 197.281 348.949 200.684 345.82 202.901L341.804 205.647" stroke="white" stroke-width="2" stroke-linecap="round" stroke-linejoin="round"/>
<path d="M343.585 197.933L341.804 205.647L348.908 207.287" stroke="white" stroke-width="2" stroke-linecap="round" stroke-linejoin="round"/>
<path d="M56.9844 198.219C55.9427 198.219 55.0104 198.023 54.1875 197.633C53.3646 197.237 52.7109 196.695 52.2266 196.008C51.7474 195.32 51.4922 194.534 51.4609 193.648H54.2734C54.3255 194.305 54.6094 194.841 55.125 195.258C55.6406 195.669 56.2604 195.875 56.9844 195.875C57.5521 195.875 58.0573 195.745 58.5 195.484C58.9427 195.224 59.2917 194.862 59.5469 194.398C59.8021 193.935 59.9271 193.406 59.9219 192.812C59.9271 192.208 59.7995 191.672 59.5391 191.203C59.2786 190.734 58.9219 190.367 58.4688 190.102C58.0156 189.831 57.4948 189.695 56.9063 189.695C56.4271 189.69 55.9557 189.779 55.4922 189.961C55.0286 190.143 54.6615 190.383 54.3906 190.68L51.7734 190.25L52.6094 182H61.8906V184.422H55.0078L54.5469 188.664H54.6406C54.9375 188.315 55.3568 188.026 55.8984 187.797C56.4401 187.562 57.0339 187.445 57.6797 187.445C58.6484 187.445 59.513 187.674 60.2734 188.133C61.0339 188.586 61.6328 189.211 62.0703 190.008C62.5078 190.805 62.7266 191.716 62.7266 192.742C62.7266 193.799 62.4818 194.742 61.9922 195.57C61.5078 196.393 60.8333 197.042 59.9688 197.516C59.1094 197.984 58.1146 198.219 56.9844 198.219ZM80.3164 189.172L77.7383 189.453C77.6654 189.193 77.5378 188.948 77.3555 188.719C77.1784 188.49 76.9388 188.305 76.6367 188.164C76.3346 188.023 75.9648 187.953 75.5273 187.953C74.9388 187.953 74.444 188.081 74.043 188.336C73.6471 188.591 73.4518 188.922 73.457 189.328C73.4518 189.677 73.5794 189.961 73.8398 190.18C74.1055 190.398 74.543 190.578 75.1523 190.719L77.1992 191.156C78.3346 191.401 79.1784 191.789 79.7305 192.32C80.2878 192.852 80.569 193.547 80.5742 194.406C80.569 195.161 80.3477 195.828 79.9102 196.406C79.4779 196.979 78.8763 197.427 78.1055 197.75C77.3346 198.073 76.4492 198.234 75.4492 198.234C73.9805 198.234 72.7982 197.927 71.9023 197.312C71.0065 196.693 70.4727 195.831 70.3008 194.727L73.0586 194.461C73.1836 195.003 73.4492 195.411 73.8555 195.687C74.2617 195.964 74.7904 196.102 75.4414 196.102C76.1133 196.102 76.6523 195.964 77.0586 195.687C77.4701 195.411 77.6758 195.07 77.6758 194.664C77.6758 194.32 77.543 194.036 77.2773 193.812C77.0169 193.589 76.6107 193.417 76.0586 193.297L74.0117 192.867C72.8607 192.628 72.0091 192.224 71.457 191.656C70.9049 191.083 70.6315 190.359 70.6367 189.484C70.6315 188.745 70.832 188.104 71.2383 187.562C71.6497 187.016 72.2201 186.594 72.9492 186.297C73.6836 185.995 74.5299 185.844 75.4883 185.844C76.8945 185.844 78.0013 186.143 78.8086 186.742C79.6211 187.341 80.1237 188.151 80.3164 189.172ZM88.2187 198.234C87.0156 198.234 85.9766 197.984 85.1016 197.484C84.2318 196.979 83.5625 196.266 83.0938 195.344C82.625 194.417 82.3906 193.326 82.3906 192.07C82.3906 190.836 82.625 189.753 83.0938 188.82C83.5677 187.883 84.2292 187.154 85.0781 186.633C85.9271 186.107 86.9245 185.844 88.0703 185.844C88.8099 185.844 89.5078 185.964 90.1641 186.203C90.8255 186.437 91.4089 186.802 91.9141 187.297C92.4245 187.792 92.8255 188.422 93.1172 189.187C93.4089 189.948 93.5547 190.854 93.5547 191.906V192.773H83.7188V190.867H90.8438C90.8385 190.326 90.7214 189.844 90.4922 189.422C90.263 188.995 89.9427 188.659 89.5312 188.414C89.125 188.169 88.651 188.047 88.1094 188.047C87.5313 188.047 87.0234 188.187 86.5859 188.469C86.1484 188.745 85.8073 189.109 85.5625 189.562C85.3229 190.01 85.2005 190.503 85.1953 191.039V192.703C85.1953 193.401 85.3229 194 85.5781 194.5C85.8333 194.995 86.1901 195.375 86.6484 195.641C87.1068 195.901 87.6432 196.031 88.2578 196.031C88.6693 196.031 89.0417 195.974 89.375 195.859C89.7083 195.74 89.9974 195.565 90.2422 195.336C90.487 195.107 90.6719 194.823 90.7969 194.484L93.4375 194.781C93.2708 195.479 92.9531 196.089 92.4844 196.609C92.0208 197.125 91.4271 197.526 90.7031 197.812C89.9792 198.094 89.151 198.234 88.2187 198.234ZM101.182 198.234C99.9837 198.234 98.9551 197.971 98.0957 197.445C97.2415 196.919 96.5827 196.193 96.1191 195.266C95.6608 194.333 95.4316 193.26 95.4316 192.047C95.4316 190.828 95.666 189.753 96.1348 188.82C96.6035 187.883 97.265 187.154 98.1191 186.633C98.9785 186.107 99.9941 185.844 101.166 185.844C102.14 185.844 103.002 186.023 103.752 186.383C104.507 186.737 105.109 187.24 105.557 187.891C106.005 188.536 106.26 189.292 106.322 190.156H103.619C103.51 189.578 103.249 189.096 102.838 188.711C102.432 188.32 101.887 188.125 101.205 188.125C100.627 188.125 100.119 188.281 99.6816 188.594C99.2441 188.901 98.903 189.344 98.6582 189.922C98.4186 190.5 98.2988 191.193 98.2988 192C98.2988 192.818 98.4186 193.521 98.6582 194.109C98.8978 194.693 99.2337 195.143 99.666 195.461C100.104 195.773 100.617 195.93 101.205 195.93C101.622 195.93 101.994 195.852 102.322 195.695C102.656 195.534 102.934 195.302 103.158 195C103.382 194.698 103.536 194.331 103.619 193.898H106.322C106.255 194.747 106.005 195.5 105.572 196.156C105.14 196.807 104.551 197.318 103.807 197.687C103.062 198.052 102.187 198.234 101.182 198.234Z" fill="white"/>
<path d="M363.422 194V191.906L368.977 186.461C369.508 185.924 369.951 185.448 370.305 185.031C370.659 184.615 370.924 184.211 371.102 183.82C371.279 183.43 371.367 183.013 371.367 182.57C371.367 182.065 371.253 181.633 371.023 181.273C370.794 180.909 370.479 180.628 370.078 180.43C369.677 180.232 369.221 180.133 368.711 180.133C368.185 180.133 367.724 180.242 367.328 180.461C366.932 180.674 366.625 180.979 366.406 181.375C366.193 181.771 366.086 182.242 366.086 182.789H363.328C363.328 181.773 363.56 180.891 364.023 180.141C364.487 179.391 365.125 178.81 365.938 178.398C366.755 177.987 367.693 177.781 368.75 177.781C369.823 177.781 370.766 177.982 371.578 178.383C372.391 178.784 373.021 179.333 373.469 180.031C373.922 180.729 374.148 181.526 374.148 182.422C374.148 183.021 374.034 183.609 373.805 184.187C373.576 184.766 373.172 185.406 372.594 186.109C372.021 186.812 371.216 187.664 370.18 188.664L367.422 191.469V191.578H374.391V194H363.422ZM392.059 185.172L389.48 185.453C389.408 185.193 389.28 184.948 389.098 184.719C388.921 184.49 388.681 184.305 388.379 184.164C388.077 184.023 387.707 183.953 387.27 183.953C386.681 183.953 386.186 184.081 385.785 184.336C385.389 184.591 385.194 184.922 385.199 185.328C385.194 185.677 385.322 185.961 385.582 186.18C385.848 186.398 386.285 186.578 386.895 186.719L388.941 187.156C390.077 187.401 390.921 187.789 391.473 188.32C392.03 188.852 392.311 189.547 392.316 190.406C392.311 191.161 392.09 191.828 391.652 192.406C391.22 192.979 390.618 193.427 389.848 193.75C389.077 194.073 388.191 194.234 387.191 194.234C385.723 194.234 384.54 193.927 383.645 193.312C382.749 192.693 382.215 191.831 382.043 190.727L384.801 190.461C384.926 191.003 385.191 191.411 385.598 191.687C386.004 191.964 386.533 192.102 387.184 192.102C387.855 192.102 388.395 191.964 388.801 191.687C389.212 191.411 389.418 191.07 389.418 190.664C389.418 190.32 389.285 190.036 389.02 189.812C388.759 189.589 388.353 189.417 387.801 189.297L385.754 188.867C384.603 188.628 383.751 188.224 383.199 187.656C382.647 187.083 382.374 186.359 382.379 185.484C382.374 184.745 382.574 184.104 382.98 183.562C383.392 183.016 383.962 182.594 384.691 182.297C385.426 181.995 386.272 181.844 387.23 181.844C388.637 181.844 389.743 182.143 390.551 182.742C391.363 183.341 391.866 184.151 392.059 185.172ZM399.961 194.234C398.758 194.234 397.719 193.984 396.844 193.484C395.974 192.979 395.305 192.266 394.836 191.344C394.367 190.417 394.133 189.326 394.133 188.07C394.133 186.836 394.367 185.753 394.836 184.82C395.31 183.883 395.971 183.154 396.82 182.633C397.669 182.107 398.667 181.844 399.812 181.844C400.552 181.844 401.25 181.964 401.906 182.203C402.568 182.437 403.151 182.802 403.656 183.297C404.167 183.792 404.568 184.422 404.859 185.187C405.151 185.948 405.297 186.854 405.297 187.906V188.773H395.461V186.867H402.586C402.581 186.326 402.464 185.844 402.234 185.422C402.005 184.995 401.685 184.659 401.273 184.414C400.867 184.169 400.393 184.047 399.852 184.047C399.273 184.047 398.766 184.187 398.328 184.469C397.891 184.745 397.549 185.109 397.305 185.562C397.065 186.01 396.943 186.503 396.938 187.039V188.703C396.938 189.401 397.065 190 397.32 190.5C397.576 190.995 397.932 191.375 398.391 191.641C398.849 191.901 399.385 192.031 400 192.031C400.411 192.031 400.784 191.974 401.117 191.859C401.451 191.74 401.74 191.565 401.984 191.336C402.229 191.107 402.414 190.823 402.539 190.484L405.18 190.781C405.013 191.479 404.695 192.089 404.227 192.609C403.763 193.125 403.169 193.526 402.445 193.812C401.721 194.094 400.893 194.234 399.961 194.234ZM412.924 194.234C411.726 194.234 410.697 193.971 409.838 193.445C408.984 192.919 408.325 192.193 407.861 191.266C407.403 190.333 407.174 189.26 407.174 188.047C407.174 186.828 407.408 185.753 407.877 184.82C408.346 183.883 409.007 183.154 409.861 182.633C410.721 182.107 411.736 181.844 412.908 181.844C413.882 181.844 414.744 182.023 415.494 182.383C416.249 182.737 416.851 183.24 417.299 183.891C417.747 184.536 418.002 185.292 418.064 186.156H415.361C415.252 185.578 414.992 185.096 414.58 184.711C414.174 184.32 413.63 184.125 412.947 184.125C412.369 184.125 411.861 184.281 411.424 184.594C410.986 184.901 410.645 185.344 410.4 185.922C410.161 186.5 410.041 187.193 410.041 188C410.041 188.818 410.161 189.521 410.4 190.109C410.64 190.693 410.976 191.143 411.408 191.461C411.846 191.773 412.359 191.93 412.947 191.93C413.364 191.93 413.736 191.852 414.064 191.695C414.398 191.534 414.676 191.302 414.9 191C415.124 190.698 415.278 190.331 415.361 189.898H418.064C417.997 190.747 417.747 191.5 417.314 192.156C416.882 192.807 416.294 193.318 415.549 193.687C414.804 194.052 413.929 194.234 412.924 194.234Z" fill="white"/>
<path d="M362.578 168V152H368.578C369.807 152 370.839 152.214 371.672 152.641C372.51 153.068 373.143 153.667 373.57 154.437C374.003 155.203 374.219 156.096 374.219 157.117C374.219 158.143 374 159.034 373.563 159.789C373.13 160.539 372.492 161.12 371.648 161.531C370.805 161.937 369.768 162.141 368.539 162.141H364.266V159.734H368.148C368.867 159.734 369.456 159.635 369.914 159.437C370.372 159.234 370.711 158.94 370.93 158.555C371.154 158.164 371.266 157.685 371.266 157.117C371.266 156.549 371.154 156.065 370.93 155.664C370.706 155.258 370.365 154.951 369.906 154.742C369.448 154.529 368.857 154.422 368.133 154.422H365.477V168H362.578ZM370.844 160.75L374.805 168H371.57L367.68 160.75H370.844ZM381.902 168.234C380.699 168.234 379.66 167.984 378.785 167.484C377.915 166.979 377.246 166.266 376.777 165.344C376.309 164.417 376.074 163.326 376.074 162.07C376.074 160.836 376.309 159.753 376.777 158.82C377.251 157.883 377.913 157.154 378.762 156.633C379.611 156.107 380.608 155.844 381.754 155.844C382.493 155.844 383.191 155.964 383.848 156.203C384.509 156.437 385.092 156.802 385.598 157.297C386.108 157.792 386.509 158.422 386.801 159.187C387.092 159.948 387.238 160.854 387.238 161.906V162.773H377.402V160.867H384.527C384.522 160.326 384.405 159.844 384.176 159.422C383.947 158.995 383.626 158.659 383.215 158.414C382.809 158.169 382.335 158.047 381.793 158.047C381.215 158.047 380.707 158.187 380.27 158.469C379.832 158.745 379.491 159.109 379.246 159.562C379.007 160.01 378.884 160.503 378.879 161.039V162.703C378.879 163.401 379.007 164 379.262 164.5C379.517 164.995 379.874 165.375 380.332 165.641C380.79 165.901 381.327 166.031 381.941 166.031C382.353 166.031 382.725 165.974 383.059 165.859C383.392 165.74 383.681 165.565 383.926 165.336C384.171 165.107 384.355 164.823 384.48 164.484L387.121 164.781C386.954 165.479 386.637 166.089 386.168 166.609C385.704 167.125 385.111 167.526 384.387 167.812C383.663 168.094 382.835 168.234 381.902 168.234ZM400.006 156L395.732 168H392.607L388.334 156H391.35L394.107 164.914H394.232L396.998 156H400.006ZM406.867 168.234C405.664 168.234 404.625 167.984 403.75 167.484C402.88 166.979 402.211 166.266 401.742 165.344C401.273 164.417 401.039 163.326 401.039 162.07C401.039 160.836 401.273 159.753 401.742 158.82C402.216 157.883 402.878 157.154 403.727 156.633C404.576 156.107 405.573 155.844 406.719 155.844C407.458 155.844 408.156 155.964 408.813 156.203C409.474 156.437 410.057 156.802 410.563 157.297C411.073 157.792 411.474 158.422 411.766 159.187C412.057 159.948 412.203 160.854 412.203 161.906V162.773H402.367V160.867H409.492C409.487 160.326 409.37 159.844 409.141 159.422C408.911 158.995 408.591 158.659 408.18 158.414C407.773 158.169 407.299 158.047 406.758 158.047C406.18 158.047 405.672 158.187 405.234 158.469C404.797 158.745 404.456 159.109 404.211 159.562C403.971 160.01 403.849 160.503 403.844 161.039V162.703C403.844 163.401 403.971 164 404.227 164.5C404.482 164.995 404.839 165.375 405.297 165.641C405.755 165.901 406.292 166.031 406.906 166.031C407.318 166.031 407.69 165.974 408.023 165.859C408.357 165.74 408.646 165.565 408.891 165.336C409.135 165.107 409.32 164.823 409.445 164.484L412.086 164.781C411.919 165.479 411.602 166.089 411.133 166.609C410.669 167.125 410.076 167.526 409.352 167.812C408.628 168.094 407.799 168.234 406.867 168.234ZM414.596 168V156H417.338V158H417.463C417.682 157.307 418.057 156.773 418.588 156.398C419.124 156.018 419.736 155.828 420.424 155.828C420.58 155.828 420.755 155.836 420.947 155.852C421.145 155.862 421.309 155.88 421.439 155.906V158.508C421.32 158.466 421.13 158.43 420.869 158.398C420.614 158.362 420.367 158.344 420.127 158.344C419.611 158.344 419.148 158.456 418.736 158.68C418.33 158.898 418.01 159.203 417.775 159.594C417.541 159.984 417.424 160.435 417.424 160.945V168H414.596ZM432.803 159.172L430.225 159.453C430.152 159.193 430.024 158.948 429.842 158.719C429.665 158.49 429.425 158.305 429.123 158.164C428.821 158.023 428.451 157.953 428.014 157.953C427.425 157.953 426.93 158.081 426.529 158.336C426.133 158.591 425.938 158.922 425.943 159.328C425.938 159.677 426.066 159.961 426.326 160.18C426.592 160.398 427.029 160.578 427.639 160.719L429.686 161.156C430.821 161.401 431.665 161.789 432.217 162.32C432.774 162.852 433.055 163.547 433.061 164.406C433.055 165.161 432.834 165.828 432.396 166.406C431.964 166.979 431.363 167.427 430.592 167.75C429.821 168.073 428.936 168.234 427.936 168.234C426.467 168.234 425.285 167.927 424.389 167.312C423.493 166.693 422.959 165.831 422.787 164.727L425.545 164.461C425.67 165.003 425.936 165.411 426.342 165.687C426.748 165.964 427.277 166.102 427.928 166.102C428.6 166.102 429.139 165.964 429.545 165.687C429.956 165.411 430.162 165.07 430.162 164.664C430.162 164.32 430.029 164.036 429.764 163.812C429.503 163.589 429.097 163.417 428.545 163.297L426.498 162.867C425.347 162.628 424.495 162.224 423.943 161.656C423.391 161.083 423.118 160.359 423.123 159.484C423.118 158.745 423.318 158.104 423.725 157.562C424.136 157.016 424.706 156.594 425.436 156.297C426.17 155.995 427.016 155.844 427.975 155.844C429.381 155.844 430.488 156.143 431.295 156.742C432.107 157.341 432.61 158.151 432.803 159.172ZM440.705 168.234C439.502 168.234 438.463 167.984 437.588 167.484C436.718 166.979 436.049 166.266 435.58 165.344C435.111 164.417 434.877 163.326 434.877 162.07C434.877 160.836 435.111 159.753 435.58 158.82C436.054 157.883 436.715 157.154 437.564 156.633C438.413 156.107 439.411 155.844 440.557 155.844C441.296 155.844 441.994 155.964 442.65 156.203C443.312 156.437 443.895 156.802 444.4 157.297C444.911 157.792 445.312 158.422 445.604 159.187C445.895 159.948 446.041 160.854 446.041 161.906V162.773H436.205V160.867H443.33C443.325 160.326 443.208 159.844 442.979 159.422C442.749 158.995 442.429 158.659 442.018 158.414C441.611 158.169 441.137 158.047 440.596 158.047C440.018 158.047 439.51 158.187 439.072 158.469C438.635 158.745 438.294 159.109 438.049 159.562C437.809 160.01 437.687 160.503 437.682 161.039V162.703C437.682 163.401 437.809 164 438.064 164.5C438.32 164.995 438.676 165.375 439.135 165.641C439.593 165.901 440.13 166.031 440.744 166.031C441.156 166.031 441.528 165.974 441.861 165.859C442.195 165.74 442.484 165.565 442.729 165.336C442.973 165.107 443.158 164.823 443.283 164.484L445.924 164.781C445.757 165.479 445.439 166.089 444.971 166.609C444.507 167.125 443.913 167.526 443.189 167.812C442.465 168.094 441.637 168.234 440.705 168.234Z" fill="white"/>
<path d="M51.5781 170V154H61.8281V156.43H54.4766V160.773H61.125V163.203H54.4766V170H51.5781ZM68.6973 170.234C67.5254 170.234 66.5098 169.977 65.6504 169.461C64.791 168.945 64.1243 168.224 63.6504 167.297C63.1816 166.37 62.9473 165.286 62.9473 164.047C62.9473 162.807 63.1816 161.721 63.6504 160.789C64.1243 159.857 64.791 159.133 65.6504 158.617C66.5098 158.102 67.5254 157.844 68.6973 157.844C69.8691 157.844 70.8848 158.102 71.7441 158.617C72.6035 159.133 73.2676 159.857 73.7363 160.789C74.2103 161.721 74.4473 162.807 74.4473 164.047C74.4473 165.286 74.2103 166.37 73.7363 167.297C73.2676 168.224 72.6035 168.945 71.7441 169.461C70.8848 169.977 69.8691 170.234 68.6973 170.234ZM68.7129 167.969C69.3483 167.969 69.8796 167.794 70.3066 167.445C70.7337 167.091 71.0514 166.617 71.2598 166.023C71.4733 165.43 71.5801 164.768 71.5801 164.039C71.5801 163.305 71.4733 162.641 71.2598 162.047C71.0514 161.448 70.7337 160.971 70.3066 160.617C69.8796 160.263 69.3483 160.086 68.7129 160.086C68.0618 160.086 67.5202 160.263 67.0879 160.617C66.6608 160.971 66.3405 161.448 66.127 162.047C65.9186 162.641 65.8145 163.305 65.8145 164.039C65.8145 164.768 65.9186 165.43 66.127 166.023C66.3405 166.617 66.6608 167.091 67.0879 167.445C67.5202 167.794 68.0618 167.969 68.7129 167.969ZM76.8477 170V158H79.5898V160H79.7148C79.9336 159.307 80.3086 158.773 80.8398 158.398C81.3763 158.018 81.9883 157.828 82.6758 157.828C82.832 157.828 83.0065 157.836 83.1992 157.852C83.3971 157.862 83.5612 157.88 83.6914 157.906V160.508C83.5716 160.466 83.3815 160.43 83.1211 160.398C82.8659 160.362 82.6185 160.344 82.3789 160.344C81.8633 160.344 81.3997 160.456 80.9883 160.68C80.582 160.898 80.2617 161.203 80.0273 161.594C79.793 161.984 79.6758 162.435 79.6758 162.945V170H76.8477ZM88.2402 170L84.8496 158H87.7324L89.8418 166.437H89.9512L92.1074 158H94.959L97.1152 166.391H97.2324L99.3105 158H102.201L98.8027 170H95.8574L93.6074 161.891H93.4434L91.1934 170H88.2402ZM107.629 170.242C106.868 170.242 106.184 170.107 105.574 169.836C104.97 169.56 104.491 169.154 104.137 168.617C103.788 168.081 103.613 167.419 103.613 166.633C103.613 165.956 103.738 165.396 103.988 164.953C104.238 164.51 104.579 164.156 105.012 163.891C105.444 163.625 105.931 163.424 106.473 163.289C107.02 163.148 107.585 163.047 108.168 162.984C108.871 162.911 109.441 162.846 109.879 162.789C110.316 162.727 110.634 162.633 110.832 162.508C111.035 162.378 111.137 162.177 111.137 161.906V161.859C111.137 161.271 110.962 160.815 110.613 160.492C110.264 160.169 109.762 160.008 109.105 160.008C108.413 160.008 107.863 160.159 107.457 160.461C107.056 160.763 106.785 161.12 106.645 161.531L104.004 161.156C104.212 160.427 104.556 159.818 105.035 159.328C105.514 158.833 106.1 158.464 106.793 158.219C107.486 157.969 108.251 157.844 109.09 157.844C109.668 157.844 110.243 157.911 110.816 158.047C111.389 158.182 111.913 158.406 112.387 158.719C112.861 159.026 113.241 159.445 113.527 159.977C113.819 160.508 113.965 161.172 113.965 161.969V170H111.246V168.352H111.152C110.98 168.685 110.738 168.997 110.426 169.289C110.118 169.576 109.73 169.807 109.262 169.984C108.798 170.156 108.254 170.242 107.629 170.242ZM108.363 168.164C108.931 168.164 109.423 168.052 109.84 167.828C110.257 167.599 110.577 167.297 110.801 166.922C111.03 166.547 111.145 166.138 111.145 165.695V164.281C111.056 164.354 110.905 164.422 110.691 164.484C110.483 164.547 110.249 164.602 109.988 164.648C109.728 164.695 109.47 164.737 109.215 164.773C108.96 164.81 108.738 164.841 108.551 164.867C108.129 164.924 107.751 165.018 107.418 165.148C107.085 165.279 106.822 165.461 106.629 165.695C106.436 165.924 106.34 166.221 106.34 166.586C106.34 167.107 106.53 167.5 106.91 167.766C107.29 168.031 107.775 168.164 108.363 168.164ZM116.809 170V158H119.551V160H119.676C119.895 159.307 120.27 158.773 120.801 158.398C121.337 158.018 121.949 157.828 122.637 157.828C122.793 157.828 122.967 157.836 123.16 157.852C123.358 157.862 123.522 157.88 123.652 157.906V160.508C123.533 160.466 123.342 160.43 123.082 160.398C122.827 160.362 122.579 160.344 122.34 160.344C121.824 160.344 121.361 160.456 120.949 160.68C120.543 160.898 120.223 161.203 119.988 161.594C119.754 161.984 119.637 162.435 119.637 162.945V170H116.809ZM129.49 170.211C128.548 170.211 127.704 169.969 126.959 169.484C126.214 169 125.626 168.297 125.193 167.375C124.761 166.453 124.545 165.333 124.545 164.016C124.545 162.682 124.764 161.557 125.201 160.641C125.644 159.719 126.24 159.023 126.99 158.555C127.74 158.081 128.576 157.844 129.498 157.844C130.201 157.844 130.779 157.964 131.232 158.203C131.686 158.437 132.045 158.721 132.311 159.055C132.576 159.383 132.782 159.693 132.928 159.984H133.045V154H135.881V170H133.1V168.109H132.928C132.782 168.401 132.571 168.711 132.295 169.039C132.019 169.362 131.654 169.638 131.201 169.867C130.748 170.096 130.178 170.211 129.49 170.211ZM130.279 167.891C130.878 167.891 131.389 167.729 131.811 167.406C132.232 167.078 132.553 166.622 132.771 166.039C132.99 165.456 133.1 164.776 133.1 164C133.1 163.224 132.99 162.549 132.771 161.977C132.558 161.404 132.24 160.958 131.818 160.641C131.402 160.323 130.889 160.164 130.279 160.164C129.649 160.164 129.123 160.328 128.701 160.656C128.279 160.984 127.962 161.437 127.748 162.016C127.535 162.594 127.428 163.255 127.428 164C127.428 164.75 127.535 165.419 127.748 166.008C127.967 166.591 128.287 167.052 128.709 167.391C129.136 167.724 129.66 167.891 130.279 167.891Z" fill="white"/>
</svg>
