<svg width="491" height="336" viewBox="0 0 491 336" fill="none" xmlns="http://www.w3.org/2000/svg">
<g clip-path="url(#clip0_4_53)">
<rect width="491" height="336" fill="#2C2828"/>
<path d="M177.047 37L172.391 21H176.664L179.078 31.4844H179.211L181.969 21H185.453L188.211 31.5078H188.344L190.766 21H195.031L190.383 37H186.656L183.773 27.2969H183.648L180.766 37H177.047ZM200.449 30.1562V37H196.629V21H200.324V27.2031H200.457C200.728 26.4635 201.171 25.8854 201.785 25.4687C202.405 25.0521 203.163 24.8438 204.059 24.8438C204.902 24.8438 205.637 25.0313 206.262 25.4063C206.887 25.776 207.371 26.2995 207.715 26.9766C208.064 27.6536 208.236 28.4453 208.23 29.3516V37H204.41V30.1016C204.415 29.4349 204.249 28.9141 203.91 28.5391C203.572 28.1641 203.095 27.9766 202.48 27.9766C202.079 27.9766 201.725 28.0651 201.418 28.2422C201.116 28.4141 200.879 28.6615 200.707 28.9844C200.54 29.3073 200.454 29.6979 200.449 30.1562ZM210.615 37V25H214.436V37H210.615ZM212.529 23.6016C211.993 23.6016 211.532 23.4245 211.146 23.0703C210.761 22.7109 210.568 22.2786 210.568 21.7734C210.568 21.2734 210.761 20.8464 211.146 20.4922C211.532 20.1328 211.993 19.9531 212.529 19.9531C213.071 19.9531 213.532 20.1328 213.912 20.4922C214.298 20.8464 214.49 21.2734 214.49 21.7734C214.49 22.2786 214.298 22.7109 213.912 23.0703C213.532 23.4245 213.071 23.6016 212.529 23.6016ZM220.688 21V37H216.867V21H220.688ZM228.729 37.2266C227.473 37.2266 226.39 36.9792 225.479 36.4844C224.572 35.9844 223.874 35.2734 223.385 34.3516C222.9 33.4245 222.658 32.3229 222.658 31.0469C222.658 29.8073 222.903 28.724 223.393 27.7969C223.882 26.8646 224.572 26.1406 225.463 25.625C226.354 25.1042 227.403 24.8438 228.611 24.8438C229.465 24.8438 230.247 24.9766 230.955 25.2422C231.663 25.5078 232.275 25.901 232.791 26.4219C233.307 26.9427 233.708 27.5859 233.994 28.3516C234.281 29.112 234.424 29.9844 234.424 30.9687V31.9219H223.994V29.7031H230.869C230.864 29.2969 230.768 28.9349 230.58 28.6172C230.393 28.2995 230.135 28.0521 229.807 27.875C229.484 27.6927 229.111 27.6016 228.689 27.6016C228.262 27.6016 227.88 27.6979 227.541 27.8906C227.202 28.0781 226.934 28.3359 226.736 28.6641C226.538 28.987 226.434 29.3542 226.424 29.7656V32.0234C226.424 32.513 226.52 32.9427 226.713 33.3125C226.906 33.6771 227.179 33.9609 227.533 34.1641C227.887 34.3672 228.309 34.4687 228.799 34.4687C229.137 34.4687 229.445 34.4219 229.721 34.3281C229.997 34.2344 230.234 34.0964 230.432 33.9141C230.63 33.7318 230.778 33.5078 230.877 33.2422L234.385 33.3437C234.239 34.1302 233.919 34.8151 233.424 35.3984C232.934 35.9766 232.291 36.4271 231.494 36.75C230.697 37.0677 229.775 37.2266 228.729 37.2266ZM247.016 37H241.102V21H247.008C248.638 21 250.042 21.3203 251.219 21.9609C252.401 22.5964 253.313 23.513 253.953 24.7109C254.594 25.9036 254.914 27.3307 254.914 28.9922C254.914 30.6589 254.594 32.0911 253.953 33.2891C253.318 34.487 252.409 35.4062 251.227 36.0469C250.044 36.6823 248.641 37 247.016 37ZM244.969 33.7031H246.867C247.763 33.7031 248.521 33.5521 249.141 33.25C249.766 32.9427 250.237 32.4453 250.555 31.7578C250.878 31.0651 251.039 30.1432 251.039 28.9922C251.039 27.8411 250.878 26.9245 250.555 26.2422C250.232 25.5547 249.755 25.0599 249.125 24.7578C248.5 24.4505 247.729 24.2969 246.813 24.2969H244.969V33.7031ZM257.172 37V25H260.883V27.1875H261.008C261.227 26.3958 261.583 25.8073 262.078 25.4219C262.573 25.0312 263.148 24.8359 263.805 24.8359C263.982 24.8359 264.164 24.849 264.352 24.875C264.539 24.8958 264.714 24.9297 264.875 24.9766V28.2969C264.693 28.2344 264.453 28.1849 264.156 28.1484C263.865 28.112 263.604 28.0937 263.375 28.0937C262.922 28.0937 262.513 28.1953 262.148 28.3984C261.789 28.5964 261.505 28.875 261.297 29.2344C261.094 29.5885 260.992 30.0052 260.992 30.4844V37H257.172ZM269.363 37.2031C268.598 37.2031 267.918 37.0755 267.324 36.8203C266.736 36.5599 266.27 36.1693 265.926 35.6484C265.587 35.1224 265.418 34.4635 265.418 33.6719C265.418 33.0052 265.535 32.4427 265.77 31.9844C266.004 31.526 266.327 31.1536 266.738 30.8672C267.15 30.5807 267.624 30.3646 268.16 30.2187C268.697 30.0677 269.27 29.9661 269.879 29.9141C270.561 29.8516 271.111 29.7865 271.527 29.7188C271.944 29.6458 272.246 29.5443 272.434 29.4141C272.626 29.2786 272.723 29.0885 272.723 28.8437V28.8047C272.723 28.4036 272.585 28.0937 272.309 27.875C272.033 27.6562 271.66 27.5469 271.191 27.5469C270.686 27.5469 270.28 27.6562 269.973 27.875C269.665 28.0937 269.47 28.3958 269.387 28.7812L265.863 28.6562C265.967 27.9271 266.236 27.276 266.668 26.7031C267.105 26.125 267.704 25.6719 268.465 25.3437C269.23 25.0104 270.15 24.8438 271.223 24.8438C271.988 24.8438 272.694 24.9349 273.34 25.1172C273.986 25.2943 274.548 25.5547 275.027 25.8984C275.507 26.237 275.876 26.6536 276.137 27.1484C276.402 27.6432 276.535 28.2083 276.535 28.8437V37H272.941V35.3281H272.848C272.634 35.7344 272.361 36.0781 272.027 36.3594C271.699 36.6406 271.311 36.8516 270.863 36.9922C270.421 37.1328 269.921 37.2031 269.363 37.2031ZM270.543 34.7031C270.954 34.7031 271.324 34.6198 271.652 34.4531C271.986 34.2865 272.251 34.0573 272.449 33.7656C272.647 33.4687 272.746 33.125 272.746 32.7344V31.5937C272.637 31.651 272.504 31.7031 272.348 31.75C272.197 31.7969 272.03 31.8411 271.848 31.8828C271.665 31.9245 271.478 31.9609 271.285 31.9922C271.092 32.0234 270.908 32.0521 270.73 32.0781C270.371 32.1354 270.064 32.224 269.809 32.3437C269.559 32.4635 269.366 32.6198 269.23 32.8125C269.1 33 269.035 33.224 269.035 33.4844C269.035 33.8802 269.176 34.1823 269.457 34.3906C269.743 34.599 270.105 34.7031 270.543 34.7031ZM284.465 41.75C283.324 41.75 282.348 41.5911 281.535 41.2734C280.723 40.9557 280.085 40.5208 279.621 39.9688C279.158 39.4167 278.879 38.7917 278.785 38.0938L282.402 37.8906C282.47 38.1354 282.595 38.349 282.777 38.5313C282.965 38.7135 283.207 38.8542 283.504 38.9531C283.806 39.0521 284.16 39.1016 284.566 39.1016C285.207 39.1016 285.736 38.9453 286.152 38.6328C286.574 38.3255 286.785 37.7865 286.785 37.0156V34.9062H286.652C286.501 35.276 286.272 35.6068 285.965 35.8984C285.658 36.1901 285.275 36.4193 284.816 36.5859C284.363 36.7526 283.842 36.8359 283.254 36.8359C282.379 36.8359 281.577 36.6328 280.848 36.2266C280.124 35.8151 279.543 35.1797 279.105 34.3203C278.673 33.4557 278.457 32.3437 278.457 30.9844C278.457 29.5833 278.681 28.4297 279.129 27.5234C279.577 26.612 280.163 25.9375 280.887 25.5C281.616 25.0625 282.4 24.8438 283.238 24.8438C283.868 24.8438 284.408 24.9531 284.855 25.1719C285.309 25.3854 285.681 25.6615 285.973 26C286.264 26.3385 286.486 26.6901 286.637 27.0547H286.746V25H290.551V37.0469C290.551 38.0625 290.296 38.9193 289.785 39.6172C289.275 40.3151 288.561 40.8438 287.645 41.2031C286.728 41.5677 285.668 41.75 284.465 41.75ZM284.582 34.0547C285.046 34.0547 285.441 33.9323 285.77 33.6875C286.098 33.4427 286.35 33.0911 286.527 32.6328C286.704 32.1745 286.793 31.625 286.793 30.9844C286.793 30.3333 286.704 29.7734 286.527 29.3047C286.355 28.8307 286.103 28.4661 285.77 28.2109C285.441 27.9557 285.046 27.8281 284.582 27.8281C284.108 27.8281 283.707 27.9583 283.379 28.2187C283.051 28.4792 282.801 28.8464 282.629 29.3203C282.462 29.7891 282.379 30.3437 282.379 30.9844C282.379 31.625 282.465 32.1745 282.637 32.6328C282.809 33.0911 283.056 33.4427 283.379 33.6875C283.707 33.9323 284.108 34.0547 284.582 34.0547Z" fill="white"/>
<g filter="url(#filter0_d_4_53)">
<rect x="39" y="69" width="140" height="140" rx="25" fill="#F7F5F5"/>
</g>
<g filter="url(#filter1_d_4_53)">
<circle cx="108.5" cy="141.5" r="20.5" fill="#D9D9D9"/>
</g>
<path d="M108.75 142.75L112.5 151.75L113.85 147.85L117.75 146.5L108.75 142.75Z" stroke="#033A52" stroke-width="1.04167" stroke-linecap="round" stroke-linejoin="round"/>
<path d="M107.4 137.65L108 139.825" stroke="#033A52" stroke-width="1.04167" stroke-linecap="round" stroke-linejoin="round"/>
<path d="M105.825 142L103.65 141.4" stroke="#033A52" stroke-width="1.04167" stroke-linecap="round" stroke-linejoin="round"/>
<path d="M112.5 139.075L111 140.5" stroke="#033A52" stroke-width="1.04167" stroke-linecap="round" stroke-linejoin="round"/>
<path d="M106.5 145L105.075 146.5" stroke="#033A52" stroke-width="1.04167" stroke-linecap="round" stroke-linejoin="round"/>
<g filter="url(#filter2_d_4_53)">
<rect x="39" y="69" width="140" height="140" rx="25" fill="#F7F5F5"/>
</g>
<g filter="url(#filter3_d_4_53)">
<circle cx="108.5" cy="141.5" r="20.5" fill="#D9D9D9"/>
</g>
<path d="M108.75 142.75L112.5 151.75L113.85 147.85L117.75 146.5L108.75 142.75Z" stroke="#033A52" stroke-width="1.04167" stroke-linecap="round" stroke-linejoin="round"/>
<path d="M107.4 137.65L108 139.825" stroke="#033A52" stroke-width="1.04167" stroke-linecap="round" stroke-linejoin="round"/>
<path d="M105.825 142L103.65 141.4" stroke="#033A52" stroke-width="1.04167" stroke-linecap="round" stroke-linejoin="round"/>
<path d="M112.5 139.075L111 140.5" stroke="#033A52" stroke-width="1.04167" stroke-linecap="round" stroke-linejoin="round"/>
<path d="M106.5 145L105.075 146.5" stroke="#033A52" stroke-width="1.04167" stroke-linecap="round" stroke-linejoin="round"/>
<g filter="url(#filter4_d_4_53)">
<rect x="290" y="162" width="140" height="140" rx="25" fill="#F7F5F5"/>
</g>
<g filter="url(#filter5_d_4_53)">
<circle cx="359.5" cy="234.5" r="20.5" fill="#D9D9D9"/>
</g>
<path d="M359.75 235.75L363.5 244.75L364.85 240.85L368.75 239.5L359.75 235.75Z" stroke="#033A52" stroke-width="1.04167" stroke-linecap="round" stroke-linejoin="round"/>
<path d="M358.4 230.65L359 232.825" stroke="#033A52" stroke-width="1.04167" stroke-linecap="round" stroke-linejoin="round"/>
<path d="M356.825 235L354.65 234.4" stroke="#033A52" stroke-width="1.04167" stroke-linecap="round" stroke-linejoin="round"/>
<path d="M363.5 232.075L362 233.5" stroke="#033A52" stroke-width="1.04167" stroke-linecap="round" stroke-linejoin="round"/>
<path d="M357.5 238L356.075 239.5" stroke="#033A52" stroke-width="1.04167" stroke-linecap="round" stroke-linejoin="round"/>
<path d="M192 137C281 134 192 238 281 234.5" stroke="#23A1FC" stroke-width="2"/>
</g>
<defs>
<filter id="filter0_d_4_53" x="35" y="69" width="148" height="148" filterUnits="userSpaceOnUse" color-interpolation-filters="sRGB">
<feFlood flood-opacity="0" result="BackgroundImageFix"/>
<feColorMatrix in="SourceAlpha" type="matrix" values="0 0 0 0 0 0 0 0 0 0 0 0 0 0 0 0 0 0 127 0" result="hardAlpha"/>
<feOffset dy="4"/>
<feGaussianBlur stdDeviation="2"/>
<feComposite in2="hardAlpha" operator="out"/>
<feColorMatrix type="matrix" values="0 0 0 0 0 0 0 0 0 0 0 0 0 0 0 0 0 0 0.25 0"/>
<feBlend mode="normal" in2="BackgroundImageFix" result="effect1_dropShadow_4_53"/>
<feBlend mode="normal" in="SourceGraphic" in2="effect1_dropShadow_4_53" result="shape"/>
</filter>
<filter id="filter1_d_4_53" x="84" y="119" width="49" height="49" filterUnits="userSpaceOnUse" color-interpolation-filters="sRGB">
<feFlood flood-opacity="0" result="BackgroundImageFix"/>
<feColorMatrix in="SourceAlpha" type="matrix" values="0 0 0 0 0 0 0 0 0 0 0 0 0 0 0 0 0 0 127 0" result="hardAlpha"/>
<feOffset dy="2"/>
<feGaussianBlur stdDeviation="2"/>
<feComposite in2="hardAlpha" operator="out"/>
<feColorMatrix type="matrix" values="0 0 0 0 0 0 0 0 0 0 0 0 0 0 0 0 0 0 0.25 0"/>
<feBlend mode="normal" in2="BackgroundImageFix" result="effect1_dropShadow_4_53"/>
<feBlend mode="normal" in="SourceGraphic" in2="effect1_dropShadow_4_53" result="shape"/>
</filter>
<filter id="filter2_d_4_53" x="35" y="69" width="148" height="148" filterUnits="userSpaceOnUse" color-interpolation-filters="sRGB">
<feFlood flood-opacity="0" result="BackgroundImageFix"/>
<feColorMatrix in="SourceAlpha" type="matrix" values="0 0 0 0 0 0 0 0 0 0 0 0 0 0 0 0 0 0 127 0" result="hardAlpha"/>
<feOffset dy="4"/>
<feGaussianBlur stdDeviation="2"/>
<feComposite in2="hardAlpha" operator="out"/>
<feColorMatrix type="matrix" values="0 0 0 0 0 0 0 0 0 0 0 0 0 0 0 0 0 0 0.25 0"/>
<feBlend mode="normal" in2="BackgroundImageFix" result="effect1_dropShadow_4_53"/>
<feBlend mode="normal" in="SourceGraphic" in2="effect1_dropShadow_4_53" result="shape"/>
</filter>
<filter id="filter3_d_4_53" x="84" y="119" width="49" height="49" filterUnits="userSpaceOnUse" color-interpolation-filters="sRGB">
<feFlood flood-opacity="0" result="BackgroundImageFix"/>
<feColorMatrix in="SourceAlpha" type="matrix" values="0 0 0 0 0 0 0 0 0 0 0 0 0 0 0 0 0 0 127 0" result="hardAlpha"/>
<feOffset dy="2"/>
<feGaussianBlur stdDeviation="2"/>
<feComposite in2="hardAlpha" operator="out"/>
<feColorMatrix type="matrix" values="0 0 0 0 0 0 0 0 0 0 0 0 0 0 0 0 0 0 0.25 0"/>
<feBlend mode="normal" in2="BackgroundImageFix" result="effect1_dropShadow_4_53"/>
<feBlend mode="normal" in="SourceGraphic" in2="effect1_dropShadow_4_53" result="shape"/>
</filter>
<filter id="filter4_d_4_53" x="286" y="162" width="148" height="148" filterUnits="userSpaceOnUse" color-interpolation-filters="sRGB">
<feFlood flood-opacity="0" result="BackgroundImageFix"/>
<feColorMatrix in="SourceAlpha" type="matrix" values="0 0 0 0 0 0 0 0 0 0 0 0 0 0 0 0 0 0 127 0" result="hardAlpha"/>
<feOffset dy="4"/>
<feGaussianBlur stdDeviation="2"/>
<feComposite in2="hardAlpha" operator="out"/>
<feColorMatrix type="matrix" values="0 0 0 0 0 0 0 0 0 0 0 0 0 0 0 0 0 0 0.25 0"/>
<feBlend mode="normal" in2="BackgroundImageFix" result="effect1_dropShadow_4_53"/>
<feBlend mode="normal" in="SourceGraphic" in2="effect1_dropShadow_4_53" result="shape"/>
</filter>
<filter id="filter5_d_4_53" x="335" y="212" width="49" height="49" filterUnits="userSpaceOnUse" color-interpolation-filters="sRGB">
<feFlood flood-opacity="0" result="BackgroundImageFix"/>
<feColorMatrix in="SourceAlpha" type="matrix" values="0 0 0 0 0 0 0 0 0 0 0 0 0 0 0 0 0 0 127 0" result="hardAlpha"/>
<feOffset dy="2"/>
<feGaussianBlur stdDeviation="2"/>
<feComposite in2="hardAlpha" operator="out"/>
<feColorMatrix type="matrix" values="0 0 0 0 0 0 0 0 0 0 0 0 0 0 0 0 0 0 0.25 0"/>
<feBlend mode="normal" in2="BackgroundImageFix" result="effect1_dropShadow_4_53"/>
<feBlend mode="normal" in="SourceGraphic" in2="effect1_dropShadow_4_53" result="shape"/>
</filter>
<clipPath id="clip0_4_53">
<rect width="491" height="336" fill="white"/>
</clipPath>
</defs>
</svg>
