<svg width="491" height="336" viewBox="0 0 491 336" fill="none" xmlns="http://www.w3.org/2000/svg">
<g clip-path="url(#clip0_4_24)">
<rect width="491" height="336" fill="#2C2828"/>
<g filter="url(#filter0_d_4_24)">
<rect x="301" y="16" width="122" height="71" rx="11" fill="#C2BABA" fill-opacity="0.19" shape-rendering="crispEdges"/>
</g>
<g filter="url(#filter1_d_4_24)">
<rect x="23" y="103" width="140" height="140" rx="25" fill="#F7F5F5"/>
</g>
<g filter="url(#filter2_d_4_24)">
<rect x="269" y="175.853" width="120" height="120" rx="25" transform="rotate(-45 269 175.853)" fill="#F7F5F5"/>
</g>
<g filter="url(#filter3_d_4_24)">
<circle cx="92.5" cy="175.5" r="20.5" fill="#D9D9D9"/>
</g>
<path d="M33.0469 42L28.3906 26H32.6641L35.0781 36.4844H35.2109L37.9688 26H41.4531L44.2109 36.5078H44.3438L46.7656 26H51.0312L46.3828 42H42.6563L39.7734 32.2969H39.6484L36.7656 42H33.0469ZM56.4492 35.1562V42H52.6289V26H56.3242V32.2031H56.457C56.7279 31.4635 57.1706 30.8854 57.7852 30.4687C58.4049 30.0521 59.1628 29.8438 60.0586 29.8438C60.9023 29.8438 61.6367 30.0313 62.2617 30.4063C62.8867 30.776 63.3711 31.2995 63.7148 31.9766C64.0638 32.6536 64.2357 33.4453 64.2305 34.3516V42H60.4102V35.1016C60.4154 34.4349 60.2487 33.9141 59.9102 33.5391C59.5716 33.1641 59.0951 32.9766 58.4805 32.9766C58.0794 32.9766 57.7253 33.0651 57.418 33.2422C57.1159 33.4141 56.8789 33.6615 56.707 33.9844C56.5404 34.3073 56.4544 34.6979 56.4492 35.1562ZM66.6152 42V30H70.4355V42H66.6152ZM68.5293 28.6016C67.9928 28.6016 67.5319 28.4245 67.1465 28.0703C66.7611 27.7109 66.5684 27.2786 66.5684 26.7734C66.5684 26.2734 66.7611 25.8464 67.1465 25.4922C67.5319 25.1328 67.9928 24.9531 68.5293 24.9531C69.071 24.9531 69.5319 25.1328 69.9121 25.4922C70.2975 25.8464 70.4902 26.2734 70.4902 26.7734C70.4902 27.2786 70.2975 27.7109 69.9121 28.0703C69.5319 28.4245 69.071 28.6016 68.5293 28.6016ZM76.6875 26V42H72.8672V26H76.6875ZM84.7285 42.2266C83.4733 42.2266 82.39 41.9792 81.4785 41.4844C80.5723 40.9844 79.8743 40.2734 79.3848 39.3516C78.9004 38.4245 78.6582 37.3229 78.6582 36.0469C78.6582 34.8073 78.903 33.724 79.3926 32.7969C79.8822 31.8646 80.5723 31.1406 81.4629 30.625C82.3535 30.1042 83.403 29.8438 84.6113 29.8438C85.4655 29.8438 86.2467 29.9766 86.9551 30.2422C87.6634 30.5078 88.2754 30.901 88.791 31.4219C89.3066 31.9427 89.7077 32.5859 89.9941 33.3516C90.2806 34.112 90.4238 34.9844 90.4238 35.9687V36.9219H79.9941V34.7031H86.8691C86.8639 34.2969 86.7676 33.9349 86.5801 33.6172C86.3926 33.2995 86.1348 33.0521 85.8066 32.875C85.4837 32.6927 85.1113 32.6016 84.6895 32.6016C84.2624 32.6016 83.8796 32.6979 83.541 32.8906C83.2025 33.0781 82.9342 33.3359 82.7363 33.6641C82.5384 33.987 82.4342 34.3542 82.4238 34.7656V37.0234C82.4238 37.513 82.5202 37.9427 82.7129 38.3125C82.9056 38.6771 83.179 38.9609 83.5332 39.1641C83.8874 39.3672 84.3092 39.4687 84.7988 39.4687C85.1374 39.4687 85.4447 39.4219 85.7207 39.3281C85.9967 39.2344 86.2337 39.0964 86.4316 38.9141C86.6296 38.7318 86.778 38.5078 86.877 38.2422L90.3848 38.3437C90.2389 39.1302 89.9186 39.8151 89.4238 40.3984C88.9342 40.9766 88.291 41.4271 87.4941 41.75C86.6973 42.0677 85.7754 42.2266 84.7285 42.2266ZM96.5781 29.1406V26H110.102V29.1406H105.25V42H101.438V29.1406H96.5781ZM113.74 42.2031C112.975 42.2031 112.295 42.0755 111.701 41.8203C111.113 41.5599 110.646 41.1693 110.303 40.6484C109.964 40.1224 109.795 39.4635 109.795 38.6719C109.795 38.0052 109.912 37.4427 110.146 36.9844C110.381 36.526 110.704 36.1536 111.115 35.8672C111.527 35.5807 112.001 35.3646 112.537 35.2187C113.074 35.0677 113.646 34.9661 114.256 34.9141C114.938 34.8516 115.488 34.7865 115.904 34.7188C116.321 34.6458 116.623 34.5443 116.811 34.4141C117.003 34.2786 117.1 34.0885 117.1 33.8437V33.8047C117.1 33.4036 116.962 33.0937 116.686 32.875C116.41 32.6562 116.037 32.5469 115.568 32.5469C115.063 32.5469 114.657 32.6562 114.35 32.875C114.042 33.0937 113.847 33.3958 113.764 33.7812L110.24 33.6562C110.344 32.9271 110.613 32.276 111.045 31.7031C111.482 31.125 112.081 30.6719 112.842 30.3437C113.607 30.0104 114.527 29.8438 115.6 29.8438C116.365 29.8438 117.071 29.9349 117.717 30.1172C118.363 30.2943 118.925 30.5547 119.404 30.8984C119.883 31.237 120.253 31.6536 120.514 32.1484C120.779 32.6432 120.912 33.2083 120.912 33.8437V42H117.318V40.3281H117.225C117.011 40.7344 116.738 41.0781 116.404 41.3594C116.076 41.6406 115.688 41.8516 115.24 41.9922C114.798 42.1328 114.298 42.2031 113.74 42.2031ZM114.92 39.7031C115.331 39.7031 115.701 39.6198 116.029 39.4531C116.363 39.2865 116.628 39.0573 116.826 38.7656C117.024 38.4687 117.123 38.125 117.123 37.7344V36.5937C117.014 36.651 116.881 36.7031 116.725 36.75C116.574 36.7969 116.407 36.8411 116.225 36.8828C116.042 36.9245 115.855 36.9609 115.662 36.9922C115.469 37.0234 115.285 37.0521 115.107 37.0781C114.748 37.1354 114.441 37.224 114.186 37.3437C113.936 37.4635 113.743 37.6198 113.607 37.8125C113.477 38 113.412 38.224 113.412 38.4844C113.412 38.8802 113.553 39.1823 113.834 39.3906C114.12 39.599 114.482 39.7031 114.92 39.7031ZM123.248 46.5V30H127.029V32.0547H127.146C127.303 31.6901 127.524 31.3385 127.811 31C128.102 30.6615 128.472 30.3854 128.92 30.1719C129.373 29.9531 129.915 29.8438 130.545 29.8438C131.378 29.8438 132.157 30.0625 132.881 30.5C133.61 30.9375 134.199 31.612 134.646 32.5234C135.094 33.4349 135.318 34.5964 135.318 36.0078C135.318 37.3672 135.102 38.5052 134.67 39.4219C134.243 40.3385 133.665 41.026 132.936 41.4844C132.212 41.9427 131.407 42.1719 130.521 42.1719C129.917 42.1719 129.394 42.0729 128.951 41.875C128.508 41.6771 128.136 41.4167 127.834 41.0937C127.537 40.7708 127.308 40.4245 127.146 40.0547H127.068V46.5H123.248ZM126.99 36C126.99 36.6458 127.076 37.2083 127.248 37.6875C127.425 38.1667 127.678 38.5391 128.006 38.8047C128.339 39.0651 128.738 39.1953 129.201 39.1953C129.67 39.1953 130.068 39.0651 130.396 38.8047C130.725 38.5391 130.972 38.1667 131.139 37.6875C131.311 37.2083 131.396 36.6458 131.396 36C131.396 35.3542 131.311 34.7943 131.139 34.3203C130.972 33.8464 130.725 33.4792 130.396 33.2187C130.074 32.9583 129.675 32.8281 129.201 32.8281C128.732 32.8281 128.334 32.9557 128.006 33.2109C127.678 33.4661 127.425 33.8307 127.248 34.3047C127.076 34.7786 126.99 35.3437 126.99 36Z" fill="white"/>
<g filter="url(#filter4_d_4_24)">
<circle cx="353.5" cy="176.5" r="20.5" fill="#D9D9D9"/>
</g>
<path d="M353.75 177.75L357.5 186.75L358.85 182.85L362.75 181.5L353.75 177.75Z" stroke="#033A52" stroke-width="1.04167" stroke-linecap="round" stroke-linejoin="round"/>
<path d="M352.4 172.65L353 174.825" stroke="#033A52" stroke-width="1.04167" stroke-linecap="round" stroke-linejoin="round"/>
<path d="M350.825 177L348.65 176.4" stroke="#033A52" stroke-width="1.04167" stroke-linecap="round" stroke-linejoin="round"/>
<path d="M357.5 174.075L356 175.5" stroke="#033A52" stroke-width="1.04167" stroke-linecap="round" stroke-linejoin="round"/>
<path d="M351.5 180L350.075 181.5" stroke="#033A52" stroke-width="1.04167" stroke-linecap="round" stroke-linejoin="round"/>
<path d="M92.75 176.75L96.5 185.75L97.85 181.85L101.75 180.5L92.75 176.75Z" stroke="#033A52" stroke-width="1.04167" stroke-linecap="round" stroke-linejoin="round"/>
<path d="M91.3999 171.65L91.9999 173.825" stroke="#033A52" stroke-width="1.04167" stroke-linecap="round" stroke-linejoin="round"/>
<path d="M89.8249 176L87.6499 175.4" stroke="#033A52" stroke-width="1.04167" stroke-linecap="round" stroke-linejoin="round"/>
<path d="M96.5 173.075L95 174.5" stroke="#033A52" stroke-width="1.04167" stroke-linecap="round" stroke-linejoin="round"/>
<path d="M90.5 179L89.075 180.5" stroke="#033A52" stroke-width="1.04167" stroke-linecap="round" stroke-linejoin="round"/>
<path d="M238 174L248 179L238 184" stroke="white" stroke-width="1.04167" stroke-linecap="round" stroke-linejoin="round"/>
<path d="M198 179H248" stroke="white" stroke-width="1.04167" stroke-linecap="round" stroke-linejoin="round"/>
<path d="M194.768 166H193.384L197.389 155.091H198.753L202.759 166H201.374L198.114 156.817H198.028L194.768 166ZM195.28 161.739H200.862V162.911H195.28V161.739ZM207.931 157.818V158.884H203.52V157.818H207.931ZM204.841 166V156.689C204.841 156.22 204.951 155.83 205.172 155.517C205.392 155.205 205.678 154.97 206.029 154.814C206.381 154.658 206.752 154.58 207.142 154.58C207.451 154.58 207.703 154.604 207.899 154.654C208.094 154.704 208.24 154.75 208.336 154.793L207.973 155.879C207.909 155.858 207.821 155.831 207.707 155.799C207.597 155.767 207.451 155.751 207.27 155.751C206.855 155.751 206.555 155.856 206.37 156.066C206.189 156.275 206.098 156.582 206.098 156.987V166H204.841ZM213.251 157.818V158.884H209.011V157.818H213.251ZM210.247 155.858H211.504V163.656C211.504 164.011 211.555 164.278 211.658 164.455C211.765 164.629 211.9 164.746 212.063 164.807C212.23 164.864 212.406 164.892 212.59 164.892C212.729 164.892 212.842 164.885 212.931 164.871C213.02 164.853 213.091 164.839 213.144 164.828L213.4 165.957C213.315 165.989 213.196 166.021 213.043 166.053C212.89 166.089 212.697 166.107 212.462 166.107C212.107 166.107 211.759 166.03 211.418 165.877C211.081 165.725 210.801 165.492 210.577 165.18C210.357 164.867 210.247 164.473 210.247 163.997V155.858ZM218.484 166.17C217.696 166.17 217.016 165.996 216.444 165.648C215.876 165.297 215.437 164.807 215.128 164.178C214.823 163.546 214.67 162.811 214.67 161.973C214.67 161.135 214.823 160.396 215.128 159.757C215.437 159.114 215.867 158.614 216.418 158.255C216.972 157.893 217.618 157.712 218.356 157.712C218.783 157.712 219.203 157.783 219.619 157.925C220.034 158.067 220.413 158.298 220.753 158.617C221.094 158.933 221.366 159.352 221.568 159.874C221.771 160.396 221.872 161.039 221.872 161.803V162.335H215.565V161.249H220.594C220.594 160.787 220.501 160.375 220.317 160.013C220.136 159.651 219.876 159.365 219.539 159.155C219.205 158.946 218.811 158.841 218.356 158.841C217.856 158.841 217.422 158.965 217.057 159.214C216.695 159.459 216.416 159.778 216.22 160.173C216.025 160.567 215.927 160.989 215.927 161.44V162.165C215.927 162.783 216.034 163.306 216.247 163.736C216.464 164.162 216.764 164.487 217.147 164.711C217.531 164.931 217.976 165.041 218.484 165.041C218.815 165.041 219.113 164.995 219.379 164.903C219.649 164.807 219.882 164.665 220.077 164.477C220.272 164.285 220.423 164.047 220.53 163.763L221.744 164.104C221.616 164.516 221.402 164.878 221.1 165.19C220.798 165.499 220.425 165.741 219.981 165.915C219.537 166.085 219.038 166.17 218.484 166.17ZM223.784 166V157.818H224.999V159.054H225.084C225.233 158.649 225.503 158.321 225.894 158.069C226.284 157.816 226.725 157.69 227.215 157.69C227.307 157.69 227.422 157.692 227.561 157.696C227.699 157.699 227.804 157.705 227.875 157.712V158.99C227.833 158.979 227.735 158.963 227.582 158.942C227.433 158.917 227.275 158.905 227.108 158.905C226.71 158.905 226.355 158.988 226.043 159.155C225.734 159.319 225.489 159.546 225.308 159.837C225.13 160.125 225.041 160.453 225.041 160.822V166H223.784ZM233.158 156.263V155.091H241.34V156.263H237.909V166H236.588V156.263H233.158ZM244.503 166.192C243.984 166.192 243.514 166.094 243.091 165.899C242.668 165.7 242.333 165.414 242.084 165.041C241.836 164.665 241.711 164.21 241.711 163.678C241.711 163.209 241.804 162.829 241.988 162.538C242.173 162.243 242.42 162.012 242.729 161.845C243.038 161.678 243.379 161.554 243.752 161.472C244.128 161.387 244.506 161.32 244.886 161.27C245.383 161.206 245.786 161.158 246.095 161.126C246.408 161.091 246.635 161.032 246.777 160.95C246.923 160.869 246.995 160.727 246.995 160.524V160.482C246.995 159.956 246.852 159.548 246.564 159.256C246.28 158.965 245.848 158.82 245.27 158.82C244.669 158.82 244.199 158.951 243.858 159.214C243.517 159.477 243.277 159.757 243.139 160.055L241.946 159.629C242.159 159.132 242.443 158.745 242.798 158.468C243.157 158.187 243.547 157.992 243.97 157.882C244.396 157.768 244.815 157.712 245.227 157.712C245.49 157.712 245.792 157.744 246.133 157.808C246.477 157.868 246.809 157.994 247.129 158.186C247.452 158.377 247.72 158.667 247.933 159.054C248.146 159.441 248.253 159.96 248.253 160.609V166H246.995V164.892H246.932C246.846 165.07 246.704 165.26 246.505 165.462C246.307 165.664 246.042 165.837 245.712 165.979C245.381 166.121 244.978 166.192 244.503 166.192ZM244.694 165.062C245.191 165.062 245.611 164.965 245.951 164.77C246.296 164.574 246.555 164.322 246.729 164.013C246.907 163.704 246.995 163.379 246.995 163.038V161.888C246.942 161.952 246.825 162.01 246.644 162.064C246.466 162.113 246.26 162.158 246.026 162.197C245.795 162.232 245.57 162.264 245.35 162.293C245.133 162.317 244.957 162.339 244.822 162.357C244.495 162.399 244.19 162.468 243.906 162.564C243.625 162.657 243.398 162.797 243.224 162.985C243.054 163.17 242.968 163.422 242.968 163.741C242.968 164.178 243.13 164.509 243.453 164.732C243.78 164.952 244.194 165.062 244.694 165.062ZM250.547 169.068V157.818H251.762V159.118H251.911C252.003 158.976 252.131 158.795 252.294 158.575C252.461 158.351 252.699 158.152 253.008 157.978C253.32 157.8 253.743 157.712 254.276 157.712C254.965 157.712 255.572 157.884 256.097 158.228C256.623 158.573 257.033 159.061 257.328 159.693C257.623 160.325 257.77 161.071 257.77 161.93C257.77 162.797 257.623 163.548 257.328 164.184C257.033 164.816 256.625 165.306 256.103 165.654C255.581 165.998 254.979 166.17 254.297 166.17C253.771 166.17 253.351 166.083 253.035 165.909C252.719 165.732 252.475 165.531 252.305 165.308C252.134 165.08 252.003 164.892 251.911 164.743H251.804V169.068H250.547ZM251.783 161.909C251.783 162.527 251.873 163.072 252.055 163.544C252.236 164.013 252.5 164.381 252.848 164.647C253.196 164.91 253.622 165.041 254.127 165.041C254.652 165.041 255.091 164.903 255.442 164.626C255.797 164.345 256.064 163.969 256.241 163.496C256.422 163.021 256.513 162.491 256.513 161.909C256.513 161.334 256.424 160.815 256.247 160.354C256.073 159.888 255.808 159.521 255.453 159.251C255.101 158.978 254.659 158.841 254.127 158.841C253.615 158.841 253.186 158.971 252.838 159.23C252.49 159.485 252.227 159.844 252.049 160.306C251.872 160.764 251.783 161.298 251.783 161.909Z" fill="white"/>
<path d="M320.438 34.56C319.782 34.56 319.274 34.39 318.914 34.05C318.554 33.71 318.374 33.22 318.374 32.58V30.516C318.374 30.168 318.29 29.914 318.122 29.754C317.954 29.594 317.708 29.514 317.384 29.514H317.216V28.722H317.384C317.708 28.722 317.954 28.642 318.122 28.482C318.29 28.318 318.374 28.066 318.374 27.726V25.98C318.374 25.34 318.554 24.85 318.914 24.51C319.274 24.17 319.782 24 320.438 24C320.598 24 320.75 24.006 320.894 24.018C321.042 24.03 321.17 24.046 321.278 24.066V24.816H320.534C320.154 24.816 319.858 24.91 319.646 25.098C319.434 25.286 319.328 25.578 319.328 25.974V27.672C319.328 28.124 319.23 28.474 319.034 28.722C318.838 28.97 318.522 29.124 318.086 29.184V29.058C318.522 29.114 318.838 29.266 319.034 29.514C319.23 29.762 319.328 30.114 319.328 30.57V32.586C319.328 32.978 319.434 33.268 319.646 33.456C319.858 33.648 320.154 33.744 320.534 33.744H321.278V34.494C321.17 34.51 321.042 34.524 320.894 34.536C320.75 34.552 320.598 34.56 320.438 34.56ZM328.615 48V40.986C328.915 40.93 329.239 40.882 329.587 40.842C329.935 40.802 330.303 40.782 330.691 40.782C331.707 40.782 332.463 40.958 332.959 41.31C333.459 41.658 333.709 42.2 333.709 42.936C333.713 43.416 333.593 43.818 333.349 44.142C333.109 44.462 332.755 44.704 332.287 44.868C331.823 45.032 331.253 45.114 330.577 45.114C330.401 45.114 330.229 45.112 330.061 45.108C329.897 45.1 329.735 45.088 329.575 45.072V48H328.615ZM333.193 48L330.577 44.652H331.651L334.303 48H333.193ZM330.577 44.394C331.357 44.394 331.921 44.276 332.269 44.04C332.617 43.8 332.791 43.436 332.791 42.948C332.791 42.432 332.629 42.062 332.305 41.838C331.985 41.614 331.469 41.502 330.757 41.502C330.521 41.502 330.309 41.51 330.121 41.526C329.937 41.542 329.755 41.568 329.575 41.604V44.352C329.763 44.364 329.927 44.374 330.067 44.382C330.207 44.39 330.377 44.394 330.577 44.394ZM338.731 48.09C338.083 48.09 337.517 47.962 337.033 47.706C336.553 47.45 336.179 47.054 335.911 46.518C335.647 45.978 335.515 45.284 335.515 44.436C335.515 43.584 335.649 42.888 335.917 42.348C336.185 41.808 336.559 41.41 337.039 41.154C337.523 40.898 338.087 40.77 338.731 40.77C339.375 40.77 339.939 40.898 340.423 41.154C340.907 41.41 341.281 41.808 341.545 42.348C341.813 42.888 341.947 43.584 341.947 44.436C341.947 45.284 341.813 45.978 341.545 46.518C341.277 47.054 340.901 47.45 340.417 47.706C339.933 47.962 339.371 48.09 338.731 48.09ZM338.731 47.304C339.179 47.304 339.569 47.212 339.901 47.028C340.237 46.84 340.497 46.538 340.681 46.122C340.865 45.706 340.957 45.15 340.957 44.454C340.957 43.742 340.865 43.174 340.681 42.75C340.497 42.326 340.237 42.022 339.901 41.838C339.569 41.65 339.179 41.556 338.731 41.556C338.283 41.556 337.893 41.648 337.561 41.832C337.229 42.016 336.971 42.318 336.787 42.738C336.603 43.154 336.511 43.71 336.511 44.406C336.511 45.118 336.601 45.686 336.781 46.11C336.965 46.534 337.223 46.84 337.555 47.028C337.887 47.212 338.279 47.304 338.731 47.304ZM345.256 48V41.658H342.754V40.86H348.73V41.658H346.228V48H345.256ZM348.665 48L351.335 40.86H352.715L355.397 48H354.413L351.947 41.28H352.091L349.619 48H348.665ZM350.129 45.774L350.351 45.006H353.699L353.915 45.774H350.129ZM357.835 48V41.658H355.333V40.86H361.309V41.658H358.807V48H357.835ZM363.021 48V40.86H367.815V41.622H363.975V47.238H367.869V48H363.021ZM363.621 44.724V43.968H367.317V44.724H363.621ZM373.816 48.078C373.608 48.078 373.44 48.018 373.312 47.898C373.188 47.778 373.126 47.616 373.126 47.412C373.126 47.208 373.188 47.046 373.312 46.926C373.436 46.806 373.604 46.746 373.816 46.746C374.024 46.746 374.19 46.808 374.314 46.932C374.442 47.052 374.506 47.212 374.506 47.412C374.506 47.612 374.442 47.774 374.314 47.898C374.186 48.018 374.02 48.078 373.816 48.078ZM373.816 42.75C373.608 42.75 373.44 42.69 373.312 42.57C373.188 42.45 373.126 42.288 373.126 42.084C373.126 41.88 373.188 41.718 373.312 41.598C373.436 41.478 373.604 41.418 373.816 41.418C374.024 41.418 374.19 41.48 374.314 41.604C374.442 41.724 374.506 41.884 374.506 42.084C374.506 42.284 374.442 42.446 374.314 42.57C374.186 42.69 374.02 42.75 373.816 42.75ZM379.613 45.87V45.33L383.057 39.12H384.035L380.591 45.336L380.453 45.078H386.165V45.87H379.613ZM384.011 48V45.078L384.131 42.12H384.911V48H384.011ZM389.385 48.114C389.009 48.114 388.637 48.082 388.269 48.018C387.901 47.958 387.557 47.874 387.237 47.766V46.974C387.573 47.082 387.925 47.168 388.293 47.232C388.661 47.292 389.019 47.322 389.367 47.322C390.127 47.322 390.693 47.17 391.065 46.866C391.441 46.562 391.629 46.11 391.629 45.51C391.629 45.122 391.535 44.8 391.347 44.544C391.163 44.284 390.857 44.082 390.429 43.938C390.001 43.794 389.419 43.702 388.683 43.662L387.567 43.596L387.867 39.12H392.199V39.912H388.329L388.767 39.516L388.515 43.242L387.897 42.822L389.013 42.882C389.849 42.934 390.529 43.062 391.053 43.266C391.577 43.47 391.959 43.756 392.199 44.124C392.443 44.492 392.565 44.948 392.565 45.492C392.565 46.344 392.295 46.994 391.755 47.442C391.219 47.89 390.429 48.114 389.385 48.114ZM330.079 63.09C329.767 63.09 329.443 63.066 329.107 63.018C328.775 62.97 328.465 62.9 328.177 62.808V62.01C328.393 62.074 328.611 62.128 328.831 62.172C329.055 62.216 329.273 62.25 329.485 62.274C329.697 62.294 329.897 62.304 330.085 62.304C330.501 62.304 330.841 62.258 331.105 62.166C331.373 62.07 331.569 61.932 331.693 61.752C331.821 61.568 331.885 61.346 331.885 61.086C331.885 60.866 331.841 60.68 331.753 60.528C331.669 60.376 331.523 60.246 331.315 60.138C331.107 60.03 330.821 59.934 330.457 59.85L330.079 59.766C329.363 59.606 328.843 59.37 328.519 59.058C328.199 58.742 328.039 58.318 328.039 57.786C328.039 57.386 328.139 57.036 328.339 56.736C328.543 56.432 328.851 56.196 329.263 56.028C329.679 55.856 330.205 55.77 330.841 55.77C331.129 55.77 331.417 55.788 331.705 55.824C331.997 55.86 332.261 55.91 332.497 55.974V56.778C332.229 56.702 331.957 56.646 331.681 56.61C331.409 56.57 331.133 56.55 330.853 56.55C330.413 56.55 330.057 56.598 329.785 56.694C329.513 56.79 329.313 56.926 329.185 57.102C329.061 57.278 328.999 57.49 328.999 57.738C328.999 58.07 329.095 58.328 329.287 58.512C329.483 58.692 329.849 58.846 330.385 58.974L330.763 59.058C331.255 59.166 331.653 59.306 331.957 59.478C332.261 59.65 332.483 59.864 332.623 60.12C332.767 60.376 332.839 60.68 332.839 61.032C332.839 61.452 332.735 61.816 332.527 62.124C332.319 62.428 332.009 62.666 331.597 62.838C331.189 63.006 330.683 63.09 330.079 63.09ZM337.976 63.09C337.256 63.09 336.632 62.97 336.104 62.73C335.58 62.49 335.174 62.104 334.886 61.572C334.602 61.036 334.46 60.326 334.46 59.442C334.46 58.594 334.602 57.9 334.886 57.36C335.174 56.816 335.586 56.416 336.122 56.16C336.658 55.9 337.304 55.77 338.06 55.77C338.348 55.77 338.628 55.786 338.9 55.818C339.176 55.85 339.44 55.9 339.692 55.968V56.778C339.432 56.71 339.172 56.66 338.912 56.628C338.652 56.596 338.386 56.58 338.114 56.58C337.542 56.58 337.06 56.674 336.668 56.862C336.276 57.046 335.98 57.348 335.78 57.768C335.58 58.184 335.48 58.738 335.48 59.43C335.48 60.146 335.58 60.712 335.78 61.128C335.984 61.544 336.278 61.84 336.662 62.016C337.046 62.192 337.51 62.28 338.054 62.28C338.33 62.28 338.598 62.26 338.858 62.22C339.122 62.176 339.4 62.11 339.692 62.022V62.832C339.444 62.912 339.174 62.974 338.882 63.018C338.594 63.066 338.292 63.09 337.976 63.09ZM340.717 63L343.387 55.86H344.767L347.449 63H346.465L343.999 56.28H344.143L341.671 63H340.717ZM342.181 60.774L342.403 60.006H345.751L345.967 60.774H342.181ZM349.259 63V55.86H350.231V62.202H353.921V63H349.259ZM355.636 63V55.86H360.43V56.622H356.59V62.238H360.484V63H355.636ZM356.236 59.724V58.968H359.932V59.724H356.236ZM366.431 63.078C366.223 63.078 366.055 63.018 365.927 62.898C365.803 62.778 365.741 62.616 365.741 62.412C365.741 62.208 365.803 62.046 365.927 61.926C366.051 61.806 366.219 61.746 366.431 61.746C366.639 61.746 366.805 61.808 366.929 61.932C367.057 62.052 367.121 62.212 367.121 62.412C367.121 62.612 367.057 62.774 366.929 62.898C366.801 63.018 366.635 63.078 366.431 63.078ZM366.431 57.75C366.223 57.75 366.055 57.69 365.927 57.57C365.803 57.45 365.741 57.288 365.741 57.084C365.741 56.88 365.803 56.718 365.927 56.598C366.051 56.478 366.219 56.418 366.431 56.418C366.639 56.418 366.805 56.48 366.929 56.604C367.057 56.724 367.121 56.884 367.121 57.084C367.121 57.284 367.057 57.446 366.929 57.57C366.801 57.69 366.635 57.75 366.431 57.75ZM375.684 63.114C375.064 63.114 374.524 62.964 374.064 62.664C373.608 62.364 373.254 61.88 373.002 61.212C372.754 60.544 372.63 59.66 372.63 58.56C372.63 57.46 372.754 56.576 373.002 55.908C373.25 55.24 373.602 54.756 374.058 54.456C374.514 54.156 375.056 54.006 375.684 54.006C376.316 54.006 376.86 54.156 377.316 54.456C377.772 54.756 378.124 55.24 378.372 55.908C378.62 56.576 378.744 57.46 378.744 58.56C378.744 59.66 378.618 60.544 378.366 61.212C378.118 61.88 377.764 62.364 377.304 62.664C376.848 62.964 376.308 63.114 375.684 63.114ZM375.69 62.274C376.11 62.274 376.476 62.164 376.788 61.944C377.1 61.724 377.34 61.346 377.508 60.81C377.68 60.27 377.766 59.526 377.766 58.578C377.766 57.618 377.68 56.868 377.508 56.328C377.34 55.784 377.1 55.402 376.788 55.182C376.476 54.958 376.11 54.846 375.69 54.846C375.266 54.846 374.898 54.956 374.586 55.176C374.274 55.396 374.032 55.776 373.86 56.316C373.692 56.852 373.608 57.594 373.608 58.542C373.608 59.502 373.692 60.254 373.86 60.798C374.032 61.338 374.274 61.72 374.586 61.944C374.898 62.164 375.266 62.274 375.69 62.274ZM380.992 63.078C380.784 63.078 380.616 63.018 380.488 62.898C380.364 62.778 380.302 62.616 380.302 62.412C380.302 62.208 380.364 62.046 380.488 61.926C380.612 61.806 380.78 61.746 380.992 61.746C381.2 61.746 381.366 61.808 381.49 61.932C381.618 62.052 381.682 62.212 381.682 62.412C381.682 62.612 381.618 62.774 381.49 62.898C381.362 63.018 381.196 63.078 380.992 63.078ZM386.688 63.114C385.984 63.114 385.394 63.02 384.918 62.832C384.442 62.644 384.084 62.376 383.844 62.028C383.604 61.68 383.484 61.262 383.484 60.774C383.484 60.202 383.652 59.708 383.988 59.292C384.328 58.876 384.8 58.568 385.404 58.368L386.136 58.674C385.576 58.834 385.15 59.094 384.858 59.454C384.566 59.81 384.42 60.22 384.42 60.684C384.42 61.228 384.61 61.646 384.99 61.938C385.374 62.226 385.942 62.37 386.694 62.37C387.394 62.37 387.928 62.232 388.296 61.956C388.664 61.676 388.848 61.282 388.848 60.774C388.848 60.45 388.778 60.176 388.638 59.952C388.498 59.728 388.264 59.536 387.936 59.376C387.608 59.216 387.162 59.068 386.598 58.932C385.906 58.768 385.352 58.566 384.936 58.326C384.524 58.082 384.226 57.796 384.042 57.468C383.862 57.136 383.772 56.754 383.772 56.322C383.772 55.854 383.884 55.448 384.108 55.104C384.332 54.756 384.66 54.486 385.092 54.294C385.524 54.102 386.046 54.006 386.658 54.006C387.546 54.006 388.24 54.206 388.74 54.606C389.244 55.006 389.496 55.554 389.496 56.25C389.496 56.602 389.43 56.926 389.298 57.222C389.17 57.518 388.976 57.78 388.716 58.008C388.456 58.236 388.128 58.428 387.732 58.584L387.048 58.284C387.604 58.048 388.004 57.778 388.248 57.474C388.496 57.166 388.62 56.782 388.62 56.322C388.62 55.81 388.448 55.42 388.104 55.152C387.76 54.884 387.274 54.75 386.646 54.75C386.006 54.75 385.524 54.89 385.2 55.17C384.88 55.446 384.72 55.82 384.72 56.292C384.72 56.608 384.786 56.88 384.918 57.108C385.05 57.336 385.28 57.536 385.608 57.708C385.936 57.88 386.392 58.036 386.976 58.176C387.668 58.348 388.218 58.55 388.626 58.782C389.038 59.014 389.334 59.288 389.514 59.604C389.694 59.92 389.784 60.29 389.784 60.714C389.784 61.19 389.664 61.608 389.424 61.968C389.188 62.328 388.84 62.61 388.38 62.814C387.92 63.014 387.356 63.114 386.688 63.114ZM317.618 79.56C317.462 79.56 317.312 79.552 317.168 79.536C317.024 79.524 316.896 79.51 316.784 79.494V78.744H317.528C317.908 78.744 318.204 78.648 318.416 78.456C318.628 78.268 318.734 77.978 318.734 77.586V75.57C318.734 75.114 318.832 74.762 319.028 74.514C319.228 74.266 319.544 74.114 319.976 74.058V74.184C319.544 74.124 319.228 73.97 319.028 73.722C318.832 73.474 318.734 73.124 318.734 72.672V70.974C318.734 70.578 318.628 70.286 318.416 70.098C318.204 69.91 317.908 69.816 317.528 69.816H316.784V69.066C316.896 69.046 317.024 69.03 317.168 69.018C317.312 69.006 317.462 69 317.618 69C318.282 69 318.792 69.17 319.148 69.51C319.508 69.85 319.688 70.34 319.688 70.98V72.726C319.688 73.066 319.772 73.318 319.94 73.482C320.108 73.642 320.352 73.722 320.672 73.722H320.846V74.514H320.672C320.352 74.514 320.108 74.594 319.94 74.754C319.772 74.914 319.688 75.168 319.688 75.516V77.58C319.688 78.22 319.508 78.71 319.148 79.05C318.792 79.39 318.282 79.56 317.618 79.56Z" fill="white"/>
</g>
<defs>
<filter id="filter0_d_4_24" x="297" y="16" width="130" height="79" filterUnits="userSpaceOnUse" color-interpolation-filters="sRGB">
<feFlood flood-opacity="0" result="BackgroundImageFix"/>
<feColorMatrix in="SourceAlpha" type="matrix" values="0 0 0 0 0 0 0 0 0 0 0 0 0 0 0 0 0 0 127 0" result="hardAlpha"/>
<feOffset dy="4"/>
<feGaussianBlur stdDeviation="2"/>
<feComposite in2="hardAlpha" operator="out"/>
<feColorMatrix type="matrix" values="0 0 0 0 0 0 0 0 0 0 0 0 0 0 0 0 0 0 0.25 0"/>
<feBlend mode="normal" in2="BackgroundImageFix" result="effect1_dropShadow_4_24"/>
<feBlend mode="normal" in="SourceGraphic" in2="effect1_dropShadow_4_24" result="shape"/>
</filter>
<filter id="filter1_d_4_24" x="19" y="103" width="148" height="148" filterUnits="userSpaceOnUse" color-interpolation-filters="sRGB">
<feFlood flood-opacity="0" result="BackgroundImageFix"/>
<feColorMatrix in="SourceAlpha" type="matrix" values="0 0 0 0 0 0 0 0 0 0 0 0 0 0 0 0 0 0 127 0" result="hardAlpha"/>
<feOffset dy="4"/>
<feGaussianBlur stdDeviation="2"/>
<feComposite in2="hardAlpha" operator="out"/>
<feColorMatrix type="matrix" values="0 0 0 0 0 0 0 0 0 0 0 0 0 0 0 0 0 0 0.25 0"/>
<feBlend mode="normal" in2="BackgroundImageFix" result="effect1_dropShadow_4_24"/>
<feBlend mode="normal" in="SourceGraphic" in2="effect1_dropShadow_4_24" result="shape"/>
</filter>
<filter id="filter2_d_4_24" x="275.355" y="101.355" width="156.995" height="156.995" filterUnits="userSpaceOnUse" color-interpolation-filters="sRGB">
<feFlood flood-opacity="0" result="BackgroundImageFix"/>
<feColorMatrix in="SourceAlpha" type="matrix" values="0 0 0 0 0 0 0 0 0 0 0 0 0 0 0 0 0 0 127 0" result="hardAlpha"/>
<feOffset dy="4"/>
<feGaussianBlur stdDeviation="2"/>
<feComposite in2="hardAlpha" operator="out"/>
<feColorMatrix type="matrix" values="0 0 0 0 0 0 0 0 0 0 0 0 0 0 0 0 0 0 0.25 0"/>
<feBlend mode="normal" in2="BackgroundImageFix" result="effect1_dropShadow_4_24"/>
<feBlend mode="normal" in="SourceGraphic" in2="effect1_dropShadow_4_24" result="shape"/>
</filter>
<filter id="filter3_d_4_24" x="68" y="153" width="49" height="49" filterUnits="userSpaceOnUse" color-interpolation-filters="sRGB">
<feFlood flood-opacity="0" result="BackgroundImageFix"/>
<feColorMatrix in="SourceAlpha" type="matrix" values="0 0 0 0 0 0 0 0 0 0 0 0 0 0 0 0 0 0 127 0" result="hardAlpha"/>
<feOffset dy="2"/>
<feGaussianBlur stdDeviation="2"/>
<feComposite in2="hardAlpha" operator="out"/>
<feColorMatrix type="matrix" values="0 0 0 0 0 0 0 0 0 0 0 0 0 0 0 0 0 0 0.25 0"/>
<feBlend mode="normal" in2="BackgroundImageFix" result="effect1_dropShadow_4_24"/>
<feBlend mode="normal" in="SourceGraphic" in2="effect1_dropShadow_4_24" result="shape"/>
</filter>
<filter id="filter4_d_4_24" x="329" y="154" width="49" height="49" filterUnits="userSpaceOnUse" color-interpolation-filters="sRGB">
<feFlood flood-opacity="0" result="BackgroundImageFix"/>
<feColorMatrix in="SourceAlpha" type="matrix" values="0 0 0 0 0 0 0 0 0 0 0 0 0 0 0 0 0 0 127 0" result="hardAlpha"/>
<feOffset dy="2"/>
<feGaussianBlur stdDeviation="2"/>
<feComposite in2="hardAlpha" operator="out"/>
<feColorMatrix type="matrix" values="0 0 0 0 0 0 0 0 0 0 0 0 0 0 0 0 0 0 0.25 0"/>
<feBlend mode="normal" in2="BackgroundImageFix" result="effect1_dropShadow_4_24"/>
<feBlend mode="normal" in="SourceGraphic" in2="effect1_dropShadow_4_24" result="shape"/>
</filter>
<clipPath id="clip0_4_24">
<rect width="491" height="336" fill="white"/>
</clipPath>
</defs>
</svg>
